<svg xmlns="http://www.w3.org/2000/svg" height="1024" preserveAspectRatio="none" style="display: block;" version="1.1" viewBox="0 0 2048 2048" width="1024">
<defs>
	<linearGradient gradientUnits="userSpaceOnUse" id="Gradient1" x1="124.762" x2="241.207" y1="774.434" y2="1111.06">
		<stop class="stop0" offset="0" stop-color="rgb(119,146,212)" stop-opacity="1"></stop>
		<stop class="stop1" offset="1" stop-color="rgb(136,176,219)" stop-opacity="1"></stop>
	</linearGradient>
	<linearGradient gradientUnits="userSpaceOnUse" id="Gradient2" x1="384.798" x2="417.117" y1="583.473" y2="807.96">
		<stop class="stop0" offset="0" stop-color="rgb(111,131,209)" stop-opacity="1"></stop>
		<stop class="stop1" offset="1" stop-color="rgb(128,162,215)" stop-opacity="1"></stop>
	</linearGradient>
	<linearGradient gradientUnits="userSpaceOnUse" id="Gradient3" x1="1960.56" x2="1867.16" y1="494.542" y2="1033.6">
		<stop class="stop0" offset="0" stop-color="rgb(103,118,207)" stop-opacity="1"></stop>
		<stop class="stop1" offset="1" stop-color="rgb(131,170,220)" stop-opacity="1"></stop>
	</linearGradient>
	<linearGradient gradientUnits="userSpaceOnUse" id="Gradient4" x1="959.935" x2="1090.27" y1="2109.73" y2="430.997">
		<stop class="stop0" offset="0" stop-color="rgb(70,51,203)" stop-opacity="1"></stop>
		<stop class="stop1" offset="1" stop-color="rgb(132,164,214)" stop-opacity="1"></stop>
	</linearGradient>
</defs>
<path d="M 0 0 L 18.6504 0 L 82.6043 0 L 288.797 0 L 330.862 0 L 430.675 0 L 458.394 0 L 487.445 0 L 520.149 0 L 610.89 0 L 637.064 0 L 692.267 0 L 727.596 0 L 835.656 0 L 861.012 0 L 1000.99 0 L 1036.3 0 L 1230 0 L 1318.14 0 L 1545.99 0 L 1679.13 0 L 2039.93 0 L 2048 0 L 2048 31.0047 L 2048 59.1018 L 2048 131.334 L 2048 206.729 L 2048 256.061 L 2048 363.082 L 2048 410.455 L 2048 467.966 L 2048 503.812 L 2048 800.043 L 2048 825.168 L 2048 1064.03 L 2048 1189.44 L 2048 1226.06 L 2048 1534.59 L 2048 1567.46 L 2048 1941.97 L 2048 2027.39 L 2048 2048 L 1951.98 2048 L 1902.02 2048 L 1838 2048 L 1805.74 2048 L 1285.94 2048 L 1253.6 2048 L 1075.81 2048 L 1037.63 2048 L 663.039 2048 L 633.15 2048 L 544.563 2048 L 503.171 2048 L 190.318 2048 L 151.455 2048 L 0 2048 L 0 1976.55 L 0 1928.04 L 0 1763.23 L 0 1710.8 L 0 1513.13 L 0 1471.97 L 0 1367.74 L 0 1282.86 L 0 1251.36 L 0 1220.38 L 0 1185.04 L 0 1120.52 L 0 1096.08 L 0 1032.59 L 0 1008.03 L 0 830.793 L 0 793.009 L 0 744.599 L 0 727.225 L 0 694.374 L 0 669.11 L 0 628.421 L 0 582.94 L 0 556.655 L 0 517.921 L 0 474.565 L 0 441.095 L 0 369.24 L 0 336.802 L 0 80.1115 L 0 44.2057 L 0 0 z" fill="url(#Gradient4)" transform="translate(0,0)"></path>
<path d="M 0 0 L 18.6504 0 L 82.6043 0 L 288.797 0 L 330.862 0 L 430.675 0 L 458.394 0 L 487.445 0 L 520.149 0 L 610.89 0 L 637.064 0 L 692.267 0 L 727.596 0 L 835.656 0 L 861.012 0 L 1000.99 0 L 1036.3 0 L 1230 0 L 1318.14 0 L 1545.99 0 L 1679.13 0 L 2039.93 0 L 2048 0 L 2048 31.0047 L 2048 59.1018 L 2048 131.334 L 2048 206.729 L 2048 256.061 L 2048 363.082 L 2048 410.455 L 2048 467.966 L 2048 503.812 L 2048 800.043 L 2048 825.168 L 2048 1064.03 L 2048 1189.44 C 2009.32 1167.41 1972.07 1142.85 1934.18 1119.58 C 1863.55 1076.37 1792.57 1033.73 1721.26 991.649 C 1705.94 982.634 1690.68 973.512 1675.49 964.284 C 1666.35 958.653 1656.6 951.804 1647.22 946.952 C 1642.6 937.138 1640.27 925.425 1635.6 915.693 C 1620.94 885.088 1608.74 854.115 1596.01 822.724 C 1604.05 810.123 1631.59 780.334 1643.02 766.164 C 1719.12 671.796 1803.13 583.558 1883.56 493.05 C 1833.53 489.001 1779.69 487.156 1729.2 484.229 L 1465.99 468.754 C 1473.87 487.612 1482 507.038 1489.17 526.164 C 1498.46 550.904 1506.86 577.144 1518.53 600.891 C 1537.92 603.576 1571.74 605.225 1591.71 606.532 C 1644.59 609.993 1714.03 615.331 1766.32 607.46 C 1751.56 617.181 1727.89 630.852 1715.02 641.858 C 1704.54 650.814 1688.62 672.098 1678.72 683.665 C 1647.69 719.899 1614.87 757.008 1584.93 793.952 C 1570.9 768.732 1522.16 636.534 1509.97 628.617 C 1507.75 627.176 1505.85 626.843 1503.26 627.425 C 1500.26 628.099 1497.31 629.625 1495.52 632.128 C 1494.15 636.732 1494.79 643.122 1496.39 647.569 C 1516.7 704.241 1544.24 759.296 1564.42 815.958 C 1549.31 833.112 1534.61 851.899 1519.17 868.533 C 1507.84 863.226 1495.24 855.364 1484.31 849.028 L 1442.67 825.384 C 1373.62 785.51 1306.59 742.994 1238.09 703.318 L 1006.2 570.517 C 990.489 561.474 974.714 552.546 958.874 543.732 C 943.777 535.409 925.125 526.846 912.626 515.593 C 916.721 506.882 925.45 493.622 930.658 485.35 L 961.568 436.243 C 928.848 433.121 894.586 432.446 862.285 428.873 C 865.429 438.939 868.684 448.97 872.049 458.964 C 884.39 467.957 894.526 471.601 906.776 482.953 C 901.113 491.396 893.083 503.253 884.664 508.819 L 887.412 524.874 C 866.748 555.553 833.94 595.573 810.608 624.913 L 718.438 741.835 C 687.397 781.423 656.633 821.228 626.149 861.247 C 612.604 879.044 600.462 895.989 586.365 913.672 C 584.1 873.596 581.459 833.502 579.26 793.433 C 578.254 775.111 550.562 776.367 550.649 793.477 C 550.714 806.268 551.791 819.4 552.54 832.21 C 553.995 856.114 555.249 880.029 556.304 903.953 C 542.393 898.849 528.797 892.338 515.088 886.756 C 500.862 880.963 486.134 875.554 471.738 870.143 C 447.252 861.157 422.871 851.888 398.599 842.336 C 368.007 830.345 356.497 825.864 330.438 805.651 C 311.07 790.629 289.275 773.2 269.439 759.017 C 231.285 731.737 195.284 702.504 157.807 674.594 C 104.771 635.865 52.1651 596.55 -9.09495e-13 556.655 L 0 517.921 L 0 474.565 L 0 441.095 L 0 369.24 L 0 336.802 L 0 80.1115 L 0 44.2057 L 0 0 z" fill="rgb(254,254,254)" transform="translate(0,0)"></path>
<path d="M 1679.13 0 L 2039.93 0 C 1994.71 30.1276 1949.88 60.8309 1905.44 92.1023 C 1898.78 96.7222 1892.04 101.228 1885.26 105.664 C 1848.99 129.392 1814.62 155.812 1778.9 180.341 C 1693.25 238.459 1608.12 297.34 1523.52 356.98 C 1496.78 375.776 1469.07 393.919 1442.74 413.22 C 1427.7 371.838 1407.26 329.675 1393.23 289.615 C 1427.5 281.969 1463.03 278.861 1497.57 272.814 C 1510.01 270.636 1560.47 266.979 1559.92 250.916 C 1554.31 237.482 1536.11 243.258 1525.48 244.873 C 1478.62 251.987 1430.64 257.613 1384.3 267.526 C 1366.44 227.767 1349.51 187.602 1333.51 147.062 C 1338.74 143.718 1353.25 137.045 1359.4 133.972 L 1417.02 104.914 L 1488.97 67.6831 C 1497.7 63.17 1511.49 54.7107 1520.23 51.9622 C 1553.22 41.5853 1586.77 31.9745 1619.8 21.7727 C 1636.95 16.4751 1663.77 8.82935 1679.13 0 z" fill="rgb(94,106,210)" transform="translate(0,0)"></path>
<path d="M 1839.44 33.2452 C 1850.44 31.6632 1858.03 38.0918 1853.56 47.1424 C 1848.15 58.0831 1812.26 63.6721 1801.49 66.3571 C 1770.75 74.0982 1739.93 81.5241 1709.03 88.6334 C 1653.17 101.98 1593.01 118.764 1537.87 134.361 C 1521.45 136.848 1515.04 116.83 1539.22 109.178 C 1601.84 89.8305 1665.9 75.0623 1729.54 59.3608 C 1765.24 50.5501 1803.4 40.1119 1839.44 33.2452 z" fill="rgb(254,254,254)" transform="translate(0,0)"></path>
<path d="M 2048 503.812 L 2048 800.043 L 2048 825.168 L 2048 1064.03 C 1952.22 1064.8 1839.44 992.059 1831.66 890.591 C 1831.24 885.156 1829.79 875.645 1832.92 871.101 C 1837.26 870.156 1872.95 886.959 1880.49 889.802 C 1898.42 896.554 1916.92 904.035 1935.06 910.571 C 1942.73 912.574 1958.4 920.962 1966.16 920.377 C 1978.79 919.427 1982.81 903.475 1968.81 897.648 C 1956.1 892.361 1943.54 889.141 1931.3 884.014 C 1878.16 861.755 1817.42 845.801 1773.09 807.634 C 1747.59 785.184 1738.1 762.335 1736.37 729.424 C 1772.65 706.277 1808.48 679.331 1843.88 654.704 C 1863.06 640.104 1881.69 624.352 1901.27 610.301 C 1950.05 575.302 2000.43 540.379 2048 503.812 z" fill="url(#Gradient3)" transform="translate(0,0)"></path>
<path d="M 2048 825.168 C 2033.18 824.327 1961.94 821.976 1953.66 815.779 C 1951.52 814.176 1950.77 811.64 1950.76 809.073 C 1950.75 805.322 1952.33 800.855 1955.25 798.362 C 1956.83 797.016 1957.6 796.637 1959.63 796.382 C 1969.25 795.175 1979.86 796.591 1989.53 797.094 C 2009.01 798.229 2028.5 799.212 2048 800.043 L 2048 825.168 z" fill="rgb(254,254,254)" transform="translate(0,0)"></path>
<path d="M 2014.92 572.8 C 2015.19 572.806 2015.46 572.788 2015.73 572.819 C 2019.63 573.266 2025.14 576.404 2027.29 579.715 C 2028.71 581.893 2029.51 584.259 2028.73 586.852 C 2024.44 601.088 1916.68 665.124 1898.88 675.074 C 1890.41 679.804 1881.64 683.891 1872.82 687.897 C 1862.18 689.74 1857.07 681.33 1859.79 675.028 C 1863.08 667.41 1892.3 650.796 1898.94 646.54 C 1919.1 633.503 1939.37 620.628 1959.74 607.916 C 1976.76 597.271 1998.19 581.99 2014.92 572.8 z" fill="rgb(254,254,254)" transform="translate(0,0)"></path>
<path d="M 2012.23 708.276 C 2019.83 709.491 2025.33 716.205 2021.88 724.018 C 2020.13 727.963 2016.48 730.121 2012.56 731.7 C 1989.67 740.934 1965.42 746.764 1941.72 753.578 C 1908.61 763.412 1875.89 773.832 1841.87 780.315 C 1832.53 779.783 1827.23 771.891 1832.05 762.776 C 1833.25 760.507 1840.8 758.086 1843.66 757.26 C 1869.17 749.886 1894.7 743.039 1920.11 735.235 L 1979.14 717.24 C 1988.88 714.356 2002.7 709.928 2012.23 708.276 z" fill="rgb(254,254,254)" transform="translate(0,0)"></path>
<path d="M 2048 31.0047 L 2048 59.1018 L 2048 131.334 L 2048 206.729 C 2016.14 246.113 1975.07 286.969 1941.19 325.22 L 1867.21 408.478 C 1855.14 421.915 1835.81 444.635 1822.38 455.855 C 1797.57 455.49 1767.68 453.114 1742.45 451.755 L 1548.58 441.011 C 1522.25 439.668 1494.02 437.442 1467.82 436.942 C 1472.88 433.671 1477.52 429.86 1482.43 426.403 C 1526.19 395.632 1569.3 363.496 1613.28 333.099 L 2048 31.0047 z" fill="rgb(94,106,210)" transform="translate(0,0)"></path>
<path d="M 2007.43 113.06 C 2026.05 112.095 2021.01 127.476 2011.75 135.987 C 1995.52 150.907 1978.5 164.748 1961.9 179.234 C 1911.09 223.16 1859.8 266.515 1808.02 309.291 L 1730.97 373.526 C 1719.93 382.675 1699.04 400.729 1687.88 407.715 C 1687.07 407.608 1686.27 407.485 1685.46 407.345 C 1671.07 404.784 1673.79 392.024 1682.26 384.212 C 1704.34 363.827 1727.24 344.817 1750.28 325.583 L 1835.32 254.165 C 1872.96 222.076 1910.92 190.372 1949.2 159.058 C 1964.28 146.491 1991.76 119.716 2007.43 113.06 z" fill="rgb(254,254,254)" transform="translate(0,0)"></path>
<path d="M 0 474.565 L 245.206 421.136 C 279.532 413.458 317.339 402.612 352.288 397.112 C 361.135 395.719 380.885 398.041 390.732 398.786 L 447.68 403.259 C 467.436 404.835 502.131 406.097 520.352 408.885 C 521.644 425.128 522.87 445.377 525.251 461.441 C 428.301 454.509 331.223 441.002 233.907 438.877 C 231.618 438.827 228.695 440.829 226.915 442.059 C 212.67 464.32 269.288 462.916 280.507 463.768 L 351.402 469.39 C 408.835 474.386 468.684 481.856 525.897 485.48 C 526.296 498.296 527.704 511.861 529.043 524.661 L 321.897 630.313 C 302.032 640.615 282.232 651.044 262.501 661.6 C 250.53 667.959 234.344 677.11 221.919 681.822 C 195.424 662.897 170.275 643.8 144.495 623.924 C 128.435 611.541 111.2 600.117 94.9853 587.728 C 73.6577 571.231 52.023 555.134 30.0926 539.447 C 20.9859 532.844 9.26322 523.662 0 517.921 L 0 474.565 z" fill="rgb(94,106,210)" transform="translate(0,0)"></path>
<path d="M 389.511 525.436 C 406.586 523.616 406.26 545.833 386.722 548.27 C 329.785 555.373 272.544 560.753 215.508 567.12 C 188.304 570.156 157.903 573.357 130.751 574.161 C 117.365 574.185 115.823 562.514 121.197 557.207 C 126.409 552.058 164.296 549.761 170.661 549.12 L 232.114 542.598 C 284.809 537.001 336.722 530.444 389.511 525.436 z" fill="rgb(254,254,254)" transform="translate(0,0)"></path>
<path d="M 0 80.1115 C 19.6543 88.9464 40.5933 99.8044 60.5193 109.118 L 204.157 175.528 C 237.179 190.847 271.621 205.975 304.336 221.574 C 340.021 238.806 375.527 256.402 410.851 274.361 C 440.869 289.28 469.943 303.034 499.517 319.069 C 451.762 330.76 393.941 352.176 345.764 360.506 C 329.313 363.351 274.784 356.06 254.822 354.672 C 169.931 348.019 84.988 342.062 -2.27374e-13 336.802 L 0 80.1115 z" fill="rgb(94,106,210)" transform="translate(0,0)"></path>
<path d="M 16.4598 200.945 C 27.4223 200.574 38.0761 202.961 48.6573 205.613 C 65.5384 209.844 81.9686 216.13 98.6238 221.19 C 123.095 228.626 262.818 268.917 271.759 277.638 C 273.539 279.374 274.749 281.429 274.76 283.979 C 274.778 288.249 272.386 291.199 269.465 293.978 C 244.138 294.983 158.264 265.075 129.949 256.437 L 60.5274 234.88 C 48.0274 231.019 25.3341 226.009 14.1439 218.571 C 7.48897 214.147 11.4789 206.102 16.4598 200.945 z" fill="rgb(254,254,254)" transform="translate(0,0)"></path>
<path d="M 727.596 0 L 835.656 0 L 861.012 0 L 1000.99 0 C 1005.36 12.4835 1011.13 25.5336 1015.98 38.0208 L 1038.58 97.0787 C 1044.88 113.096 1051.24 132.929 1058.13 147.906 C 1020.88 160.618 987.763 169.667 950.163 180.736 L 799.436 225.238 C 778.725 157.29 755.271 89.7237 733.742 22.0029 C 731.477 14.8781 729.57 7.24527 727.596 0 z" fill="rgb(94,106,210)" transform="translate(0,0)"></path>
<path d="M 835.656 0 L 861.012 0 C 858.714 12.9374 845.629 81.4904 838.514 89.146 C 836.056 91.7888 832.566 93.2235 828.96 93.0723 C 825.571 92.9277 822.518 91.0553 820.712 88.2081 C 814.836 78.941 832.017 13.2641 835.656 0 z" fill="rgb(254,254,254)" transform="translate(0,0)"></path>
<path d="M 963.242 29.8745 C 966.023 29.6596 967.927 29.475 970.691 30.5291 C 977.214 33.0171 978.281 40.9618 975.102 46.6297 C 958.791 75.7126 940.779 104.114 922.257 131.863 C 916.295 140.794 911.108 150.306 905.13 159.216 C 903.979 160.933 899.496 162.533 897.526 163.282 C 897.036 163.248 896.545 163.221 896.055 163.178 C 892.071 162.832 886.927 161.429 884.595 157.903 C 883.331 155.993 883.077 153.889 883.637 151.698 C 886.185 141.725 945.104 47.9765 954.446 36.6252 C 956.885 33.6604 959.964 31.7919 963.242 29.8745 z" fill="rgb(254,254,254)" transform="translate(0,0)"></path>
<path d="M 520.149 0 L 610.89 0 L 637.064 0 L 692.267 0 C 696.547 14.3153 702.661 30.3291 707.287 45.0742 L 747.488 174.308 C 753.72 194.06 761.519 215.243 766.872 234.969 C 745.246 241.349 723.923 248.854 702.26 255.179 C 673.119 263.686 644.951 274.465 615.305 281.19 C 594.395 272.366 561.772 256.019 541.565 245.201 C 540.445 207.349 535.822 163.855 532.252 125.891 C 528.651 83.8868 524.616 41.9209 520.149 -1.13687e-13 z" fill="rgb(94,106,210)" transform="translate(0,0)"></path>
<path d="M 610.89 0 L 637.064 0 C 632.189 22.0725 610.329 171.699 599.66 178.51 C 596.808 180.33 592.576 180.894 589.313 179.963 C 586.718 179.222 584.766 177.997 583.516 175.517 C 581.992 172.493 581.922 168.654 582.165 165.353 C 582.644 158.828 584.506 152.399 585.628 145.963 C 588.528 129.337 590.892 112.557 593.736 95.9011 C 598.975 65.2183 603.225 29.4979 610.89 0 z" fill="rgb(254,254,254)" transform="translate(0,0)"></path>
<path d="M 682.438 115.977 C 695.115 117.144 696.077 124.158 692.465 134.926 C 683.591 161.161 674.352 187.474 663.584 212.999 C 660.199 221.025 657.313 230.109 649.517 234.466 C 647.445 234.236 645.245 234.048 643.246 233.43 C 640.718 232.648 638.592 231.008 637.482 228.57 C 632.309 217.204 661.279 146.268 668.031 130.935 C 671.777 122.425 673.572 119.428 682.438 115.977 z" fill="rgb(254,254,254)" transform="translate(0,0)"></path>
<path d="M 82.6043 0 L 288.797 0 L 330.862 0 L 430.675 0 L 458.394 0 L 487.445 0 C 494.583 75.9106 501.247 151.865 507.437 227.859 C 484.703 217.032 455.555 200.752 432.992 188.79 L 267.857 99.5628 C 206.432 65.9942 143.546 35.3734 82.6043 0 z" fill="rgb(94,106,210)" transform="translate(0,0)"></path>
<path d="M 288.797 0 L 330.862 0 C 351.337 15.4536 371.097 31.4501 391.316 48.1379 C 398.611 54.1587 435.309 80.9853 435.861 90.9596 C 436.502 102.541 423.807 104.975 413.075 97.3057 C 388.799 79.9574 365.367 60.1774 341.97 41.5282 C 324.264 27.4873 305.468 15.107 288.797 0 z" fill="rgb(254,254,254)" transform="translate(0,0)"></path>
<path d="M 430.675 0 L 458.394 0 C 460.497 13.0826 469.6 64.5232 464.725 70.5084 C 442.839 97.3763 431.373 6.39057 430.675 0 z" fill="rgb(254,254,254)" transform="translate(0,0)"></path>
<path d="M 0 0 L 18.6504 0 C 46.1478 17.8743 75.1306 32.4386 103.988 47.7777 L 197.174 98.3326 L 415.227 216.157 C 447.018 233.048 478.558 251.089 510.845 266.89 L 512.906 288.108 C 343.267 203.364 171.278 125.47 0 44.2057 L 0 0 z" fill="rgb(94,106,210)" transform="translate(0,0)"></path>
<path d="M 1036.3 0 L 1230 0 C 1235.85 10.7605 1242.09 28.7977 1246.52 40.9072 C 1234.83 56.1125 1222.91 71.1447 1210.78 85.9989 C 1204.72 93.4813 1198.41 102.934 1190.85 108.906 C 1179.55 117.828 1107.59 134.712 1089.81 138.185 C 1081.65 118.151 1067.09 82.9221 1061.86 62.4228 C 1080.79 61.3843 1183.06 65.7745 1191.11 57.5028 C 1192.94 55.6182 1193.84 53.1268 1193.79 50.5137 C 1193.71 47.248 1192.49 44.1157 1190.13 41.823 C 1187 38.7874 1182.63 37.821 1178.46 37.2154 C 1161.67 34.7801 1143.7 36.016 1126.72 35.9536 C 1101.09 35.9063 1075.46 35.5045 1049.84 34.7482 C 1046.11 23.9765 1040.54 10.8016 1036.3 0 z" fill="rgb(94,106,210)" transform="translate(0,0)"></path>
<path d="M 1865.25 458.658 L 1998.9 309.394 C 2014.33 292.256 2033.78 272.918 2048 256.061 L 2048 363.082 C 2015.19 396.762 1983.76 431.144 1948.94 463.033 C 1922.35 459.949 1892.51 460.587 1865.25 458.658 z" fill="rgb(94,106,210)" transform="translate(0,0)"></path>
<path d="M 1318.14 0 L 1545.99 0 C 1539 4.6909 1517.77 18.7146 1510.9 21.0606 C 1496.49 25.9871 1477.55 29.9841 1462.54 34.5549 C 1410.05 50.5389 1355.6 62.8188 1303.33 79.3621 C 1298.51 66.1392 1293.44 53.0089 1288.12 39.9784 C 1298.35 27.0973 1308.96 13.6386 1318.14 0 z" fill="rgb(94,106,210)" transform="translate(0,0)"></path>
<path d="M 0 369.24 C 65.4976 375.623 132.344 376.96 198.003 382.349 C 207.805 383.153 219.03 384.011 228.827 384.111 C 232.819 384.475 236.348 384.729 240.31 385.516 L 240.759 386.626 L 0 441.095 L 0 369.24 z" fill="rgb(94,106,210)" transform="translate(0,0)"></path>
<path d="M 1993.78 465.42 C 2011.95 447.178 2029.39 428.185 2048 410.455 L 2048 467.966 C 2029.94 466.929 2011.86 466.08 1993.78 465.42 z" fill="rgb(94,106,210)" transform="translate(0,0)"></path>
<path d="M 228.827 384.111 C 235.724 383.895 239.396 383.756 246.283 384.486 L 246.72 385.301 C 244.338 385.961 243.233 386.33 240.759 386.626 L 240.31 385.516 C 236.348 384.729 232.819 384.475 228.827 384.111 z" fill="rgb(202,201,219)" transform="translate(0,0)"></path>
<path d="M 779.25 428.172 C 789.223 432.436 831.473 459.389 839.355 466.614 C 843.591 484.176 849.275 502.502 854.387 519.917 C 833.446 543.701 817.061 565.245 797.67 590.087 L 722.276 687.251 C 707.184 706.714 694.07 725.319 677.691 744.041 C 665.048 743.621 652.4 743.413 639.75 743.417 L 578.463 743.787 C 574.909 676.947 569.238 609.579 565.571 542.379 C 598.14 522.965 632.385 506.884 665.445 488.738 C 703.217 468.006 740.461 447.122 779.25 428.172 z" fill="rgb(94,106,210)" transform="translate(0,0)"></path>
<path d="M 773.29 555.5 C 779.133 554.96 787.79 553.392 792.702 556.577 C 805.754 564.313 794.99 574.153 784.463 575.451 C 733.358 581.753 680.443 588.025 629.245 592.851 C 622.617 593.554 613.153 594.43 607.524 590.744 C 599.339 585.384 603.736 575.208 612.632 573.615 C 627.05 571.032 641.272 569.817 655.68 568.042 C 694.785 562.988 733.999 558.806 773.29 555.5 z" fill="rgb(254,254,254)" transform="translate(0,0)"></path>
<path d="M 1426.37 468.715 C 1426.94 468.978 1427.62 469.072 1428.07 469.502 C 1432.09 473.321 1474.69 584.018 1483.23 601.432 C 1483.01 601.629 1482.79 601.826 1482.57 602.023 L 1481.48 603.027 C 1444.98 636.431 1495.18 723.573 1509.49 760.458 C 1493.67 772.502 1475.59 785.302 1460.85 798.18 L 1403.5 765.534 C 1383.08 754.631 1346.7 732.313 1327.02 719.599 C 1316.56 697.044 1306.11 664.676 1296.05 640.872 C 1290.16 626.941 1274.76 590.37 1271.67 577.818 C 1279.29 570.693 1304.1 554.301 1313.51 547.74 L 1377.18 502.939 C 1394.1 491.257 1410.09 481.38 1426.37 468.715 z" fill="rgb(94,106,210)" transform="translate(0,0)"></path>
<path d="M 1301.79 163.451 C 1316.65 198.71 1332.93 237.679 1347.02 273.16 C 1320.51 278.06 1266.91 288.571 1241.7 296.703 C 1239.3 298.432 1237.28 299.779 1235.15 301.863 C 1232.2 310.319 1233.72 317.983 1244.38 316.908 C 1257.11 315.624 1270.26 312.49 1282.83 309.955 C 1307.22 304.917 1331.65 300.067 1356.12 295.407 C 1359.7 302.901 1363.25 311.343 1366.35 319.059 C 1381.39 356.431 1399.23 394.171 1413.51 431.698 C 1344.18 427.967 1274.9 423.497 1205.68 418.29 C 1200.02 408.408 1192.19 388.32 1187.73 377.604 L 1155.98 299.776 C 1149.85 284.717 1140.49 267.984 1135.85 252.711 C 1139.37 249.049 1144.7 243.994 1149.25 241.537 C 1187.55 220.849 1226.86 201.976 1265.36 181.638 C 1277.25 175.359 1289.49 168.813 1301.79 163.451 z" fill="rgb(94,106,210)" transform="translate(0,0)"></path>
<path d="M 530.697 559.871 C 533.181 570.465 535.185 614.749 535.93 627.277 L 543.786 744.77 C 521.512 748.76 497.915 748.754 475.224 755.543 C 431.024 768.767 419.41 777.132 397.549 814.8 C 375.699 800.252 344.704 775.413 322.867 759.191 C 300.993 742.965 271.048 721.899 251.634 704.081 C 321.683 667.655 391.974 631.7 462.504 596.216 C 485.416 584.583 507.754 571.04 530.697 559.871 z" fill="url(#Gradient2)" transform="translate(0,0)"></path>
<path d="M 386.056 766.146 L 387.358 765.897 C 390.441 767.877 390.436 767.705 392.521 770.964 C 389.598 770.071 389.114 769.661 386.514 768.166 L 386.056 766.146 z" fill="rgb(129,162,217)" transform="translate(0,0)"></path>
<path d="M 1000.2 439.833 C 1054.46 441.256 1123.06 447.438 1177.94 451.759 C 1186.74 465.561 1191.99 482.12 1198.26 497.465 L 1226.79 566.497 C 1207.68 579.251 1191.77 592.097 1171.1 605.465 C 1164.84 609.92 1159.92 613.248 1153.34 617.192 C 1133.94 608.848 1105.78 589.857 1086.38 578.779 C 1042.3 553.61 997.202 528.537 954.204 501.671 C 969.558 481.103 986.399 461.473 1000.2 439.833 z" fill="rgb(94,106,210)" transform="translate(0,0)"></path>
<path d="M 1000.92 488.157 C 1029.91 485.703 1069.33 493.042 1098.53 496.127 C 1124.41 498.862 1151 503.446 1176.6 508.095 C 1183.52 509.352 1192.44 511.544 1196.16 518.055 C 1200.27 525.667 1195.56 529.423 1189.02 532.018 C 1165.94 532.775 1114.32 524.292 1088.07 521.073 L 1034.71 514.61 C 1024.54 513.431 987.136 513.83 991.759 497.346 C 993.18 492.281 996.511 490.378 1000.92 488.157 z" fill="rgb(254,254,254)" transform="translate(0,0)"></path>
<path d="M 1066.54 182.012 L 1069.33 182.147 C 1074.26 187.127 1086.73 220.064 1090.17 228.552 C 1047.63 250.828 1001.93 272.667 958.786 294.47 L 878.127 334.864 C 872.261 337.796 843.468 353.66 839.648 352.958 L 838.815 350.703 C 828.06 319.742 818.8 288.873 808.153 257.854 C 894.246 234.178 979.997 206.317 1066.54 182.012 z" fill="rgb(94,106,210)" transform="translate(0,0)"></path>
<path d="M 1077.72 271.921 L 1078.3 272.391 C 1078.69 276.363 1054.3 307.12 1050.62 312.261 L 984.887 404.192 C 947.282 403.023 901.62 398.602 863.247 396.158 C 859.277 396.162 857.763 396.345 853.987 395.361 C 851.22 392.015 851.708 390.197 850.924 385.453 C 874.592 372.316 902.942 359.176 927.458 346.898 L 1077.72 271.921 z" fill="rgb(94,106,210)" transform="translate(0,0)"></path>
<path d="M 1111.27 283.606 C 1113.33 285.574 1161.36 403.85 1166.09 417.133 L 1084.76 411.757 C 1064.77 409.461 1043.65 409.97 1023.22 406.618 C 1029.75 394.099 1046.74 373.182 1055.9 361.067 C 1075.05 335.751 1092.63 309.016 1111.27 283.606 z" fill="rgb(94,106,210)" transform="translate(0,0)"></path>
<path d="M 1923.03 495.154 C 1944.28 498.104 1972.76 498.883 1994.48 499.726 L 1997.15 500.127 C 1995.13 504.239 1957.65 530.348 1952.37 534.076 C 1905.42 567.819 1858.99 602.259 1813.07 637.384 L 1771.63 668.795 C 1764.68 674.049 1750.66 685.272 1743.26 688.642 L 1875.55 546.733 C 1890.86 530.364 1907.67 510.828 1923.03 495.154 z" fill="rgb(94,106,210)" transform="translate(0,0)"></path>
<path d="M 555.058 412.491 C 606.823 415.231 663.657 419.497 715.578 423.438 C 697.74 433.677 679.676 443.516 661.398 452.948 C 629.828 470.381 594.575 489.969 562.329 505.704 C 561.447 476.36 557.899 441.912 555.058 412.491 z" fill="rgb(94,106,210)" transform="translate(0,0)"></path>
<path d="M 1217.4 453.98 C 1248.65 455.299 1279.89 457.048 1311.1 459.227 C 1330.2 460.508 1355.32 462.823 1374.1 463.007 C 1353.61 479.356 1327.87 496.078 1306.29 511.734 C 1291.59 522.401 1271.65 538.459 1256.99 547.679 C 1250.18 532.997 1243.94 518.062 1238.27 502.905 L 1236.07 498.287 C 1230.54 483.49 1223.77 468.481 1217.4 453.98 z" fill="rgb(94,106,210)" transform="translate(0,0)"></path>
<path d="M 775.91 267.133 C 778.623 270.426 805.602 363.403 808.887 374.392 C 785.987 362.354 759.26 350.714 735.358 338.617 C 712.142 326.718 688.085 316.087 665.214 304.186 C 673.476 300.377 683.685 297.514 692.393 294.48 C 720.089 284.83 748.733 278.169 775.91 267.133 z" fill="rgb(94,106,210)" transform="translate(0,0)"></path>
<path d="M 544.747 282.06 C 552.961 285.011 565.399 291.339 573.566 295.252 L 629.667 322.464 C 648.818 331.661 783.716 395.644 788.131 403.437 C 787.514 406.621 787.155 405.892 783.508 408.484 C 780.392 410.542 776.459 412.345 773.075 414.03 C 765.808 411.319 758.972 408.146 752.031 404.679 C 695.614 376.504 638.24 350.404 581.997 321.857 C 570.569 316.057 558.823 310.23 547.07 305.232 C 545.949 296.893 545.169 290.433 544.747 282.06 z" fill="rgb(94,106,210)" transform="translate(0,0)"></path>
<path d="M 1241.17 600.026 C 1243.77 601.685 1274.6 678.533 1280.1 690.329 C 1270.1 685.43 1254.8 675.89 1244.81 670.069 C 1225.82 659.291 1206.75 648.651 1187.61 638.148 C 1199.84 627.92 1227.13 608.46 1241.17 600.026 z" fill="rgb(94,106,210)" transform="translate(0,0)"></path>
<path d="M 568.583 337.307 C 579.555 336.477 653.614 379.453 673.771 387.786 C 667.299 386.653 660.784 386.096 654.246 385.434 L 553.152 378.159 C 552.08 365.609 551.275 353.037 550.737 340.453 L 568.583 337.307 z" fill="rgb(94,106,210)" transform="translate(0,0)"></path>
<path d="M 1276.66 123.148 L 1280.47 122.988 C 1283.56 125.187 1284.47 129.396 1285.82 133.13 C 1251.62 152.138 1208.76 172.585 1173.3 190.625 C 1170.77 192.125 1170.44 192.102 1167.57 192.931 C 1169.27 188.991 1202.72 146.387 1207.74 139.979 C 1230.44 135.626 1253.96 128.636 1276.66 123.148 z" fill="rgb(94,106,210)" transform="translate(0,0)"></path>
<path d="M 1150.93 158.179 L 1152.72 158.633 C 1151.43 162.12 1121.81 200.533 1117.82 205.492 L 1114.62 199.197 C 1110.98 190.233 1107.39 181.247 1103.87 172.238 C 1117.7 167.139 1136.65 161.869 1150.93 158.179 z" fill="rgb(94,106,210)" transform="translate(0,0)"></path>
<path d="M 513.857 350.17 L 515.29 350.366 C 516.544 353.556 517.595 370.372 518.044 375.142 C 496.991 373.41 474.9 372.257 453.754 370.88 C 450.588 370.871 446.932 370.066 443.731 369.517 C 465.82 364.192 491.424 356.302 513.857 350.17 z" fill="rgb(94,106,210)" transform="translate(0,0)"></path>
<path d="M 1262.22 75.6622 C 1264.45 79.0844 1265.87 83.0074 1267.46 86.803 C 1263.61 88.2887 1258.47 89.696 1254.44 90.9269 L 1252.05 91.0544 L 1251.72 89.6731 C 1254.35 84.4918 1258.44 80.107 1262.22 75.6622 z" fill="rgb(94,106,210)" transform="translate(0,0)"></path>
<path d="M 1326.4 111.022 L 1328.7 111.245 L 1328.64 112.208 L 1321.16 116.165 C 1320.44 116.445 1321.02 116.298 1318.83 116.386 L 1318.53 114.716 C 1321.9 111.26 1320.93 112.331 1326.4 111.022 z" fill="rgb(94,106,210)" transform="translate(0,0)"></path>
<path d="M 1117.86 1443.5 C 1180.01 1487.21 1241.73 1537.78 1302.55 1583.53 C 1459.13 1701.67 1614.5 1821.4 1768.65 1942.69 C 1781.63 1977.57 1793.99 2012.68 1805.74 2048 L 1285.94 2048 L 1117.86 1443.5 z" fill="rgb(254,254,254)" transform="translate(0,0)"></path>
<path d="M 846.99 1690.82 C 889.619 1638.8 936.104 1587.49 979.679 1535.58 C 1000.47 1510.45 1021.44 1485.46 1042.58 1460.61 C 1051.1 1450.64 1069.52 1428.86 1078.76 1420.94 L 1177.22 1772.02 C 1201.58 1864.31 1227.05 1956.31 1253.6 2048 L 1075.81 2048 C 1068.12 2038.02 1061.13 2026.15 1054.28 2015.45 L 1022.48 1965.65 L 953.685 1857.71 C 927.214 1815.86 899.605 1774.27 872.684 1732.68 C 863.806 1718.96 855.007 1705.05 846.99 1690.82 z" fill="rgb(254,254,254)" transform="translate(0,0)"></path>
<path d="M 588.925 1433.72 C 594.688 1505.38 599.68 1577.1 603.902 1648.86 L 615.255 1803.43 C 617.797 1838.06 618.748 1875.67 622.436 1909.87 C 616.897 1913.95 575.513 1963.46 568.622 1971.5 L 530.378 2016.06 C 520.962 2026.84 511.534 2036.4 503.171 2048 L 190.318 2048 C 214.466 2008.23 243.805 1967.43 269.47 1928.16 L 403.023 1721.52 L 511.602 1552.48 C 536.455 1513.51 562.782 1471.63 588.925 1433.72 z" fill="rgb(254,254,254)" transform="translate(0,0)"></path>
<path d="M 1593.56 1375.94 C 1605.51 1380.17 1617.69 1385.9 1629.61 1390.4 C 1665.27 1403.87 1699.24 1419.57 1734.12 1434.56 C 1751.35 1441.97 1768.62 1449.27 1785.94 1456.46 C 1792.83 1459.31 1818.35 1468.53 1821.59 1473.75 C 1832.63 1491.53 1839.06 1513.11 1847.7 1532.17 C 1866.88 1574.47 1883 1617.92 1900.42 1660.89 L 2011.72 1937.36 C 2023.84 1967.84 2036.26 1996.55 2048 2027.39 L 2048 2048 L 1951.98 2048 C 1933.48 2035.67 1915.55 2019.48 1897.77 2005.97 C 1873.22 1987.31 1848.83 1968.53 1824.8 1949.16 C 1819.7 1943.89 1798.25 1930.06 1795.47 1924.18 C 1781.18 1893.87 1766.82 1848.53 1755.43 1818.27 C 1720.63 1726.84 1686.69 1635.08 1653.61 1543.02 C 1633.53 1488.27 1611.11 1431.44 1593.56 1375.94 z" fill="rgb(254,254,254)" transform="translate(0,0)"></path>
<path d="M 101.052 781.246 C 164.87 803.43 228.216 827.744 291.427 851.558 C 298.479 854.215 334.235 888.6 345.128 896.945 C 371.996 917.241 399.07 937.261 426.346 957.004 C 433.962 962.583 457.261 978.822 462.874 984.414 C 454.851 1015.11 441.281 1030.19 413.594 1045.79 C 370.177 1070.25 325.625 1084.5 278.695 1099.29 C 244.341 1110.42 209.816 1121.02 175.131 1131.08 C 121.661 1146.93 69.0617 1165.35 15.3862 1180.47 C 10.5139 1181.84 4.61445 1183.28 0 1185.04 L 0 1120.52 L 0 1096.08 L 0 1032.59 L 0 1008.03 L 0 830.793 C 24.8764 819.203 49.5369 807.156 73.969 794.658 C 81.4593 790.852 94.6082 784.972 101.052 781.246 z" fill="url(#Gradient1)" transform="translate(0,0)"></path>
<path d="M 0 1008.03 C 48.2239 1008.42 101.594 1014.04 151.127 1015.47 L 269.642 1019 C 289.864 1019.44 310.103 1018.99 330.318 1020.22 C 343.499 1021.03 358.158 1029.85 343.561 1041.97 C 338.463 1046.2 314.775 1044.61 307.103 1044.49 L 255.739 1043.67 C 210.66 1042.58 165.594 1041.02 120.547 1039.01 C 80.5761 1036.88 40.0001 1033.77 0 1032.59 L 0 1008.03 z" fill="rgb(254,254,254)" transform="translate(0,0)"></path>
<path d="M 0 1096.08 L 114.672 1073.67 C 135.649 1069.41 157.394 1063.02 178.538 1060.32 C 182.037 1059.88 186.139 1059.48 189.284 1061.44 C 192.122 1063.21 194.177 1066.75 194.54 1070.02 C 194.945 1073.67 193.513 1077.37 190.959 1079.97 C 180.764 1090.33 27.3034 1113 0 1120.52 L 0 1096.08 z" fill="rgb(254,254,254)" transform="translate(0,0)"></path>
<path d="M 64.064 834.139 C 71.9206 835.064 82.513 839.878 90.0361 842.825 C 153.564 867.736 217.645 891.988 280.222 919.129 C 289.288 923.061 294.156 941.254 274.321 942.455 C 223.023 925.135 165.078 898.557 114.29 877.813 C 101.583 872.601 88.7446 867.713 75.7878 863.157 C 64.0807 858.965 55.548 858.569 48.3447 848.088 C 53.1161 840.466 55.6259 837.059 64.064 834.139 z" fill="rgb(254,254,254)" transform="translate(0,0)"></path>
<path d="M 120.757 828.269 L 122.75 829.188 C 124.597 831.87 123.905 831.408 123.409 835.704 L 121.73 835.815 C 119.981 833.749 120.732 831.843 120.757 828.269 z" fill="rgb(94,106,210)" transform="translate(0,0)"></path>
<path d="M 0 1976.55 C 16.5193 1959.3 41.1381 1926.43 56.7593 1906.83 L 162.896 1772.04 L 295.939 1603.75 L 441.3 1412.84 C 473.907 1369.82 505.952 1326.71 538.359 1283.61 C 547.096 1272 568.011 1243.82 577.377 1234.43 L 583.927 1331.21 C 584.84 1344 585.301 1363.05 587.3 1374.86 C 575.483 1397.53 557.25 1423.42 543.523 1445.63 C 507.673 1503.64 468.305 1560.1 431.316 1617.16 L 246.355 1903.58 C 215.463 1952.2 183.826 2000.35 151.455 2048 L 0 2048 L 0 1976.55 z" fill="rgb(254,254,254)" transform="translate(0,0)"></path>
<path d="M 0 727.225 C 21.8477 735.605 45.4377 741.656 67.5502 749.295 L 228.384 806.023 C 255.286 815.543 290.352 826.603 315.858 839.1 C 334.589 848.278 358.745 867.942 376.601 880.281 C 421.722 911.462 466.006 944.231 510.123 976.826 C 515.078 980.487 527.012 988.603 530.501 992.954 C 491.515 1043.11 453.403 1097.58 415.394 1148.75 L 386.605 1187.17 C 374.457 1203.52 371.599 1209.54 354.291 1221.09 C 313.944 1248.01 274.799 1276.9 235.262 1305.01 L 77.038 1418.36 C 54.2976 1434.52 22.9892 1458.28 0 1471.97 L 0 1367.74 L 0 1282.86 L 0 1251.36 L 0 1220.38 L 0 1185.04 C 4.61445 1183.28 10.5139 1181.84 15.3862 1180.47 C 69.0617 1165.35 121.661 1146.93 175.131 1131.08 C 209.816 1121.02 244.341 1110.42 278.695 1099.29 C 325.625 1084.5 370.177 1070.25 413.594 1045.79 C 441.281 1030.19 454.851 1015.11 462.874 984.414 C 457.261 978.822 433.962 962.583 426.346 957.004 C 399.07 937.261 371.996 917.241 345.128 896.945 C 334.235 888.6 298.479 854.215 291.427 851.558 C 228.216 827.744 164.87 803.43 101.052 781.246 C 94.6082 784.972 81.4593 790.852 73.969 794.658 C 49.5369 807.156 24.8764 819.203 0 830.793 L 0 793.009 L 0 744.599 L 0 727.225 z" fill="rgb(254,254,254)" transform="translate(0,0)"></path>
<path d="M 2.27374e-13 1282.86 C 38.1653 1268.53 76.1056 1253.61 113.807 1238.11 C 100.552 1302.11 60.6355 1344.81 0 1367.74 L 0 1282.86 z" fill="rgb(129,162,217)" transform="translate(0,0)"></path>
<path d="M 75.2146 1291.8 L 76.7945 1292.01 L 76.8392 1293.2 L 71.4701 1296.28 C 69.9843 1296.2 70.877 1296.37 68.9087 1295.36 C 70.4095 1293.45 72.7166 1292.9 75.2146 1291.8 z" fill="rgb(129,162,217)" transform="translate(0,0)"></path>
<path d="M 0 1220.38 C 40.1817 1201.41 70.4991 1190.02 112.329 1175.05 C 115.038 1184.78 115.894 1192.73 116.441 1202.87 C 79.7995 1219.93 37.7194 1233.4 0 1251.36 L 0 1220.38 z" fill="rgb(129,162,217)" transform="translate(0,0)"></path>
<path d="M 0 744.599 C 15.7838 750.683 39.3063 758.942 54.1335 765.715 C 36.6601 774.697 17.7243 784.559 0 793.009 L 0 744.599 z" fill="rgb(94,106,210)" transform="translate(0,0)"></path>
<path d="M 1664.74 990.416 L 1942.89 1161.21 L 2017.07 1206.6 C 2025.55 1211.86 2040.23 1220.39 2048 1226.06 L 2048 1534.59 C 2032.99 1527.65 2016.66 1521.26 2001.37 1514.72 L 1923.63 1481.48 C 1902 1472.48 1867.2 1458.52 1847.68 1447.46 C 1842.08 1436.67 1834.6 1416.03 1829.76 1403.88 L 1797.14 1321.57 C 1789.72 1302.78 1781.38 1284.63 1773.73 1266.03 L 1724.25 1142.37 C 1717.73 1121.23 1706.79 1097.81 1698.49 1076.97 C 1687.03 1048.17 1676.09 1019.23 1664.74 990.416 z" fill="rgb(254,254,254)" transform="translate(0,0)"></path>
<path d="M 0 1763.23 C 38.8418 1709.63 80.5749 1656.79 120.331 1603.74 C 139.189 1578.58 157.662 1553.02 176.468 1527.78 L 258.473 1418.04 L 354.149 1285.36 C 366.592 1268.35 381.239 1247.74 394.715 1231.7 C 400.138 1225.24 420.147 1211.82 428.027 1206.31 C 442.858 1196.06 457.573 1185.65 472.171 1175.07 C 500.272 1154.54 528.634 1134.33 556.078 1112.95 C 559.508 1110.28 563.533 1106.99 567.131 1104.69 C 569.752 1126.44 572.607 1162.3 573.222 1184.61 C 553.522 1211.91 533.254 1237.84 513.206 1264.64 C 462.663 1333.45 411.214 1401.58 358.87 1469.02 C 241.026 1623.41 121.394 1776.43 0 1928.04 L 0 1763.23 z" fill="rgb(254,254,254)" transform="translate(0,0)"></path>
<path d="M 825.355 1719.44 C 881.335 1800.07 930.917 1886.45 986.506 1967.46 C 1004.28 1993.36 1019.52 2022.02 1037.63 2048 L 663.039 2048 C 660.788 2007.26 656.508 1959.44 655.821 1919.31 C 660.93 1910.16 699.536 1866.21 708.358 1856.06 C 747.19 1811.38 785.659 1763.11 825.355 1719.44 z" fill="rgb(254,254,254)" transform="translate(0,0)"></path>
<path d="M 1864.75 1489.77 L 2048 1567.46 L 2048 1941.97 L 1957.23 1718.06 C 1926.84 1644.86 1891.63 1563.71 1864.75 1489.77 z" fill="rgb(254,254,254)" transform="translate(0,0)"></path>
<path d="M 0 1513.13 C 20.5019 1496.07 51.8707 1475.63 74.7085 1458.99 L 199.17 1368.3 C 237.995 1340.56 278.45 1313.05 316.015 1283.59 C 297.212 1314.33 260.729 1361.8 239.099 1390.03 C 222.05 1412.65 205.233 1435.44 188.653 1458.4 L 72.3013 1614.77 C 50.6228 1643.95 22.7845 1683.96 0 1710.8 L 0 1513.13 z" fill="rgb(254,254,254)" transform="translate(0,0)"></path>
<path d="M 0 582.94 C 14.6771 594.038 28.1227 606.239 42.6629 617.335 C 88.9261 652.64 134.364 688.112 179.596 724.734 L 224.067 760.727 C 232.855 767.748 244.366 776.102 251.959 783.896 C 234.847 776.315 207.256 769.041 188.001 762.334 C 143.459 747.116 99.1174 731.319 54.9864 714.947 C 37.8734 708.614 16.5822 701.361 0 694.374 L 0 669.11 L 0 628.421 L 0 582.94 z" fill="rgb(254,254,254)" transform="translate(0,0)"></path>
<path d="M 0 628.421 C 25.4046 649.587 55.4914 669.372 81.7272 689.774 C 92.754 698.348 108.849 708.854 118.552 718.534 L 58.4982 697.823 C 38.2417 690.624 24.2158 688.399 10.0293 671.479 C 6.71929 670.666 3.33017 669.778 0 669.11 L 0 628.421 z" fill="rgb(94,106,210)" transform="translate(0,0)"></path>
<path d="M 625.731 1954.82 C 628.592 1985.69 630.345 2016.89 633.15 2048 L 544.563 2048 C 550.92 2040.85 557.729 2033.5 563.754 2026.11 C 583.67 2001.7 605.6 1979.02 625.731 1954.82 z" fill="rgb(254,254,254)" transform="translate(0,0)"></path>
<path d="M 1813.98 1981.22 L 1871.32 2024.48 C 1881.2 2032 1892.05 2041.09 1902.02 2048 L 1838 2048 C 1830.76 2026.72 1822.87 2001.52 1813.98 1981.22 z" fill="rgb(254,254,254)" transform="translate(0,0)"></path>
<path d="M 1138.63 674.645 C 1158.34 682.772 1175.14 694.742 1193.39 705.445 C 1210.95 715.735 1228.58 725.923 1246.15 736.196 C 1331.41 785.787 1416.12 836.336 1500.24 887.831 C 1481.6 910.279 1454.27 942.046 1433.99 962.83 C 1419.8 932.282 1407.96 889.579 1393.44 860.646 C 1382.16 853.755 1370.2 847.23 1358.64 840.736 C 1366.75 861.331 1373.9 883.329 1381.37 904.266 C 1391.37 932.281 1401.82 960.135 1412.71 987.816 C 1392.58 1013.43 1368.17 1037.9 1347.62 1063.71 C 1334.28 1080.47 1318.69 1095.58 1305.34 1113.05 C 1281.66 1138.56 1261.19 1164.03 1238.17 1189.96 C 1214.51 1181.06 1184.32 1166.23 1160.01 1155.89 L 922.03 1052.9 C 882.481 1036.04 841.044 1017.19 800.869 1002.34 C 787.199 995.822 773.272 989.855 759.123 984.454 C 784.618 941.255 804.892 929.859 842.981 900.833 L 934.149 830.541 C 983.632 792.253 1031.27 752.063 1082.68 716.152 C 1101.37 703.097 1119.45 687.057 1138.63 674.645 z" fill="rgb(254,254,254)" transform="translate(0,0)"></path>
<path d="M 1139.45 711.705 C 1144.38 712.454 1259.3 779.327 1266.58 785.443 C 1262.34 793.18 1259.27 804.083 1257.7 812.88 C 1244.16 888.376 1169.41 925.184 1097.25 929.02 C 1054.35 930.711 1029.94 924.089 989.698 914.457 C 982.962 896.626 971.926 861.008 967.945 842.38 C 1024.63 800.985 1084 754.561 1139.45 711.705 z" fill="rgb(129,162,217)" transform="translate(0,0)"></path>
<path d="M 1133.25 907.52 L 1135.22 909.6 C 1134.79 913.267 1134.22 912.659 1130.88 916.026 C 1129.76 915.694 1130.37 916.017 1129.35 914.62 C 1130.78 912.169 1131.93 910.041 1133.25 907.52 z" fill="rgb(148,170,219)" transform="translate(0,0)"></path>
<path d="M 1094.18 907.5 L 1095.99 907.571 C 1099.37 910.05 1099.17 909.977 1101.19 913.726 C 1096.26 912.558 1095.62 912.456 1094.18 907.5 z" fill="rgb(129,162,217)" transform="translate(0,0)"></path>
<path d="M 1245.7 1226.52 C 1250.5 1228 1263.89 1234.46 1269.19 1236.76 L 1316.13 1256.67 L 1461.99 1317.37 C 1487.36 1328.17 1526.62 1346.72 1551.65 1355.33 C 1568.75 1403.53 1588.53 1452.24 1605.88 1500.61 C 1627.13 1559.82 1648.36 1620.14 1670.71 1678.89 L 1719.62 1809.1 C 1729.61 1836.12 1738.87 1858.52 1747.03 1886.24 C 1742.87 1883.32 1738.21 1879.33 1734.26 1876.04 C 1712.21 1857.67 1689.28 1840.57 1666.68 1822.9 C 1652.8 1811.53 1637.27 1800.22 1623.03 1789.08 L 1517.6 1707.28 L 1275.31 1520.7 C 1219.15 1478.04 1159.51 1435.2 1104.13 1391.95 C 1125.01 1370.25 1146.49 1341.1 1166.85 1317.88 C 1193.35 1287.65 1220.4 1257.7 1245.7 1226.52 z" fill="rgb(254,254,254)" transform="translate(0,0)"></path>
<path d="M 668.68 1103.72 C 684.87 1113.36 709.33 1133.62 725.39 1145.53 L 864.66 1250.96 L 994.332 1350.4 C 1012.13 1364.12 1039.6 1383.39 1055.44 1397.79 L 905.609 1572.61 C 880.742 1601.17 854.552 1635.53 828.045 1661.42 C 822.057 1653.77 812.524 1638.37 806.849 1629.73 L 757.26 1552.8 L 661.71 1407.95 C 647.162 1386.05 630.234 1361.83 616.798 1339.36 C 615.434 1337.07 613.693 1301.9 613.356 1296.93 C 611.222 1261.85 608.561 1226.8 605.373 1191.8 C 610.396 1182.7 619.136 1171.9 625.389 1163.52 C 640.159 1143.71 655.983 1124.97 668.68 1103.72 z" fill="rgb(254,254,254)" transform="translate(0,0)"></path>
<path d="M 1523.71 903.637 L 1584.06 939.962 C 1593.76 945.816 1611.24 956.946 1621.2 961.347 C 1628.3 975.456 1634.15 991.313 1640 1006.04 C 1654.62 1042.85 1668.23 1080.31 1683.74 1116.75 C 1688.15 1127.12 1696.17 1153.95 1701.64 1162.03 C 1709.52 1186.06 1722.19 1215.26 1731.61 1239.1 L 1775.36 1350.95 C 1785.51 1376.68 1796.82 1403.71 1806.11 1429.64 C 1778.03 1419.51 1744.56 1404.14 1716.33 1392.61 L 1642.36 1361.57 C 1620.28 1352.34 1594.91 1342.16 1573.54 1331.76 C 1554.98 1280.45 1535.55 1229.46 1515.28 1178.8 C 1507.88 1160.03 1501.3 1140.29 1493.62 1121.92 C 1491.57 1112.48 1484.15 1095.03 1480.73 1085.41 C 1469.84 1054.78 1457.51 1026.17 1444.23 996.565 C 1471.02 967.317 1497.7 933.81 1523.71 903.637 z" fill="rgb(254,254,254)" transform="translate(0,0)"></path>
<path d="M 740.967 1010.6 C 756.829 1016.61 777.597 1026.79 794.056 1033.64 C 844.932 1054.28 895.566 1075.51 945.948 1097.33 C 1033.54 1134.65 1129.71 1174.09 1215.37 1214.52 C 1204.54 1229.86 1185.43 1248.07 1173.15 1262.69 C 1146.86 1293.97 1118.39 1324.58 1092.53 1356.03 C 1077.37 1304.23 1062.96 1252.22 1049.31 1200 C 1046.61 1189.15 1043.96 1178.18 1041.02 1167.41 C 1035.34 1146.52 1020.5 1133.42 1006.97 1157.68 C 1008.12 1170.82 1017.31 1199.59 1021.34 1213.97 L 1046.91 1308.3 C 1051.51 1325.12 1058.41 1346.36 1061.41 1363.03 C 1034.56 1341.21 1007 1321.42 979.746 1300.49 L 803.106 1166.24 L 725.819 1107.57 C 714.549 1099.03 698.834 1088.72 688.884 1079.86 C 706.838 1052.99 720.347 1035.55 740.967 1010.6 z" fill="rgb(254,254,254)" transform="translate(0,0)"></path>
<path d="M 895.396 557.681 C 905.008 569.649 935.868 718.455 944.839 744.834 C 955.362 738.912 972.08 725.633 982.331 717.978 C 1006.78 699.72 1030.22 680.81 1055.42 663.46 C 1032.41 648.116 939.175 597.761 931.076 581.941 C 928.862 577.616 928.083 571.605 929.859 567.017 C 931.08 563.861 934.037 560.719 937.364 559.822 C 940.692 558.926 943.943 560.52 946.905 561.863 C 971.043 572.814 994.071 588.4 1016.83 601.999 C 1048.02 620.632 1079.69 638.652 1110.36 658.108 C 1097.68 670.639 1084.62 679.786 1070.78 690.756 C 1047.02 709.593 1022.21 727.057 998.14 745.35 L 918.233 806.3 C 902.465 818.346 885.117 832.441 868.593 843.184 C 881.34 824.835 905.189 794.175 919.374 777.16 C 913.706 761.496 907.506 734.494 903.167 717.73 C 895.305 687.428 890.223 658.588 880.949 628.226 C 872.169 637.051 858.274 656.744 850.207 667.118 C 827.408 696.436 805.957 726.74 781.758 755.014 C 815.848 775.247 827.356 780.081 853.753 812.565 C 844.343 821.435 835.363 836.695 827.139 847.566 L 786.661 901.247 C 759.034 937.357 751.541 941.702 713.146 966.612 C 680.122 952.356 647.922 942.635 614.897 926.003 C 619.281 917.667 627.963 907.172 633.832 899.389 L 664.289 859.242 L 774.176 715.084 C 791.011 693.33 811.052 668.36 826.917 646.716 C 841.066 627.048 855.639 607.688 870.626 588.65 C 878.33 578.699 887.035 566.735 895.396 557.681 z" fill="rgb(254,254,254)" transform="translate(0,0)"></path>
<path d="M 619.989 1404.68 C 622.759 1407.31 632.091 1421.81 634.84 1425.61 C 651.548 1448.76 665.652 1473.24 681.03 1497.15 L 807.396 1689.74 C 780.459 1722.78 753.119 1755.5 725.382 1787.87 C 700.264 1814.98 677.429 1845.3 652.165 1872.49 C 649.507 1857.01 647.699 1813.94 646.572 1796.94 L 636.813 1656.64 C 633.429 1609.05 629.622 1561.67 627.008 1513.99 C 625.158 1480.23 618.722 1437.89 619.989 1404.68 z" fill="rgb(254,254,254)" transform="translate(0,0)"></path>
<path d="M 1423.82 1021.8 C 1432.16 1036.9 1436.91 1055.03 1443.55 1070.96 C 1453.47 1094.76 1460.89 1123.53 1472.44 1146.24 C 1475.54 1158.47 1484.64 1178.78 1488.98 1191.12 C 1502.88 1230.6 1522.38 1273.7 1533.73 1313.71 C 1524.54 1310.53 1512.68 1304.89 1503.38 1301 L 1431.83 1270.58 L 1268.74 1202.26 C 1280.21 1187.21 1292.22 1172.58 1304.77 1158.42 C 1311.86 1150.33 1325.3 1135.63 1331.26 1127.17 C 1341.71 1117.26 1354.97 1100.94 1364.61 1089.61 C 1378.18 1073.57 1391.96 1057.71 1405.93 1042.01 C 1410.99 1036.26 1418.58 1026.87 1423.82 1021.8 z" fill="rgb(254,254,254)" transform="translate(0,0)"></path>
<path d="M 552.513 1011.47 C 557.226 1012.96 561.074 1017.06 564.747 1020.4 C 564.063 1035.99 564.093 1051.59 564.839 1067.17 C 546.715 1081.12 528.46 1094.9 510.076 1108.5 C 493.337 1120.67 475.969 1132.44 459.677 1145.14 L 449.511 1153.15 C 461.958 1132.85 487.618 1100.23 501.981 1080.86 C 519.124 1057.76 535.579 1034.67 552.513 1011.47 z" fill="rgb(254,254,254)" transform="translate(0,0)"></path>
<path d="M 596.934 950.605 C 619.066 963.284 652.425 973.664 676.521 985.075 L 668.446 992.745 C 665.505 994.431 654.492 1002.9 651.218 1005.28 C 640.428 1013.15 629.52 1020.86 618.496 1028.4 C 609.054 1020.74 599.069 1013.56 589.44 1005.72 C 589.424 999.73 589.121 993.309 588.945 987.283 C 589.038 977.207 589.081 967.13 589.073 957.054 C 591.797 954.968 594.518 953.037 596.934 950.605 z" fill="rgb(254,254,254)" transform="translate(0,0)"></path>
<path d="M 451 894.989 C 466.993 901.259 483.38 906.791 499.268 913.407 C 519.4 921.79 539.309 930.902 559.178 939.901 L 558.996 952.921 C 554.92 958.684 551.689 962.422 547.022 967.749 C 541.782 964.367 535.706 959.76 530.704 955.954 C 504.635 936.116 474.357 917.192 449.902 895.546 L 451 894.989 z" fill="rgb(254,254,254)" transform="translate(0,0)"></path>
<path d="M 1575 845.828 C 1579.76 850.089 1604.6 914.508 1607.61 923.71 C 1599.91 916.468 1595.58 914.471 1586.35 909.394 C 1572.14 901.641 1555.96 891.668 1542.22 883.009 C 1553.7 865.88 1561.96 860.528 1575 845.828 z" fill="rgb(254,254,254)" transform="translate(0,0)"></path>
<path d="M 618.829 1065.83 C 627.823 1072.11 636.78 1078.44 645.698 1084.83 L 613.098 1128.64 C 608.998 1134.32 606.207 1137.75 601.553 1143 C 599.683 1122.39 598.13 1101.74 596.893 1081.08 C 603.474 1075.81 611.736 1070.57 618.829 1065.83 z" fill="rgb(254,254,254)" transform="translate(0,0)"></path>
<path d="M 701.506 1006.97 L 701.978 1007.24 L 702.18 1008.47 C 689.591 1024.78 678.872 1042.4 665.215 1059.85 C 662.202 1058.59 658.32 1056.13 655.422 1054.43 C 652.46 1052.6 648.997 1049.74 646.19 1047.56 C 660.202 1035.35 685.384 1019.36 701.506 1006.97 z" fill="rgb(254,254,254)" transform="translate(0,0)"></path>
<path d="M 273.34 1289.57 L 274.959 1290.64 C 273.495 1294.21 265.962 1300.72 262.625 1303.87 L 260.324 1302.22 C 260.976 1296.51 266.765 1295.71 272.631 1290.25 L 273.34 1289.57 z" fill="rgb(94,106,210)" transform="translate(0,0)"></path>
<path d="M 945.715 1071.27 C 949.12 1072.88 947.904 1071.67 949.566 1074.95 C 949.783 1079.09 948.731 1080.97 947.297 1084.98 C 945.78 1083.64 944.87 1082.67 943.469 1081.22 C 942.46 1077.81 944.313 1074.71 945.715 1071.27 z" fill="rgb(94,106,210)" transform="translate(0,0)"></path>
<path d="M 895.439 541.438 C 896.969 542.196 896.521 541.821 897.632 542.89 C 898.763 543.98 898.965 545.984 898.844 547.537 C 898.564 551.092 896.507 553.164 893.975 555.369 C 893.035 554.162 892.628 553.28 891.875 551.945 C 893.041 547.529 893.76 545.745 895.439 541.438 z" fill="rgb(129,162,217)" transform="translate(0,0)"></path>
<path d="M 1744.15 1235.4 C 1748.27 1235.24 1748.51 1235.82 1750.8 1238.81 C 1751.67 1242.84 1751.47 1242.71 1750.19 1246.77 C 1745.45 1242.7 1741.99 1241.66 1744.15 1235.4 z" fill="rgb(94,106,210)" transform="translate(0,0)"></path>
<path d="M 265.623 1893.59 C 268.726 1893.78 268.598 1893.68 271.42 1894.91 C 273.231 1898.14 272.491 1898.74 272.394 1903.12 C 267.985 1902.03 266.231 1897.73 265.623 1893.59 z" fill="rgb(94,106,210)" transform="translate(0,0)"></path>
<path d="M 496.983 942.954 C 497.363 943.119 498.834 944.248 499.231 944.539 L 499.176 946.133 C 496.882 948.598 494.652 949.007 491.452 950.133 C 490.452 949.173 490.019 948.426 489.196 947.297 L 489.828 945.775 C 492.145 945.079 493.175 944.78 495.376 943.731 L 496.983 942.954 z" fill="rgb(129,162,217)" transform="translate(0,0)"></path>
<path d="M 763.015 1005.67 C 766.088 1005.37 766.229 1005.24 769.22 1005.77 L 769.854 1007.46 L 768.358 1010.21 C 763.48 1011.22 765.696 1011.53 761.424 1009.64 L 760.929 1007.68 L 763.015 1005.67 z" fill="rgb(94,106,210)" transform="translate(0,0)"></path>
<path d="M 930.763 1858.46 C 937.111 1858.96 939.002 1863.21 940.918 1868.46 C 935.377 1866.9 933.027 1863.4 930.763 1858.46 z" fill="rgb(94,106,210)" transform="translate(0,0)"></path>
<path d="M 1355.33 1249.18 C 1358.77 1249.27 1360.24 1249.15 1363.6 1250.13 L 1363.61 1252.24 L 1361.51 1252.83 C 1357.73 1251.9 1357.92 1251.84 1355.33 1249.18 z" fill="rgb(94,106,210)" transform="translate(0,0)"></path>
<path d="M 1687.16 530.489 L 1688.98 530.322 L 1690.03 531.875 C 1689.91 534.805 1688.58 535.98 1686.79 538.35 L 1685.89 537.696 C 1686.29 535.916 1686.72 534.416 1687.21 532.661 L 1686.46 531.908 L 1687.16 530.489 z" fill="rgb(94,106,210)" transform="translate(0,0)"></path>
<path d="M 575.083 923.773 L 576.341 924.958 C 575.843 927.95 574.014 929.059 571.719 931.189 L 570.668 928.957 C 572.907 926.993 573.539 926.313 575.083 923.773 z" fill="rgb(148,170,219)" transform="translate(0,0)"></path>
<path d="M 1602.15 934.238 C 1605.65 933.864 1606.11 933.59 1609.58 934.47 L 1609.55 936.277 L 1608.66 936.805 C 1605.05 936.715 1605.73 936.401 1602.15 934.238 z" fill="rgb(148,170,219)" transform="translate(0,0)"></path>
<path d="M 995.075 688.853 C 998.167 688.172 996.68 688.088 999.694 689.154 L 999.94 691.092 L 999.471 691.197 C 996.312 690.264 997.304 690.967 995.075 688.853 z" fill="rgb(148,170,219)" transform="translate(0,0)"></path>
<path d="M 388.98 1712.98 C 391.353 1713.6 390.107 1713.51 392.834 1712.4 L 393.842 1713.99 C 392.927 1714.95 392.188 1715.17 390.953 1715.86 L 389.431 1715.22 L 388.98 1712.98 z" fill="rgb(94,106,210)" transform="translate(0,0)"></path>
<path d="M 713.264 982.749 L 714.53 983.673 L 714.638 985.279 L 710.852 989.138 L 709.605 988.516 C 710.401 985.491 711.163 985.089 713.264 982.749 z" fill="rgb(94,106,210)" transform="translate(0,0)"></path>
<path d="M 449.902 895.546 C 446.859 893.486 445.806 893.596 444.81 890.828 C 447.936 891.199 448.012 892.413 451 894.989 L 449.902 895.546 z" fill="rgb(148,170,219)" transform="translate(0,0)"></path>
<path d="M 245.591 1415.4 L 247.101 1416.11 L 247.465 1417.44 L 243.786 1421.3 L 242.586 1421.61 L 242.085 1420.68 L 245.591 1415.4 z" fill="rgb(94,106,210)" transform="translate(0,0)"></path>
<path d="M 1949.9 1731.6 C 1952.42 1734.73 1951.6 1735.39 1951.99 1740.33 C 1949.24 1737.19 1950.19 1736.99 1949.9 1731.6 z" fill="rgb(94,106,210)" transform="translate(0,0)"></path>
<path d="M 412.575 1677.68 C 413.219 1681.02 413.341 1679.38 411.815 1682.73 C 411.256 1682.51 411.68 1682.73 410.237 1681.61 L 412.575 1677.68 z" fill="rgb(94,106,210)" transform="translate(0,0)"></path>
<path d="M 1583.79 514.942 C 1584.38 515.649 1584.01 515.117 1584.43 516.781 L 1582.23 516.804 C 1580.61 516.905 1581.6 516.918 1579.28 516.507 L 1583.79 514.942 z" fill="rgb(94,106,210)" transform="translate(0,0)"></path>
<path d="M 255.129 764.996 C 256.18 764.667 256.73 765.001 258.043 765.257 L 258.761 767.111 L 255.965 766.702 L 255.129 764.996 z" fill="rgb(148,170,219)" transform="translate(0,0)"></path>
<metadata><recraft-signature>{"signed_by": "recraft", "signature_b64": "ZEjgFViAaHp0Zu0rWkULcyINveLIGKF3C0vS1K7X2cZrOaen2TFlZWOXHla10el5yhm3q/b/Bvj2doD26NMjBg==", "signing_algo": "Ed25519", "generation_timestamp": 1777129227, "identifier": "ab0fdc5d-1c7a-43d3-a965-24898e216b6b"}</recraft-signature></metadata></svg>