<svg width="252" height="248" viewBox="0 0 252 248" fill="none" xmlns="http://www.w3.org/2000/svg">
<path opacity="0.05" d="M125.876 221.445C182.606 221.445 228.596 176.292 228.596 120.593C228.596 64.8942 182.606 19.7412 125.876 19.7412C69.1454 19.7412 23.1562 64.8942 23.1562 120.593C23.1562 176.292 69.1454 221.445 125.876 221.445Z" stroke="white" stroke-width="0.659164"/>
<path opacity="0.05" d="M125.875 246.857C195.213 246.857 251.422 191.67 251.422 123.593C251.422 55.5166 195.213 0.32959 125.875 0.32959C56.5381 0.32959 0.329102 55.5166 0.329102 123.593C0.329102 191.67 56.5381 246.857 125.875 246.857Z" stroke="#060913" stroke-width="0.659164"/>
<path d="M125.875 196.101C166.662 196.101 199.726 163.638 199.726 123.593C199.726 83.5482 166.662 51.0852 125.875 51.0852C85.0885 51.0852 52.0244 83.5482 52.0244 123.593C52.0244 163.638 85.0885 196.101 125.875 196.101Z" stroke="#060913" stroke-width="21"/>
<path d="M199.726 123.593C199.724 136.32 196.309 148.821 189.826 159.842C183.344 170.863 174.021 180.014 162.794 186.376C151.568 192.738 138.834 196.087 125.872 196.086C112.91 196.086 100.176 192.735 88.9502 186.372" stroke="#E63A46" stroke-width="14" stroke-linecap="round"/>
</svg>
