<svg xmlns="http://www.w3.org/2000/svg" height="1024" preserveAspectRatio="none" style="display: block;" version="1.1" viewBox="0 0 2048 2048" width="1024">
<path d="M 0 0 L 2048 0 L 2048 2048 L 0 2048 L 0 0 z" fill="#E6E4DF" transform="translate(0,0)"></path>
<path d="M 1037.29 113.398 C 1075.95 107.557 1183.32 126.359 1183.58 179.943 C 1183.81 225.572 1180.38 274.455 1180.38 320.389 C 1180.38 326.326 1177.61 332.72 1175.04 338.015 C 1190.96 347.988 1210.18 358.214 1226.8 367.987 L 1361.53 447.447 L 1471.8 513.546 C 1488.49 523.467 1505.81 534.396 1522.84 543.451 L 1524 474.232 C 1524.12 460.872 1523.25 441.42 1525.15 428.731 C 1529.86 397.29 1574.73 385.133 1600.86 382.216 C 1644.08 377.466 1696.15 383.962 1732.34 409.814 C 1754.75 425.825 1754.16 444.668 1753.53 468.91 C 1753.09 485.376 1752.54 501.84 1751.9 518.3 C 1751.14 539.46 1751.3 562.991 1748.88 583.785 C 1744.72 619.573 1693.48 633.137 1664.04 635.379 C 1670.01 652.072 1678.4 669.002 1685.14 685.506 C 1698.5 718.246 1715.72 749.308 1732.02 780.69 C 1789.01 760.68 1854.12 757.187 1904.76 794.674 C 1914.71 802.047 1925.23 815.179 1925.7 827.889 C 1926.85 859.103 1924.33 890.712 1923.21 921.916 L 1921.65 966.104 C 1921.2 978.573 1922.14 997.821 1913.21 1007.29 C 1886.85 1035.26 1840.33 1036.81 1804.77 1039.26 C 1795.08 1049.76 1780.37 1070.26 1771.35 1082.28 C 1741.61 1121.95 1711.42 1163.01 1683.42 1203.83 C 1669.21 1224.55 1638.68 1263.03 1628.67 1284.45 C 1658.83 1293.76 1704.46 1311.96 1706.02 1350.51 C 1706.54 1363.33 1705.35 1377.53 1705.19 1390.53 C 1704.98 1410.49 1704.57 1430.45 1703.98 1450.4 C 1703.77 1458.91 1703.85 1480.11 1701.75 1486.96 C 1689.56 1526.86 1622.56 1540.09 1587.63 1539.59 C 1551.04 1539.06 1500.98 1533.34 1472.26 1509.08 C 1461.61 1500.08 1463.15 1478.4 1463.02 1465.49 C 1410.54 1521.15 1352.67 1571.54 1299.12 1626.16 C 1276.5 1649.23 1252.89 1671.64 1229.18 1693.59 C 1211.14 1710.28 1191.93 1730.38 1171.07 1743.21 C 1168.1 1777.16 1170.07 1817.07 1168.72 1851.59 C 1167.41 1862.26 1170.06 1884.93 1166.72 1894.54 C 1153.69 1932.02 1086.32 1935.16 1056.2 1935.29 C 1020.54 1934.97 979.031 1926.7 949.747 1905.17 C 930.481 1891.01 934.683 1867.83 934.908 1846.46 L 935.806 1775.45 C 935.967 1762.57 936.647 1743.37 935.28 1730.96 L 935.119 1729.56 C 897.068 1700.75 847.891 1670.65 807.279 1643.63 L 579.824 1492.18 C 577.672 1512 580.405 1526.23 560.355 1538.05 C 519.126 1562.3 462.61 1564.01 416.931 1554.32 C 388.832 1548.36 345.734 1533.61 343.425 1499.47 C 342.702 1488.77 342.473 1478.51 342.567 1467.86 C 342.908 1429 341.746 1390.16 341.704 1351.31 C 341.689 1321.23 370.923 1306.12 393.494 1293.25 C 363.682 1238.74 327.011 1184.83 296.362 1130.38 C 279.355 1100.17 259.611 1068.45 241.144 1038.98 C 203.94 1037.35 149.337 1032.84 125.396 997.584 C 123.95 994.233 122.788 988.36 122.842 984.908 C 123.555 939.543 122.64 893.914 123.242 848.597 C 123.617 820.41 151.097 801.208 174.868 792.051 C 206.376 779.913 242.479 776.041 275.717 782.981 C 286.33 785.181 297.414 790.121 307.348 794.421 C 339.977 765.032 373.389 730.166 404.506 698.951 C 416.457 686.962 434.508 671.143 444.589 658.54 C 406.375 652.036 349.587 639.617 350.234 591.36 C 350.849 545.582 347.968 499.072 351.871 453.412 C 352.318 448.184 357.726 439.308 361.552 435.652 C 389.473 409.53 435.103 403.894 471.805 399.93 C 497.017 397.207 578.601 414.771 583.489 446.746 C 587.664 474.06 583.666 520.022 584.138 549.637 C 599.494 538.823 628.588 524.575 646.268 514.076 C 721.711 470.044 797.718 426.983 874.267 384.903 C 890.638 375.696 942.023 349.384 952.423 339.21 C 950.793 336.35 947.561 330.38 947.393 327.181 C 946.643 312.955 947.906 297.79 947.729 283.512 C 947.261 245.869 945.791 207.857 947.789 170.274 C 948.093 164.549 950.359 153.22 953.926 148.941 C 973.346 125.635 1008.58 116.286 1037.29 113.398 z" fill="#08090A" transform="translate(0,0)"></path>
<path d="M 1141.51 1319.66 C 1156.51 1322.96 1174.8 1329.1 1189.85 1333.49 C 1210.53 1339.33 1231.31 1344.83 1252.18 1349.99 C 1323.6 1367.64 1392.45 1381.12 1464.04 1396.3 C 1464.22 1411.89 1463.95 1427.48 1463.21 1443.05 C 1445.36 1460.91 1421.46 1480.77 1402.39 1498.74 C 1351.87 1545.88 1302.34 1594.07 1253.83 1643.28 C 1228.44 1668.09 1196.16 1699.86 1169.32 1722.07 C 1136.65 1683.32 1082.87 1671.64 1034.22 1672.26 C 1023.36 1636.33 1020.36 1567.49 1018.36 1529.52 C 1015.56 1482.04 1013.61 1434.51 1012.54 1386.97 C 1019.68 1387.24 1026.82 1387.34 1033.97 1387.27 C 1063.22 1386.97 1110.62 1380.29 1132.59 1357.99 C 1143.57 1346.84 1141.71 1334.16 1141.51 1319.66 z" fill="#E6E4DF" transform="translate(0,0)"></path>
<path d="M 966.382 351.339 C 1008.08 370.348 1017.62 372.007 1063.69 376.165 C 1062.42 390.224 1060.42 404.282 1058.7 418.297 C 1052.18 471.456 1044.73 524.148 1036.51 577.057 C 1029.87 577.051 1023.22 577.344 1016.61 577.934 C 992.216 580.297 937.106 591.664 926.692 622.076 C 921.042 638.575 929.026 746.779 922.66 754.535 C 913.581 751.864 881.452 735.596 870.436 730.389 C 833.877 712.923 797.152 695.806 760.266 679.042 C 726.558 663.655 692.71 648.575 658.728 633.804 C 633.469 622.79 608.38 612.374 583.96 599.567 L 584.624 569.25 C 615.723 550.131 653.989 530.598 686.593 512.461 C 746.21 479.387 805.445 445.631 864.288 411.199 C 900.619 390.192 930.773 374.018 966.382 351.339 z" fill="#E6E4DF" transform="translate(0,0)"></path>
<path d="M 900.61 1325.11 L 902.503 1325.02 C 905.06 1326.96 906.77 1342.79 912.195 1349.81 C 933.376 1377.2 965.544 1379.24 994.812 1385.67 C 995.936 1399.18 994.98 1422.65 995.409 1437.48 C 996.61 1475.5 998.407 1513.49 1000.8 1551.45 C 1002.01 1573.08 1003.98 1594.67 1006.7 1616.18 C 1009.02 1634.42 1012.72 1656.31 1013.57 1674.37 C 986.262 1679.95 962.756 1687.91 943.582 1708.44 L 795.368 1610.1 C 742.71 1573.92 689.649 1538.33 636.192 1503.35 C 617.675 1491.01 599.52 1478.08 580.941 1465.7 L 582.733 1425.56 L 798.005 1357.99 C 829.571 1347.97 869.699 1332.8 900.61 1325.11 z" fill="#E6E4DF" transform="translate(0,0)"></path>
<path d="M 1162.38 352.161 C 1188.87 366.441 1216.79 383.863 1242.62 399.423 L 1322.02 446.402 C 1389.25 485.709 1456.14 525.569 1522.7 565.98 C 1523.01 579.326 1525.98 586.676 1511.62 591.568 C 1456.13 610.474 1400.73 630.059 1345.24 648.928 C 1281.34 671.116 1217.67 693.958 1154.24 717.452 C 1152.77 692.423 1157.25 651.603 1154.28 629.799 C 1149.46 594.284 1084.03 581.098 1053.6 577.657 C 1056.65 553.902 1060.66 530.031 1064 506.277 L 1082.09 375.25 C 1111.87 368.312 1132.36 370.56 1162.38 352.161 z" fill="#E6E4DF" transform="translate(0,0)"></path>
<path d="M 1528.62 603.919 C 1533.03 603.779 1552.85 618.063 1559.63 620.792 C 1579.64 628.837 1596.29 631.56 1617.03 635.427 C 1599.24 696.534 1557.52 782.394 1512.2 827.327 L 1505.89 826.444 C 1464.86 820.789 1416.4 822.645 1381.06 847.989 C 1353.32 867.876 1363.19 898.046 1359.19 929.611 C 1331.88 917.648 1298.9 900.316 1271.71 887.004 C 1224.99 866.045 1178.65 844.237 1132.73 821.591 C 1135.95 818.946 1139.91 815.699 1142.76 812.73 C 1147.26 807.977 1150.45 802.134 1152.01 795.776 C 1154.3 786.135 1153.23 747.948 1153.14 736.074 C 1196.92 720.46 1240.68 702.939 1284.59 688.019 C 1366.31 660.259 1447.47 633.408 1528.62 603.919 z" fill="#E6E4DF" transform="translate(0,0)"></path>
<path d="M 581.216 616.667 C 592.261 620.999 607.994 629.047 619.309 634.318 C 641.861 644.88 664.502 655.25 687.23 665.428 C 764.351 700.375 846.992 737.552 922.974 774.721 C 922.885 806.051 933.207 810.923 958.603 825.226 C 949.789 830.003 922.54 840.096 911.774 844.412 L 805.747 886.402 C 756.776 904.492 709.25 925.413 658.924 941.315 C 657.756 909.308 667.089 883.365 638.135 860.416 C 609.247 837.52 572.194 829.217 535.943 828.441 C 524.412 828.194 511.603 830.256 500.059 831.359 C 493.222 775.751 492.429 717.799 484.772 660.783 C 492.341 660.167 499.879 659.227 507.368 657.968 C 534.773 653.202 564.809 640.094 581.216 616.667 z" fill="#E6E4DF" transform="translate(0,0)"></path>
<path d="M 351.159 959.665 C 366.911 965.59 408.648 984.227 422.961 992.224 C 423.541 1011.25 419.226 1052.97 429.683 1064.79 C 453.38 1091.58 497.992 1097.46 530.154 1101.1 C 529.592 1121.83 527.306 1147.06 525.923 1168.02 C 523.641 1208.67 520.439 1249.26 516.322 1289.77 C 487.478 1284.84 472.665 1281.55 442.757 1284.43 C 432.164 1285.56 421.626 1287.16 411.174 1289.22 C 374.094 1224.83 334.19 1162.11 296.874 1097.85 C 285.105 1077.58 272.267 1057.89 260.588 1037.54 C 289.685 1032.3 339.385 1023.1 349.158 988.09 C 351.113 981.088 350.926 967.379 351.159 959.665 z" fill="#E6E4DF" transform="translate(0,0)"></path>
<path d="M 775.957 1128.96 C 817.117 1148 859.491 1175.09 902.53 1194.39 C 904.752 1227.14 904.24 1271.35 903.776 1304.41 C 829.352 1328.34 754.776 1351.79 680.053 1374.76 C 647.666 1385.65 616.436 1397.63 583.695 1408.1 C 583.116 1389.84 584.238 1369.75 585.133 1351.53 C 590.932 1343.26 602.465 1331.29 609.638 1323.43 C 621.539 1310.57 633.15 1297.45 644.463 1284.08 L 726.308 1188.2 C 742.481 1168.99 759.305 1147.41 775.957 1128.96 z" fill="#E6E4DF" transform="translate(0,0)"></path>
<path d="M 1689.51 963.074 L 1690.37 963.056 C 1690.9 963.348 1691.43 963.64 1691.97 963.932 C 1691.9 977.245 1690.23 989.167 1698.47 1000.66 C 1716.72 1026.11 1756.06 1032.98 1784.56 1038.35 C 1777.38 1050.95 1755.63 1076.24 1745.25 1090.67 L 1665.58 1201.36 C 1648.55 1225.5 1627.27 1255.86 1612.27 1281.23 L 1600.24 1279.38 C 1587.15 1276.59 1564.32 1278.12 1551.13 1279.91 C 1543.36 1252.02 1537.25 1222.31 1529.73 1194.17 C 1521.12 1161.97 1511.19 1126.11 1506.12 1093.1 C 1532.35 1089 1561.02 1084.35 1581.97 1065.71 C 1597.81 1051.62 1593.97 1016.93 1594.07 994.844 C 1608.08 989.473 1621.39 986.277 1634.85 981.437 C 1654.05 974.539 1669.8 968.658 1689.51 963.074 z" fill="#E6E4DF" transform="translate(0,0)"></path>
<path d="M 1272.13 1118.7 C 1275.63 1119.78 1446.27 1314.81 1464.89 1336.62 C 1464.82 1351.44 1464.93 1366.58 1464.16 1381.35 C 1450.57 1378.82 1433.95 1373.12 1420.3 1369.3 C 1401.55 1364.24 1382.71 1359.5 1363.79 1355.08 C 1317.96 1344.55 1269.44 1335.79 1223.41 1325.21 C 1196.1 1318.94 1169.11 1310.04 1141.61 1304.5 C 1142.33 1274.67 1141.96 1244.79 1142.56 1214.95 C 1155.56 1206.35 1168.46 1195.72 1181.11 1186.34 C 1211.56 1163.77 1241.37 1140.85 1272.13 1118.7 z" fill="#E6E4DF" transform="translate(0,0)"></path>
<path d="M 1059.74 841.421 C 1068.9 847.394 1124.45 929.019 1135.05 943.652 C 1155.75 972.24 1176.61 1001.17 1200.22 1029.63 C 1218.8 1052.04 1245.8 1081.45 1262.34 1104.68 C 1236.23 1123.79 1210.24 1143.06 1184.38 1162.49 C 1171.05 1172.52 1155.71 1184.31 1142.05 1193.58 C 1141.72 1175.78 1142.63 1163.46 1128.27 1149.87 C 1097.99 1121.22 1051.17 1116.04 1012 1115.93 C 1015.94 1073.05 1021.69 1030.34 1029.24 987.943 C 1034.78 958.21 1041.71 928.154 1048.1 898.552 C 1051 885.162 1054.86 851.949 1059.74 841.421 z" fill="#E6E4DF" transform="translate(0,0)"></path>
<path d="M 986.99 834.935 C 991.409 834.829 1010.06 838.646 1015.43 839.674 C 976.676 885.342 930.969 929.186 890.711 973.843 C 850.772 1018.15 813.373 1064.22 774.058 1108.77 C 756.242 1100.18 735.366 1088.17 717.704 1078.62 C 697.808 1067.86 677.778 1057.35 657.619 1047.09 C 659.746 1019.3 658.078 991.009 659.625 963.229 C 699.508 949.707 746.962 929.219 787.533 913.909 C 833.24 896.917 878.692 879.245 923.872 860.899 C 944.104 852.749 967.678 844.055 986.99 834.935 z" fill="#E6E4DF" transform="translate(0,0)"></path>
<path d="M 1032.13 841.167 L 1043.72 841.879 C 1041.12 852.469 1039.56 863.839 1037.49 874.605 C 1027.5 926.527 1015.46 978.013 1006.95 1030.23 C 1002.33 1058.5 999.634 1086.96 996.598 1115.42 C 974.865 1117.13 941.952 1126.84 924.215 1139.81 C 909.713 1150.42 904.426 1157.45 901.503 1174.69 C 880.188 1165.48 856.135 1152.02 835.382 1141.04 C 821.679 1134.04 800.532 1123.92 788.089 1115.78 C 797.341 1102.21 821.207 1075.73 832.815 1062.23 C 872.093 1016.48 912.482 971.698 953.947 927.919 C 977.346 902.851 1012.76 867.482 1032.13 841.167 z" fill="#E6E4DF" transform="translate(0,0)"></path>
<path d="M 652.444 1063.77 C 659.399 1066.58 668.725 1071.72 675.559 1075.32 C 704.648 1090.63 734.997 1105.68 763.13 1122.61 L 611.823 1299.5 C 602.19 1310.19 592.631 1320.94 583.149 1331.76 C 563.638 1309.05 557.454 1306.26 531.172 1293.37 C 534.553 1268.88 536.14 1237.02 537.859 1212.22 L 545.431 1100.93 C 546.607 1100.9 547.782 1100.86 548.957 1100.79 C 582.694 1098.8 628.864 1090.09 652.444 1063.77 z" fill="#E6E4DF" transform="translate(0,0)"></path>
<path d="M 1362.4 1049.95 C 1364.52 1052.18 1367.25 1056.93 1370.78 1060.6 C 1399.83 1090.81 1450.77 1091.74 1489.6 1093.02 C 1493.7 1107.51 1497.04 1126.63 1500.65 1141.81 C 1511.98 1189.38 1522.63 1235.09 1535.86 1282.24 C 1506.63 1289.14 1492.67 1296.37 1470.95 1315.78 C 1467.85 1315.23 1467.79 1314.22 1465.04 1311.56 C 1452.41 1298.68 1437.62 1281.4 1425.54 1267.8 L 1357.28 1190.89 L 1311.26 1139.8 C 1303.25 1130.75 1291.71 1118.1 1285.47 1108 C 1310.4 1088.25 1338.93 1069.28 1362.4 1049.95 z" fill="#E6E4DF" transform="translate(0,0)"></path>
<path d="M 1110.2 831.085 C 1111.73 831.261 1126.43 838.91 1129.61 840.313 C 1185.98 865.196 1240.43 894.378 1296.38 920.292 C 1317.31 929.989 1338.7 941.663 1359.87 950.427 C 1360.26 978.09 1359.54 1006.88 1359.52 1034.76 C 1348.91 1040.98 1321.4 1062.78 1310.4 1071.08 C 1299.24 1079.29 1286.75 1087.66 1275.32 1095.64 C 1250.42 1064.9 1221.65 1035.14 1198.14 1003.52 C 1158.16 949.773 1115.45 894.465 1078.56 838.703 C 1090.05 836.32 1098.88 834.364 1110.2 831.085 z" fill="#E6E4DF" transform="translate(0,0)"></path>
<path d="M 1634.85 636.917 L 1647.5 636.974 C 1651.89 645.316 1656.78 658.277 1660.55 667.357 C 1666.99 682.886 1673.69 698.308 1680.64 713.617 C 1689.09 732.076 1713.82 774.096 1717.21 789.999 C 1709.72 795.88 1697.36 805.867 1696.48 815.718 C 1694.06 842.85 1694.93 871.791 1693.23 899.171 C 1692.28 914.395 1693.16 929.019 1692.14 944.115 C 1664.45 953.52 1638.51 965.242 1610.57 975.064 C 1605.47 976.86 1599.55 978.442 1594.31 979.975 C 1595.26 957.209 1595.82 935.365 1595.97 912.566 C 1596.03 903.769 1599.07 894.372 1598.98 885.494 C 1598.9 880.461 1597.74 875.504 1595.57 870.961 C 1585.11 848.651 1554.87 838.419 1533.63 831.144 C 1536.31 826.489 1539.38 821.956 1542.66 817.817 C 1575.88 775.889 1600.54 728.756 1618.18 678.33 C 1622.7 665.411 1628.42 649.138 1634.85 636.917 z" fill="#E6E4DF" transform="translate(0,0)"></path>
<path d="M 469.761 660.717 C 470.021 660.958 470.34 661.15 470.542 661.442 C 472.809 664.708 484.798 821.174 484.777 836.351 C 466.413 841.063 447.237 848.919 433.492 862.444 C 417.917 877.77 420.828 899.21 421.013 919.227 L 421.717 975.64 C 403.606 967.618 386.131 959.112 367.749 951.489 C 362.791 949.504 357.383 946.696 352.531 944.337 L 354.199 875.972 C 355.268 835.265 361.397 829.291 326.719 803.803 C 343.229 784.578 366.11 764.694 384.182 746.182 L 429.622 699.596 C 441.566 687.176 456.344 670.687 469.761 660.717 z" fill="#E6E4DF" transform="translate(0,0)"></path>
<path d="M 442.64 1298.4 C 475.796 1293.31 532.792 1303.83 559.451 1325.6 C 568.655 1333.02 569.776 1337.13 571.053 1348.01 C 575.35 1384.62 519.397 1394.4 490.752 1396.27 C 454.423 1398.88 410.147 1395.11 379.916 1373.08 C 366.501 1363.74 351.637 1342.88 365.599 1327.75 C 383.209 1308.66 418.206 1300.64 442.64 1298.4 z" fill="#E6E4DF" transform="translate(0,0)"></path>
<path d="M 399.94 1332.29 C 408.095 1331.73 431.59 1332.6 428.273 1345.24 C 423.711 1350.24 420.238 1350.54 413.511 1351.91 C 405.808 1352.26 380.722 1351.17 383.928 1338.92 C 388.612 1334.13 393.44 1333.25 399.94 1332.29 z" fill="#08090A" transform="translate(0,0)"></path>
<path d="M 529.056 1337.18 C 537.269 1336.2 557.549 1336.86 554.571 1349.58 C 550.213 1354.82 546.69 1354.74 539.962 1355.9 C 532.423 1355.83 512.271 1355.03 513.718 1343.95 C 517.707 1338.93 522.786 1338.64 529.056 1337.18 z" fill="#08090A" transform="translate(0,0)"></path>
<path d="M 462.97 1306.22 C 472.753 1305.58 486.016 1306.02 493.005 1313.87 C 493.821 1320.6 486.552 1321.47 481.182 1322.89 C 471.336 1323.35 456.648 1323.69 450.059 1315.23 C 449.647 1308.36 457.526 1307.55 462.97 1306.22 z" fill="#08090A" transform="translate(0,0)"></path>
<path d="M 464.715 1360.21 C 472.083 1360.08 485.744 1360.47 488.787 1368.58 L 487.552 1370.93 C 483.68 1373.7 482.526 1373.69 477.755 1374.88 C 472.173 1375.06 450.857 1373.35 454.181 1364.39 C 457.705 1361.5 460.218 1361.31 464.715 1360.21 z" fill="#08090A" transform="translate(0,0)"></path>
<path d="M 524.946 841.414 C 561.466 840.571 600.032 846.318 628.836 869.157 C 662.709 896.015 639.606 924.119 606.927 932.474 C 586.973 937.575 573.727 940.612 553.227 941.143 C 518.05 941.772 477.317 936.091 448.065 914.824 C 434.284 904.805 427.159 887.531 440.456 873.784 C 461.203 852.336 496.092 843.314 524.946 841.414 z" fill="#E6E4DF" transform="translate(0,0)"></path>
<path d="M 535.69 847.214 C 545.771 846.47 561.974 846.368 568.861 855.015 C 569.641 860.869 562.043 862.678 557.394 863.847 C 546.858 864.901 532.357 864.566 524.545 856.169 C 523.008 849.763 530.685 848.609 535.69 847.214 z" fill="#08090A" transform="translate(0,0)"></path>
<path d="M 603.958 888.272 C 612.211 888.251 618.234 887.282 623.738 894.278 C 625.709 904.14 615.827 905.809 608.311 907.244 C 599.743 906.996 593.384 906.473 587.482 900.256 C 586.336 896.466 586.282 898.3 587.694 894.562 C 592.662 889.759 597.266 889.392 603.958 888.272 z" fill="#08090A" transform="translate(0,0)"></path>
<path d="M 466.978 885.221 C 476.671 884.07 488.215 884.595 496.356 890.496 C 497.998 893.567 497.836 892.005 496.893 895.331 C 493.982 898.529 491.088 899.328 487.096 901.04 C 477.418 903.803 465.952 904.593 458.583 896.452 C 456.781 889.609 461.613 888.01 466.978 885.221 z" fill="#08090A" transform="translate(0,0)"></path>
<path d="M 540.734 905.231 C 548.233 904.723 560.032 905.678 563.775 913.243 L 562.855 915.661 C 559.419 918.695 556.661 919.105 552.284 920.428 C 544.754 920.877 530.641 921.079 527.736 912.485 L 529.067 909.936 C 532.976 906.91 535.96 906.522 540.734 905.231 z" fill="#08090A" transform="translate(0,0)"></path>
<path d="M 1008.74 1129.42 C 1039.46 1125.65 1088.86 1135.85 1114.91 1154.3 C 1128.43 1163.87 1136.02 1180.47 1122.87 1194.28 C 1101.77 1216.43 1068.23 1220.64 1039.25 1222.94 C 1012.27 1223.75 917.355 1221.63 913.836 1178.92 C 910.923 1143.56 981.217 1131.9 1008.74 1129.42 z" fill="#E6E4DF" transform="translate(0,0)"></path>
<path d="M 948.282 1167.27 C 950.351 1167.1 952.424 1166.99 954.5 1166.94 C 961.479 1166.83 980.702 1169.34 977.678 1179.63 C 974.515 1183.13 972.843 1183.54 968.45 1185.64 C 959.793 1187.39 936.895 1187.6 936.465 1175.12 C 939.286 1170.03 942.936 1169.01 948.282 1167.27 z" fill="#08090A" transform="translate(0,0)"></path>
<path d="M 1018.83 1138.21 C 1026.5 1137.42 1049.74 1137.45 1047.02 1149.53 C 1043.15 1154.02 1038.41 1154.68 1032.75 1155.77 C 1024.8 1156.39 1005 1155.83 1005.59 1144.48 C 1008.76 1139.72 1013.35 1139.4 1018.83 1138.21 z" fill="#08090A" transform="translate(0,0)"></path>
<path d="M 1022.58 1190.18 C 1030.27 1189.78 1046.88 1190.49 1047.16 1200.97 C 1044.07 1206.03 1040.23 1206.38 1034.56 1207.86 C 1026.81 1209.23 1007.78 1208.27 1010.03 1196.76 C 1013.48 1192.13 1017.05 1191.58 1022.58 1190.18 z" fill="#08090A" transform="translate(0,0)"></path>
<path d="M 1090.49 1164.15 C 1099.19 1163.79 1107.8 1165.54 1113.31 1172.79 C 1114.55 1180.11 1109.38 1181.07 1103.39 1183.04 C 1095.48 1183.33 1076.86 1183 1078.36 1170.93 C 1081.15 1166.39 1085.57 1165.41 1090.49 1164.15 z" fill="#08090A" transform="translate(0,0)"></path>
<path d="M 1028.61 1687.4 C 1060.36 1682.32 1116.56 1695.5 1142.38 1714.56 C 1163.47 1730.13 1157.7 1754.59 1134.98 1765.64 C 1115.63 1775.05 1100.09 1777.85 1078.76 1779.3 C 1042.72 1782.44 971.383 1776.66 950.61 1742.53 C 950.338 1738.26 950.1 1729.87 951.193 1725.75 C 958.945 1696.54 1004.41 1689.96 1028.61 1687.4 z" fill="#E6E4DF" transform="translate(0,0)"></path>
<path d="M 1110.26 1723.28 C 1117.75 1723.3 1125.37 1722.65 1130.09 1729.28 C 1131.03 1738.77 1119.22 1739.54 1112.23 1740.43 C 1110.49 1740.38 1108.74 1740.32 1107 1740.24 C 1100.09 1739.91 1095.8 1740 1091.04 1734.78 C 1089.25 1725.37 1103.61 1724.28 1110.26 1723.28 z" fill="#08090A" transform="translate(0,0)"></path>
<path d="M 981.764 1722.2 C 990.437 1721.68 998.958 1722.43 1004.15 1730.21 C 1004.62 1737.89 997.911 1738.59 991.758 1739.99 C 985.138 1740.23 962.648 1741.53 966.312 1729.66 C 970.421 1725.22 976.018 1723.5 981.764 1722.2 z" fill="#08090A" transform="translate(0,0)"></path>
<path d="M 1047.3 1700.41 C 1054.52 1700.47 1068.14 1701.3 1066.55 1711.48 C 1062.6 1716.26 1058.89 1716.36 1052.66 1717.48 C 1045.86 1717.41 1028.19 1716.52 1031.5 1705.5 C 1035.96 1700.7 1040.89 1701.03 1047.3 1700.41 z" fill="#08090A" transform="translate(0,0)"></path>
<path d="M 1035.91 1750.28 C 1042.55 1749.78 1062.78 1747.55 1063.81 1756.47 C 1061.96 1760.06 1061.03 1760.35 1057.59 1762.77 C 1049.27 1764.69 1036.36 1764.17 1030.71 1754.65 C 1030.03 1753.5 1030.89 1752.77 1031.58 1751.5 L 1035.91 1750.28 z" fill="#08090A" transform="translate(0,0)"></path>
<path d="M 1570.59 1292.42 C 1604.39 1290.71 1642.79 1296.53 1671.25 1316.35 C 1684.29 1325.44 1687.9 1342.15 1676.57 1354.34 C 1655.18 1377.37 1622.81 1381.7 1593.14 1383.81 C 1559.79 1384.45 1514.92 1380.54 1488.97 1357.89 C 1459.04 1331.76 1493.66 1310 1517.99 1302.58 C 1538.1 1296.45 1549.58 1293.62 1570.59 1292.42 z" fill="#E6E4DF" transform="translate(0,0)"></path>
<path d="M 1506.58 1334.16 C 1514.59 1333.73 1542.04 1334.35 1540.45 1345.86 C 1537.94 1349.54 1536.32 1350.1 1532.39 1352.5 C 1510.59 1359.62 1485.65 1343.19 1506.58 1334.16 z" fill="#08090A" transform="translate(0,0)"></path>
<path d="M 1644.59 1332.3 C 1653.95 1331.63 1670.36 1333.42 1667.27 1346.69 C 1663.49 1351.55 1660.75 1351.77 1654.63 1352.58 C 1646.95 1351.66 1627.44 1348.45 1629.54 1337.64 C 1633.75 1333.04 1638.53 1333.12 1644.59 1332.3 z" fill="#08090A" transform="translate(0,0)"></path>
<path d="M 1579.52 1305.48 C 1585.44 1305.01 1602.31 1308.85 1600.97 1317.74 C 1597.29 1322.07 1593.25 1322.32 1587.71 1323.2 C 1580.37 1322.95 1560.59 1322.18 1562.09 1311.28 C 1566.51 1305.86 1572.41 1306.29 1579.52 1305.48 z" fill="#08090A" transform="translate(0,0)"></path>
<path d="M 1579.54 1359.14 C 1586.04 1358.82 1593.98 1359.99 1596.4 1366.94 C 1594.84 1370.34 1595.38 1369.25 1591.74 1371.59 C 1585.6 1372 1577.09 1371.9 1574.89 1365.12 C 1575.91 1361.55 1576.6 1361.35 1579.54 1359.14 z" fill="#08090A" transform="translate(0,0)"></path>
<path d="M 454.949 413.394 C 487.146 410.228 531.606 414.919 558.961 434.032 C 581.821 450.427 576.449 473.76 552.454 485.346 C 529.887 496.242 506.549 500.847 481.751 502.25 C 452.638 504.361 405.729 497.672 380.03 481.719 C 367.643 474.896 358.085 455.759 369.811 443.933 C 387.547 426.046 431.729 415.981 454.949 413.394 z" fill="#E6E4DF" transform="translate(0,0)"></path>
<path d="M 402.582 445.151 C 411.856 444.777 418.979 445.321 426.538 451.647 C 427.947 454.869 427.85 453.261 426.819 456.636 C 424.046 459.499 420.139 460.148 416.228 461.319 C 408.073 463.38 398.05 462.092 392.131 455.667 C 390.189 448.069 396.529 447.151 402.582 445.151 z" fill="#08090A" transform="translate(0,0)"></path>
<path d="M 473.885 419.221 C 480.237 419.223 494.299 420.014 493.107 429.097 C 489.144 434.167 484.064 433.906 477.507 434.935 C 471.371 435.138 455.7 437.18 458.063 426.906 C 462.651 421.531 467.085 421.046 473.885 419.221 z" fill="#08090A" transform="translate(0,0)"></path>
<path d="M 530.136 448.199 C 550.73 447.117 556.563 459.168 534.712 465.238 C 528.11 464.615 514.86 463.758 515.78 454.556 C 519.421 449.794 524.328 449.491 530.136 448.199 z" fill="#08090A" transform="translate(0,0)"></path>
<path d="M 456.445 469.247 C 464 468.811 475.919 468.506 480.605 475.388 L 480.152 477.671 C 477.548 480.978 475.936 481.343 472.002 483.246 C 464.83 484.659 445.238 482.914 447.891 472.84 C 450.502 470.161 452.759 470.089 456.445 469.247 z" fill="#08090A" transform="translate(0,0)"></path>
<path d="M 225.94 793.393 C 256.97 788.814 301.191 801.068 327.495 818.068 C 339.612 825.898 348.975 843.082 337.018 855.302 C 317.579 875.169 284.798 880.972 258.248 883.882 C 224.081 886.001 183.141 884.109 153.426 864.799 C 139.984 856.371 133.168 839.27 145.129 826.344 C 164.892 804.988 198.462 796.476 225.94 793.393 z" fill="#E6E4DF" transform="translate(0,0)"></path>
<path d="M 167.818 837.156 C 175.631 836.517 201.338 836.127 200.852 847.079 C 198.847 850.138 196.058 850.869 192.628 852.429 C 182.089 855.974 167.742 856.552 159.502 847.868 C 157.747 841.488 162.657 839.623 167.818 837.156 z" fill="#08090A" transform="translate(0,0)"></path>
<path d="M 231.713 804.126 C 240.18 803.566 247.135 802.776 253.047 809.92 C 253.962 817.525 246.476 818.255 240.598 819.713 C 233.479 821.057 218.087 822.376 218.681 811.335 C 221.963 806.159 225.665 805.77 231.713 804.126 z" fill="#08090A" transform="translate(0,0)"></path>
<path d="M 301.938 828.232 C 309.17 827.828 321.993 828.084 320.861 838.362 C 317.247 843.507 314.328 843.631 308.042 844.855 C 301.579 844.93 285.523 844.194 288.045 834.258 C 291.839 829.767 296.227 829.379 301.938 828.232 z" fill="#08090A" transform="translate(0,0)"></path>
<path d="M 235.383 857.228 C 241.33 857.051 251.364 856.4 254.461 862.363 C 253.121 866.356 253.509 865.139 250.021 868.329 C 243.505 869.061 234.31 867.848 231.053 861.472 C 232.537 857.918 231.387 859.491 235.383 857.228 z" fill="#08090A" transform="translate(0,0)"></path>
<path d="M 1024.59 591.406 C 1054.71 586.663 1108.98 599.367 1132.57 619.42 C 1143.6 628.8 1146.79 641.83 1135.63 652.471 C 1115.59 671.579 1082.59 678.529 1055.88 679.113 C 1020.28 679.664 980.985 675.535 950.666 654.009 C 945.793 650.693 937.05 641.209 937.361 634.766 C 938.991 600.972 1001.47 593.616 1024.59 591.406 z" fill="#E6E4DF" transform="translate(0,0)"></path>
<path d="M 1032.78 597.238 C 1044.2 595.634 1060.03 596.604 1067.91 606.051 L 1067.52 609.155 C 1065.1 611.419 1060.46 612.701 1057.32 613.43 C 1049.59 614.171 1023.01 613.889 1024.75 602.757 C 1027.56 599.283 1028.55 599.17 1032.78 597.238 z" fill="#08090A" transform="translate(0,0)"></path>
<path d="M 975.192 625.189 C 982.899 624.76 1002.59 624.513 1001.61 635.747 C 999.392 639.386 997.854 639.595 993.749 641.485 C 985.837 642.907 965.053 640.333 967.296 629.564 C 970.144 626.492 971.019 626.528 975.192 625.189 z" fill="#08090A" transform="translate(0,0)"></path>
<path d="M 1096.2 628.333 C 1105.2 628.131 1113.67 628.198 1121.32 633.636 C 1122.92 636.708 1122.81 635.187 1121.89 638.327 C 1118.8 641.568 1118.01 641.592 1113.67 643.261 C 1104.05 644.789 1094.08 644.952 1086.99 636.964 C 1085.99 633.575 1085.79 635.098 1087.22 632.206 C 1090.8 629.384 1091.61 629.454 1096.2 628.333 z" fill="#08090A" transform="translate(0,0)"></path>
<path d="M 1033.25 647.202 C 1041.3 646.644 1059.91 646.666 1062.92 655.417 C 1061.27 658.924 1061.4 658.041 1057.76 660.62 C 1050.47 662.067 1030.21 662.821 1028.61 653.058 C 1030.04 649.507 1030.37 649.579 1033.25 647.202 z" fill="#08090A" transform="translate(0,0)"></path>
<path d="M 1462.56 837.427 C 1560.79 832.442 1657.25 903.725 1498.04 923.834 C 1464.73 925.891 1412.06 919.618 1386.05 899.653 C 1351.77 873.338 1402.62 845.931 1426.48 842.259 C 1440.41 840.116 1448.95 838.276 1462.56 837.427 z" fill="#E6E4DF" transform="translate(0,0)"></path>
<path d="M 1471.92 846.167 C 1481.94 845.829 1493.61 846.085 1500.04 855.309 C 1500.9 862.573 1494.73 862.797 1488.91 863.974 C 1487.38 864.041 1485.86 864.098 1484.34 864.144 C 1476.91 864.361 1458.09 862.991 1457.87 853.14 C 1461.29 848.577 1466.52 847.452 1471.92 846.167 z" fill="#08090A" transform="translate(0,0)"></path>
<path d="M 1530.84 871.273 C 1538.36 870.61 1556.98 869.302 1558.03 879.802 C 1555.43 884.988 1551.56 885.878 1546.22 887.985 C 1537.44 890.028 1527.87 890.874 1521.73 882.759 C 1520.41 875.706 1525.21 873.915 1530.84 871.273 z" fill="#08090A" transform="translate(0,0)"></path>
<path d="M 1403.67 868.211 C 1411.29 867.47 1430.39 868.231 1429.58 879.096 C 1427.45 882.417 1425.46 882.856 1421.85 884.509 C 1414.17 885.619 1394.38 885.505 1396.41 874.053 C 1399.08 870.456 1399.59 870.401 1403.67 868.211 z" fill="#08090A" transform="translate(0,0)"></path>
<path d="M 1469.51 896.267 C 1472.1 895.986 1474.71 895.883 1477.31 895.957 C 1482.39 896.125 1491.47 898.188 1491.34 904.457 C 1489.43 907.586 1488.94 907.516 1485.78 909.28 C 1479.58 910.263 1463.67 910.597 1463.75 901.585 C 1465.49 898.383 1466.42 898.131 1469.51 896.267 z" fill="#08090A" transform="translate(0,0)"></path>
<path d="M 1064.31 131.451 C 1091.41 131.646 1112.13 133.799 1137.2 145.063 C 1154.41 152.796 1180.42 173.232 1159.87 191.946 C 1137.62 212.218 1093.22 216.696 1064.74 216.757 C 1033.94 215.084 997.387 211.793 971.971 192.957 C 950.919 176.079 963.246 156.8 983.414 147.478 C 1009.81 135.278 1035.82 132.73 1064.31 131.451 z" fill="#E6E4DF" transform="translate(0,0)"></path>
<path d="M 1120.86 164.247 C 1129.66 163.623 1137.67 164.256 1143.38 171.512 C 1145.54 181.291 1135.27 182.308 1127.98 183.717 C 1120.27 184.05 1102.43 181.655 1106.22 170.297 C 1110.48 165.77 1114.76 165.342 1120.86 164.247 z" fill="#08090A" transform="translate(0,0)"></path>
<path d="M 1000.43 164.168 C 1008.36 163.449 1026.47 163.496 1027.6 174.03 C 1025.18 178.799 1021.38 179.857 1016.45 181.711 C 1007.22 183.735 994.323 183.035 988.722 174.276 C 988.319 166.869 994.392 165.989 1000.43 164.168 z" fill="#08090A" transform="translate(0,0)"></path>
<path d="M 1061.61 137.087 C 1072.08 136.317 1082.66 136.661 1090.48 144.831 C 1092.2 152.083 1085.09 152.755 1079.48 153.976 C 1069.42 154.365 1057.97 154.527 1050.01 147.341 C 1047.82 140.347 1056.33 138.909 1061.61 137.087 z" fill="#08090A" transform="translate(0,0)"></path>
<path d="M 1050.7 187.269 C 1058.52 186.972 1083.1 184.021 1087.24 191.236 C 1086.19 195.081 1086.23 194.112 1083.05 197.369 C 1073.73 200.281 1055.46 201.162 1049.02 192.464 C 1048.96 188.641 1048.42 190.312 1050.7 187.269 z" fill="#08090A" transform="translate(0,0)"></path>
<path d="M 1620.64 395.421 C 1647.39 392.854 1702.1 404.552 1722.41 421.387 C 1773.22 463.511 1679.61 478.62 1657.25 480.068 C 1624.58 482.164 1594.19 478.103 1564.29 464.212 C 1548.27 456.775 1527.86 438.44 1544.17 420.886 C 1562.2 401.488 1595.81 397.392 1620.64 395.421 z" fill="#E6E4DF" transform="translate(0,0)"></path>
<path d="M 1567.08 427.036 C 1577.11 426.776 1588.98 427.948 1595.12 437.164 C 1596.05 443.99 1591.48 445.219 1585.77 447.346 C 1576.37 448.216 1558.87 448.685 1556.96 436.512 C 1558.76 431.061 1562.13 429.585 1567.08 427.036 z" fill="#08090A" transform="translate(0,0)"></path>
<path d="M 1691.35 430.108 C 1699.83 429.583 1718.3 430.255 1718.17 442.003 C 1715.1 447.108 1711.68 447.411 1705.99 448.872 C 1696.53 449.723 1685.84 449.484 1679.82 440.734 C 1679.06 433.395 1685.41 432.134 1691.35 430.108 z" fill="#08090A" transform="translate(0,0)"></path>
<path d="M 1634.43 407.325 C 1643.14 407.672 1648.31 408.236 1654.56 414.478 C 1655.62 417.99 1655.77 416.342 1654.12 419.59 C 1650.95 422.201 1647.65 422.341 1643.51 423.135 C 1636.52 423.283 1620.66 423.246 1620.85 413.214 C 1624.36 408.434 1628.64 408.279 1634.43 407.325 z" fill="#08090A" transform="translate(0,0)"></path>
<path d="M 1622.81 453.135 C 1630.16 452.293 1654.71 450.892 1657.11 459.269 C 1655.97 462.308 1654.82 462.68 1652.11 464.483 C 1643.72 466.131 1623.96 467.334 1619.17 458.977 C 1619.87 455.085 1619.49 456.41 1622.81 453.135 z" fill="#08090A" transform="translate(0,0)"></path>
<path d="M 1777.15 783.189 C 1785.41 782.123 1776.57 791.97 1789.28 799.717 C 1800.2 806.37 1812.43 809.17 1825.28 806.569 C 1834.79 804.644 1839.19 800.644 1844.16 793.05 C 1915.28 806.524 1937.02 855.898 1853.24 870.72 C 1766.84 885.639 1623.89 820.521 1777.15 783.189 z" fill="#E6E4DF" transform="translate(0,0)"></path>
<path d="M 1862.53 818.282 C 1871.9 816.783 1883.31 820.052 1888.39 828.53 C 1889.24 836.532 1885.03 836.941 1878.24 839.014 C 1867.96 839.65 1852.32 838.839 1848.4 826.867 C 1849.75 819.386 1855.96 819.202 1862.53 818.282 z" fill="#08090A" transform="translate(0,0)"></path>
<path d="M 1741.37 812.286 C 1749.09 811.778 1770.71 814.634 1767.85 825.596 C 1764.84 828.655 1763.48 828.684 1759.2 830.007 C 1749.01 830.477 1738.23 829.892 1731.27 821.17 C 1729.92 814.294 1735.88 813.647 1741.37 812.286 z" fill="#08090A" transform="translate(0,0)"></path>
<path d="M 1803.35 838.274 C 1810.84 837.282 1833.02 838.807 1829.37 849.882 C 1826.23 852.889 1825.69 852.803 1821.32 853.957 C 1813.4 853.607 1798.01 852.405 1794.17 844.361 L 1794.96 842.277 C 1797.72 839.588 1799.66 839.38 1803.35 838.274 z" fill="#08090A" transform="translate(0,0)"></path>
<path d="M 1680.92 1413.87 C 1686.1 1418.11 1683.03 1432.04 1679.34 1436.64 C 1668.69 1449.91 1646.34 1456.58 1630.37 1459.2 C 1586.46 1466.38 1520.43 1465.61 1483.15 1439.75 C 1478.58 1434.18 1475.97 1421.31 1481.03 1415.86 C 1488.81 1417.11 1501.71 1422.85 1509.73 1425.56 C 1555.05 1440.88 1642.69 1444.67 1680.92 1413.87 z" fill="#E6E4DF" transform="translate(0,0)"></path>
<path d="M 1576.91 1031.9 C 1578.61 1033.45 1578.73 1032.99 1579.25 1035 C 1580.19 1038.68 1579.55 1042.58 1577.49 1045.76 C 1563.8 1067.38 1521.08 1074.13 1497.8 1075.5 C 1459.05 1077.78 1417.95 1073.87 1383.84 1053.99 C 1378.21 1049.33 1376.09 1045.76 1376.76 1038.21 C 1378.83 1034.66 1377.45 1035.97 1381.03 1034.06 L 1384.08 1035.19 C 1446.16 1058.07 1516.07 1059.95 1576.91 1031.9 z" fill="#E6E4DF" transform="translate(0,0)"></path>
<path d="M 953.618 1807.99 C 1002.27 1836.2 1076.36 1844.51 1128.86 1820.89 C 1133.23 1818.92 1146.78 1810.99 1150.54 1811.34 C 1154.2 1815.57 1153.39 1824.7 1151.42 1829.64 C 1111.5 1866.21 992.999 1863.18 952.718 1826.83 C 952.73 1820.6 953.235 1814.22 953.618 1807.99 z" fill="#E6E4DF" transform="translate(0,0)"></path>
<path d="M 951.472 1871.39 C 961.334 1875.29 972.094 1882.52 981.443 1885.82 C 1024.35 1901 1085.19 1901.6 1127.87 1884.7 C 1133.27 1882.56 1149.01 1873.72 1152.41 1874.27 C 1156.35 1879.16 1153.89 1886.64 1151.11 1891.53 C 1149.78 1892.76 1146.3 1895.9 1144.88 1896.8 C 1111.3 1918.14 1056.78 1922.17 1018.68 1916.38 C 999.953 1913.53 966.33 1905.1 954.857 1889.01 C 950.191 1882.47 950.399 1878.74 951.472 1871.39 z" fill="#E6E4DF" transform="translate(0,0)"></path>
<path d="M 940.7 780.186 C 948.936 782.378 961.775 789.297 971.534 792.392 C 1011.92 804.93 1054.85 806.887 1096.21 798.077 C 1105.62 796.096 1113.36 793.689 1122.21 789.835 C 1126.1 788.143 1134.02 783.598 1137.36 783.696 L 1138.89 785.558 C 1139.43 792.461 1138.81 794.707 1135.11 800.545 C 1133.75 801.713 1132.03 803.099 1130.54 804.117 C 1096.08 827.563 1038.53 828.187 998.746 821.625 C 982.11 818.881 952.323 811.026 942.722 796.21 C 938.686 789.981 939.401 787.043 940.7 780.186 z" fill="#E6E4DF" transform="translate(0,0)"></path>
<path d="M 363.757 1427.54 C 367.501 1428.47 384.864 1437.45 390.608 1439.81 C 417.435 1450.85 450.806 1456.24 479.699 1454.75 C 507.607 1453.31 546.943 1448.24 566.828 1426.43 C 566.345 1433.93 565.961 1438.6 564.632 1445.95 C 530.533 1492.56 354.077 1481.33 363.757 1427.54 z" fill="#E6E4DF" transform="translate(0,0)"></path>
<path d="M 924.817 1327.62 C 974.396 1351.43 1034.21 1354.64 1087.28 1341.62 C 1095.47 1339.61 1122.31 1324.95 1127.23 1331.33 C 1127.41 1336.32 1123.99 1340.38 1121.07 1344.21 C 1090.28 1371.51 1030.77 1373.7 991.917 1368.79 C 971.159 1366.17 940.852 1358.26 927 1341.02 C 923.242 1336.34 923.794 1333.09 924.817 1327.62 z" fill="#E6E4DF" transform="translate(0,0)"></path>
<path d="M 1709.31 975.279 C 1717.03 978.375 1722.09 982.319 1732.05 985.52 C 1777.76 1000.21 1825.32 1003.52 1872.3 992.708 C 1877.83 991.433 1883.94 989.707 1889.14 987.569 C 1894.45 985.384 1897.69 982.728 1903.36 981.435 L 1904.76 983.263 C 1905.21 989.081 1902.09 993.398 1898.59 997.706 C 1872.95 1019.06 1824.38 1023.38 1792.3 1020.93 C 1770.44 1019.27 1729.36 1012.47 1714.22 994.36 C 1707.9 986.813 1708.5 984.078 1709.31 975.279 z" fill="#E6E4DF" transform="translate(0,0)"></path>
<path d="M 921.358 1255.6 C 932.962 1259.61 943.058 1264.59 955.548 1267.86 C 994.596 1278.09 1033.54 1279.45 1073.35 1273.37 C 1086.43 1271.37 1113.81 1260.84 1121.64 1260.59 C 1128.65 1264.16 1124.45 1272.3 1120.44 1276.68 C 1093.13 1296.61 1020.68 1300.84 986.611 1294.95 C 970.34 1292.14 933.01 1284.97 922.788 1269.98 C 919.485 1265.14 920.514 1261.01 921.358 1255.6 z" fill="#E6E4DF" transform="translate(0,0)"></path>
<path d="M 939.582 709.98 C 950.511 713.088 959.827 720.28 970.977 724.185 C 1014.09 739.283 1064.01 741.555 1108.02 728.875 C 1117.31 726.198 1126.9 718.721 1136.67 717.924 C 1142.34 720.997 1137.41 729.329 1134.75 733.553 C 1105.88 759.842 1035.01 760.14 998.351 753.45 C 981.669 750.406 952.141 741.86 941.647 726.81 C 937.781 721.266 938.402 716.286 939.582 709.98 z" fill="#E6E4DF" transform="translate(0,0)"></path>
<path d="M 362.655 1494.37 C 370.559 1496.52 383.811 1505.26 393.081 1508.53 C 440.447 1525.41 493.783 1529.88 541.239 1510.93 C 547.591 1508.39 558.698 1498.77 563.706 1502.33 C 564.771 1507.64 562.577 1511.16 560.094 1515.87 C 523.792 1555.02 423.096 1547.95 380.516 1522.68 C 368.144 1515.34 362.616 1508.46 362.655 1494.37 z" fill="#E6E4DF" transform="translate(0,0)"></path>
<path d="M 1576.07 965.984 C 1579.48 968.47 1580.36 975.07 1578.43 978.56 C 1574.46 985.745 1565.95 990.925 1558.38 993.827 C 1518.24 1009.22 1471.42 1008.94 1429.43 1002.27 C 1414.04 999.694 1396.2 993.408 1382.09 987.636 C 1375.38 983.926 1372.21 974.514 1379.56 970.443 C 1384.31 970.054 1390.34 973.392 1395.41 975.012 C 1451.21 992.836 1523.18 992.141 1576.07 965.984 z" fill="#E6E4DF" transform="translate(0,0)"></path>
<path d="M 437.985 1038.66 C 441.657 1040.46 445.764 1043.43 449.459 1045.49 C 500.826 1074.06 570.514 1073.33 623.567 1049.8 C 629.625 1047.11 634.758 1043.13 641.411 1040.6 L 643.005 1041.38 C 644.599 1045.99 641.686 1051.48 639.408 1055.4 C 635.762 1059.52 631.531 1063.08 626.851 1065.98 C 592.266 1087.66 528.254 1089.79 489.334 1079.97 C 470.626 1075.25 431.698 1064.37 437.985 1038.66 z" fill="#E6E4DF" transform="translate(0,0)"></path>
<path d="M 1713.12 903.224 C 1762.41 926.626 1822.54 932.121 1875.59 919.393 C 1886.44 916.789 1890.05 914.368 1900.06 909.653 C 1902.18 908.655 1902.98 909.528 1904.47 910.356 C 1906.92 915.296 1904.77 922.371 1901.47 926.554 C 1869.08 948.283 1813.04 948.887 1775.64 942.535 C 1761.29 940.097 1722.2 931.519 1711.97 918.47 C 1709.27 915.017 1711.89 907.289 1713.12 903.224 z" fill="#E6E4DF" transform="translate(0,0)"></path>
<path d="M 368.389 535.507 C 374.672 536.995 386.718 545.567 393.479 548.428 C 414.046 556.836 438.177 560.486 460.271 561.732 C 487.927 563.292 517.51 561.042 543.79 551.868 C 549.942 549.72 563.672 540.271 569.529 541.106 L 570.817 542.944 C 570.854 549.633 570.519 550.629 566.301 555.896 C 540.86 576.714 516.862 576.669 486.023 580.38 C 465.645 582.833 351.122 574.642 368.389 535.507 z" fill="#E6E4DF" transform="translate(0,0)"></path>
<path d="M 1479.81 1471.7 C 1523.67 1513.25 1597.8 1512.24 1652.91 1497.26 C 1663.59 1494.36 1672.09 1489.78 1682.06 1485.47 L 1684.05 1486.46 L 1684.69 1489.03 C 1683.37 1493.76 1682.62 1494.38 1679.67 1498.49 C 1651.31 1525.88 1588.81 1526.72 1551.8 1522.16 C 1531.68 1519.68 1494.71 1510.68 1480.53 1494.17 C 1476.02 1488.91 1478.59 1478.19 1479.81 1471.7 z" fill="#E6E4DF" transform="translate(0,0)"></path>
<path d="M 965.38 249.651 C 1015.51 275.112 1073.32 280.996 1127.55 266.156 C 1141.32 262.331 1154.59 252.751 1160.26 251.63 L 1161.7 252.915 C 1162.72 258.296 1162.47 262.361 1159.63 267.076 C 1157.21 269.171 1154.66 271.116 1152 272.898 C 1118.78 295.419 1057.74 295.177 1019.85 287.928 C 1005.63 285.207 973.952 277.683 965.961 264.354 C 962.933 259.303 964.098 254.959 965.38 249.651 z" fill="#E6E4DF" transform="translate(0,0)"></path>
<path d="M 962.862 313.053 C 971.885 317.477 982.435 324.781 991.473 328.17 C 1033.63 343.978 1082.03 344.819 1125.52 334.169 C 1138.1 331.09 1146.04 323.935 1157.97 320.368 C 1160.39 319.643 1160.48 320.251 1162.14 321.425 C 1163.4 325.704 1161.5 328.792 1159.53 332.596 C 1158.91 333.204 1158.28 333.8 1157.64 334.385 C 1118.77 369.613 998.105 367.325 963.165 328.256 C 962.487 322.244 962.646 318.986 962.862 313.053 z" fill="#E6E4DF" transform="translate(0,0)"></path>
<path d="M 439.706 974.195 C 446.468 977.211 453.237 982.401 459.959 985.352 C 509.694 1007.19 568.39 1006.18 619.138 988.101 C 624.755 986.1 635.951 977 640.824 978.274 C 642.52 983 640.923 988.128 638.427 992.237 C 602.654 1023.26 527.044 1023.11 483.571 1011.98 C 467.502 1007.87 432.568 996.206 439.706 974.195 z" fill="#E6E4DF" transform="translate(0,0)"></path>
<path d="M 334.227 912.68 L 335.301 913.138 C 339.105 919.005 336.995 926.467 332.033 930.936 C 292.519 966.519 182.205 966.962 144.025 931.943 C 141.457 928.005 137.808 920.291 141.071 916.117 C 145.447 916.663 158.39 924.193 163.462 926.395 C 176.208 931.93 182.56 934.082 196.006 936.568 C 234.983 943.776 277.941 942.629 314.275 925.474 C 320.111 922.718 328.731 916.52 334.227 912.68 z" fill="#E6E4DF" transform="translate(0,0)"></path>
<path d="M 1539.41 579.767 C 1548.03 582.249 1560.67 589.113 1571.62 592.392 C 1611.02 604.181 1648.61 605.741 1689.02 599.147 C 1694.25 598.294 1730.4 589.396 1729.62 589.327 L 1729.82 591.385 C 1727.43 595.887 1726.2 596.692 1722.43 600.33 C 1692.14 621.324 1649.94 623.948 1614.14 619.569 C 1594.99 617.226 1554.33 607.915 1541.28 591.556 C 1538.17 587.659 1538.78 584.362 1539.41 579.767 z" fill="#E6E4DF" transform="translate(0,0)"></path>
<path d="M 136.792 981.195 C 141.128 982.444 153.139 992.145 163.653 995.565 C 204.348 1008.8 252.345 1013.18 293.759 1000.93 C 306.242 997.243 323.324 988.343 334.995 982.397 L 336.837 983.181 C 338.264 987.236 335.057 991.356 332.9 994.516 C 304.22 1022.82 239.784 1027.8 202.07 1021.83 C 183.126 1018.83 131.587 1008.53 136.792 981.195 z" fill="#E6E4DF" transform="translate(0,0)"></path>
<path d="M 365.41 598.376 C 368.281 599.873 374.476 604.271 377.78 606.356 C 419.624 632.768 484.085 636.239 531.195 624.469 C 538.174 622.725 546.125 620.135 552.813 617.334 C 557.855 615.222 561.415 612.283 566.785 610.993 L 567.617 612.201 C 566.499 616.348 565.625 616.904 562.715 620.29 C 560.891 621.913 559.028 623.492 557.128 625.026 C 528.997 647.632 478.367 648.939 444.172 645.567 C 422.077 643.388 360.792 629.288 365.41 598.376 z" fill="#E6E4DF" transform="translate(0,0)"></path>
<path d="M 1539.78 510.486 C 1588.09 541.607 1676.87 542.223 1729.1 520.565 C 1733.6 523.324 1728.91 529.806 1726.92 533.015 C 1698.78 559.092 1568.82 558.081 1540.58 524.508 C 1537.22 520.506 1538.7 515.221 1539.78 510.486 z" fill="#E6E4DF" transform="translate(0,0)"></path>
<metadata><recraft-signature>{"signed_by": "recraft", "signature_b64": "+22FbJW2dZ0DJiJZeT7A2GwOow+zONfeHD7NwBc7WuuEhbotQlCoh7i5lEcGk1wgZ3T0l1WPFy1PLuwkaZeTCA==", "signing_algo": "Ed25519", "generation_timestamp": 1777231721, "identifier": "c7028b9f-783d-4de6-b102-319f39b3676a"}</recraft-signature></metadata></svg>