<svg xmlns="http://www.w3.org/2000/svg" height="1024" preserveAspectRatio="none" style="display: block;" version="1.1" viewBox="0 0 2048 1152" width="1820">
<path d="M 0 0 L 2048 0 L 2048 1152 L 0 1152 L 0 0 z" fill="#E6E4DF" transform="translate(0,0)"></path>
<path d="M 955.345 126.293 L 955.803 126.315 C 965.556 126.712 982.083 125.54 992.376 125.302 C 1010.11 125.061 1027.84 125.117 1045.58 125.47 C 1056.61 125.612 1067.96 124.989 1078.59 127.516 L 1078.86 128.198 C 1065.78 132.021 1048.09 131.145 1033.8 132.571 L 1032.82 135.954 C 1044.79 136.688 1070.85 136.915 1080.84 138.772 L 1081.62 139.698 C 1061.95 146.586 990.933 140.625 966.611 143.284 C 965.454 147.214 965.843 149.79 965.506 153.008 C 962.343 183.224 968.87 344.585 959.985 359.923 C 957.313 360.456 958.41 360.545 955.574 358.812 C 951.173 351.532 954.832 318.3 953.719 310.579 C 951.001 291.731 955.237 153.879 951.242 148.11 C 934.247 145.208 886.402 147.747 867.965 147.846 L 761.99 148.777 C 754.348 148.903 725.141 149.116 719.609 150.565 C 716.715 154.962 717.413 168.247 717.431 173.983 C 723.594 180.194 750.276 173.03 761.935 177.541 L 763.803 179.458 C 763.704 180.701 763.95 181.246 763.284 181.756 C 758.275 185.593 726.253 184.459 720.546 183.595 C 719.74 183.473 718.938 183.33 718.141 183.165 C 717.926 189.784 717.82 196.405 717.821 203.027 C 726.285 201.598 757.103 199.637 762.766 205.893 C 760.763 213.506 724.14 210.313 716.956 208.87 C 717.77 216.103 717.519 220.903 716.589 228.098 C 725.363 227.829 759.34 226.202 764.35 230.908 C 763.326 242.261 726.298 232.059 718.936 236.206 C 716.707 237.461 717.771 251.404 717.921 254.014 C 727.01 253.872 757.71 251.318 763.808 256.948 L 763.976 258.934 C 759.09 263.161 737.254 261.797 730.33 261.287 C 726.41 260.986 722.495 260.639 718.583 260.245 C 717.195 263.462 717.312 275.466 717.13 280.019 C 726.076 280.013 757.784 278.907 763.507 281.462 L 764.448 282.637 C 761.39 294.357 728.103 283.738 718.189 287.962 C 717.169 292.542 717.303 300.834 717.714 305.568 C 725.434 305.132 760.513 303.234 764.784 307.638 C 764.711 310.649 764.916 309.559 762.553 312.363 C 756.687 313.643 731.388 312.876 724.036 312.352 C 722.411 312.237 718.707 311.005 718.53 311.912 C 716.94 320.075 716.916 352.864 718.972 358.947 C 725.728 364.625 941.371 360.67 947.782 368.528 C 942.353 373.938 831.976 372.167 817.052 372.217 C 816.401 394.631 814.569 433.702 811.395 455.633 C 822.022 455.718 840.419 455.166 850.293 456.48 C 850.189 445.994 851.919 386.424 856.107 381.094 C 860.835 386.382 863.961 443.907 864.82 453.787 C 864.921 454.948 870.806 455.467 871.731 455.491 C 887.629 457.046 952.192 453.167 962.002 457.96 C 967.17 465.062 962.309 532.648 964.272 549.214 C 970.828 548.503 977.089 548.653 983.656 548.527 C 1018.62 547.858 1053.18 545.279 1088.19 545.144 C 1088.2 535.632 1086.67 458.374 1091.79 457.204 C 1109.3 453.198 1170.09 455.062 1189.22 454.921 C 1187.11 440.192 1184.34 381.207 1179.91 373.057 C 1171.96 368.672 1120.5 374.78 1109.1 373.861 C 1101.89 373.281 1089.18 375.034 1088.97 365.023 C 1088.59 346.567 1088.72 328.435 1088.71 310.243 L 1088.8 133.548 C 1175 134.987 1264.55 131.775 1350.81 133.647 L 1354.96 140.796 C 1354.63 150.913 1353.39 214.511 1354.71 221.24 C 1375.12 222.783 1404.87 221.691 1426.05 221.459 C 1454.83 221.144 1487.82 222.462 1516.24 220.911 C 1516.5 207.725 1513.75 140.848 1518.45 134.47 C 1532.24 132.678 1552.96 133.812 1567.62 133.862 L 1658.9 134.127 L 1738.38 134.073 C 1751.93 134.081 1770.16 133.573 1783.13 134.983 C 1788.05 140.417 1785.6 195.755 1785.49 205.731 L 1783.94 327.482 C 1783.81 335.806 1783.83 351.97 1781.54 359.316 L 1779.79 360.353 C 1776.25 359.319 1777.55 360.098 1774.94 357.013 C 1773.94 353.353 1774.01 325.356 1773.96 320.045 C 1773.29 282.841 1772.98 245.631 1773.03 208.421 C 1773 198.983 1773.83 152.523 1772.06 146.577 C 1768.98 144.991 1696.15 146.306 1688.42 146.745 C 1672.38 147.657 1533.87 145.955 1530.56 148.779 C 1528.99 160.347 1530.69 205.908 1530.75 220.664 L 1530.16 359.128 C 1544.24 360.461 1558.82 360.598 1572.98 361.213 C 1617.35 362.737 1661.74 363.518 1706.14 363.555 L 1750.47 363.914 C 1760.22 363.974 1767.48 362.035 1776.05 367.135 L 1779.08 366.915 L 1780.05 367.998 C 1776.32 371.383 1765.77 372.44 1760.88 372.69 C 1760.94 402.784 1763.29 427.136 1764.37 456.105 C 1774.82 455.719 1785.34 455.624 1785.08 468.448 C 1783.68 537.953 1786.89 609.342 1783.46 678.64 L 1782.41 678.797 L 1780.87 676.68 C 1779.56 677.923 1779.34 679.094 1778.74 680.794 L 1776.74 682.068 C 1770.7 677.345 1775.39 624.781 1773.83 615.828 C 1770.21 595.136 1776.97 481.831 1771.08 469.863 C 1763.44 466.832 1653.65 468.945 1637.39 468.877 C 1613.87 468.677 1590.34 468.645 1566.82 468.783 C 1558.34 468.847 1538.49 468.77 1530.49 470.08 C 1529.2 510.265 1530.25 553.617 1530.29 594.129 L 1530.34 651.034 C 1530.3 657.661 1528.61 677.531 1531.63 682.223 C 1565.26 684.386 1589.56 684.025 1622.94 684.512 L 1713.75 686.665 C 1723.08 686.886 1777.42 686.414 1781.36 690.664 C 1771.18 695.892 1697.65 693.239 1679.22 696.272 C 1681.68 725.525 1681.45 751.256 1682.77 779.912 C 1697.82 779.824 1774.48 778.163 1782.74 782.05 C 1784.11 785.738 1784.87 791.813 1784.87 795.833 C 1784.8 862.475 1785.49 929.128 1785.11 995.77 C 1785.09 999.659 1782.12 1007.73 1778.67 1009.6 C 1772.18 1004.21 1774.19 954.462 1774.15 943.105 C 1773.8 912.122 1773.63 881.138 1773.66 850.154 C 1773.71 835.74 1774.46 805.809 1772.4 792.86 C 1765.47 789.769 1550.77 793.252 1530.47 792.778 C 1529.78 864.169 1530.83 936.057 1530.55 1007.51 C 1535 1010.51 1710.14 1008.29 1731.4 1011.85 C 1739.87 1013.26 1765.61 1009.63 1771.69 1016.79 C 1770.89 1018.12 1770.71 1018.51 1769.1 1018.93 C 1756.4 1022.23 1523 1024.17 1519.34 1021.83 C 1517.43 1020.61 1516.59 1016.7 1516.2 1014.57 C 1513.67 1000.61 1517.88 935.001 1514.57 929.912 C 1509.97 928.556 1361.47 929.533 1353.84 931.012 C 1352.58 936.576 1353.2 943.138 1353.05 948.94 C 1352.5 969.923 1355.61 991.463 1349.98 1011.97 C 1349.66 1013.16 1351.83 1013.48 1350.09 1017.4 L 1348.06 1017.94 L 1346.31 1016.78 C 1346.03 1014.07 1347.17 1012.7 1348.51 1010.26 C 1346.39 1005.66 1343.44 1009.16 1342.76 1002.97 C 1340.59 983.263 1340.74 960.739 1340.84 941.022 C 1341.08 892.512 1338.55 840.152 1340.24 792.028 L 1182.45 793.001 L 1131.49 792.642 C 1125.38 792.597 1111.37 792.154 1105.75 792.906 C 1103.44 799.162 1104.76 818.615 1105.07 826.323 C 1115.26 826.099 1142.04 824.385 1149.72 827.804 L 1151.14 829.645 C 1150.82 830.96 1150.64 832.917 1149.26 833.183 C 1138.39 835.265 1115.64 834.01 1104.64 833.948 C 1104.62 838.272 1104.22 850.005 1105.28 853.439 C 1107.44 852.966 1110.51 851.565 1111.79 851.523 C 1121.44 851.207 1141.73 849.824 1150.04 853.638 L 1151.45 855.528 C 1151.17 856.495 1150.91 858.633 1149.77 858.805 C 1137.23 860.709 1123.05 859.311 1110.24 859.019 C 1109.88 859.011 1107.26 857.457 1106.41 857.156 C 1102.78 859.225 1104.52 872.873 1104.68 877.357 C 1113.01 876.538 1146.29 873.363 1151.21 879.497 C 1148.77 887.488 1112.26 884.767 1104.54 883.412 L 1103.83 883.291 L 1104.17 901.888 C 1113.33 901.578 1144.33 898.996 1150.57 903.75 L 1151.11 905.695 C 1149.9 907.704 1150 908.463 1147.85 908.739 C 1134.69 910.428 1117.87 909.104 1104.56 909.078 L 1104.27 927.053 C 1114.05 926.689 1143.13 924.336 1150.22 928.912 C 1151.45 931.543 1151.39 930.331 1150.38 933.244 C 1146.14 935.85 1112.46 934.111 1104.53 934.217 C 1104.39 938.894 1103.43 949.839 1106.27 953.049 C 1114.29 952.424 1142.05 950.408 1148.62 952.41 C 1150.81 955.259 1150.36 953.987 1150.73 957.258 C 1146.77 961.467 1112.78 960.719 1107.97 957.961 L 1107.97 958.009 L 1104.97 956.855 C 1103.7 968.259 1104.1 996.863 1105.95 1007.99 L 1266.72 1010.59 C 1289.06 1010.98 1311.91 1011.07 1334.29 1011.67 C 1336.69 1011.74 1338.95 1012.32 1340.73 1014.01 L 1340.89 1015.64 C 1330.53 1024.72 1118.43 1021.25 1090.93 1024.19 C 1087.89 1024.52 1069.99 1019.69 1062.38 1019.93 C 1059.74 1020.01 1053.64 1019.88 1051.63 1021.03 L 1056.41 1023.04 L 1056.51 1023.84 C 1048.65 1024.13 1039.22 1025.06 1031.52 1024.69 C 1019.35 1024.37 1005.18 1021.08 993.132 1021.89 C 957.225 1024.28 922.028 1023.44 886.132 1021.83 C 876.781 1021.41 864.745 1023.91 854.814 1023.94 C 808.911 1024.1 763.022 1023.47 717.12 1023.95 C 713.694 1023.99 709.123 1023.12 705.89 1021.98 C 701.719 1016.67 703.9 941.398 703.498 927.479 C 696.338 927.528 688.892 927.576 681.746 927.957 C 632.248 930.599 583.383 930.246 533.818 930.033 C 532.767 949.245 533.243 968.681 533.067 987.925 C 533.008 994.297 533.329 1000.23 532.289 1006.53 C 530.573 1008.85 530.241 1009.83 527.651 1010.62 C 519.664 1006.57 523.641 987.305 523.344 979.831 C 521.18 925.272 522.915 870.604 521.895 816.046 C 521.802 811.058 522.905 795.279 521.684 792.741 C 517.324 792.004 500.42 792.175 495.183 792.137 C 473.134 791.987 451.084 792.097 429.037 792.467 C 379.899 792.86 328.376 791.444 279.659 792.606 C 278.57 796.279 278.528 800.973 278.467 804.843 C 277.616 859.291 280.448 913.671 279.284 968.112 C 279.029 980.048 280.129 991.943 281.197 1003.82 C 284.642 1006.59 310.632 1005.44 312.969 1006.23 C 327.262 1011.11 348.637 1006.04 360.931 1007.44 C 387.078 1010.42 507.064 1006.18 523.825 1016.07 C 521.345 1018.13 513.314 1018.62 509.938 1018.7 C 432.865 1020.72 355.895 1022.44 278.796 1022.24 C 274.604 1022.23 264.466 1020.39 263.872 1015.24 C 262.717 1005.21 263.159 994.611 263.218 984.483 L 263.448 935.454 C 263.502 918.6 262.324 786.219 265.346 782.175 C 276.065 777.862 357.059 780.2 375.745 779.883 C 370.1 761.554 369.599 718.159 369.364 697.72 C 344.233 697.856 319.104 698.231 293.979 698.844 C 284.743 699.044 271.246 700.117 264.279 693.444 C 260.915 686.567 263.312 664.832 263.358 655.942 C 263.193 614.798 263.306 573.654 263.695 532.511 C 263.843 511.78 262.147 478.426 263.366 459.75 C 263.971 459.466 268.127 457.389 268.09 456.76 C 266.599 431.571 270.008 406.416 270.34 381.233 C 270.436 373.935 263.027 368.547 263.056 361.66 C 263.158 337.429 263.664 313.214 263.662 288.979 L 263.592 183.764 C 263.581 177.234 262.011 135.497 266.217 134.632 C 289.376 129.874 315.494 133.496 339.323 132.367 C 355.316 131.609 371.69 130.576 387.723 130.315 C 426.332 132.189 464.061 129.425 502.503 128.235 C 528.11 127.442 555.109 130.444 580.997 130.059 L 724.487 127.518 C 765.823 126.703 805.317 124.768 846.688 129.087 C 857.754 130.242 888.981 124.065 896.631 126.5 L 896.006 129.122 C 899.45 132.483 913.242 131.018 920.302 132.465 C 921.164 129.827 921.422 127.961 923.525 126.256 L 925.813 126.981 C 934.617 125.897 946.519 126.129 955.345 126.293 z" fill="#08090A" transform="translate(0,0)"></path>
<path d="M 920.302 132.465 C 921.164 129.827 921.422 127.961 923.525 126.256 L 925.813 126.981 C 934.617 125.897 946.519 126.129 955.345 126.293 C 950.97 127.474 947.633 127.083 944.096 129.918 C 948.242 130.242 954.573 130.541 958.47 131.398 L 958.252 132.71 L 960.808 132.215 L 960.639 132.48 C 955.945 133.322 923.906 133.318 920.302 132.465 z" fill="#E6E4DF" transform="translate(0,0)"></path>
<path d="M 925.813 126.981 C 934.617 125.897 946.519 126.129 955.345 126.293 C 950.97 127.474 947.633 127.083 944.096 129.918 C 941.614 130.208 928.162 127.975 925.813 126.981 z" fill="#1F2024" transform="translate(0,0)"></path>
<path d="M 1051.63 1021.03 C 1048.26 1022.67 1040.08 1020.69 1036.02 1019.98 L 1035.84 1019.33 C 1043.94 1018.35 1054.33 1018.6 1062.38 1019.93 C 1059.74 1020.01 1053.64 1019.88 1051.63 1021.03 z" fill="#A4A2A0" transform="translate(0,0)"></path>
<path d="M 1032.82 135.954 C 1028.66 135.574 1027.59 136.031 1023.53 134.469 L 1023.67 133.335 C 1027.09 131.973 1030.12 132.407 1033.8 132.571 L 1032.82 135.954 z" fill="#A4A2A0" transform="translate(0,0)"></path>
<path d="M 718.268 468.142 C 724.592 469.626 770.785 468.883 779.151 468.906 C 836.775 468.781 894.4 469.002 952.023 469.569 C 951.368 520.378 951.347 571.192 951.959 622.001 C 952.217 639.069 951.924 656.38 952.072 673.45 C 952.094 676.083 953.209 679.207 955.326 681.017 C 961.498 681.362 961.339 674.068 961.576 669.414 C 961.736 672.566 961.718 676.021 962.575 679.009 C 964.631 669.947 963.708 649.545 963.694 639.435 C 963.732 627.51 964.068 615.588 964.701 603.68 C 979.244 606.308 1021.37 605.261 1036.72 603.962 C 1051.29 602.729 1064.39 599.953 1080.98 599.597 C 1050.56 590.414 1000.89 596.48 968.504 594.426 C 961.367 593.973 962.999 562.728 964.87 557.652 C 986.71 556.801 1013.13 558.78 1035.39 559.222 C 1050.87 559.53 1072.3 558.864 1086.83 560.354 C 1093.05 571.465 1082.67 690.253 1092.98 695.477 C 1105.38 701.766 1166.6 691.562 1182.12 697.492 C 1184.81 698.518 1190.49 769.992 1191.78 779.046 C 1164.68 780.529 1135 778.894 1107.78 779.045 C 1102.49 779.075 1093.92 778.382 1091.11 782.396 C 1089.35 784.236 1089.04 787.255 1089.04 789.881 C 1089.06 837.85 1089.05 885.833 1089.2 933.805 C 1089.27 958.405 1088.69 983.194 1089.31 1007.77 C 1078.62 1008.68 1066.3 1008.37 1055.39 1008.85 C 1043.8 1008.63 1030.46 1011.19 1019.11 1010.66 C 997.949 1009.66 978.606 1011.07 957.584 1012.33 C 927.488 1014.14 896.046 1010.22 866.115 1009.33 C 824.53 1008.1 782.43 1009.59 740.815 1008.92 C 737.053 1008.85 721.944 1007.91 721.261 1005.84 C 718.65 997.916 718.993 969.106 718.862 961.161 C 726.849 961.072 757.342 961.896 762.051 959.826 C 763.942 956.981 763.708 958.22 763.172 955.198 C 756.616 949.573 728.297 954.828 718.639 953.227 C 718.494 952.948 717.925 937.189 717.638 934.356 C 726.157 934.83 760.602 938.289 764.127 931.041 C 758.784 924.014 727.502 929.337 718.157 926.936 C 718.245 922.065 717.231 913.725 718.653 910.234 C 726.175 905.866 757.304 915.013 763.564 905.981 L 763.108 903.637 C 755.932 899.145 728.452 903.536 717.604 901.511 C 717.759 901.864 717.966 886.853 717.968 885.434 C 724.418 879.794 761.779 891.26 763.352 879.428 L 761.605 877.226 C 757.335 874.934 727.284 877.064 718.655 876.117 C 717.704 874 717.456 862.061 718.18 860.35 C 722.528 856.757 736.326 858.314 743.518 858.099 C 749.624 858.328 759.442 860.175 763.414 855.545 C 763.087 852.499 763.527 853.677 761.484 851.1 C 754.482 848.542 725.442 850.191 717.094 851.232 C 717.57 847.138 717.943 836.987 717.288 833.048 C 725.951 832.757 757.849 834.637 762.488 831.095 C 763.567 828.28 763.444 829.489 762.394 826.236 C 755.147 821.765 725.31 826.647 718.39 823.379 C 717.115 816.365 717.565 799.581 718.205 792.138 C 744.943 791.048 778.07 791.981 805.14 792.12 C 854.198 792.268 903.256 792.168 952.312 791.819 C 955.238 843.666 948.971 898.921 952.884 951.216 C 953.54 959.973 951.419 999.865 956.441 1003.99 L 958.6 1003.39 C 962.41 999.686 959.367 1000.14 961.265 993.978 L 962.322 994.695 L 963.259 1001.7 L 963.907 1002.11 C 965.632 995.619 963.616 960.567 963.614 951.867 L 964.385 823.914 C 964.436 819.487 965.499 785.95 964.147 784.465 C 957.009 776.625 880.868 780.486 865.587 779.459 C 862.612 779.258 861.294 778.974 859.315 776.765 C 858.436 773.428 860.4 771.371 860.491 768.326 C 861.199 744.555 856.222 717.914 853.67 694.634 C 848.335 714.755 850.282 736.195 848.886 756.941 C 848.425 763.795 848.641 772.102 847.022 778.725 C 842.099 780.396 812.348 780.592 806.897 778.939 C 803.717 772.704 811.827 770.623 811.971 767.285 C 812.986 743.739 814.736 719.419 814.745 695.905 C 829.807 695.732 955.409 695.705 960.593 690.968 C 955.609 686.463 857.772 686.319 843.304 686.067 L 718.397 683.296 C 719.526 678.645 717.703 672.824 718.035 670.436 C 719.377 660.759 715.48 635.986 718.26 628.13 C 725.761 624.879 760.174 632.561 764.294 623.552 C 759.375 614.347 726.571 623.01 717.754 618.989 C 716.609 615.678 717.917 608.178 717.199 601.982 C 726.037 601.705 761.543 605.076 764.188 597.402 C 759.268 589.156 726.84 596.271 717.344 593.435 L 716.679 591.88 C 721.414 584.551 716.901 585.327 716.816 578.673 C 724.208 570.446 756.326 582.285 763.055 571.387 C 757.656 563.975 725.483 570.681 718.986 567.173 C 717.713 564.246 716.738 551.268 717.941 550.613 C 725.239 546.643 761.022 556.286 763.932 545.864 L 762.761 544.132 C 753.291 539.487 730.719 543.71 719.761 541.922 C 715.913 541.294 716.728 529.483 717.379 526.519 C 724.963 521.315 757.565 529.499 764.483 522.985 C 762.094 509.883 726.006 521.774 718.06 515.857 C 716.569 512.117 717.546 503.561 717.324 498.34 C 719.425 498.658 721.538 498.898 723.657 499.059 C 732.042 499.627 758.629 501.455 764.221 496.526 C 764.522 493.478 764.743 494.692 762.33 491.671 C 751.799 490.34 729.108 491.125 717.537 491.261 C 717.32 482.563 717.589 476.836 718.268 468.142 z" fill="#E6E4DF" transform="translate(0,0)"></path>
<path d="M 898.701 951.872 C 909.395 952.841 938.555 949.668 946.194 953.568 C 948.097 956.215 947.611 954.978 947.118 959.298 C 942.121 960.362 904.506 960.858 900.109 959.165 C 898.135 955.954 898.775 956.148 898.701 951.872 z" fill="#08090A" transform="translate(0,0)"></path>
<path d="M 901.167 491.332 C 911.137 491.033 938.019 490.285 946.562 492.742 C 949.515 495.269 948.69 494.097 949.17 498.697 C 941.938 500.129 903.631 501.1 899.131 495.998 C 899.002 492.939 898.683 494.15 901.167 491.332 z" fill="#08090A" transform="translate(0,0)"></path>
<path d="M 900.041 825.535 C 909.328 824.699 938.143 823.864 946.106 826.674 C 948.765 829.296 947.995 828.332 948.097 833.059 C 939.468 833.183 905.482 834.976 899.915 831.05 C 898.896 827.782 898.973 829.19 900.041 825.535 z" fill="#08090A" transform="translate(0,0)"></path>
<path d="M 900.215 875.875 C 909.607 877.813 941.961 873.286 947.603 878.458 C 948.362 881.684 948.469 880.297 946.534 883.866 C 937.039 883.789 904.715 886.014 899.196 881.738 C 898.303 878.586 898.531 879.667 900.215 875.875 z" fill="#08090A" transform="translate(0,0)"></path>
<path d="M 900.092 518.301 C 907.505 517.883 940.823 516.392 947.934 520.778 C 948.948 521.404 948.574 522.17 948.51 523.57 C 947.257 525.076 946.097 525.62 944.441 526.631 C 933.237 525.601 908.138 527.661 900.505 523.981 C 898.777 521.283 899.203 522.432 900.092 518.301 z" fill="#08090A" transform="translate(0,0)"></path>
<path d="M 898.843 926.777 C 907.865 927.557 943.936 924.343 948.721 930.106 C 948.625 933.21 949.073 931.99 946.545 934.662 C 936.77 934.071 905.85 935.827 899.903 933.73 C 898.007 930.515 898.629 931.089 898.843 926.777 z" fill="#08090A" transform="translate(0,0)"></path>
<path d="M 899.7 851.017 C 911.233 852.589 935.32 848.439 946.52 852.603 C 948.458 855.266 947.877 854.293 947.582 858.457 C 941.829 859.225 904.784 859.847 899.825 857.723 C 898.364 854.531 898.916 855.106 899.7 851.017 z" fill="#08090A" transform="translate(0,0)"></path>
<path d="M 908.204 901.523 C 917.203 902.56 941.369 899.693 948.07 904.433 L 948.235 906.292 C 944.924 910.265 942.986 909.467 938.067 909.202 C 929.946 909.613 902.926 912.011 898.408 905.693 L 899.211 903.351 C 902.106 901.088 903.877 901.775 908.204 901.523 z" fill="#08090A" transform="translate(0,0)"></path>
<path d="M 900.137 594.408 C 911.735 593.875 934.846 593.405 946.436 595.583 C 948.249 595.924 948.414 597.378 948.972 598.893 L 947.767 601.236 C 940.728 602.611 904.784 603.324 899.856 599.879 C 898.851 596.761 898.953 598.098 900.137 594.408 z" fill="#08090A" transform="translate(0,0)"></path>
<path d="M 914.17 619.549 C 922.567 620.501 940.025 618.087 947.962 621.236 C 949.055 621.67 948.842 622.849 948.996 624.298 L 947.485 626.077 C 943.918 627.792 940.214 627.498 936.224 627.565 C 924.289 627.359 909.464 628.006 898.443 624.103 L 898.459 621.777 C 904.672 619.273 907.603 619.563 914.17 619.549 z" fill="#08090A" transform="translate(0,0)"></path>
<path d="M 904.028 543.216 C 917.172 544.008 931.865 542.579 944.827 544.122 C 947.173 544.401 947.326 545.405 948.255 547.109 C 947.166 549.818 947.455 549.009 944.885 551.073 C 940.591 551.774 905.299 552.247 900.584 549.336 C 899.306 548.547 899.475 547.75 899.129 546.225 C 900.849 543.572 900.221 544.423 904.028 543.216 z" fill="#08090A" transform="translate(0,0)"></path>
<path d="M 908.073 569.379 C 919.245 569.928 930.489 569.411 941.65 569.94 C 945.17 570.107 947.97 570.353 948.681 574.069 C 946.73 576.666 946.933 575.963 943.25 576.854 C 933.894 576.997 904.626 579.102 898.59 573.737 L 899.064 571.579 C 902.118 569.092 903.346 569.815 908.073 569.379 z" fill="#08090A" transform="translate(0,0)"></path>
<path d="M 450.98 468.69 C 456.646 470.18 504.333 468.171 513.013 468.323 C 514.437 468.432 519.756 468.673 520.093 470.569 C 523.724 491.013 521.777 516.481 521.726 537.151 L 522.074 635.51 C 522.117 646.674 519.569 674.598 526.862 682.531 L 529.665 682.111 C 534.706 675.121 532.836 616.441 533.181 603.065 C 588.323 603.049 644.518 603.08 699.717 602.538 C 700.089 602.534 702.614 603.128 702.724 603.493 C 707.137 618.177 699.027 686.596 705.464 694.949 C 717.452 699.452 779.159 695.114 799.632 696.417 C 798.95 713.941 803.28 760.827 804.844 779.29 C 787.963 780.121 718.37 776.976 705.497 781.229 C 701.518 786.106 703.173 862.514 703.312 874.757 C 692.079 873.544 679.104 873.975 667.669 873.692 C 641.011 873.033 614.402 873.819 587.749 873.851 C 578.776 875.007 543.012 873.321 533.094 872.846 C 532.982 853.937 533.122 835.028 533.515 816.123 C 533.611 808.916 534.415 789.898 532.964 783.994 C 527.474 777.389 508.182 779.444 499.849 779.456 C 485.216 779.417 470.583 779.456 455.95 779.574 C 450.648 779.659 437.326 780.553 432.941 778.541 C 430.685 766.313 430.285 748.611 429.003 735.571 C 427.949 724.848 425.446 707.091 425.884 696.945 C 439.069 696.304 526.755 694.528 531.116 691.808 L 531.41 690.333 L 529.51 689.16 L 529.611 691.416 C 525.385 690.728 517.648 688.174 513.928 688.084 C 444.551 686.394 375.087 685.64 305.751 682.62 C 299.033 682.328 284.783 683.449 279.509 682.363 C 276.333 651.796 279.921 609.486 278.959 578.178 C 278.535 564.339 276.633 478.374 279.773 470.776 C 294.98 469.213 311.82 470.22 327.213 469.725 C 367.401 468.432 411.172 470.969 450.98 468.69 z" fill="#E6E4DF" transform="translate(0,0)"></path>
<path d="M 303.577 501.593 C 307.599 504.9 428.032 507.329 443.988 507.092 C 458.684 506.873 485.393 504.96 501.243 504.907 C 501.695 521.536 503.072 636.282 498.393 643.673 C 495.499 645.567 491.8 645.064 488.267 644.996 C 454.078 646.832 419.253 647.066 384.784 647.327 C 360.276 647.513 332.256 649.806 307.583 646.941 C 306.331 646.796 302.225 645.202 301.941 643.856 C 295.403 612.975 299.676 578.761 297.773 547.263 C 297.634 544.963 299.1 541.041 298.986 537.739 C 298.624 527.261 296.603 516.138 298.362 505.829 C 298.779 503.384 301.436 502.633 303.577 501.593 z" fill="#08090A" transform="translate(0,0)"></path>
<path d="M 401.803 580.886 C 403.427 581.162 486.079 635.25 489.243 638.609 C 472.195 639.504 426.725 637.256 408.789 635.4 C 406.223 635.83 389.485 635.14 385.67 634.966 C 364.698 634.013 339.579 635.932 319.147 633.103 C 323.766 630.452 326.695 627.476 331.076 624.683 L 366.09 602.693 C 374.256 597.554 396.44 585.87 401.803 580.886 z" fill="#E6E4DF" transform="translate(0,0)"></path>
<path d="M 485.875 520.338 C 489.745 523.262 487.219 562.823 487.152 569.912 C 486.973 588.83 488.288 609.137 486.855 627.836 C 476.952 619.886 457.084 607.329 445.854 600.109 C 436.784 591.851 417.71 580.666 410.93 573.441 L 411.172 571.716 C 437.767 552.269 457.842 537.825 485.875 520.338 z" fill="#E6E4DF" transform="translate(0,0)"></path>
<path d="M 441.132 513.487 C 447.459 514.16 473.912 512.818 481.324 512.587 C 472.286 519.81 408.843 562.942 400.375 564.9 C 396.329 563.192 380.219 554.222 377.272 551.252 C 370.127 545.938 362.777 540.907 355.238 536.171 C 351.078 533.569 324.862 518.397 322.582 515.609 C 327.403 514.193 332.288 516.245 336.854 515.836 C 370.507 512.821 407.703 517.038 441.132 513.487 z" fill="#E6E4DF" transform="translate(0,0)"></path>
<path d="M 311.87 519.208 C 318.923 522.294 387.57 569.821 388.418 571.905 C 383.714 576.071 362.136 588.175 354.54 593.351 C 345.218 598.591 322.384 614.039 313.114 620.453 C 313.609 585.813 310.414 552.654 311.87 519.208 z" fill="#E6E4DF" transform="translate(0,0)"></path>
<path d="M 281.489 147.457 C 291.787 148.731 328.533 147.506 341.538 147.564 L 470.968 148.651 C 479.581 148.703 514.696 148.371 521.001 150.028 C 522.813 165.188 521.643 184.778 521.893 200.546 C 522.534 240.97 521.144 281.776 522.494 322.18 C 522.806 331.529 520.377 354.39 528.185 359.841 L 529.703 359.467 C 536.005 351.319 533.023 289.157 534.054 272.635 C 572.456 273.515 613.097 272.081 651.694 272.546 C 667.495 272.737 686.791 271.371 702.059 272.406 C 703.573 277.597 702.726 287.011 703.111 291.844 C 704.273 306.414 700.375 360.617 704.163 371.891 C 710.717 379.972 788.046 368.787 799.683 373.853 C 802.988 378.594 802.205 401.758 802.507 408.113 C 803.284 424.477 803.827 440.123 807.562 456.188 C 782.487 455.402 733.105 454.883 706.217 456.79 C 704.696 456.898 703.458 460.275 702.683 461.911 C 703.582 467.942 703.277 487.847 703.176 494.981 C 702.94 511.74 703.838 530.769 702.869 547.286 C 698.588 548.988 656.079 546.243 647.066 546.597 C 609.986 548.051 572.448 548.517 535.32 548.568 C 533.271 548.57 533.555 547.283 533.384 545.958 C 531.589 532.062 537.553 466.343 531.896 457.688 C 526.246 454.92 445.746 455.466 433.92 455.328 C 433.862 432.682 431.328 409.555 432.708 386.93 C 432.993 382.273 433.066 377.676 433.135 373.018 C 444.288 372.582 526.99 371.881 531.454 368.675 L 530.489 367.444 C 519.642 363.742 438.734 363.742 422.145 362.965 C 388.209 361.374 351.515 361.579 317.192 359.521 C 306.448 358.877 293.817 359.221 282.255 358.303 C 278.124 352.39 281.373 180.195 278.605 161.924 C 278.128 158.772 278.221 149.656 281.489 147.457 z" fill="#E6E4DF" transform="translate(0,0)"></path>
<path d="M 300.078 180.26 C 313.216 179.22 330.09 181.217 343.62 181.607 C 394.248 183.064 444.724 186.664 495.332 183.254 C 497.775 183.089 499.652 184.887 500.948 186.627 C 502.616 200.153 502.088 309.265 499.033 320.619 C 492.145 324.961 466 324.024 456.25 324.441 C 425.166 325.8 394.064 326.713 362.954 327.18 C 346.3 327.56 319.277 329.12 303.642 326.549 C 295.43 315.626 299.197 243.488 298.918 226.276 C 298.722 214.25 295.409 200.222 295.679 187.946 C 295.785 183.168 296.586 183.655 300.078 180.26 z" fill="#08090A" transform="translate(0,0)"></path>
<path d="M 401.024 258.766 C 409.856 262.963 480.781 309.141 487.495 315.78 L 486.912 317.206 C 475.16 318.524 423.411 315.465 408.331 314.537 C 402.529 314.436 316.72 313.656 318.528 314.494 C 323.23 307.88 387.597 268.945 401.024 258.766 z" fill="#E6E4DF" transform="translate(0,0)"></path>
<path d="M 435.478 191.53 C 447.589 190.588 469.13 190.819 481.589 191.033 C 454.347 209.304 428.755 228.19 400.746 245.73 C 391.819 240.686 379.744 234.524 372.417 227.825 C 369.045 225.006 355.91 217.27 351.561 214.551 C 340.318 207.454 329.238 200.101 318.33 192.5 C 350.229 194.459 401.458 191.957 435.478 191.53 z" fill="#E6E4DF" transform="translate(0,0)"></path>
<path d="M 487.793 196.974 L 488.573 197.86 C 489.062 203.785 488.359 212.652 488.157 218.844 C 487.246 246.909 488.612 275.991 486.698 303.935 C 473.242 294.37 458.821 285.268 445.06 275.896 C 440.086 272.241 411.703 255.685 410.814 252.348 C 420.437 242.078 442.653 228.19 454.236 219.154 C 464.232 211.355 477.327 205.592 487.793 196.974 z" fill="#E6E4DF" transform="translate(0,0)"></path>
<path d="M 311.091 197.331 C 314.86 202.023 379.776 244.679 388.602 250.193 C 385.928 252.242 383.013 253.799 380.104 255.479 C 370.811 260.843 362.603 267.876 353.39 273.347 C 341.072 282.039 322.162 291.223 312.919 301.76 C 313.799 280.07 311.983 257.883 311.888 236.222 C 311.878 233.862 309.961 227.056 310.106 225.945 C 311.379 216.183 311.285 207.148 311.091 197.331 z" fill="#E6E4DF" transform="translate(0,0)"></path>
<path d="M 1209.51 468.478 L 1340.93 468.886 C 1340.79 491.153 1339.89 672.519 1342.86 679.309 C 1344.01 681.943 1344.77 682.386 1347.22 683.533 C 1356.06 681.156 1353.41 655.588 1353.41 646.992 C 1353.36 632.272 1353.55 617.552 1353.98 602.838 C 1376.87 604.593 1401.11 604.069 1424.16 603.896 C 1454.59 603.653 1485.03 603.188 1515.46 602.501 C 1516.48 620.379 1511.62 682.902 1517.61 693.966 C 1518.67 695.927 1519.38 696.83 1521.58 697.512 C 1527.9 699.476 1537.15 698.078 1543.79 697.934 C 1554.26 697.707 1610.67 696.22 1616.33 697.86 C 1620.7 706.161 1617.79 772.924 1626.39 777.728 L 1628.31 776.956 C 1636.71 766.119 1629.56 709.28 1632.95 698.769 C 1636.51 695.714 1666.17 696.51 1673.48 696.115 C 1671.58 721.877 1671.75 753.065 1671.07 779.28 C 1660.37 779.835 1649.07 779.141 1638.27 779.184 C 1613.5 779.444 1588.73 779.538 1563.96 779.467 C 1552.13 779.466 1532.09 777.522 1521.16 780.97 C 1509.42 784.672 1521.1 860.022 1515.03 872.382 C 1511.36 873.488 1399.58 874.23 1391.05 873.192 C 1386.37 873.912 1359.73 873.796 1353.05 874.027 C 1352.93 861.913 1355.85 787.919 1351.72 783.305 C 1349.6 780.931 1345.01 780.295 1341.98 779.96 C 1333.35 779.004 1324.06 779.686 1315.33 779.551 C 1293.15 779.246 1270.96 779.068 1248.78 779.015 C 1250.04 767.668 1248.24 761.431 1247.65 750.124 C 1246.7 731.903 1245.46 714.37 1243.6 696.205 L 1242.92 696.378 C 1253.03 693.861 1283.11 694.971 1295.43 694.465 C 1308.9 693.912 1324.41 693.858 1338.03 693.167 C 1342.91 692.919 1347 694.819 1350.5 693.346 L 1350.77 691.611 C 1343.84 688.518 1277.06 687.115 1265.94 686.981 C 1237.61 686.64 1203.82 683.905 1175.31 684.766 C 1152.77 685.447 1124.94 681.502 1103.88 682.244 C 1104.21 663.625 1104.14 645.001 1103.66 626.385 C 1111.37 627.775 1147.04 629.769 1150.14 622.479 L 1148.4 620.673 C 1139.43 617.362 1113.66 618.524 1103.95 620.154 L 1104.07 600.859 C 1112.9 601.592 1146.6 604.234 1151.32 597.348 L 1149.76 595.794 C 1140.89 592.567 1113.58 593.286 1104.17 594.841 C 1103.85 588.875 1103.05 581.49 1104.4 575.813 C 1111.36 571.529 1148.32 582.253 1151.77 571.152 L 1150.54 569.502 C 1146.22 567.48 1108.93 567.782 1103.38 568.669 C 1103.23 553.946 1103.74 539.41 1103.25 524.658 C 1110.64 524.894 1143.87 525.462 1149.48 524.088 C 1151.83 522.069 1151.41 523.032 1151.82 520.432 C 1145.07 513.123 1113.38 519.049 1103.99 516.425 C 1103.09 512.975 1103.76 502.416 1103.9 498.294 C 1112.03 499.276 1147.51 501.758 1150.99 494.907 L 1149.3 493.086 C 1140.09 489.503 1113.28 490.425 1103.22 491.754 L 1103.1 469.016 C 1138.57 469.194 1174.05 469.015 1209.51 468.478 z" fill="#E6E4DF" transform="translate(0,0)"></path>
<path d="M 1290.24 619.257 C 1299.7 619.073 1329.69 617.342 1335.85 620.773 C 1337.65 623.797 1337.2 622.466 1336.54 626.953 C 1326.96 626.982 1296.36 628.551 1290.61 625.301 C 1289.04 622.337 1289.44 623.561 1290.24 619.257 z" fill="#08090A" transform="translate(0,0)"></path>
<path d="M 1291.12 594.041 C 1301.62 594.552 1329.6 592.428 1337.07 596.122 C 1338.84 599.147 1338.5 597.736 1337.99 601.655 C 1329.03 602.107 1297.16 603.664 1291.17 600.198 C 1289.72 597.189 1290.18 598.002 1291.12 594.041 z" fill="#08090A" transform="translate(0,0)"></path>
<path d="M 1291.5 569.185 C 1300.06 569.039 1333.37 566.542 1338.23 572.503 C 1337.61 575.761 1338.25 574.534 1335.25 577.055 C 1321.68 576.142 1307.62 577.571 1294.07 576.241 C 1290.46 575.887 1289.79 574.623 1289.43 571.517 L 1291.5 569.185 z" fill="#08090A" transform="translate(0,0)"></path>
<path d="M 1110.61 543.371 C 1118.4 542.833 1143.69 541.486 1150.76 545.071 C 1151.94 545.669 1151.72 546.614 1151.87 547.948 C 1149.35 550.676 1150.61 549.961 1147.18 550.833 C 1135.61 550.546 1117.97 552.485 1106.65 549.86 C 1104.7 549.41 1104.31 547.552 1103.79 546.008 C 1106.46 543.408 1106.29 544.135 1110.61 543.371 z" fill="#08090A" transform="translate(0,0)"></path>
<path d="M 1292.51 543.564 C 1300.61 545.164 1329.44 540.504 1335.99 545.581 C 1336.95 548.567 1336.99 547.283 1335.64 550.422 C 1327.8 551.277 1293.13 553.731 1289.3 547.757 C 1290.3 544.233 1289.42 545.345 1292.51 543.564 z" fill="#08090A" transform="translate(0,0)"></path>
<path d="M 1289.06 492.055 C 1295.8 491.303 1329.97 491.378 1335.72 492.57 C 1337.64 495.373 1337.01 494.863 1336.79 498.975 C 1326.57 499.13 1299.79 500.117 1290.87 498.68 C 1288.67 496.169 1289.32 495.938 1289.06 492.055 z" fill="#08090A" transform="translate(0,0)"></path>
<path d="M 1303.23 517.516 C 1311.63 517.772 1332.37 514.776 1336.97 521.289 L 1336.53 523.802 C 1333.46 525.727 1333.46 525.075 1329.25 525.136 C 1321.57 525.118 1292.7 527.565 1289.6 521.174 L 1290.8 518.976 C 1293.89 517.295 1299.45 517.604 1303.23 517.516 z" fill="#08090A" transform="translate(0,0)"></path>
<path d="M 1241.19 146.565 C 1249.39 148.696 1328.62 146.275 1341.65 145.87 C 1342.39 171.138 1339.02 347.824 1343.68 356.883 C 1344.4 358.287 1345.21 358.234 1346.63 358.713 C 1349.64 358.144 1354.26 356.014 1354.12 352.248 C 1353.17 326.151 1353.55 299.333 1353.92 273.218 C 1399.25 271.831 1445.22 273.852 1490.64 273.127 C 1499.09 272.992 1507.81 273.074 1516.25 273.449 C 1516.03 289.324 1516.3 305.277 1516.12 321.355 C 1516.03 329.379 1513.16 369.864 1520.13 372.864 C 1530.77 377.443 1603.51 370.936 1608.53 374.338 C 1611.4 384.8 1615.33 455.521 1602.3 456.103 C 1585.85 456.837 1558.26 455.813 1541.18 455.709 C 1518.13 455.568 1514.47 453.913 1515.72 479.389 C 1514.61 496.214 1518.56 530.998 1514.7 545.59 C 1510.75 548.765 1456.58 547.08 1447.65 547.102 C 1416.37 547.443 1385.09 548.044 1353.82 548.905 C 1353.55 536.645 1355.82 463.817 1351.33 458.196 C 1341.89 453.918 1262.8 454.305 1248.55 455.644 C 1248.26 442.817 1247.45 430.007 1246.12 417.245 C 1246.4 409.187 1245.44 379.857 1240.19 375.409 L 1241.77 376.034 L 1240.96 374.675 L 1239.79 375.206 C 1235.88 385.051 1234.63 442.659 1235.46 455.124 C 1226.78 455.117 1204.64 455.582 1197.56 453.964 C 1196.38 451.514 1199.52 379.494 1200.45 372.522 C 1213.19 366.82 1341.73 374.623 1352.09 369.024 L 1352.52 367.518 C 1347.06 363.398 1338.07 366.16 1331.72 365.487 C 1320.33 364.28 1308.87 364.119 1297.43 363.727 C 1249.12 362.321 1200.79 361.399 1152.46 360.961 C 1143.56 360.797 1111.49 360.893 1105.08 359.423 C 1101.88 354.826 1103.04 293.602 1103.58 284.649 C 1113.13 285.192 1144.6 289.291 1152.29 283.436 L 1152.08 281.573 C 1142.59 273.207 1116.93 281.79 1104.13 279.015 C 1103.22 274.714 1102.6 263.916 1103.79 259.794 C 1110.16 262.913 1137.66 262.223 1145.49 261.101 C 1148.39 260.686 1150.27 260.317 1152.07 257.925 L 1150.99 255.473 C 1144.82 252.102 1110.18 252.741 1104.07 256.45 L 1103.46 256.828 C 1103.1 255.807 1102.35 234.279 1102.44 234.037 L 1103.35 233.68 C 1111.3 237.424 1145.12 237.099 1152.72 232.77 L 1153.08 231.132 C 1146.98 225.483 1111.27 227.173 1103.21 229.668 C 1103.1 220.523 1102.22 191.942 1103.31 184.382 C 1112.18 181.642 1150.33 188.748 1151.89 179.845 L 1150.35 178.106 C 1141.68 174.313 1113.4 175.967 1102.85 176.352 C 1104.42 167.366 1101.06 157.737 1104.09 149.058 C 1104.6 148.581 1105.1 148.104 1105.6 147.628 C 1143.56 146.125 1205.38 148.363 1241.19 146.565 z" fill="#E6E4DF" transform="translate(0,0)"></path>
<path d="M 1311.77 175.409 C 1319.11 176.171 1333.53 174.699 1337.5 178.529 C 1337.75 181.837 1338.18 180.903 1336.57 183.06 C 1332.12 184.521 1324.21 183.927 1319.25 183.823 C 1312.59 183.987 1293.62 185.368 1288.88 180.108 C 1292.24 175.24 1306.04 175.646 1311.77 175.409 z" fill="#08090A" transform="translate(0,0)"></path>
<path d="M 1111.53 304.254 C 1119.57 304.496 1148.44 301.82 1151.84 307.805 L 1151.17 310.142 C 1148.25 312.609 1149.67 311.921 1145.25 312.277 C 1136.8 312.272 1109.73 314.562 1104.68 309.841 L 1104.65 307.648 C 1107.22 304.505 1106.78 305.404 1111.53 304.254 z" fill="#08090A" transform="translate(0,0)"></path>
<path d="M 1289.13 201.93 C 1298.41 201.91 1328.1 201.173 1335.82 203.345 C 1337.58 205.775 1337.02 206.474 1337.13 209.884 C 1328.83 209.876 1295.26 211.057 1290.02 208.55 C 1288.38 205.519 1288.95 205.846 1289.13 201.93 z" fill="#08090A" transform="translate(0,0)"></path>
<path d="M 1109.3 202.585 C 1117.69 202.962 1146.23 199.382 1151.37 204.654 C 1151.86 208.199 1152.13 206.718 1149.65 210.316 C 1140.73 209.686 1106.75 212.953 1103.93 205.603 L 1105.13 203.461 L 1109.3 202.585 z" fill="#08090A" transform="translate(0,0)"></path>
<path d="M 1317.13 228.561 C 1324.97 228.51 1330.47 227.689 1337.34 231.598 L 1337.27 233.129 C 1330.47 237.379 1320.74 236.2 1312.76 235.982 C 1306.66 236.171 1293.59 237.7 1289.33 233.991 C 1288.93 231.108 1288.74 232.286 1290.35 229.584 C 1294.67 228.276 1311.72 228.616 1317.13 228.561 z" fill="#08090A" transform="translate(0,0)"></path>
<path d="M 1302.52 304.543 C 1310.86 304.5 1331.99 302.645 1337.53 307.541 L 1337.32 309.804 C 1334.51 311.988 1333.25 311.471 1329.25 311.97 C 1321.58 312.066 1291.35 314.576 1289.16 307.799 L 1290.29 305.949 C 1293.58 304.01 1298.55 304.515 1302.52 304.543 z" fill="#08090A" transform="translate(0,0)"></path>
<path d="M 1289.86 279.691 C 1298.37 278.913 1327.43 277.218 1336.08 280.206 C 1337.92 280.842 1338.05 283.917 1338.47 286.056 C 1329.36 286.145 1296.59 287.752 1290.2 285.043 C 1288.64 282.332 1288.97 283.526 1289.86 279.691 z" fill="#08090A" transform="translate(0,0)"></path>
<path d="M 1290.92 253.467 C 1301.34 253.34 1325.42 252.187 1335.74 255.007 C 1337.52 255.494 1337.59 258.114 1337.98 260.019 C 1331.44 261.373 1293.7 262.599 1289.49 258.381 C 1289.29 254.983 1288.92 256.294 1290.92 253.467 z" fill="#08090A" transform="translate(0,0)"></path>
<path d="M 619.18 140.345 C 623.106 139.607 697.746 142.583 702.774 143.369 C 705.078 164.821 700.873 199.163 703.897 219.147 C 675.803 219.805 647.171 217.94 618.739 219.195 C 590.269 221.299 561.751 220.654 533.229 219.912 C 534.09 198.546 533.379 177.151 533.859 155.778 C 533.94 152.155 534.222 148.549 533.613 144.958 L 531.312 143.621 L 531.494 142.229 L 533.536 143.872 C 542.653 141.629 549.574 142.719 559.047 142.397 C 578.632 141.732 599.822 143.193 619.18 140.345 z" fill="#E6E4DF" transform="translate(0,0)"></path>
<path d="M 282.888 371.737 C 294.492 374.486 346.254 372.374 363.795 372.841 C 362.339 402.228 363.721 424.077 360.918 455.581 C 345.226 455.535 298.256 457.347 284.986 454.702 C 282.637 447.158 282.6 383.208 282.888 371.737 z" fill="#E6E4DF" transform="translate(0,0)"></path>
<path d="M 1690.05 373.522 C 1702.79 374.484 1738.31 373.066 1753.32 372.921 C 1752.79 385.23 1753.46 448.927 1749 455.621 C 1746.2 457.141 1744.39 456.573 1741.16 456.232 C 1731.33 456.408 1691.91 457.69 1685.09 456.225 C 1682.64 453.167 1681.04 383.097 1681.45 375.263 C 1683.15 373.811 1687.57 373.771 1690.05 373.522 z" fill="#E6E4DF" transform="translate(0,0)"></path>
<path d="M 533.496 884.881 L 650.505 886.121 C 665.141 886.31 689.078 885.354 702.652 886.607 L 704.096 888.552 C 704.656 894.83 703.905 910.071 702.78 916.302 C 699.021 916.39 697.114 916.409 693.329 915.997 C 675.953 916.376 658.515 915.741 640.862 915.586 C 622.245 915.423 595.326 920.829 577.752 918.103 C 561.116 915.522 550.043 915.972 533.39 915.973 C 532.978 905.979 533.352 894.96 533.496 884.881 z" fill="#E6E4DF" transform="translate(0,0)"></path>
<path d="M 533.914 558.923 C 590.279 558.088 646.458 560.654 703.938 559.753 C 702.845 568.243 703.144 574.826 704.097 583.292 C 705.03 591.57 695.745 590.196 691.252 590.227 C 667.705 589.198 642.221 588.285 618.807 590.365 C 589.712 592.949 561.935 589.279 532.967 588.657 C 532.838 580.968 532.709 566.023 533.914 558.923 z" fill="#E6E4DF" transform="translate(0,0)"></path>
<path d="M 1367.33 885.501 L 1465.41 885.826 C 1479.17 885.865 1501.97 884.898 1514.36 886.117 C 1517.02 890.26 1516.54 913.182 1514.27 917.812 C 1510.13 918.709 1501.55 917.206 1496.98 916.633 C 1478.94 918.394 1453.01 915.091 1434.12 916.282 C 1430.39 916.517 1422 918.821 1421.25 918.781 C 1409.69 918.16 1397.91 917.057 1386.29 916.825 C 1375.93 915.605 1362.89 917.599 1353.67 916.763 C 1353.13 903.63 1352.41 899.652 1355.12 886.701 C 1357.42 885.017 1364.04 885.51 1367.33 885.501 z" fill="#E6E4DF" transform="translate(0,0)"></path>
<path d="M 1354.15 557.296 C 1401.9 560.194 1468.62 561.362 1516.08 560.18 C 1515.36 566.832 1515.49 583.6 1515.98 590.208 C 1510.56 589.893 1505.12 589.67 1499.69 589.538 L 1448.23 590.208 C 1444.82 590.22 1431.17 589.342 1428.97 589.749 C 1404.55 594.266 1378.5 589.309 1353.46 590.005 C 1354.23 579.888 1353.35 568.253 1354.15 557.296 z" fill="#E6E4DF" transform="translate(0,0)"></path>
<path d="M 547.93 231.449 C 557.418 232.461 567.962 231.054 577.466 231.825 C 618.917 235.191 661.903 230.937 703.056 232.623 C 703.697 240.896 703.332 252.21 703.602 261.026 C 696.372 260.78 688.98 260.431 681.757 260.458 C 655.676 259.267 628.83 260.488 602.752 261.498 C 580.101 262.376 556.085 261.562 533.393 261.048 L 533.842 231.897 L 547.93 231.449 z" fill="#E6E4DF" transform="translate(0,0)"></path>
<path d="M 1353.45 232.398 C 1369.97 233.55 1390.16 233.417 1406.92 233.632 C 1443.3 234.104 1479.68 234.272 1516.06 234.138 C 1515.86 240.828 1517.93 253.984 1515.1 259.813 C 1514.56 260.931 1511.96 260.703 1510.25 260.813 L 1427 261.238 C 1412.56 261.396 1369.4 261.709 1355.74 260.097 C 1352.75 255.942 1353.51 238.692 1353.45 232.398 z" fill="#E6E4DF" transform="translate(0,0)"></path>
<path d="M 377.809 372.117 C 388.747 373.474 410.71 370.093 420.312 373.111 C 425.239 379.174 420.71 443.379 420.051 455.975 C 405.737 455.737 391.42 455.647 377.103 455.707 C 377.041 443.598 373.021 378.159 377.809 372.117 z" fill="#E6E4DF" transform="translate(0,0)"></path>
<path d="M 1624.72 373.214 C 1638.98 372.801 1654.44 373.03 1668.79 372.974 C 1670.2 404.423 1668.65 425.246 1667.71 456.524 C 1657.91 457.238 1641 456.067 1630.92 455.824 C 1629.75 455.795 1626.94 455.277 1626.65 454.199 C 1624.27 445.2 1623.56 377.861 1624.72 373.214 z" fill="#E6E4DF" transform="translate(0,0)"></path>
<path d="M 386.962 696.789 C 396.658 697.789 414.343 695.97 422.346 698.315 C 422.567 700.807 420.995 730.933 420.522 735.466 C 419.352 746.661 420.443 769.378 419.332 778.332 L 418.517 779.254 C 411.052 780.416 388.407 779.984 379.803 780.093 C 383.571 757.578 381.713 725.33 384.141 701.932 C 384.545 698.046 384.101 699.089 386.962 696.789 z" fill="#E6E4DF" transform="translate(0,0)"></path>
<path d="M 1224.14 695.512 C 1227.8 695.429 1236.4 694.455 1238.26 697.558 C 1237.97 706.993 1236.49 773.637 1234.09 778.475 C 1229.98 779.883 1223.95 779.272 1219.45 779.112 C 1218.46 779.517 1201.83 779.223 1199.45 779.219 C 1200.29 759.689 1203.57 713.079 1201.97 695.845 C 1208.36 696.074 1217.55 695.629 1224.14 695.512 z" fill="#E6E4DF" transform="translate(0,0)"></path>
<path d="M 865.847 138.146 C 874.778 137.303 882.939 137.846 891.815 138.713 L 891.936 139.726 L 888.01 139.549 C 882.864 139.492 866.284 141.277 862.846 139.585 L 865.847 138.146 z" fill="#E6E4DF" transform="translate(0,0)"></path>
<path d="M 301.688 825.35 C 339.607 825.618 378.836 827.713 417.254 828.244 C 430.952 828.487 444.652 828.578 458.352 828.518 C 471.706 828.416 488.718 827.335 501.472 830.207 C 502.737 838.141 501.719 873.35 501.682 882.968 L 501.287 935.532 C 501.203 944.624 503.08 956.537 499.084 964.774 C 497.684 967.66 493.697 968.045 490.777 968.612 C 452.215 972.262 411.325 971.579 372.588 972.18 C 357.252 972.418 310.728 976.528 299.255 970.354 C 296.463 966.374 298.159 881.905 298.238 870.76 C 298.31 860.546 296.524 847.23 296.318 836.97 C 296.165 829.368 291.587 826.783 301.688 825.35 z" fill="#08090A" transform="translate(0,0)"></path>
<path d="M 400.252 904.699 C 405.423 906.299 485.515 958.46 488.77 963.096 C 485.621 964.563 419.81 960.924 410.966 960.321 C 400.198 960.142 322.262 960.313 318.031 958.649 L 317.775 957.584 C 327.101 953.536 334.304 946.76 342.927 941.159 L 400.252 904.699 z" fill="#E6E4DF" transform="translate(0,0)"></path>
<path d="M 380.096 836.81 L 381.351 837.276 C 388.151 835.63 468.868 836.207 479.824 836.424 C 479.137 839.181 423.1 877.028 416.205 881.822 C 410.273 885.732 406.265 888.341 399.908 891.59 C 389.042 885.033 324.275 845.103 319.522 838.602 C 323.164 836.931 371.656 838.524 380.096 836.81 z" fill="#E6E4DF" transform="translate(0,0)"></path>
<path d="M 483.958 844.908 L 486.376 845.248 C 488.795 848.201 489.254 944.026 485.998 948.395 C 478.348 945.152 455.145 929.35 447.397 924.001 C 435.743 915.645 420.633 906.812 408.146 899.41 L 408.347 897.752 C 415.384 889.9 472.691 852.203 483.958 844.908 z" fill="#E6E4DF" transform="translate(0,0)"></path>
<path d="M 308.673 843.969 C 315.117 847.345 334.638 861.149 341.524 865.647 C 351.532 872.182 379.733 888.307 386.956 895.873 C 385.393 898.466 375.91 901.621 372.399 904.125 C 364.722 909.601 359.885 914.399 351.393 918.708 C 344.202 922.643 318.515 944.224 312.986 943.997 C 309.795 937.461 313.344 860.139 308.673 843.969 z" fill="#E6E4DF" transform="translate(0,0)"></path>
<path d="M 1550.76 823.722 C 1576.02 829.59 1603.58 827.654 1629.43 827.992 C 1659.67 828.388 1689.95 829.195 1720.19 829.272 C 1728.44 829.294 1741.58 825.312 1749.16 828.492 C 1750.48 829.045 1751.51 831.336 1751.96 832.587 C 1755.43 842.12 1753.48 921.217 1753.4 939.308 C 1753.38 942.691 1754.44 946.15 1754.25 949.438 C 1754.02 953.349 1750.34 958.47 1748.64 962.112 C 1750.59 962.81 1752.34 963.539 1754.24 964.337 L 1753.72 965.678 L 1750.71 966.325 C 1743.45 967.872 1726.23 968.137 1717.99 968.663 C 1689.77 970.465 1660.86 971.177 1632.62 971.295 C 1613.55 971.375 1568.34 975.651 1551.52 971.807 C 1549.6 968.596 1548.83 958.761 1548.84 954.68 C 1548.94 913.57 1548.68 872.494 1548.45 831.39 C 1548.44 829.095 1549.85 825.828 1550.76 823.722 z" fill="#08090A" transform="translate(0,0)"></path>
<path d="M 1653.94 904.718 C 1658.76 906.86 1740.82 958.862 1742.29 960.883 C 1734.82 961.796 1723.61 960.898 1715.83 960.804 C 1699.16 960.603 1681.75 959.765 1665.12 960.507 C 1647.19 957.59 1583.03 961.901 1572.93 958.394 L 1572.33 956.476 C 1580.88 948.612 1642 909.923 1653.94 904.718 z" fill="#E6E4DF" transform="translate(0,0)"></path>
<path d="M 1740.9 840.004 C 1741.4 843.016 1741.25 846.093 1741.28 849.138 C 1741.64 882.247 1740.34 915.352 1740.83 948.459 C 1726.67 941.193 1708.31 928.739 1694.5 919.88 C 1687.35 915.147 1665.31 903.152 1662.24 896.674 C 1665.03 888.41 1729.59 848.298 1740.9 840.004 z" fill="#E6E4DF" transform="translate(0,0)"></path>
<path d="M 1721.14 834.553 C 1723.71 835.189 1727.41 833.909 1730.55 835.638 C 1724.59 842.643 1660.93 885.684 1652.15 889.702 C 1646.98 889.726 1618.17 868.874 1611.94 864.641 C 1600.29 856.59 1584.46 846.917 1573.96 838.25 C 1591.33 836.782 1610.02 837.513 1627.53 837.028 C 1658.55 836.169 1690.2 836.075 1721.14 834.553 z" fill="#E6E4DF" transform="translate(0,0)"></path>
<path d="M 1561.9 843.878 C 1565.41 845.338 1581.31 856.089 1585.46 858.709 C 1603.93 870.343 1622.34 882.428 1640.45 894.619 C 1626.6 902.345 1614.77 912.245 1601.54 920.908 C 1592.23 928.613 1572.89 940.636 1562.07 947.062 C 1563.31 925.458 1563.54 903.808 1562.74 882.183 C 1562.48 872.698 1561.3 852.63 1561.9 843.878 z" fill="#E6E4DF" transform="translate(0,0)"></path>
<path d="M 1551.05 179.872 C 1561.56 180.13 1576.89 182.334 1589.31 182.852 C 1624.85 184.11 1660.41 184.74 1695.97 184.742 C 1710.52 184.795 1735.74 183.618 1750.41 185.231 C 1751.45 185.346 1753.35 187.678 1753.35 188.906 C 1753.43 228.169 1753.97 267.904 1752.39 307.126 C 1752.23 311.061 1751.23 315.525 1749.55 318.379 C 1749 318.546 1748.63 318.706 1748.07 318.738 C 1738.98 319.252 1664.67 266.62 1652.62 257.598 C 1635.34 271.639 1611.85 286.584 1592.97 299.189 C 1591.06 300.352 1572.01 312.797 1572.15 312.56 C 1574.93 314.286 1656.67 313.519 1671.22 315.598 L 1671.09 315.865 C 1696.68 319.949 1740.76 317.378 1761.93 324.249 C 1748.52 325.419 1731.54 325.455 1717.84 325.803 C 1685.47 326.715 1653.09 327.106 1620.7 326.975 C 1601.09 327.091 1579.57 327.526 1559.85 326.862 C 1556.19 326.739 1552.41 322.653 1550.15 319.864 C 1548.15 308.372 1548.11 188.873 1551.05 179.872 z" fill="#08090A" transform="translate(0,0)"></path>
<path d="M 1739.9 198.064 C 1742.22 200.893 1738.95 294.133 1739 304.72 C 1730.68 298.808 1701.51 280.666 1693 275.971 C 1681.99 268.179 1670.42 261.046 1659.73 252.828 C 1674.38 241.404 1690.77 229.9 1706.2 219.535 C 1717.19 212.155 1729.08 206.012 1739.9 198.064 z" fill="#E6E4DF" transform="translate(0,0)"></path>
<path d="M 1662.59 191.445 C 1685.23 190.675 1707.87 190.625 1730.51 191.296 C 1725.17 196.655 1704.94 210.941 1698.09 215.68 C 1683.44 225.818 1667.54 237.447 1652.59 246.975 L 1645.2 242.351 C 1637.41 237.218 1578.31 196.154 1576.67 193.439 C 1577.14 193.17 1654.92 191.779 1662.59 191.445 z" fill="#E6E4DF" transform="translate(0,0)"></path>
<path d="M 1562.39 199.389 C 1566.85 202.244 1571.71 203.689 1575.32 206.246 C 1596.07 220.946 1617.56 234.389 1638.75 248.406 C 1625.87 256.965 1615.47 268.293 1603.04 276.831 C 1593.67 284.286 1574.93 295.712 1563.9 303.486 C 1564.71 278.965 1563.75 252.046 1562.99 227.546 C 1562.73 219.206 1563.18 206.879 1562.39 199.389 z" fill="#E6E4DF" transform="translate(0,0)"></path>
<path d="M 1554.22 500.564 C 1556.47 501.133 1563.15 501.193 1565.91 501.427 C 1598.26 504.402 1630.97 504.79 1663.38 505.81 C 1690.69 506.67 1716.56 507.92 1743.84 505.224 C 1756.8 503.942 1752.93 535.23 1753.02 544.322 L 1753.04 594.161 C 1753.14 606.294 1754.43 619.587 1752.27 631.56 C 1752 633.055 1751.94 634.693 1750.6 635.536 C 1739.24 642.707 1673.39 588.685 1655.99 583.96 C 1653.94 583.404 1652.1 583.396 1650.12 584.177 C 1640.15 588.099 1630.84 595.579 1621.7 601.162 C 1611.45 607.419 1600.82 612.981 1590.52 619.131 C 1582.88 622.838 1579.25 627.124 1573.36 633.098 C 1590.59 633.795 1739.92 636.725 1743.84 641.406 C 1731.55 648.91 1604.99 644.383 1582.4 646.575 C 1574.98 647.294 1554.79 647.004 1549.28 641.378 C 1547.93 636.869 1549.11 628.647 1549.09 623.423 L 1549.26 555.836 C 1549.18 540.341 1547.58 519.037 1548.09 504.371 C 1550.17 501.218 1549.91 502.078 1554.22 500.564 z" fill="#08090A" transform="translate(0,0)"></path>
<path d="M 1739.98 519.8 C 1741 531.312 1740.48 537.65 1740.22 548.975 C 1740 564.4 1739.66 579.822 1739.21 595.242 C 1739 604.13 1740.83 617.287 1738.09 624.894 C 1731.25 621.816 1708.52 604.684 1699.15 598.882 C 1692.89 595.026 1665.04 577.06 1663.69 571.546 C 1668.83 565.99 1733.6 521.995 1739.98 519.8 z" fill="#E6E4DF" transform="translate(0,0)"></path>
<path d="M 1719.5 512.453 L 1732 512.019 C 1724.17 518.851 1706.66 530.704 1697.75 537.005 C 1687 544.604 1667.16 559.53 1655.94 565.148 C 1641.96 563.255 1622.63 546.598 1608.7 538.391 C 1597.67 530.318 1584.06 522.035 1572.47 514.065 C 1580.6 514.754 1590.26 514.678 1598.55 514.62 C 1638.51 514.342 1679.64 514.325 1719.5 512.453 z" fill="#E6E4DF" transform="translate(0,0)"></path>
<path d="M 1561.95 520.605 C 1573.13 522.593 1605.08 548.869 1617.91 555.206 C 1623.59 558.011 1634.15 567.322 1641.13 571.354 C 1635.05 575.966 1615.01 591.447 1608.94 593.037 C 1606.53 595.107 1603.52 595.995 1600.46 597.999 C 1589.18 605.367 1577.31 614.425 1565.41 620.625 L 1564.48 619.977 C 1563.98 607.158 1565.36 592.155 1564.28 579.827 C 1562.64 561.051 1564.39 538.713 1561.95 520.605 z" fill="#E6E4DF" transform="translate(0,0)"></path>
<path d="M 901.836 176.318 C 910.697 175.782 939.041 174.619 947.649 177.809 C 948.943 178.289 948.968 179.654 949.346 181.071 C 947.582 184.263 948.684 183.356 945.24 184.475 C 936.467 184.271 900.96 187.271 897.761 179.849 C 899.171 176.975 898.297 177.97 901.836 176.318 z" fill="#08090A" transform="translate(0,0)"></path>
<path d="M 900.668 202.058 C 910.988 202.237 942.326 199.931 948.624 205.923 C 948.608 209.284 949.07 207.946 946.278 210.933 C 935.978 208.967 904.493 213.17 899.019 207.529 C 898.717 204.238 898.566 205.55 900.668 202.058 z" fill="#08090A" transform="translate(0,0)"></path>
<path d="M 898.898 253.812 C 907.492 253.7 941.956 251.903 947.557 255.919 C 948.725 259.308 948.622 257.828 947.223 261.903 C 934.882 260.685 910.75 264.035 900.845 260.007 C 898.328 257.278 899.045 258.285 898.898 253.812 z" fill="#08090A" transform="translate(0,0)"></path>
<path d="M 898.687 278.932 C 907.978 279.444 942.55 276.782 947.812 281.122 C 948.399 284.303 948.374 283.045 946.94 286.629 C 937.447 286.734 904.335 289.053 898.567 282.988 L 898.687 278.932 z" fill="#08090A" transform="translate(0,0)"></path>
<path d="M 898.752 228.07 C 907.665 227.666 943.536 225.926 949.191 231.518 C 946.884 235.266 947.933 234.117 943.111 235.76 C 933.012 235.224 904.745 237.657 898.927 232.5 L 898.752 228.07 z" fill="#08090A" transform="translate(0,0)"></path>
<path d="M 1290.29 825.217 C 1302.12 825.178 1314.11 825.024 1325.94 824.957 C 1330.8 824.93 1334.88 824.98 1337.31 829.421 L 1336.12 832.748 C 1331.17 833.371 1292.68 833.876 1289.99 832.036 C 1288.86 828.404 1289.23 829.353 1290.29 825.217 z" fill="#08090A" transform="translate(0,0)"></path>
<path d="M 904.524 304.415 C 913.522 305.089 942.52 303.223 947.691 306.931 L 947.861 309.897 C 946.163 312.519 945.872 311.845 942.026 312.699 C 930.577 311.293 910.708 314.525 900.12 310.219 C 898.936 309.738 899.069 308.545 898.855 307.18 C 900.949 304.536 900.488 305.311 904.524 304.415 z" fill="#08090A" transform="translate(0,0)"></path>
<path d="M 1290.37 902.242 C 1298.18 902.032 1330.45 899.672 1335.04 904.481 C 1335.34 907.622 1335.59 906.343 1333.76 909.33 C 1326.11 909.95 1295.91 911.747 1290.2 908.211 C 1288.91 905.164 1289.28 906.205 1290.37 902.242 z" fill="#08090A" transform="translate(0,0)"></path>
<path d="M 1289.19 927.048 C 1297.32 926.706 1327.62 926.551 1333.91 927.926 C 1335.81 930.895 1335.13 930.744 1334.94 934.947 C 1324.35 934.547 1298.87 936.508 1290.84 933.574 C 1288.48 930.759 1289.19 931.556 1289.19 927.048 z" fill="#08090A" transform="translate(0,0)"></path>
<path d="M 1288.8 850.913 C 1297.96 851.052 1329.72 848.396 1334.9 853.952 L 1334.7 858.06 C 1326.3 858.917 1298.18 859.314 1290.76 857.793 C 1288.39 855.129 1289.12 855.26 1288.8 850.913 z" fill="#08090A" transform="translate(0,0)"></path>
<path d="M 1289.02 953.004 C 1298.46 953.245 1326.49 951.47 1333.05 954.587 C 1334.7 957.279 1334.16 956.49 1333.71 960.414 C 1326.31 960.963 1296.07 961.566 1290.11 959.836 C 1288.43 957.188 1289.01 956.508 1289.02 953.004 z" fill="#08090A" transform="translate(0,0)"></path>
<path d="M 1288.97 876.958 C 1297.82 876.905 1327.39 876.213 1334.33 877.408 C 1336.57 880.343 1335.93 879.354 1335.77 883.773 C 1328.27 884.609 1297.41 884.717 1290.79 883.698 C 1288.38 881.176 1289.15 881.415 1288.97 876.958 z" fill="#08090A" transform="translate(0,0)"></path>
<metadata><recraft-signature>{"signed_by": "recraft", "signature_b64": "0j3MFwg6Y9AjihXIdGV+G8R8Xp1PxLXtMGBFzVTNxd2i6s5eqhy0ib6Lf6QFNNiGPipuvFozD/nSoth1LIfFAQ==", "signing_algo": "Ed25519", "generation_timestamp": 1777236706, "identifier": "ba629570-4b6c-4fe7-8f40-d5860811aec1"}</recraft-signature></metadata></svg>