<svg xmlns="http://www.w3.org/2000/svg" height="1024" preserveAspectRatio="none" style="display: block;" version="1.1" viewBox="0 0 2048 1152" width="1820">
<path d="M 0 0 L 2048 0 L 2048 1152 L 0 1152 L 0 0 z" fill="#E6E4DF" transform="translate(0,0)"></path>
<path d="M 655.883 1040.44 C 655.97 1050.72 656.958 1086.66 654.906 1094.22 C 653.819 1095.97 652.613 1096.8 650.653 1097.45 C 643.311 1099.87 566.052 1099.28 554.647 1098.56 C 551.562 1098.37 547.82 1098.11 545.053 1096.61 C 543.612 1095.83 543.27 1094.68 542.8 1093.14 C 540.192 1084.6 542.148 1059.46 542.098 1048.87 L 541.967 904.244 L 542.194 232.95 L 542.165 111.102 C 542.179 98.711 540.358 49.2401 544.843 41.0346 C 554.481 36.3651 626.588 40.7575 640.789 38.7068 C 643.617 38.2985 653.68 39.1376 654.628 41.4895 C 657.453 48.4972 656.067 76.2782 655.986 83.9193 C 749.177 81.8956 847.945 83.6428 941.584 83.6266 L 1505.5 83.7973 L 1505.3 94.7613 L 656.019 94.9278 L 656.026 121.923 L 1028.41 121.91 C 1028.48 130.1 1028.4 138.291 1028.18 146.478 C 1033.29 147.518 1047.79 147.193 1053.6 147.182 L 1108.53 147.031 C 1115.65 147.017 1133.69 146.705 1140.19 147.802 C 1141.08 150.999 1141.24 151.522 1141.04 154.818 C 1136.47 160.946 1114.82 157.783 1106.43 157.806 C 1079.82 158.074 1053.21 158.155 1026.61 158.051 L 753.953 158.127 L 691.263 158.225 C 680.335 158.264 656.129 158.975 646.79 156.717 C 642.427 148.891 644.341 64.9371 644.403 49.9879 L 553.09 49.901 L 553.329 249.455 L 644.255 249.509 C 644.157 241.275 643.992 232.499 644.004 224.298 C 644.046 196.986 641.827 198.077 667.938 198.036 L 893.948 198.138 L 969.614 198.139 C 982.166 198.136 994.72 198.106 1007.27 198.189 C 1011.22 198.215 1013 199.527 1014.53 203.152 C 1013.44 208.72 1008.46 209.41 1003.32 209.394 C 992.725 209.361 982.168 209.105 971.564 209.1 L 893.185 209.111 L 655.998 209.027 L 655.993 249.792 L 1505.26 249.306 L 1505.52 259.906 L 655.887 260.154 L 655.949 286.114 L 1013.19 286.24 C 1013.2 292.196 1013.54 306.134 1012.56 311.338 L 1012.87 313.146 L 1170.55 312.993 L 1170.51 323.757 L 773.044 323.355 C 757.304 323.318 654.637 324.858 647.211 322.069 C 642.194 314.684 644.312 271.992 644.435 260.333 L 553.106 260.172 L 553.014 415.802 C 583.044 415.799 614.221 416.199 644.158 415.585 C 644.008 404.956 642.524 375.151 645.859 367.143 C 648.187 364.952 655.491 364.545 658.892 364.514 C 702.005 364.115 745.53 364.317 788.627 364.345 L 1040.68 364.232 C 1040.76 368.452 1041.5 371.045 1039.71 374.313 C 1030.49 378.097 700.836 374.506 655.471 375.467 L 655.619 415.525 L 1229.14 415.845 L 1415.12 415.923 L 1473 415.903 C 1480.24 415.879 1498.83 413.889 1505.03 418.004 C 1506.25 418.809 1506.47 420.436 1506.89 421.85 C 1505.81 425.215 1506.57 424.176 1504.22 426.321 C 1481.21 428.24 1438.55 426.681 1414.1 426.506 C 1364.97 426.26 1315.84 426.307 1266.71 426.649 L 655.611 426.187 L 655.375 450.967 L 1070.52 450.711 C 1070.44 457.986 1070.64 467.86 1070.19 474.916 L 1070.06 476.897 L 1145.39 476.904 C 1151.86 476.896 1176.82 476.53 1181.81 477.535 C 1181.89 480.994 1182.45 484.594 1180.78 487.397 C 1174.3 488.52 1150.68 487.963 1142.6 487.95 L 1061.57 487.838 L 773.658 487.933 C 757.729 487.929 652.035 489.076 646.342 485.945 C 642.375 477.993 644.048 437.037 644.102 426.174 L 553.062 425.94 L 553.042 581.012 L 644.147 581.114 C 644.044 572.48 643.886 563.999 643.892 555.142 C 643.895 548.9 642.819 536.105 647.098 530.943 C 648.624 529.102 658.874 529.145 661.623 528.996 C 730.179 528.831 798.9 529.012 867.449 529.036 L 947.134 529.052 C 953.164 529.051 986.634 527.953 989.447 530.44 C 989.473 533.558 989.681 535.22 988.481 538.171 C 982.817 540.443 930.612 539.038 920.69 539.078 L 655.451 539.598 L 655.394 581.056 L 1217.67 581.105 L 1404.03 581.163 C 1432.77 581.167 1461.52 581.071 1490.26 581.064 C 1494.4 581.063 1502.05 580.73 1505.19 583.119 C 1506.1 586.063 1505.82 586.533 1504.66 589.437 C 1502.93 591.353 1501.35 592.493 1498.67 592.436 C 1473.22 591.901 1447.54 592.049 1422.09 592.038 L 1246.33 591.991 L 655.229 592.181 C 655.739 597.539 655.261 613.491 656.668 616.105 L 1082.32 616.521 L 1082.83 641.11 C 1086.78 642.97 1116.73 641.988 1124.15 642.845 C 1132.15 642.927 1172.58 641.58 1176.49 645.036 C 1182.79 658.035 1150.66 654.033 1144.33 654.005 L 1062.81 653.909 L 825.343 653.809 C 806.944 653.828 659.045 656.035 647.774 652.28 C 641.662 645.368 643.968 603.612 644.057 591.848 L 553.023 591.973 L 552.998 748.251 C 583.362 748.468 613.727 748.482 644.091 748.29 C 643.925 734.637 643.563 720.882 643.835 707.239 C 644.116 693.122 648.454 693.338 660.592 693.299 C 775.919 692.933 891.262 693.172 1006.59 693.292 C 1009.66 693.295 1011.44 693.153 1014.14 694.861 C 1016.14 697.548 1015.83 696.343 1015.72 699.387 C 1011.21 706.529 990.569 703.836 982.272 703.819 L 918.01 703.802 L 655.624 703.93 L 655.637 748.315 L 1249.73 747.743 L 1426.02 747.78 L 1474.32 747.769 C 1483.01 747.744 1496.21 747.29 1504.29 748.352 C 1505.82 750.187 1506.16 755.319 1505.15 757.485 C 1499.4 759.696 1312.99 758.452 1297.84 758.457 L 655.161 758.891 C 655.789 765.624 655.127 779.527 656.409 783.979 L 1078.66 783.88 C 1078.72 791.616 1080.21 813.603 1076.24 819.39 C 1069.32 821.975 1023.37 820.829 1013.6 820.827 L 907.517 820.78 L 747.715 820.84 C 739.558 820.849 651.676 822.228 647.126 818.815 C 641.976 814.951 643.892 770.816 643.982 758.993 L 552.936 758.974 L 553.059 1087.52 L 644.074 1087.83 C 643.984 1077.49 642.11 1037.2 646.815 1031.38 C 656.975 1027.99 720.413 1029.58 736.274 1029.59 L 881.223 1029.58 L 952.541 1029.69 C 959.892 1029.71 978.239 1027.31 982.189 1032.67 C 982.293 1035.75 982.308 1036.16 980.492 1038.61 C 974.826 1042.2 960.546 1040 953.108 1040.04 L 879.55 1040.23 L 655.883 1040.44 z" fill="#08090A" transform="translate(0,0)"></path>
<path d="M 656.668 616.105 L 1082.32 616.521 L 1082.83 641.11 C 1068.85 640.169 1047.35 640.802 1032.85 640.817 L 938.394 640.862 C 845.141 640.735 750.271 640.067 657.087 641.187 C 657.064 632.718 657.028 624.566 656.668 616.105 z" fill="#08090A" transform="translate(0,0)"></path>
<path d="M 657.087 641.187 C 750.271 640.067 845.141 640.735 938.394 640.862 L 1032.85 640.817 C 1047.35 640.802 1068.85 640.169 1082.83 641.11 C 1086.78 642.97 1116.73 641.988 1124.15 642.845 C 1108.3 643.606 1087.43 643.01 1071.06 643.004 L 970.703 642.962 L 656.174 643.05 L 657.087 641.187 z" fill="#A4A2A0" transform="translate(0,0)"></path>
<path d="M 1012.87 313.146 C 993.741 314.111 967.127 313.26 947.376 313.25 L 817.008 313.188 C 784.486 313.118 751.963 313.235 719.442 313.539 C 700.057 313.732 675.205 314.677 656.309 313.55 L 657.155 312.633 C 664.209 310.17 706.283 311.482 717.416 311.486 L 846.417 311.426 L 952.349 311.11 C 970.285 311.049 995.4 310.204 1012.56 311.338 L 1012.87 313.146 z" fill="#5C5D62" transform="translate(0,0)"></path>
<path d="M 654.796 808.639 C 654.727 795.691 653.926 770.981 655.161 758.891 C 655.789 765.624 655.127 779.527 656.409 783.979 C 657.567 790.192 657.2 801.188 657.179 807.9 L 949.836 808.188 C 964.89 808.169 1061.63 806.059 1069.72 808.87 L 820.889 809.025 L 716.844 809.022 C 696.747 809.009 674.752 809.437 654.796 808.639 z" fill="#3A3B3F" transform="translate(0,0)"></path>
<path d="M 1023.5 146.276 L 1028.18 146.478 C 1033.29 147.518 1047.79 147.193 1053.6 147.182 L 1108.53 147.031 C 1115.65 147.017 1133.69 146.705 1140.19 147.802 C 1125.81 148.656 1105.21 148.051 1090.42 148.04 L 998.023 148.158 C 985.684 147.144 962.034 147.862 948.659 147.862 L 851.89 147.885 L 726.362 147.946 C 705.731 147.962 679.019 147.246 658.732 148.316 L 657.356 146.925 C 670.892 147.97 699.038 147.176 713.218 147.161 L 824.645 147.036 L 947.13 147.059 C 968.584 147.1 1002.48 147.878 1023.5 146.276 z" fill="#A4A2A0" transform="translate(0,0)"></path>
<path d="M 1070.19 474.916 L 1070.06 476.897 C 1044.25 476.792 1015.29 476.216 989.716 477.145 C 958.663 476.867 661.871 478.688 657.442 476.094 C 662.281 474.48 712.628 475.802 721.752 475.819 L 959.055 476.07 C 971.018 476.096 1063.77 477.343 1068.91 475.34 L 1070.19 474.916 z" fill="#A4A2A0" transform="translate(0,0)"></path>
<path d="M 654.796 808.639 C 674.752 809.437 696.747 809.009 716.844 809.022 L 820.889 809.025 L 1069.72 808.87 C 1067.49 811.079 1051.53 810.128 1047.2 810.115 L 989.801 810.006 L 741.39 810.04 C 729.937 810.041 657.959 810.945 654.796 808.639 z" fill="#A4A2A0" transform="translate(0,0)"></path>
<path d="M 657.442 476.094 L 658.048 475.401 C 662.176 474.513 684.781 474.889 690.034 474.892 L 763.059 474.968 L 1068.91 475.34 C 1063.77 477.343 971.018 476.096 959.055 476.07 L 721.752 475.819 C 712.628 475.802 662.281 474.48 657.442 476.094 z" fill="#5C5D62" transform="translate(0,0)"></path>
<path d="M 657.356 146.925 C 666.508 144.365 734.4 146.411 748.598 146.359 L 930.923 146.007 C 958.397 146.002 996.736 144.752 1023.5 146.276 C 1002.48 147.878 968.584 147.1 947.13 147.059 L 824.645 147.036 L 713.218 147.161 C 699.038 147.176 670.892 147.97 657.356 146.925 z" fill="#5C5D62" transform="translate(0,0)"></path>
<path d="M 658.732 148.316 C 679.019 147.246 705.731 147.962 726.362 147.946 L 851.89 147.885 L 948.659 147.862 C 962.034 147.862 985.684 147.144 998.023 148.158 C 988.535 149.57 955.364 148.842 944.117 148.834 L 831.463 148.793 L 711.083 149.002 C 702.327 149.014 665.731 149.595 658.732 148.316 z" fill="#5C5D62" transform="translate(0,0)"></path>
<path d="M 1070.06 476.897 L 1145.39 476.904 C 1151.86 476.896 1176.82 476.53 1181.81 477.535 C 1172.58 478.331 1158.93 477.914 1149.23 477.89 L 1092.72 477.76 C 1063.1 477.738 1018.33 479.437 989.716 477.145 C 1015.29 476.216 1044.25 476.792 1070.06 476.897 z" fill="#5C5D62" transform="translate(0,0)"></path>
<path d="M 656.174 643.05 C 653.996 640.43 654.615 597.798 655.229 592.181 C 655.739 597.539 655.261 613.491 656.668 616.105 C 657.028 624.566 657.064 632.718 657.087 641.187 L 656.174 643.05 z" fill="#5C5D62" transform="translate(0,0)"></path>
<path d="M 1082.88 988.014 L 790.54 987.814 L 692.816 987.735 C 682.954 987.701 655.166 989.282 647.503 986.239 C 640.273 977.783 645.87 892.174 643.914 876.05 C 642.24 862.255 656.159 861.667 665.983 862.96 C 699.002 867.303 991.223 857.789 1003.08 864.38 C 1003.87 867.461 1003.4 869.685 1003.04 872.804 C 999.916 875.196 903.833 874.06 892.149 874.065 L 655.989 873.885 L 656.032 913.837 L 1279.2 913.578 L 1439.88 913.626 L 1478.11 913.527 C 1485.51 913.446 1501.11 911.328 1505.43 917.158 C 1506.04 920.409 1506.28 919.36 1505.26 922.19 C 1501.13 925.457 1428.38 923.978 1416.51 923.977 L 1228.98 923.854 L 656.221 924.351 C 656.282 932.94 656.285 940.992 655.956 949.572 L 657.329 950.737 C 696.895 951.804 741.464 950.837 781.286 950.835 L 1082.88 950.696 L 1082.88 988.014 z" fill="#08090A" transform="translate(0,0)"></path>
<path d="M 657.225 975.068 C 694.311 974.504 1066.49 973.614 1072.12 976.182 C 1048.94 978.31 998.835 976.938 973.99 976.948 L 784.962 976.927 L 699.374 976.989 C 691.657 977.007 661.482 977.5 655.155 976.078 L 657.225 975.068 z" fill="#A4A2A0" transform="translate(0,0)"></path>
<path d="M 655.956 949.572 L 657.329 950.737 C 656.949 959.034 657.089 966.76 657.225 975.068 L 655.155 976.078 C 655.113 968.086 654.721 957.202 655.956 949.572 z" fill="#3A3B3F" transform="translate(0,0)"></path>
<metadata><recraft-signature>{"signed_by": "recraft", "signature_b64": "K6jgycZqQ6uHMfGiHyLOy3gD3ozNxmClwGN4n/cJTSUJb8sE9Do471mfU+QWc9tSh5uSRpQ/3swGtDyu1FIpAg==", "signing_algo": "Ed25519", "generation_timestamp": 1777196451, "identifier": "09a0f71e-3b43-4755-b76f-cb4425ac4f8f"}</recraft-signature></metadata></svg>