<svg xmlns="http://www.w3.org/2000/svg" height="1024" preserveAspectRatio="none" style="display: block;" version="1.1" viewBox="0 0 2048 1152" width="1820">
<path d="M 0 0 L 2048 0 L 2048 1152 L 0 1152 L 0 0 z" fill="#5E6AD2" transform="translate(0,0)"></path>
<path d="M 435.079 65.2051 L 436.406 65.0842 C 478.481 61.4352 508.127 90.9933 511.55 131.866 C 528.79 136.385 547.238 142.206 564.572 147.064 C 604.647 158.289 644.782 169.296 684.976 180.085 C 691.148 162.223 703.845 147.887 722.4 142.609 C 734.726 138.976 747.996 140.472 759.204 146.758 C 774.777 155.553 781.226 169.105 785.603 185.446 C 800.787 182.067 825.685 181.209 841.769 179.294 C 885.756 174.057 935.477 172.304 978.95 165.572 C 977.355 158.283 977.597 148.484 978.924 141.204 C 981.798 124.932 991.119 110.51 1004.77 101.206 C 1018.38 91.9844 1034.14 89.2404 1050.17 92.6134 C 1066.49 96.0359 1080.76 105.853 1089.79 119.872 C 1100.59 136.741 1101.41 151.897 1097.14 170.638 C 1158.51 181.466 1222.57 188.34 1283.79 199.687 C 1287.81 181.014 1297.66 166.146 1317.34 161.617 C 1327.54 159.265 1338.26 161.12 1347.08 166.764 C 1359.85 174.926 1363.67 185.275 1366.72 199.007 C 1429.19 204.586 1497.97 215.131 1560.68 222.729 C 1561.09 207.016 1567.37 192.025 1578.27 180.704 C 1588.68 169.724 1601.83 163.917 1616.97 163.685 C 1632.37 163.502 1647.19 169.548 1658.06 180.451 C 1680.72 203.15 1681.37 240.12 1658.4 263.055 C 1677.93 285.082 1712.71 318.466 1734.31 339.403 C 1736.84 337.154 1740.28 334.086 1743.1 332.345 C 1752.12 326.808 1763 325.185 1773.23 327.851 C 1810.32 337.282 1814.99 385.934 1778.7 406.272 C 1789.12 425.101 1799.37 447.091 1808.77 466.577 C 1823.78 497.562 1838.56 528.666 1853.08 559.885 C 1860.31 557.585 1867.9 556.588 1875.48 556.94 C 1904.3 558.108 1926.58 582.491 1931.16 610.024 C 1936.82 644.17 1909.8 676.957 1875.03 676.972 C 1870.71 676.974 1866.29 676.787 1861.93 676.594 L 1793.36 860.115 C 1782.69 888.699 1769.73 920.287 1760.31 949.124 C 1773.09 957.055 1782.96 968.92 1788.44 982.937 C 1795.27 1000.43 1794.85 1019.92 1787.26 1037.1 C 1769.4 1077.13 1726.48 1089.6 1687.62 1072 C 1669.35 1062.66 1660.41 1052.75 1652.57 1034.24 C 1627.69 1031.71 1593.57 1031.03 1568.01 1029.57 L 1421.32 1020.94 C 1412.06 1059.63 1385.4 1084.97 1344.73 1085.59 C 1323.98 1086.05 1303.92 1078.13 1289.1 1063.6 C 1272.51 1047.5 1265.25 1026.49 1264.9 1003.8 L 805.645 986.236 L 663.703 980.94 C 638.377 979.972 611.098 978.149 585.923 978.108 C 582.283 992.038 577.519 1002.26 567.84 1012.66 C 528.072 1055.41 449.168 1040.55 439.929 978.228 C 439.056 972.338 438.995 967.193 438.888 961.397 C 421.852 953.559 397.852 944.981 380.032 938.265 L 310.42 911.744 C 284.989 902.281 259.687 893.362 234.761 882.515 C 219.33 892.225 209.009 897.716 190.239 899.056 C 150.468 902.628 112.191 866.971 111.575 827.013 C 110.797 776.575 141.464 749.272 189.878 747.039 L 192.863 523.313 C 180.696 521.756 171.57 519.982 160.445 514.355 C 144.257 506.277 132.025 491.994 126.532 474.756 C 120.638 456.31 122.359 436.273 131.311 419.101 C 139.508 402.723 153.927 390.312 171.343 384.643 C 193.66 377.585 215.561 382.587 235.679 393.135 C 248.477 380.606 276.355 344.752 288.806 329.6 L 371.644 229.622 C 384.923 213.675 397.611 197.508 411.334 181.913 C 398.352 172.284 388.794 160.339 384.577 144.472 C 380.226 127.908 382.658 110.293 391.334 95.5279 C 401.615 78.0677 416.237 70.0572 435.079 65.2051 z" fill="#08090A" transform="translate(0,0)"></path>
<path d="M 1042.11 842.265 L 1269.81 979.469 C 1268.38 983.945 1266.92 988.411 1265.42 992.866 C 1219.93 993.112 1169.71 989.26 1123.92 987.919 C 1019.13 984.852 913.481 978.545 808.75 975.951 C 735.712 974.299 661.33 969.232 587.839 967.879 C 587.816 963.505 587.132 957.944 586.713 953.494 C 598.198 952.047 614.791 947.564 626.337 944.702 L 698.687 926.136 C 775.564 906.679 852.28 886.596 928.829 865.888 C 965.222 900.157 1028.4 894.158 1042.11 842.265 z" fill="#5E6AD2" transform="translate(0,0)"></path>
<path d="M 1261.44 665.975 C 1264.13 665.385 1280.49 669.835 1284.32 670.787 C 1290.21 726.595 1295.61 782.454 1300.52 838.357 C 1303.33 869.314 1307.92 907.722 1309.21 938.214 C 1291.81 947.035 1284.57 954.433 1273.93 970.249 C 1235.75 945.479 1191.83 920.242 1152.5 896.644 C 1115.55 875.833 1079.09 851.037 1042 830.588 C 1041.16 811.131 1040.62 808.197 1031.79 790.81 C 1060.3 774.177 1096.53 755.979 1126.27 740.048 L 1261.44 665.975 z" fill="#5E6AD2" transform="translate(0,0)"></path>
<path d="M 1165.17 454.571 C 1171.35 457.754 1226.34 520.626 1236.89 531.58 C 1234.2 534.237 1230.48 538.597 1228.19 541.7 C 1215.42 559.127 1210.12 580.93 1213.47 602.276 C 1217.35 627.546 1231.44 644.997 1251.37 659.578 C 1235.96 668.785 1218.51 677.836 1202.69 686.63 C 1160.16 710.241 1117.41 733.457 1074.44 756.274 C 1057.9 764.783 1041.47 773.509 1025.15 782.448 C 1012.86 771.014 1008.47 768.926 992.625 763.711 C 997.796 749.23 1002.26 734.172 1007.33 719.57 L 1085.8 489.626 C 1122.79 494.1 1144.25 487.217 1165.17 454.571 z" fill="#5E6AD2" transform="translate(0,0)"></path>
<path d="M 777.159 708.093 C 777.422 708.043 777.681 707.957 777.947 707.945 C 783.573 707.69 899.355 798.988 916.262 810.814 C 912.763 829.671 914.874 840.171 922.88 857.107 C 843.134 878.224 760.128 901.022 680.131 920.614 C 648.328 928.46 616.674 936.892 585.182 945.905 C 580.388 924.971 572.045 915.957 556.827 902.429 C 563.389 896.531 572.238 886.764 578.581 880.241 L 614.128 844.058 C 657.3 799.95 700.16 755.539 742.705 710.826 C 756.763 712.82 763.707 713.039 777.159 708.093 z" fill="#5E6AD2" transform="translate(0,0)"></path>
<path d="M 1784 635.461 C 1794.29 635.177 1804.59 635.046 1814.88 635.068 C 1822.65 650.031 1824.76 654.668 1838.04 665.005 C 1830.52 671.851 1817.06 681.427 1808.66 687.693 L 1753.89 728.204 C 1705.3 764.306 1656.28 802.165 1607.45 837.512 C 1602.48 829.071 1594.83 818.709 1589.11 810.5 C 1564.67 772.297 1533.1 733.361 1507.85 694.863 C 1533.94 681.561 1543.15 665.213 1547.09 636.998 C 1590.55 636.932 1634.01 636.632 1677.46 636.097 C 1712.77 635.869 1748.78 636.301 1784 635.461 z" fill="#5E6AD2" transform="translate(0,0)"></path>
<path d="M 1360.26 632.554 C 1371.01 634.09 1405.89 643.568 1418.58 646.404 C 1421.75 673.65 1432.68 687.334 1457.66 697.378 L 1381.5 929.747 L 1378.39 938.896 C 1356.64 930.634 1343.44 930.252 1321.03 934.684 C 1315.64 892.871 1312.03 845.872 1308.23 803.721 L 1295.58 671.093 C 1325.58 670.89 1344.81 656.758 1360.26 632.554 z" fill="#5E6AD2" transform="translate(0,0)"></path>
<path d="M 1094.63 179.041 C 1103.93 180.075 1113.26 181.94 1122.54 183.211 C 1176.14 190.548 1230.11 200.916 1283.74 207.446 C 1286.71 221.133 1289.26 227.157 1300.24 235.624 C 1271.35 266.46 1237.67 298.592 1207.62 328.923 C 1190.86 345.067 1174.95 362.203 1157.74 377.838 C 1153.07 372.358 1147.62 367.595 1141.56 363.702 C 1124.56 352.98 1107.24 352.207 1088.25 356.38 C 1085.64 347.538 1083.28 338.677 1081.24 329.686 C 1072.25 290.14 1060.11 250.382 1051.93 210.709 C 1073.03 205.589 1082.85 196.317 1094.63 179.041 z" fill="#5E6AD2" transform="translate(0,0)"></path>
<path d="M 1492.73 698.523 L 1495.36 698.291 C 1498.52 701.24 1520.25 732.864 1524.16 738.419 L 1598.57 844.402 C 1554.21 879.131 1505.63 914.454 1460.2 948.184 C 1445.46 959.442 1430.39 971.279 1415.1 981.67 C 1408.2 965.998 1401.17 955.993 1386.97 946.16 C 1395.99 914.683 1408.61 881.372 1418.65 849.932 C 1434.75 799.542 1450.88 749.128 1467.75 698.995 C 1477.29 699.342 1483.24 699.278 1492.73 698.523 z" fill="#5E6AD2" transform="translate(0,0)"></path>
<path d="M 1846.34 671.743 C 1849.76 672.536 1848.81 671.839 1851.08 674.081 C 1852.04 680.047 1846.21 691.068 1844.04 697.102 C 1838.11 713.77 1832.03 730.382 1825.79 746.935 C 1801.67 811.529 1773.91 879.46 1751.24 944.294 C 1747.69 943.022 1744.12 941.822 1740.53 940.694 C 1720.22 934.401 1701.35 936.503 1682.64 946.33 C 1675.3 935.482 1667.85 924.722 1660.26 914.05 C 1644.46 891.378 1628.81 868.596 1613.33 845.706 C 1636.28 827.594 1660.83 810.121 1684.23 792.415 C 1737.97 751.793 1792.01 711.568 1846.34 671.743 z" fill="#5E6AD2" transform="translate(0,0)"></path>
<path d="M 419.554 186.621 C 438.084 191.317 447.278 193.43 466.294 188.437 C 469.004 201.84 473.576 217.288 477.042 230.773 L 497.341 310.328 C 480.955 318.95 459.129 327.994 441.924 336.212 C 396.372 358.128 350.618 379.623 304.669 400.693 C 289.706 407.342 274.877 414.289 260.19 421.527 C 254.656 410.304 251.494 407.339 242.698 398.501 C 285.285 350.293 326.099 296.791 368.133 247.725 C 385.081 227.941 401.931 205.603 419.554 186.621 z" fill="#5E6AD2" transform="translate(0,0)"></path>
<path d="M 720.897 243.538 L 735.96 245.117 C 747.624 298.287 766.341 355.146 778.513 409.504 C 763.114 419.813 756.326 430.762 751.249 448.089 C 711.731 447.738 667.571 445.097 627.538 443.809 C 609.919 442.899 588.49 442.236 570.968 442.647 C 572.958 431.02 571.884 425.676 567.956 414.95 C 581.807 397.775 599.205 379.086 614.066 362.402 L 720.897 243.538 z" fill="#5E6AD2" transform="translate(0,0)"></path>
<path d="M 1068.27 482.821 C 1071.09 483.471 1074.31 484.602 1076.05 486.924 C 1076.78 490.127 1071.64 502.236 1070.28 506.173 C 1064.76 522.123 1059.33 538.106 1054 554.121 L 983.155 761.963 C 970.247 761.582 965.773 762.376 954.197 766.877 C 949.29 753.435 940.338 735.914 933.977 722.616 L 880.559 608.813 C 899.753 594.601 926.241 578.112 946.773 564.378 L 1068.27 482.821 z" fill="#5E6AD2" transform="translate(0,0)"></path>
<path d="M 1603.05 852.849 C 1605.43 854.844 1619.01 874.667 1621.88 878.765 C 1639.35 903.475 1656.5 928.407 1673.34 953.554 C 1651.35 970.895 1643.57 997.089 1649.28 1024.09 C 1634.73 1022.24 1612.82 1021.51 1597.8 1020.71 C 1565.6 1019.13 1533.41 1017.29 1501.24 1015.19 L 1421.25 1010.9 C 1420.64 1003.71 1419.77 998.611 1418.48 991.526 L 1536.57 903.368 C 1556.48 888.441 1584.86 868.678 1603.05 852.849 z" fill="#5E6AD2" transform="translate(0,0)"></path>
<path d="M 456.852 787.12 C 459.108 786.868 457.988 786.771 460.286 787.719 C 461.901 792.667 463.258 797.609 464.529 802.653 C 472.135 832.858 480.725 862.851 488.392 893.029 C 461.157 902.783 446.302 920.409 440.045 948.285 C 400.802 934.068 360.522 917.919 321.279 903.066 L 243.843 873.488 C 251.738 864.013 255.001 856.171 258.837 844.815 C 324.964 826.003 390.97 806.77 456.852 787.12 z" fill="#5E6AD2" transform="translate(0,0)"></path>
<path d="M 483.164 454.418 C 489.823 453.829 497.796 451.758 501.032 458.689 C 497.394 465.49 455.917 506.981 448.137 514.935 L 353.621 611.877 L 303.055 565.654 C 281.786 546.465 260.407 527.768 239.332 508.316 C 253.887 497.807 261.177 482.821 266.551 466.396 C 338.791 463.068 410.998 459.075 483.164 454.418 z" fill="#5E6AD2" transform="translate(0,0)"></path>
<path d="M 1742.25 404.738 C 1753.05 407.849 1758.7 408.858 1769.88 408.761 C 1795.88 459.686 1820.9 511.102 1844.94 562.98 C 1826.81 574.908 1819.57 583.402 1813.02 604.182 C 1797.34 597.759 1777.3 586.377 1761.62 578.364 C 1717.69 556.355 1674.48 531.828 1630.29 510.1 C 1639.41 502.856 1658.89 483.506 1668.12 474.863 C 1693.09 451.764 1717.8 428.387 1742.25 404.738 z" fill="#5E6AD2" transform="translate(0,0)"></path>
<path d="M 730.419 707.14 L 730.761 707.224 L 731.136 707.927 C 721.012 717.332 712.002 727.737 702.388 737.667 C 682.245 758.258 662.221 778.966 642.319 799.791 C 612.776 830.496 575.995 866.108 548.559 897.552 C 532.762 889.344 516.908 888.016 499.638 890.287 L 495.446 875.963 C 486.788 845.122 478.547 814.166 470.724 783.103 C 480.359 781.087 499.438 774.685 509.839 771.667 L 590.053 748.496 C 623.122 738.735 656.107 728.698 689.381 719.651 C 703.188 715.897 716.891 711.807 730.419 707.14 z" fill="#5E6AD2" transform="translate(0,0)"></path>
<path d="M 228.914 513.947 C 229.212 513.919 229.509 513.847 229.808 513.863 C 234.695 514.116 332.874 605.322 348.102 618.074 C 320.45 645.868 292.965 673.826 265.648 701.948 C 249 719.178 232.204 736.264 215.262 753.205 C 208.358 750.688 205.744 749.838 198.43 748.455 C 200.895 675.301 201.145 596.274 201.782 522.834 C 213.144 520.629 218.594 519.129 228.914 513.947 z" fill="#5E6AD2" transform="translate(0,0)"></path>
<path d="M 509.615 141.418 C 566.702 156.347 625.928 173.038 682.974 188.829 C 683.413 201.29 684.178 205.137 688.601 216.778 C 661.46 230.708 634.154 244.314 606.689 257.592 L 505.73 306.213 C 495.725 267.146 484.16 225.521 475.204 186.484 C 495.307 173.996 503.997 165.411 509.615 141.418 z" fill="#5E6AD2" transform="translate(0,0)"></path>
<path d="M 497.548 319.95 C 498.063 320.339 498.689 320.811 499.425 321.366 C 505.98 343.134 513.519 374.129 519.035 395.467 C 497.431 404.332 489.307 422.447 493.93 444.891 C 477.199 447.135 452.265 447.496 434.717 448.605 C 386.1 451.677 337.179 453.224 288.559 456.832 C 282.588 456.925 275.097 457.83 269.041 458.394 C 268.763 446.497 267.856 440.955 264.564 429.523 L 497.548 319.95 z" fill="#5E6AD2" transform="translate(0,0)"></path>
<path d="M 978.774 175.451 C 979.204 175.418 981.28 175.62 981.405 175.839 C 987.938 187.299 995.957 195.631 1006.29 203.663 C 974.374 240.521 944.125 280.852 912.796 318.189 L 848.728 274.798 C 824.413 258.725 799.912 241.212 775.573 224.802 C 783.704 212.297 784.508 207.99 785.807 193.592 C 850.089 187.127 914.413 181.079 978.774 175.451 z" fill="#5E6AD2" transform="translate(0,0)"></path>
<path d="M 1623.73 516.8 C 1686.5 548.059 1748.63 583.195 1811.89 613.633 L 1812.19 626.272 C 1782.92 626.905 1753.65 627.157 1724.39 627.027 L 1546.38 628.284 C 1544.38 615.249 1541.67 609.138 1536.02 597.638 C 1538.43 594.955 1541.38 592.434 1544.09 590.023 C 1571 566.037 1596.94 540.893 1623.73 516.8 z" fill="#5E6AD2" transform="translate(0,0)"></path>
<path d="M 556.278 464.104 C 561.588 466.773 643.482 553.897 650.467 562.235 C 641.484 567.615 629.392 573.268 619.771 578.663 C 592.184 594.394 564.36 609.708 536.31 624.598 C 522.749 632.304 509.101 639.856 495.367 647.25 C 484.203 634.649 480.298 631.585 465.17 624.31 L 521.295 470.217 C 537.005 473.451 542.319 471.431 556.278 464.104 z" fill="#5E6AD2" transform="translate(0,0)"></path>
<path d="M 1014.16 207.777 C 1025.5 211.3 1030.49 212 1042.32 212.598 C 1047.26 227.988 1049.65 242.716 1053.76 257.901 C 1062.62 290.645 1069.68 326.281 1079.49 358.495 C 1079.12 358.651 1078.76 358.808 1078.39 358.967 C 1057.81 367.902 1046.89 382.612 1038.98 402.808 C 1028.12 395.498 1017.32 388.112 1006.57 380.648 C 978.001 361.081 949.24 341.789 920.295 322.777 C 931.458 310.105 942.869 294.839 953.66 281.568 L 1014.16 207.777 z" fill="#5E6AD2" transform="translate(0,0)"></path>
<path d="M 1309.86 239.625 C 1313.19 240.187 1315.79 240.251 1318.37 242.308 C 1318.74 247.504 1313.94 286.623 1313.12 294.604 L 1300.67 420.529 C 1258.6 423.195 1216.14 424.553 1173.96 427.067 C 1173.4 408.715 1171.07 401.559 1162.32 385.693 C 1175.64 373.589 1190.52 357.727 1203.64 344.927 C 1239.23 310.205 1273.91 273.965 1309.86 239.625 z" fill="#5E6AD2" transform="translate(0,0)"></path>
<path d="M 1035.92 461.571 C 1049.51 459.874 1050.19 467.346 1058.43 477.222 C 997.274 517.183 937.561 559.273 876.421 598.913 L 871.029 587.577 C 859.918 562.064 848.648 536.622 837.218 511.25 C 855.532 501.503 865.019 488.956 868.61 468.531 C 923.604 465.086 980.524 464.549 1035.92 461.571 z" fill="#5E6AD2" transform="translate(0,0)"></path>
<path d="M 914.793 329.68 C 955.784 356.061 996.325 384.82 1037.04 411.861 C 1034.04 428.13 1036.86 437.097 1040.92 452.693 C 1018.28 453.008 993.04 454.635 970.248 455.59 L 869.086 459.364 C 866.763 438.697 860.522 429.108 845.783 415.328 C 864.913 388.477 893.513 355.157 914.793 329.68 z" fill="#5E6AD2" transform="translate(0,0)"></path>
<path d="M 769.825 231.853 C 783.643 239.912 808.667 258.118 822.365 267.552 C 850.348 286.909 878.594 305.881 907.097 324.465 C 890.977 342.501 871.894 367.949 856.523 387.426 C 850.828 395.107 845.067 402.738 839.24 410.32 C 818.701 400.105 810.388 398.24 787.482 405.17 C 781.206 383.869 775.313 359.541 769.59 337.892 C 761.044 306.556 752.942 275.1 745.286 243.534 C 756.03 240.652 761.394 239.007 769.825 231.853 z" fill="#5E6AD2" transform="translate(0,0)"></path>
<path d="M 692.54 224.906 C 694.078 225.254 703.726 236.014 711.094 240.077 C 702.892 250.259 694.462 259.826 685.605 269.437 C 643.854 314.741 603.863 361.741 562.392 407.262 C 555.193 398.603 551.448 397 541.109 393.567 C 537.066 392.889 531.414 393.129 527.194 393.163 C 522.674 370.778 513.798 337.941 507.57 315.654 C 528.712 303.988 554.715 292.919 576.809 282.316 C 615.58 263.572 654.158 244.434 692.54 224.906 z" fill="#5E6AD2" transform="translate(0,0)"></path>
<path d="M 657.32 569.101 C 680.631 596.021 704.544 622.114 727.863 648.728 C 722.352 658.147 721.03 661.256 719.288 671.911 L 569.149 676.862 C 549.926 676.949 524.566 677.396 505.642 678.792 C 504.692 670.008 502.498 663.58 499.47 655.44 C 552.259 626.976 604.877 598.196 657.32 569.101 z" fill="#5E6AD2" transform="translate(0,0)"></path>
<path d="M 872.897 614.085 C 876.223 618.919 890.473 651.368 894.116 659.084 C 911.621 696.548 929.417 733.875 947.503 771.062 C 931.71 780.636 927.908 785.67 919.676 801.373 C 908.867 793.734 896.282 783.473 885.487 775.277 C 854.678 752.665 816.393 723.352 786.601 699.426 C 796.482 687.958 798.605 679.525 797.195 664.517 C 822.2 647.875 847.638 630.103 872.897 614.085 z" fill="#5E6AD2" transform="translate(0,0)"></path>
<path d="M 1557.49 301.024 C 1571.42 307.164 1587.14 312.527 1601.35 318.295 C 1641.62 334.635 1682.54 348.814 1722.8 365.149 C 1722.92 371.511 1723.84 376.406 1724.85 382.649 C 1698.91 386.214 1672.91 389.428 1646.88 392.29 C 1602.67 397.904 1557.28 402.277 1513.24 408.47 C 1513.19 388.774 1507.45 379.09 1495.26 364.627 C 1514.59 343.546 1537.28 321.365 1557.49 301.024 z" fill="#5E6AD2" transform="translate(0,0)"></path>
<path d="M 1361.21 219.565 C 1380.27 226.317 1407.74 238.979 1427.4 247.152 L 1548.11 296.925 C 1535.24 311.078 1521.8 324.489 1508.35 338.073 C 1501.71 345.087 1494.89 351.933 1487.9 358.602 C 1463.47 343.211 1439.59 342.513 1415.36 358.924 C 1412.99 352.97 1410.25 347.629 1407.37 341.91 C 1389.06 305.465 1369.47 269.713 1350.68 233.51 C 1355.58 228.522 1357.86 225.638 1361.21 219.565 z" fill="#5E6AD2" transform="translate(0,0)"></path>
<path d="M 1726.8 391.413 C 1729.53 391.981 1732.95 396.68 1735 399.04 C 1699.22 433.948 1659.56 472.116 1622.28 505.482 L 1550.4 467.634 C 1534.42 458.761 1518.53 451.146 1502.45 441.833 C 1508.16 432.412 1509.89 427.548 1512.49 417.169 C 1531.01 413.541 1568.56 410.436 1588.49 408.172 C 1634.64 402.946 1680.74 397.36 1726.8 391.413 z" fill="#5E6AD2" transform="translate(0,0)"></path>
<path d="M 1418.05 456.56 C 1419.53 456.975 1425.19 459.682 1427.25 460.556 C 1437.04 464.701 1442.45 465.496 1452.83 466.488 C 1456.08 502.743 1458.96 539.032 1461.46 575.347 C 1432.41 588.097 1422.07 606.849 1417.92 636.99 C 1409.18 635.339 1399.39 632.857 1390.64 630.843 L 1364.39 624.688 C 1377.61 587.433 1374.13 557.953 1344.22 529.745 C 1367.5 505.194 1394.18 481.28 1418.05 456.56 z" fill="#5E6AD2" transform="translate(0,0)"></path>
<path d="M 1496.15 449.835 C 1499.15 450.672 1524.32 464.014 1528.48 466.182 L 1615.57 512.079 C 1599.69 528.561 1574.84 549.894 1557.5 565.696 C 1548.37 574.223 1539.11 582.6 1529.7 590.823 C 1513.74 574.909 1492.28 569.255 1470.32 572.94 C 1467.79 537.336 1464.22 501.368 1461.94 465.885 C 1478.53 462.411 1482.71 459.871 1496.15 449.835 z" fill="#5E6AD2" transform="translate(0,0)"></path>
<path d="M 568.665 450.242 C 625.694 450.657 692.43 453.985 749.888 456.562 C 749.983 475.49 754.813 486.391 767.34 499.888 C 753.551 506.822 738.999 514.993 725.39 522.357 C 705.48 531.851 679.113 547.234 659.389 558.129 C 639.949 537.524 620.532 516.914 600.942 496.452 C 588.776 483.744 574.931 471.332 563.73 457.972 L 568.665 450.242 z" fill="#5E6AD2" transform="translate(0,0)"></path>
<path d="M 714.226 680.449 C 715.592 680.316 716.897 680.488 718.28 680.585 C 720.134 682.819 722.128 691.118 726.28 697.285 C 691.522 706.404 651.634 718.739 616.88 728.943 L 473.216 771.158 L 469.456 771.941 C 465.344 769.006 462.988 754.372 461.23 747.965 C 488.763 736.578 502.289 716.873 505.659 687.858 C 572.746 683.116 646.126 684.185 714.226 680.449 z" fill="#5E6AD2" transform="translate(0,0)"></path>
<path d="M 380.965 716.858 C 383.463 717.676 393.397 731.073 397.487 734.589 C 414.271 749.018 430.359 751.616 451.108 750.705 C 453.234 758.826 455.261 766.972 457.19 775.143 C 439.909 781.136 419.96 786.367 402.329 791.464 L 313.73 816.961 C 299.276 821.923 277.227 827.501 261.941 831.996 C 262.46 809.776 259.952 804.622 250.699 784.45 C 263.819 776.531 282.626 767.702 296.661 760.569 C 324.968 746.399 353.072 731.827 380.965 716.858 z" fill="#5E6AD2" transform="translate(0,0)"></path>
<path d="M 1342.51 238.28 C 1349.6 249.07 1355.45 262.669 1361.85 273.953 C 1378.13 302.643 1393.26 336.454 1409.48 364.66 C 1396.65 377.903 1390.53 389.958 1390.74 409.059 C 1390.77 411.272 1390.89 413.483 1391.09 415.688 C 1364.17 417.213 1336.72 418.344 1309.89 420.116 C 1314.9 360.319 1321.12 300.631 1328.57 241.089 C 1332.88 241.574 1338.22 239.553 1342.51 238.28 z" fill="#5E6AD2" transform="translate(0,0)"></path>
<path d="M 774.559 505.983 C 777.848 506.858 782.255 509.337 785.71 510.836 C 793.345 514.148 799.084 515.762 807.161 517.487 C 804.547 527.727 799.361 541.454 796.092 551.788 C 787.281 579.645 777.491 607.172 769.218 635.216 C 752.858 633.848 747.579 634.265 733.975 642.608 C 728.966 636.403 722.623 629.537 717.289 623.476 C 700.285 603.636 682.447 584.725 665.357 564.97 C 701.215 545.497 738.408 524.677 774.559 505.983 z" fill="#5E6AD2" transform="translate(0,0)"></path>
<path d="M 355.552 626.694 C 359.334 628.318 378.503 645.826 382.821 649.572 C 372.542 671.618 372.096 684.199 378.044 707.401 C 366.03 715.309 347.402 723.898 334.314 730.58 L 253.639 771.449 C 250.743 772.914 247.916 774.961 245.206 776.789 C 238.202 767.806 234.191 765.416 224.89 759.328 C 237.003 748.507 248.66 735.469 260.27 724.044 C 292.186 692.64 323.213 657.41 355.552 626.694 z" fill="#5E6AD2" transform="translate(0,0)"></path>
<path d="M 509.785 465.596 C 510.8 465.933 511.598 466.567 512.518 467.166 C 512.481 470.6 482.221 549.776 479.545 557.06 C 471.601 578.362 464.05 599.81 456.896 621.391 C 426.261 615.521 408.453 621.126 387.189 643.561 L 378.281 635.462 C 373.037 630.118 367.469 625.031 361.992 619.919 C 409.28 567.513 461.951 518.44 509.785 465.596 z" fill="#5E6AD2" transform="translate(0,0)"></path>
<path d="M 1277.86 430.433 C 1284.26 429.992 1292.66 430.016 1299.22 429.838 L 1291.41 509.058 C 1272 510.073 1258.82 514.396 1242.91 525.355 C 1234.95 516.138 1226.87 507.03 1218.66 498.035 C 1208.41 486.418 1198.05 474.902 1187.57 463.489 C 1183.21 458.674 1174.69 449.821 1171.46 444.677 C 1171.49 440.849 1171.66 440.405 1173.24 436.992 C 1178.21 434.14 1263.54 431.207 1277.86 430.433 z" fill="#5E6AD2" transform="translate(0,0)"></path>
<path d="M 1379.12 425.57 C 1383.57 425.165 1388.7 425.031 1393.22 424.802 C 1398.12 437.522 1401.75 442.335 1410.92 451.722 C 1398.66 462.242 1346.31 518.711 1336.62 523.644 L 1333.78 522.098 C 1320.81 514.508 1314.95 512.607 1300.08 510.657 C 1303.77 486.677 1305.78 454.696 1309 429.187 L 1379.12 425.57 z" fill="#5E6AD2" transform="translate(0,0)"></path>
<path d="M 1285.51 520.271 C 1305.63 518.754 1324.77 523.038 1340.84 535.651 C 1354.48 546.424 1363.27 562.191 1365.26 579.463 C 1368.03 602.837 1359.32 623.062 1345.17 640.892 C 1344.58 621.624 1348.21 606.429 1334.62 590.239 C 1326.77 580.885 1322.45 580.034 1311.52 574.806 C 1308.55 565.297 1324.38 546.294 1302.71 531.404 C 1273.1 521.462 1266.75 551.597 1275.97 573.968 C 1240.61 589.732 1244.56 610.948 1244.79 643.927 C 1234.71 630.257 1227.9 618.463 1225.19 601.477 C 1218.78 561.283 1245.77 526.268 1285.51 520.271 z" fill="#5E6AD2" transform="translate(0,0)"></path>
<path d="M 1364.5 209.08 C 1371.28 208.286 1412.98 214.095 1423.06 215.332 C 1469.17 220.726 1515.23 226.512 1561.24 232.688 C 1565.1 247.452 1569.64 253.93 1579.87 264.69 L 1566.29 279.155 L 1553.92 291.138 C 1544.79 286.729 1534.93 282.916 1525.54 279.029 C 1473.7 257.554 1421.92 235.902 1370.09 214.406 C 1366.38 212.868 1365.88 212.591 1364.5 209.08 z" fill="#5E6AD2" transform="translate(0,0)"></path>
<path d="M 824.868 515.346 L 826.977 515.148 C 831.575 518.535 864.492 594.898 868.384 604.177 C 851.406 617.234 828.576 631.673 810.482 643.763 C 805.48 647.379 799.582 651.123 794.377 654.576 C 788.195 645.948 785.819 643.789 777.334 638.083 C 788.768 601.822 801.665 566.036 812.352 529.539 C 813.508 525.594 815.034 521.746 816.563 517.933 C 819.649 515.509 820.449 516.081 824.868 515.346 z" fill="#5E6AD2" transform="translate(0,0)"></path>
<path d="M 1344.52 943.418 C 1361.75 943.952 1381.2 947.724 1393.9 959.717 C 1427.73 991.651 1417.4 1026.93 1392.07 1056.52 C 1392.18 1026.74 1395.15 1005.35 1362.79 991.894 C 1367.46 972.797 1365.51 954.245 1343.23 950.441 C 1321.3 956.105 1322.59 973.504 1326.17 991.97 C 1293.4 1007.35 1297.72 1028.67 1297.19 1058.85 C 1285.48 1046.31 1277.68 1031.03 1276.43 1013.65 C 1275.24 996.025 1281.07 978.638 1292.64 965.287 C 1307.65 948.145 1323.28 944.896 1344.52 943.418 z" fill="#5E6AD2" transform="translate(0,0)"></path>
<path d="M 184.613 758.392 C 198.908 756.15 219.397 762.648 230.444 771.349 C 243.377 781.617 251.637 796.655 253.365 813.078 C 255.76 835.547 247.887 854.541 233.982 871.633 C 234.448 842.204 235.885 819.166 203.036 807.967 C 203.796 806.305 204.513 804.624 205.185 802.925 C 211.143 787.64 206.68 771.761 190.566 765.805 C 165.24 765.52 160.616 789.266 171.422 808.269 C 140.471 819.981 142.016 845.321 142.203 872.926 C 101.491 830.948 123.519 764.087 184.613 758.392 z" fill="#5E6AD2" transform="translate(0,0)"></path>
<path d="M 1586.49 270.137 C 1610.29 284.107 1629.14 286.341 1651.82 269.328 L 1728.89 346.63 C 1727.62 349.873 1726.66 353.381 1723.94 355.475 L 1721.2 355.047 C 1668.39 334.587 1616.1 315.767 1563.32 294.449 C 1571.19 286.488 1578.92 278.383 1586.49 270.137 z" fill="#5E6AD2" transform="translate(0,0)"></path>
<path d="M 1718.55 947.39 C 1751.09 942.742 1783.08 964.444 1786.38 997.943 C 1788.78 1022.3 1780.01 1034.86 1766.05 1052.81 C 1766.34 1020.14 1768.03 1011.59 1740.13 992.433 C 1735.87 989.503 1752.52 966.153 1724.1 954.281 C 1699.92 953.389 1698.05 974.642 1704.7 992.873 C 1676.11 1011.35 1678.62 1023.74 1679.17 1054.61 C 1648.26 1026.08 1650.77 971.672 1691.36 953.785 C 1701.19 949.451 1708.16 948.337 1718.55 947.39 z" fill="#5E6AD2" transform="translate(0,0)"></path>
<path d="M 190.333 391.28 C 208.296 388.953 228.443 393.849 242.214 405.848 C 253.918 416.043 261.016 430.527 261.903 446.023 C 262.969 466.319 253.13 482.314 240.185 496.629 C 240.348 482.528 240.057 456.295 227.669 447.379 C 219.212 442.224 211.526 440.895 213.388 428.498 C 215.597 413.789 214.291 404.741 199.998 397.551 C 197.303 397.315 195.087 397.189 192.401 397.61 C 187.373 398.437 182.89 401.255 179.964 405.428 C 173.364 414.968 175.61 427.983 177.708 438.508 C 149.623 450.582 152.568 472.946 151.667 499.133 C 141.919 488.513 135.563 477.906 133.039 463.466 C 130.327 447.772 134.045 431.647 143.354 418.724 C 154.762 402.732 171.324 394.337 190.333 391.28 z" fill="#5E6AD2" transform="translate(0,0)"></path>
<path d="M 433.28 628.25 C 496.015 622.305 520.148 680.947 481.792 726.276 C 485.344 699.296 479.646 682.76 453.494 673.3 C 466.26 657.883 462.779 644.492 444.789 636.377 C 443.447 636.252 442.104 636.152 440.758 636.077 C 418.884 634.929 414.19 658.009 429.011 673.412 C 400.175 682.323 398.344 704.064 402.425 730.408 C 366.663 693.919 381.134 639.068 433.28 628.25 z" fill="#5E6AD2" transform="translate(0,0)"></path>
<path d="M 975.957 770.283 C 978.842 769.824 985.04 769.688 988.087 769.906 C 1001.57 770.895 1014.1 777.253 1022.86 787.557 C 1032.78 798.985 1037.73 813.902 1036.61 828.994 C 1035.34 844.645 1029.63 854.927 1018.06 864.863 C 1018.25 836.202 1021.35 828.278 995.369 813.256 C 997.402 797.575 1000.31 784.202 984.037 776.042 C 981.037 775.732 976.748 775.536 973.79 776.184 C 969.801 777.052 966.315 779.458 964.089 782.881 C 958.695 791.315 961.173 804.118 963.243 813.245 C 936.801 828.904 942.143 839.613 941.82 867.771 C 912.913 839.318 919.517 793.766 956.536 775.605 C 962.593 772.634 969.352 771.511 975.957 770.283 z" fill="#5E6AD2" transform="translate(0,0)"></path>
<path d="M 442.433 73.2535 C 456.378 71.7519 470.375 75.5909 481.603 83.9971 C 493.608 93.0042 501.446 106.494 503.328 121.384 C 505.747 140.276 499.07 155.455 487.77 169.852 C 490.217 143.259 489.986 127.291 463.292 115.982 C 466.829 100.807 468.218 86.3897 450.753 81.1111 C 428.838 82.8046 428.257 98.8174 432.369 116.536 C 405.832 125.407 408.591 149.496 409.285 172.556 C 379.725 142.449 386.564 96.5033 425.947 77.7496 C 430.995 75.3456 436.92 74.3129 442.433 73.2535 z" fill="#5E6AD2" transform="translate(0,0)"></path>
<path d="M 1450.53 354.328 C 1464.84 353.302 1481.3 358.805 1491.82 368.561 C 1501.6 377.741 1507.4 390.379 1507.98 403.776 C 1508.58 420.952 1501.81 433.558 1490.69 445.711 C 1488.86 418.994 1497.56 402.503 1463.62 397.593 C 1464.16 396.565 1464.66 395.518 1465.12 394.453 C 1470.42 382.073 1470.22 366.211 1456.2 360.249 C 1431.48 358.619 1432.7 380.475 1439.3 397.679 C 1410.36 405.529 1417.26 423.406 1415.22 447.57 C 1380.81 416.163 1403.36 359.796 1450.53 354.328 z" fill="#5E6AD2" transform="translate(0,0)"></path>
<path d="M 1037.12 99.3208 C 1051.25 99.1745 1062.79 101.652 1074.33 110.393 C 1085.43 118.685 1092.63 131.186 1094.22 144.952 C 1096.46 162.897 1090.83 175.931 1080.19 189.652 C 1078.55 162.028 1078.24 153.821 1055.67 136.456 C 1059.44 122.229 1056.83 111.602 1042.71 105.622 C 1022.43 106.78 1021.65 122.062 1025.64 138.013 C 1001.7 154.47 1001.59 163.181 1000.7 191.239 C 966.92 160.316 991.43 105.067 1037.12 99.3208 z" fill="#5E6AD2" transform="translate(0,0)"></path>
<path d="M 510.634 964.105 C 511.272 963.937 512.702 963.596 513.285 963.68 C 531.945 966.366 542.955 969.601 545.681 990.506 C 547.053 1001.03 547.619 1009.78 547.846 1020 C 537.365 1025.46 528.099 1027.37 516.571 1028.81 C 500.019 1029.11 493.72 1027.08 478.504 1021.17 C 478.341 1009.86 478.126 986.801 483.748 977.614 C 489.419 968.347 500.965 966.56 510.634 964.105 z" fill="#5E6AD2" transform="translate(0,0)"></path>
<path d="M 805.434 408.188 C 825.039 407.022 839.117 411.044 852.191 427.009 C 870.272 449.088 867.954 480.143 845.106 498.023 C 848.327 475.387 848.674 458.56 824.964 448.666 C 822.396 437.729 836.397 430.494 815.619 415.702 C 793.381 409.421 784.982 432.25 797.172 448.899 C 771.761 458.531 773.659 474.266 776.552 498.142 C 767.824 489.611 761.895 483.144 759.282 470.43 C 756.497 457.19 759.057 443.385 766.405 432.023 C 776.259 417.076 788.803 411.514 805.434 408.188 z" fill="#5E6AD2" transform="translate(0,0)"></path>
<path d="M 1871.55 564.362 C 1885.23 563.423 1900.98 568.746 1910.93 578.254 C 1920.83 587.836 1926.6 600.912 1926.99 614.687 C 1927.33 630.248 1921.5 641.005 1911.09 651.755 C 1908.13 630.866 1913.7 612.696 1888.31 605.656 C 1883.58 604.344 1894.5 589.658 1889.24 581.985 C 1884.03 574.397 1883.26 573.132 1874.58 569.92 C 1868.93 570.098 1862.87 571.616 1858.84 575.894 C 1849.24 586.089 1859.48 598.505 1859.13 604.194 C 1859.11 604.554 1846.83 609.629 1845.11 610.898 C 1835.22 618.207 1834.94 642.609 1833.18 654.492 C 1803.54 617.513 1824 569.704 1871.55 564.362 z" fill="#5E6AD2" transform="translate(0,0)"></path>
<path d="M 1612.89 172.271 C 1655.71 167.46 1684.57 207.571 1664.37 245.76 C 1661.78 250.659 1658.12 254.757 1654.52 258.935 C 1655.07 244.515 1656.78 234.088 1649.88 221.054 C 1643.51 216.62 1639.88 215.177 1632.81 212.105 C 1637.3 200.046 1636.77 188.578 1626 180.392 C 1603.44 173.748 1600.36 195.757 1606 212.44 C 1580.82 225.048 1583.66 232.743 1583.7 258.494 C 1553.34 225.91 1570.03 180.011 1612.89 172.271 z" fill="#5E6AD2" transform="translate(0,0)"></path>
<path d="M 1103.51 424.148 C 1106.66 424.094 1109.53 425.299 1112.47 425.93 C 1137.44 431.294 1136.4 457.383 1137.17 477.705 C 1126.14 483.215 1119.51 484.48 1107.46 485.885 C 1092.48 486.173 1084.96 484.838 1070.99 480.028 C 1070.57 449.805 1071.21 431.261 1103.51 424.148 z" fill="#5E6AD2" transform="translate(0,0)"></path>
<path d="M 1473.11 637.231 C 1474.32 637.075 1475.54 636.96 1476.77 636.883 C 1508.02 634.931 1510.38 665.287 1511.9 688.93 C 1502.95 693.053 1496.82 694.323 1487.26 695.617 C 1474.47 697.038 1461.55 694.745 1450.03 689.01 C 1450.4 667.6 1451.56 646.621 1473.11 637.231 z" fill="#5E6AD2" transform="translate(0,0)"></path>
<path d="M 729.909 154.891 C 751.967 156.003 746.158 181.845 735.679 193.609 C 760.399 203.332 755.428 211.636 759.071 235.447 C 750.906 239.239 745.73 239.88 737.041 240.543 C 709.508 239.948 702.822 235.826 713.497 207.662 C 714.598 204.755 715.44 202.704 717.022 199.919 C 722.35 196.102 724.955 195.221 730.914 192.845 C 721.88 181.753 718.19 165.5 729.909 154.891 z" fill="#5E6AD2" transform="translate(0,0)"></path>
<path d="M 753.909 646.452 C 770.487 648.628 764.902 665.852 758.545 675.2 C 763.242 676.365 767.502 677.649 772.112 679.06 C 774.607 687.778 775.284 695.337 776.017 704.302 C 770.293 706.615 768.172 707.176 762.099 708.377 C 751.422 709.045 747.312 708.037 737.86 703.826 C 739.365 694.085 740.4 688.46 743.194 679.074 L 753.683 674.866 C 747.795 664.537 745.672 655.966 753.909 646.452 z" fill="#5E6AD2" transform="translate(0,0)"></path>
<path d="M 530.035 406.459 C 532.499 406.767 534.97 407.249 536.89 408.878 C 539.254 410.902 540.706 413.791 540.918 416.895 C 541.384 424.228 538.367 428.585 534.046 433.885 L 544.742 437.098 C 550.456 453.457 555.778 464.184 535.241 467.848 C 526.53 468.197 522.413 466.33 514.491 463.214 C 515.684 456.264 516.621 449.02 518.916 442.355 C 520.579 437.522 525.403 436.511 529.515 433.31 C 529.778 423.235 517.461 422.095 530.035 406.459 z" fill="#5E6AD2" transform="translate(0,0)"></path>
<path d="M 506.85 913.02 L 507.93 912.943 C 536.611 911.017 530.166 947.331 516.433 962.033 C 501.029 968.211 485.346 924.7 506.85 913.02 z" fill="#5E6AD2" transform="translate(0,0)"></path>
<path d="M 1320.64 239.809 C 1315.21 238.621 1306.52 236.671 1306.08 229.723 C 1306.04 216.768 1307.76 206.098 1321.52 202.785 C 1339.98 198.337 1349.98 223.233 1341.11 235.476 C 1329.09 240.604 1329.89 237.836 1320.64 239.809 z" fill="#5E6AD2" transform="translate(0,0)"></path>
<path d="M 1757.58 371.354 C 1758.93 371.372 1760.28 371.414 1761.63 371.48 C 1781.7 372.527 1782.54 383.527 1781.66 399.995 C 1774.93 402.929 1772.65 403.446 1765.63 404.962 C 1755.41 405.43 1744.22 405.415 1741.1 393.039 C 1740.04 388.734 1740.78 384.182 1743.16 380.435 C 1746.75 374.64 1751.32 372.923 1757.58 371.354 z" fill="#5E6AD2" transform="translate(0,0)"></path>
<path d="M 1097.71 376.109 C 1119.24 374.632 1122.16 396.366 1113.46 412.003 C 1112.38 413.948 1108.96 416.232 1107.05 417.555 C 1085.23 422.142 1082.12 385.566 1097.71 376.109 z" fill="#5E6AD2" transform="translate(0,0)"></path>
<path d="M 1478.35 591.005 C 1499.94 592.282 1496.88 624.911 1482.95 632.877 C 1476.34 632.023 1471.94 630.201 1469.48 623.711 C 1464.5 610.545 1465.04 597.51 1478.35 591.005 z" fill="#5E6AD2" transform="translate(0,0)"></path>
<path d="M 1757.87 338.73 C 1775.42 339.172 1772.69 357.284 1764.69 367.29 C 1749.23 368.376 1748.61 348 1757.87 338.73 z" fill="#5E6AD2" transform="translate(0,0)"></path>
<path d="M 1320.13 173.82 C 1336.78 172.023 1336.27 189.485 1329.33 199.641 C 1313.68 203.223 1312.61 183.084 1320.13 173.82 z" fill="#5E6AD2" transform="translate(0,0)"></path>
<path d="M 1286.52 580.902 C 1293.9 581.777 1294.95 581.709 1302.33 580.857 C 1292.23 601.234 1296.29 617.043 1297.64 639.748 C 1296.83 643.196 1297.61 642.051 1294.74 644.049 L 1293.04 643.717 C 1289.28 634.343 1296.3 604.709 1292.17 592.772 C 1290.8 588.829 1288.47 584.599 1286.52 580.902 z" fill="#5E6AD2" transform="translate(0,0)"></path>
<path d="M 1337.2 998.623 C 1340.82 999.314 1346.89 999.381 1349.55 1000.44 C 1344.28 1020.14 1347.19 1038.45 1348.18 1059.11 C 1347.48 1061.05 1347.72 1060.43 1345.62 1061.81 C 1339.47 1059.78 1344.79 1022.53 1342.72 1014.61 C 1340.67 1006.77 1341.36 1006.48 1337.2 998.623 z" fill="#5E6AD2" transform="translate(0,0)"></path>
<path d="M 189.268 443.587 C 195.39 444.619 196.084 444.981 202.33 444.293 L 197.396 454.316 C 198.401 465.439 197.906 485.439 197.933 497.25 L 197.678 500.486 L 196.013 501.893 C 191.412 498.374 198.626 460.606 189.268 443.587 z" fill="#5E6AD2" transform="translate(0,0)"></path>
<path d="M 434.763 676.768 L 447.335 677.148 C 440.431 691.379 442.821 712.5 443.097 728.966 C 442.543 729.704 442.037 729.805 441.112 730.317 C 435.331 722.939 444.525 696.362 434.763 676.768 z" fill="#5E6AD2" transform="translate(0,0)"></path>
<path d="M 182.394 813.415 C 185.582 813.609 189.764 813.547 193.041 813.597 C 192.316 815.322 189.25 822.497 189.182 823.894 C 188.431 839.286 189.364 856.843 189.853 872.249 C 189.795 874.833 190.136 873.623 188.52 875.906 L 187.097 875.748 C 182.071 864.756 191.477 832.458 182.394 813.415 z" fill="#5E6AD2" transform="translate(0,0)"></path>
<path d="M 442.854 124.111 L 451.972 124.626 C 448.515 137.725 450.476 160.102 450.856 174.704 L 449.536 175.73 L 447.748 175.179 C 444.782 165.803 449.599 140.326 442.854 124.111 z" fill="#5E6AD2" transform="translate(0,0)"></path>
<path d="M 1033.97 142.867 L 1043.37 143.477 C 1044.29 145.318 1041.21 151.188 1040.93 154.672 C 1039.89 167.402 1040.8 181.34 1041.26 194.088 C 1040.63 195.689 1040.84 195.032 1039.12 196.354 C 1035 194.734 1040.14 156.342 1033.97 142.867 z" fill="#5E6AD2" transform="translate(0,0)"></path>
<path d="M 1457.83 401.458 L 1458.26 401.532 C 1450.48 415.078 1458.22 449.405 1453.91 457.401 L 1452.01 457.587 C 1451.94 447.431 1453.63 412.501 1449.35 405.954 C 1448.56 404.736 1448.85 404.489 1448.98 403.078 L 1457.83 401.458 z" fill="#5E6AD2" transform="translate(0,0)"></path>
<path d="M 1615.11 216.942 L 1623.16 217.135 C 1621.86 214.102 1620.76 264.404 1620.7 267.106 L 1620.26 268.54 C 1618.07 265.127 1618.79 229.36 1615.11 216.942 z" fill="#5E6AD2" transform="translate(0,0)"></path>
<path d="M 808.16 474.427 C 807.619 470.025 805.721 459.978 806.99 456.311 C 810.717 455.733 809.439 455.462 812.437 456.737 C 813.255 462.891 810.877 472.85 810.887 480.556 C 811.11 489.222 810.895 494.442 810.139 503.09 C 807.772 499.893 808.146 479.653 808.16 474.427 z" fill="#5E6AD2" transform="translate(0,0)"></path>
<path d="M 808.16 474.427 L 808.383 475.356 C 809.542 480.313 809.583 485.399 809.426 490.482 C 809.787 487.694 810.258 483.108 810.887 480.556 C 811.11 489.222 810.895 494.442 810.139 503.09 C 807.772 499.893 808.146 479.653 808.16 474.427 z" fill="#8088C8" transform="translate(0,0)"></path>
<path d="M 1870.46 609.878 C 1873.84 609.741 1874.96 609.622 1878.39 610.373 C 1875.77 619.941 1875.37 639.637 1874.82 650.251 L 1874.5 652.454 C 1872.88 648.897 1872.03 618.898 1870.46 609.878 z" fill="#5E6AD2" transform="translate(0,0)"></path>
<path d="M 1724.04 1010.65 C 1723.41 1025.54 1726.98 1047.99 1723.03 1059.52 L 1723.01 1059.4 C 1718.88 1055.58 1722.66 1020.43 1721.6 1011.76 L 1724.04 1010.65 z" fill="#5E6AD2" transform="translate(0,0)"></path>
<path d="M 979.215 834.682 C 981.814 841.944 982.164 862.834 981.525 870.766 L 978.829 869.362 C 976.344 862.905 977.667 841.588 979.215 834.682 z" fill="#5E6AD2" transform="translate(0,0)"></path>
<path d="M 1721.6 1011.76 C 1719.79 1007.36 1717.52 1004.27 1718.12 1000.25 C 1721.04 998.371 1724.48 998.98 1728.16 999.081 L 1724.04 1010.65 L 1721.6 1011.76 z" fill="#5E6AD2" transform="translate(0,0)"></path>
<metadata><recraft-signature>{"signed_by": "recraft", "signature_b64": "MafUukXSvrfyxGN8ENR/iPo4R2vtYtD2U+NLMEmhYvJrVkLomps2nFshXTKZUYDp5PsAojA5mNuTpEtLUwy3Aw==", "signing_algo": "Ed25519", "generation_timestamp": 1777130898, "identifier": "8afd6c49-d1e3-40ba-851b-7c4de8a31a20"}</recraft-signature></metadata></svg>