<svg xmlns="http://www.w3.org/2000/svg" height="1024" preserveAspectRatio="none" style="display: block;" version="1.1" viewBox="0 0 2048 1152" width="1820">
<path d="M 0 0 L 2048 0 L 2048 1152 L 0 1152 L 0 0 z" fill="#E6E4DF" transform="translate(0,0)"></path>
<path d="M 931.933 118.691 C 931.581 113.152 929.76 94.5186 932.298 90.4168 C 935.116 89.9761 933.88 89.6701 936.15 91.2636 C 938.248 98.7151 935.829 115.928 937.828 119.182 C 941.246 120.049 940.157 120.245 943.253 119.406 C 946.331 111.682 940.699 97.1259 945.713 91.9723 C 956.585 90.5518 953.664 115.168 953.452 121.612 C 961.72 128.062 964.536 136.106 954.808 143.354 L 955.115 169.229 L 956.116 169.995 C 958.785 170.035 987.702 157.754 992.7 155.686 C 1016.46 145.856 1036.89 139.171 1062.45 135.325 C 1062.36 130.976 1062.43 127.224 1062.6 122.875 L 1066.04 122.298 C 1068.34 124.018 1067.65 123.066 1068.27 126.443 C 1068.68 129.003 1068.69 129.865 1069.78 132.175 C 1074.94 134.866 1087.64 132.293 1094.79 131.803 C 1094.84 127.46 1095.1 123.956 1095.49 119.625 L 1098.07 118.126 L 1100.19 118.738 C 1102.01 122.044 1101.57 128.606 1101.69 132.798 L 1112.05 133.027 C 1111.6 126.6 1110.38 124.664 1115.3 120.44 C 1122.4 120.466 1122.22 126.486 1122.23 132.049 C 1123.96 135.658 1125.45 136.634 1129.54 137.694 C 1183.58 151.707 1190.9 188.255 1193.47 237.224 C 1205.03 237.102 1245.53 237.264 1254.76 235.607 C 1266.1 219.962 1270.73 234.591 1274.69 235.154 C 1300.9 238.873 1315.5 234.897 1337.12 255.529 C 1352.09 269.811 1346.64 297.002 1353.8 302.348 C 1364.03 301.948 1378.81 302.629 1389.3 302.753 L 1476.77 304.247 C 1476.69 299.063 1476.87 294.801 1477.15 289.64 C 1477.1 261.71 1477.28 230.279 1474.28 202.691 C 1473.68 197.176 1457.28 186.977 1475.75 171.15 C 1475.37 161.75 1472.83 132.548 1477.8 125.776 C 1483.59 129.764 1482.67 161.162 1482.92 169.083 C 1494.07 167.493 1507.61 166.824 1518.89 166.824 C 1518.19 158.519 1517.7 150.263 1517.4 141.936 C 1517.18 135.531 1513.15 129.268 1518.44 124.157 C 1528.88 125.511 1517.44 161.769 1528.75 167.189 L 1530.61 166.61 C 1533.36 158.997 1529.11 138.782 1530.91 130.122 C 1531.25 128.468 1533.66 127.348 1535.07 126.64 C 1545.15 127.38 1542.54 159.771 1542.77 168.399 C 1545.1 171.457 1547.06 173.825 1548.8 177.276 C 1548.71 190.583 1544.56 191.258 1544.52 204.931 C 1544.42 238.054 1547.96 273.366 1547.94 306.193 C 1564.55 306.397 1581.01 307.491 1597.69 307.963 C 1670.54 310.025 1764.11 316.693 1819.18 369.841 C 1869.2 418.122 1832.47 473.842 1794.24 514.003 C 1801.31 514.504 1806.52 513.657 1810.96 518.735 L 1810.97 520.475 C 1805.58 524.709 1793.58 521.658 1786.65 522.672 C 1779.13 531.831 1777.73 531.449 1776.93 542.315 L 1776.85 543.444 C 1777.11 546.428 1776.99 548.812 1778.59 551.264 C 1787.65 554.183 1804.62 548.995 1810.73 554.053 C 1809.41 564.537 1781.33 551.58 1776.9 562.46 C 1780.75 569.787 1804.49 563.966 1812.71 569.811 L 1812.83 571.167 C 1806.31 576.878 1798.96 573.341 1792.08 574.849 C 1776.9 578.173 1769.47 579.314 1754.14 574.017 C 1752.51 573.455 1741.72 573.945 1739.09 574.024 C 1730.63 577.854 1717.52 584.974 1708.51 589.211 C 1684.08 600.708 1623.64 622.681 1603.95 638.194 L 1731.03 638.936 C 1743.98 638.957 1791.43 637.28 1800.64 640.724 L 1801.96 642.214 C 1801.46 643.138 1800.9 644.572 1799.63 644.641 C 1781.46 645.625 1755.08 644.619 1737.61 644.413 L 1646.02 643.94 C 1629.67 643.89 1610.15 643.359 1593.96 643.938 C 1586.1 647.698 1547.61 673.05 1546.17 679.904 L 1723.5 677.635 C 1740.19 677.297 1756.89 676.855 1773.58 676.311 C 1780.7 676.079 1798.48 673.805 1803.11 678.015 L 1803.09 680.414 C 1799.33 683.448 1571.1 684.519 1546.74 685.304 C 1544.11 686.961 1539.55 686.428 1536.16 686.381 L 1529.86 693.674 C 1540.89 693.619 1558.82 693.021 1569.34 694.134 C 1623.03 694.864 1680.38 693.482 1734.28 692.778 L 1778.57 692.06 C 1785.43 691.918 1800.18 689.777 1805.04 694.179 L 1805.02 696.019 C 1797.57 703.11 1734.5 701.116 1720.26 701.442 L 1519.75 704.035 C 1506.06 716.239 1493.2 730.932 1480.12 743.937 C 1450.49 773.399 1409.42 811.059 1370.71 828.136 C 1371 855.89 1372.24 888.92 1371.58 916.285 C 1388.65 930.388 1373.77 935.897 1373.42 945.656 C 1372.56 970.145 1373.65 989.61 1356.5 1009.96 C 1342.73 1026.4 1323 1036.67 1301.64 1038.52 C 1267.38 1041.27 1229.89 1036.09 1195.22 1038.8 C 1193.13 1038.96 1190.28 1038.14 1188.48 1037 C 1179.92 1024.7 1177.58 975.226 1190.11 963.982 C 1195.94 958.756 1230.39 966.327 1239.5 963.822 C 1248.45 961.736 1251.14 949.794 1264.14 961.505 C 1289.54 967.345 1301.63 964.798 1299.9 937.123 C 1290.58 931.808 1289.25 923.883 1299.65 918.946 C 1298.36 911.571 1298.61 869.41 1298.2 857.831 C 1263.65 864.952 1239.05 870.001 1203.02 866.875 C 1193.74 866.07 1173.17 862.006 1167.04 861.718 C 1159.24 879.869 1147.41 905.203 1134.83 920.29 C 1134.91 930.4 1134.67 994.483 1136.84 999.647 L 1138.35 1000 C 1148.44 1005.58 1147.52 1014.6 1138.59 1020.96 C 1134.14 1024.13 1136.16 1048.2 1136.33 1054.14 C 1133.84 1057.94 1132.37 1061.31 1128.17 1062.7 C 1118.1 1058.15 1131.11 1023.23 1118.53 1019.87 C 1117.16 1020.3 1114.48 1020.83 1114.14 1022.29 C 1112.06 1031.19 1116.88 1059 1112.19 1065.31 L 1110.67 1065.43 C 1107.67 1060.04 1108.54 1029.41 1108.54 1021.06 C 1095.73 1021.59 1086.68 1021.16 1073.9 1020.53 C 1073.56 1030.08 1075.79 1058.72 1071.6 1063.3 L 1069.79 1063.05 C 1067.18 1058.38 1068.6 1028.29 1068.76 1021.16 C 1059.23 1014.27 1058.54 1008.38 1068.57 1002.07 C 1068.84 994.41 1068.84 986.39 1068.96 978.697 C 1032.66 1000.75 1002.11 1012.43 960.478 1020.52 C 960.406 1031.05 964.947 1057.64 951.302 1058.83 C 945.405 1053.65 948.216 1030.42 948.101 1021.79 L 942.114 1023.47 C 942.158 1032.98 943.14 1057.07 940.036 1064.99 L 938.753 1065.72 C 934.62 1060.49 935.92 1032.87 935.929 1024.09 C 927.976 1024.2 920.029 1024.56 912.1 1025.18 C 912.087 1029.24 912.247 1035.14 911.798 1039.02 C 911.869 1047.94 912.522 1050.56 909.814 1059.16 L 908.211 1058.85 L 908.301 1059.82 C 904.982 1050.52 905.866 1035.74 905.986 1025.5 C 734.687 1031.05 665.564 955.709 537.756 860.508 C 511.61 840.899 485.044 821.729 456.424 806.099 C 421.56 787.058 390.612 779.608 352.229 773.176 C 326.102 768.798 295.866 756.825 272.763 743.727 C 255.123 733.726 241.667 718.836 226.08 706.046 C 220.212 705.339 215.999 705.28 211.327 701.459 L 211.13 699.429 C 213.242 697.031 214.642 696.972 217.687 696.272 C 217.165 694.235 211.425 687.233 209.761 685.05 C 205.618 684.608 201.628 684.472 199.252 680.723 C 200.631 678.441 200.155 679.165 203.037 677.866 C 203.613 676.069 199.462 665.944 198.584 663.666 C 185.48 629.679 184.659 592.28 192.502 556.977 C 194.368 548.579 197.815 540.13 199.527 531.686 L 199.676 530.934 C 197.868 529.395 197.87 529.287 197.137 526.959 C 198.713 524.648 198.321 525.369 201.785 524.376 C 202.928 523.622 214.478 501.844 216.608 498.406 C 241.54 458.154 276.075 430.25 315.134 404.059 C 383.531 358.195 461.914 331.171 538.785 303.058 C 538.747 298.664 538.135 283.234 539.648 280.23 C 539.901 266.498 540.752 245.971 539.441 234.273 C 539.227 232.366 518.698 226.564 538.521 216.532 C 539.836 215.867 539.83 195.577 540.128 190.289 C 541.525 165.53 566.58 141.105 591.71 140.253 C 596.286 139.559 616.184 139.81 618.315 137.694 C 626.385 129.682 631.231 126.602 638.266 138.199 C 649.289 139.134 668.751 137.922 680.579 138.169 C 720.946 139.013 763.907 136.056 803.916 137.452 C 805.861 131.977 806.731 128.099 813.324 128.914 C 815.995 130.826 820.996 136.522 823.08 136.997 C 832.699 139.192 845.235 136.58 854.624 137.859 C 865.085 137.029 881.674 137.704 890.66 136.202 C 892.046 132.12 892.117 131.456 892.254 127.18 C 894.598 124.224 896.437 123.677 899.803 122.143 C 899.818 115.257 899.129 99.524 902.868 94.4395 C 906.836 97.472 905.216 115.354 904.979 120.306 C 914.014 119.129 922.793 118.196 931.933 118.691 z" fill="#5C5D62" transform="translate(0,0)"></path>
<path d="M 226.08 706.046 C 245.842 707.68 266.277 707.165 286.162 707.111 L 371.938 706.856 L 697.962 705.031 C 697.76 721.46 697.376 738.231 697.426 754.633 C 686.629 760.568 686.567 766.645 698.158 771.558 C 701.154 805.886 707.51 826.49 744.445 835.591 C 749.572 836.854 762.083 844.61 766.373 844.777 C 776.948 845.19 799.348 850.799 808.543 850.006 C 840.797 847.224 872.609 848.871 904.901 849.399 C 905.895 886.513 906.373 923.638 906.336 960.764 C 902.994 962.314 900.431 963.13 898.312 966.123 C 894.897 976.405 904.708 977.45 904.965 978.994 C 907.322 993.138 906.172 1010.95 905.986 1025.5 C 734.687 1031.05 665.564 955.709 537.756 860.508 C 511.61 840.899 485.044 821.729 456.424 806.099 C 421.56 787.058 390.612 779.608 352.229 773.176 C 326.102 768.798 295.866 756.825 272.763 743.727 C 255.123 733.726 241.667 718.836 226.08 706.046 z" fill="#E6E4DF" transform="translate(0,0)"></path>
<path d="M 1547.94 306.193 C 1564.55 306.397 1581.01 307.491 1597.69 307.963 C 1670.54 310.025 1764.11 316.693 1819.18 369.841 C 1869.2 418.122 1832.47 473.842 1794.24 514.003 C 1779.43 514.296 1781.76 512.324 1769.84 507.609 C 1765.87 506.038 1756.1 514.461 1747.68 514.312 C 1714.33 513.724 1680.85 514.047 1647.48 514.098 C 1552.4 513.578 1457.33 513.762 1362.25 514.648 C 1361.86 493.792 1360.39 472.014 1359.71 451.002 C 1389.87 451.075 1423.08 449.742 1453.61 449.372 C 1460.56 457.184 1470.45 458.769 1477.27 449.779 C 1482.93 449.797 1488.59 449.746 1494.24 449.627 C 1542.69 448.233 1549.48 423.886 1549.87 382.24 C 1549.92 376.455 1562.96 372.925 1548.88 361.119 C 1548.94 342.806 1548.63 324.493 1547.94 306.193 z" fill="#A4A2A0" transform="translate(0,0)"></path>
<path d="M 538.785 303.058 C 538.747 298.664 538.135 283.234 539.648 280.23 C 539.7 303.55 541.114 339.151 539.754 361.378 C 536.292 364.822 533.727 362.853 531.667 367.845 C 528.327 375.939 539.703 377.712 539.694 379.681 C 539.539 413.937 547.493 446.278 587.392 451.121 C 588.885 451.302 600.577 452.766 600.589 452.778 C 607.241 459.037 610.162 460.281 618.119 453.673 C 643.389 452.695 669.407 453.063 694.887 453.04 L 695.25 520.728 L 319.879 523.965 C 297.503 524.219 285.994 508.372 268.079 523.519 C 256.146 524.135 214.122 525.683 201.785 524.376 C 202.928 523.622 214.478 501.844 216.608 498.406 C 241.54 458.154 276.075 430.25 315.134 404.059 C 383.531 358.195 461.914 331.171 538.785 303.058 z" fill="#E6E4DF" transform="translate(0,0)"></path>
<path d="M 199.676 530.934 C 220.014 529.21 245.569 529.424 266.527 528.58 C 266.484 537.659 266.544 546.925 266.383 555.984 C 248.06 556.023 229.796 555.959 211.48 555.325 C 207.398 555.184 201.051 554.435 198.177 557.185 L 198.046 559.658 C 204.516 565.825 258.561 556.859 266.766 562.449 C 267.448 565.349 267.306 565.734 266.318 568.565 C 255.68 571.003 199.707 565.891 194.483 574.035 C 200.7 581.419 246.165 576.834 257.819 577.419 C 268.912 577.977 278.07 582.299 288.978 583.133 C 325.465 576.785 363.338 578.304 400.331 577.826 L 696.966 576.82 C 696.611 598.699 696.562 620.582 696.817 642.463 C 615.121 644.503 532.17 642.075 450.369 642.119 C 422.814 642.063 395.259 642.362 367.711 643.014 C 352.629 643.431 203.547 645.491 204.873 644.861 L 203.868 646.417 L 204.614 648.744 C 207.822 650.394 214.571 650.246 218.375 650.247 L 823.945 648.13 L 824.237 681.582 C 740.043 683.163 655.307 679.061 571.033 678.744 C 549.095 678.661 528.496 679.69 506.82 679.982 C 469.902 680.258 432.983 680.237 396.065 679.919 C 387.506 679.808 378.936 679.256 370.439 679.15 C 315.412 678.465 257.978 676.471 203.037 677.866 C 203.613 676.069 199.462 665.944 198.584 663.666 C 185.48 629.679 184.659 592.28 192.502 556.977 C 194.368 548.579 197.815 540.13 199.527 531.686 L 199.676 530.934 z" fill="#E6E4DF" transform="translate(0,0)"></path>
<path d="M 1364.16 573.606 C 1400.55 571.93 1445.02 572.918 1481.85 572.902 L 1739.09 574.024 C 1730.63 577.854 1717.52 584.974 1708.51 589.211 C 1684.08 600.708 1623.64 622.681 1603.95 638.194 L 1366.35 639.897 C 1365.83 617.793 1365.1 595.695 1364.16 573.606 z" fill="#A4A2A0" transform="translate(0,0)"></path>
<path d="M 959.688 850.146 C 996.163 849.578 1031.52 850.625 1067.9 851.154 L 1068.96 978.697 C 1032.66 1000.75 1002.11 1012.43 960.478 1020.52 C 960.985 1007.93 960.647 992.79 960.68 980.002 C 972.972 974.647 970.354 964.015 960.014 957.893 L 959.688 850.146 z" fill="#E6E4DF" transform="translate(0,0)"></path>
<path d="M 1246.57 705.16 C 1261.45 706.258 1280.01 705.502 1295.22 705.149 C 1296.98 754.479 1297.68 808.346 1298.2 857.831 C 1263.65 864.952 1239.05 870.001 1203.02 866.875 C 1193.74 866.07 1173.17 862.006 1167.04 861.718 L 1166.79 861.285 L 1171.15 849.63 C 1173.3 848.068 1176.18 846.447 1178.42 845.042 C 1190.84 837.285 1199.55 829.438 1205.6 815.773 C 1212.17 800.929 1212.09 787.424 1213.11 771.624 C 1213.11 771.624 1214.68 769.964 1214.84 769.8 C 1224.4 764.85 1218.27 754.692 1212.35 749.631 C 1212.27 737.784 1211.08 722.034 1212.62 710.325 C 1212.91 708.162 1214.96 707.713 1217.03 706.655 C 1217.48 707.056 1217.93 707.454 1218.38 707.847 C 1229.06 717.099 1231.53 711.717 1240.48 705.607 C 1242.9 705.43 1244.93 705.281 1246.57 705.16 z" fill="#A4A2A0" transform="translate(0,0)"></path>
<path d="M 821.675 196.031 C 824.912 194.909 894.403 193.441 898.053 194.888 C 897.921 196.788 898.007 201.604 896.797 202.133 C 868.187 214.638 803.828 231.754 775.744 236.976 C 769.949 229.177 762.64 232.132 758.903 239.819 C 739.025 241.222 728.543 241.616 711.209 253.387 C 692.38 253.474 626.315 276.988 603.885 283.23 C 603.846 280.089 603.023 239.924 604.626 238.482 C 611.885 231.952 614.647 224.158 604.221 217.864 C 603.441 210.741 603.509 207.081 603.72 199.972 C 610.775 198.661 613.79 198.303 620.983 198.048 C 622.3 201.485 622.472 202.278 625.615 204.486 C 631.141 205.628 632.186 205.008 635.874 200.486 C 640.892 198.366 795.054 194.866 805.722 196.076 C 810.355 200.963 817.578 202.165 821.675 196.031 z" fill="#E6E4DF" transform="translate(0,0)"></path>
<path d="M 1233.99 646.053 C 1244.56 647.336 1262.11 646.211 1273.44 646.12 L 1355.71 645.323 L 1593.96 643.938 C 1586.1 647.698 1547.61 673.05 1546.17 679.904 L 1235.79 683.359 C 1234.79 672.214 1234.72 657.728 1233.99 646.053 z" fill="#A4A2A0" transform="translate(0,0)"></path>
<path d="M 603.885 283.23 C 626.315 276.988 692.38 253.474 711.209 253.387 C 690.889 273.882 694.678 288.341 692.203 314.909 C 692.165 315.315 672.44 323.253 692.878 333.583 C 693.174 352.018 693.853 371.882 693.532 390.213 C 671.077 390.588 648.62 390.825 626.162 390.923 C 617.382 376.494 607.276 386.272 601.975 382.179 C 607.294 378.326 613.48 373.388 607.243 366.559 C 606.219 365.454 605.124 364.416 603.966 363.452 C 603.732 336.712 603.705 309.97 603.885 283.23 z" fill="#E6E4DF" transform="translate(0,0)"></path>
<path d="M 1367.89 704.973 C 1418.51 704.308 1469.13 703.995 1519.75 704.035 C 1506.06 716.239 1493.2 730.932 1480.12 743.937 C 1450.49 773.399 1409.42 811.059 1370.71 828.136 C 1370.2 787.073 1369.25 746.016 1367.89 704.973 z" fill="#A4A2A0" transform="translate(0,0)"></path>
<path d="M 1477.15 289.64 C 1479.09 310.394 1478.18 337.058 1479.72 359.556 C 1468.05 375.869 1479.85 374.069 1479.65 382.665 C 1470.48 386.609 1465.39 372.405 1455.11 376.259 C 1452.13 377.376 1450.49 380.719 1448.75 383.418 C 1425.03 384.719 1377.61 385.06 1356.07 385.875 C 1355.23 363.991 1353.04 340.719 1355.82 319.075 C 1356.78 311.593 1358.41 309.034 1353.8 302.348 C 1364.03 301.948 1378.81 302.629 1389.3 302.753 L 1476.77 304.247 C 1476.69 299.063 1476.87 294.801 1477.15 289.64 z" fill="#A4A2A0" transform="translate(0,0)"></path>
<path d="M 1062.6 122.875 C 1063.32 134.842 1063 148.162 1062.96 160.246 C 1051.38 168.988 1051.95 172.652 1062.23 179.261 C 1063.12 179.834 1063.15 233.683 1063.17 237.894 L 1016.2 238.139 C 1012.98 234.136 1012.03 232.34 1006.93 231.889 C 1000.32 231.304 998.34 236.968 993.31 237.526 C 981.859 238.795 969.319 238.334 957.791 238.502 C 956.773 218.269 957.181 187.938 955.115 169.229 L 956.116 169.995 C 958.785 170.035 987.702 157.754 992.7 155.686 C 1016.46 145.856 1036.89 139.171 1062.45 135.325 C 1062.36 130.976 1062.43 127.224 1062.6 122.875 z" fill="#E6E4DF" transform="translate(0,0)"></path>
<path d="M 209.761 685.05 C 263.353 683.71 316.711 682.186 370.334 684.16 C 383.595 684.648 397.02 684.975 410.292 685.177 C 439.641 685.346 468.991 685.273 498.339 684.958 C 510.288 684.85 522.156 684.568 534.097 684.252 C 599.947 682.512 666.143 685.616 731.998 686.756 C 751.16 687.031 770.325 687.104 789.489 686.975 C 799.679 686.947 813.594 686.499 823.442 687.366 L 824.687 688.703 C 824.291 693.094 825.022 691.88 822.54 694.241 C 814.611 694.812 801.007 694.225 792.489 694.182 C 772.217 693.954 751.943 694.024 731.673 694.391 C 683.685 695.623 635.685 696.326 587.681 696.5 L 383.534 695.426 L 253.484 696.174 C 248.099 696.197 220.657 697.062 217.687 696.272 C 217.165 694.235 211.425 687.233 209.761 685.05 z" fill="#E6E4DF" transform="translate(0,0)"></path>
<path d="M 638.266 138.199 C 649.289 139.134 668.751 137.922 680.579 138.169 C 720.946 139.013 763.907 136.056 803.916 137.452 L 804.468 142.256 C 806.09 148.355 805.255 167.205 805.079 174.059 C 779.835 175.52 753.43 174.949 728.053 175.207 L 634.978 177.03 C 634.383 166.587 630.878 150.834 638.504 143.464 L 638.266 138.199 z" fill="#E6E4DF" transform="translate(0,0)"></path>
<path d="M 638.266 138.199 C 649.289 139.134 668.751 137.922 680.579 138.169 C 720.946 139.013 763.907 136.056 803.916 137.452 L 804.468 142.256 L 675.655 142.519 C 671.002 142.568 641.41 142.661 638.504 143.464 L 638.266 138.199 z" fill="#5C5D62" transform="translate(0,0)"></path>
<path d="M 1122.23 132.049 C 1123.96 135.658 1125.45 136.634 1129.54 137.694 C 1183.58 151.707 1190.9 188.255 1193.47 237.224 L 1189.53 236.685 C 1183.36 229.679 1183.98 229.378 1174.42 229.954 C 1172.37 231.567 1171.03 234.017 1169.57 236.241 C 1164.22 238.024 1133.12 237.244 1126 237.195 C 1124.58 221.518 1124.51 201.182 1124.05 185.123 C 1133.37 176.076 1127.74 168.219 1122.84 158.888 C 1122.94 149.937 1122.73 140.986 1122.23 132.049 z" fill="#E6E4DF" transform="translate(0,0)"></path>
<path d="M 803.916 137.452 C 805.861 131.977 806.731 128.099 813.324 128.914 C 815.995 130.826 820.996 136.522 823.08 136.997 C 832.699 139.192 845.235 136.58 854.624 137.859 C 864.426 138.963 879.505 138.393 889.79 138.174 C 884.006 141.019 833.436 137.406 822.15 139.764 L 822.625 141.131 C 834.726 141.009 891.955 139.205 898.269 141.741 C 899.308 144.699 899.192 143.42 898.493 146.672 C 898.228 151.816 897.906 156.573 898.17 161.736 C 898.835 165.518 899.984 171.227 898.248 174.74 C 880.195 176.326 842.388 175.09 822.259 174.998 L 821.625 176.42 C 824.797 178.06 888.166 175.975 897.652 177.043 L 896.991 177.844 C 887.114 178.108 824.803 177.255 821.054 179.986 L 820.557 183.734 C 821.015 187.825 821.388 191.925 821.675 196.031 C 817.578 202.165 810.355 200.963 805.722 196.076 C 805.786 191.551 805.908 188.592 806.453 184.112 L 805.466 180.266 C 805.259 180.15 803.164 178.972 803.163 178.972 C 747.677 181.043 690.649 178.111 635.327 181.485 L 627.48 180.528 C 625.119 181.874 625.852 181.002 625.006 184.079 C 625.806 187.427 626.214 188.125 628.64 190.565 C 626.978 191.597 627.489 191.267 625.033 190.956 C 622.388 187.255 624.784 155.006 623.752 148.29 C 622.929 142.936 630.164 138.16 626.99 133.412 L 624.819 133.039 C 622.071 134.533 620.626 138.108 618.996 141.034 C 616.571 142.291 596.148 141.14 592.557 140.429 L 591.71 140.253 C 596.286 139.559 616.184 139.81 618.315 137.694 C 626.385 129.682 631.231 126.602 638.266 138.199 L 638.504 143.464 C 630.878 150.834 634.383 166.587 634.978 177.03 L 728.053 175.207 C 753.43 174.949 779.835 175.52 805.079 174.059 C 805.255 167.205 806.09 148.355 804.468 142.256 L 803.916 137.452 z" fill="#3A3B3F" transform="translate(0,0)"></path>
<path d="M 820.945 142.544 C 843.482 142.36 871.424 141.331 894.199 142.546 C 896.685 142.679 897.315 144.684 898.493 146.672 C 898.228 151.816 897.906 156.573 898.17 161.736 C 898.153 166.099 898.288 168.405 897.223 172.661 C 887.18 175.075 833.164 173.836 820.904 173.934 L 820.945 142.544 z" fill="#E6E4DF" transform="translate(0,0)"></path>
<path d="M 810.641 133.334 C 812.75 133.77 813.084 133.73 814.774 135.168 C 817.562 142.19 815.454 176.16 815.102 185.956 L 812.043 184.814 C 809.454 180.303 810.321 141.159 810.641 133.334 z" fill="#E6E4DF" transform="translate(0,0)"></path>
<path d="M 625.284 141.221 L 627.954 142.027 C 630.512 146.256 629.905 171.31 629.94 177.791 C 627.874 177.416 627.907 177.502 626.042 176.293 C 623.757 170.208 625.033 148.806 625.284 141.221 z" fill="#E6E4DF" transform="translate(0,0)"></path>
<path d="M 1261.81 694.838 C 1255.27 694.054 1245.61 695.131 1237.59 694.514 C 1235.39 692.276 1236.08 693.219 1235.24 689.946 C 1235.39 689.797 1235.51 689.626 1235.68 689.5 C 1239.67 686.515 1518.78 684.951 1546.74 685.304 C 1544.11 686.961 1539.55 686.428 1536.16 686.381 L 1529.86 693.674 C 1540.89 693.619 1558.82 693.021 1569.34 694.134 C 1543.38 695.949 1503.99 694.742 1476.86 694.682 L 1342.35 694.928 L 1291.63 694.438 C 1284.31 694.366 1268.5 693.963 1261.81 694.838 z" fill="#A4A2A0" transform="translate(0,0)"></path>
<path d="M 898.053 194.888 L 898.905 195.244 C 898.213 209.49 898.318 224.002 898.257 238.28 C 882.345 238.714 785.942 241.86 777.45 239.478 L 775.744 236.976 C 803.828 231.754 868.187 214.638 896.797 202.133 C 898.007 201.604 897.921 196.788 898.053 194.888 z" fill="#E6E4DF" transform="translate(0,0)"></path>
<path d="M 1133.78 855.418 C 1136.57 855.53 1141.28 856.191 1144.21 856.506 C 1147.04 857.305 1146.16 856.959 1148.55 857.06 C 1154.05 857.292 1161.3 860.188 1166.79 861.285 L 1167.04 861.718 C 1159.24 879.869 1147.41 905.203 1134.83 920.29 C 1133.79 899.282 1133.97 876.565 1133.78 855.418 z" fill="#E6E4DF" transform="translate(0,0)"></path>
<path d="M 911.143 979.575 C 918.869 979.269 927.165 979.304 934.941 979.196 L 935.929 1024.09 C 927.976 1024.2 920.029 1024.56 912.1 1025.18 C 912.087 1029.24 912.247 1035.14 911.798 1039.02 C 910.306 1026.27 911.122 993.686 911.143 979.575 z" fill="#E6E4DF" transform="translate(0,0)"></path>
<path d="M 635.327 181.485 C 690.649 178.111 747.677 181.043 803.163 178.972 C 803.164 178.972 805.259 180.15 805.466 180.266 L 806.453 184.112 C 795.714 185.854 755.389 184.901 742.042 184.945 C 706.482 185.378 670.928 186.272 635.391 187.629 L 635.327 181.485 z" fill="#E6E4DF" transform="translate(0,0)"></path>
<path d="M 1094.79 131.803 C 1094.84 127.46 1095.1 123.956 1095.49 119.625 C 1096.09 131.227 1095.98 143.23 1096.03 154.876 C 1087.35 155.079 1077.42 155.584 1068.85 157.033 L 1068.27 126.443 C 1068.68 129.003 1068.69 129.865 1069.78 132.175 C 1074.94 134.866 1087.64 132.293 1094.79 131.803 z" fill="#E6E4DF" transform="translate(0,0)"></path>
<path d="M 820.557 183.734 L 821.054 179.986 C 824.803 177.255 887.114 178.108 896.991 177.844 L 898.414 179.195 L 897.738 183.016 C 894.729 184.9 827.86 184.624 820.557 183.734 z" fill="#E6E4DF" transform="translate(0,0)"></path>
<path d="M 942.114 1023.47 C 942.083 1013.38 941.315 988.482 942.618 980.323 C 944.853 978.766 943.88 979.17 947.111 979.405 C 948.974 982.003 948.109 1015.97 948.101 1021.79 L 942.114 1023.47 z" fill="#E6E4DF" transform="translate(0,0)"></path>
<path d="M 1101.69 132.798 L 1112.05 133.027 C 1112.17 137.558 1113.11 152.719 1111.16 155.778 C 1103.42 154.837 1101.12 154.76 1101.54 145.472 C 1101.72 141.373 1101.71 136.928 1101.69 132.798 z" fill="#E6E4DF" transform="translate(0,0)"></path>
<path d="M 1169.87 849.08 L 1171.15 849.63 L 1166.79 861.285 C 1161.3 860.188 1154.05 857.292 1148.55 857.06 C 1146.16 856.959 1147.04 857.305 1144.21 856.506 C 1152.16 856.083 1163.57 854.294 1169.87 849.08 z" fill="#A4A2A0" transform="translate(0,0)"></path>
<path d="M 1776.85 543.444 C 1776.19 536.971 1774.41 529.428 1777.39 524.03 C 1781.11 521.811 1781.58 522.629 1786.65 522.672 C 1779.13 531.831 1777.73 531.449 1776.93 542.315 L 1776.85 543.444 z" fill="#E6E4DF" transform="translate(0,0)"></path>
<path d="M 960.079 451.69 C 974.069 451.705 990.442 448.556 1002.84 454.276 C 1007.04 456.577 1011.65 452.763 1014.43 452.384 C 1028.28 450.504 1051.31 451.77 1064.91 452.055 C 1065.04 474.358 1064.83 497.781 1065.87 519.973 C 1067.37 597.385 1067.98 674.811 1067.68 752.237 L 1067.79 778.034 L 959.236 777.894 C 957.973 668.609 961.053 560.941 960.079 451.69 z" fill="#E6E4DF" transform="translate(0,0)"></path>
<path d="M 1067.68 752.237 C 1022.55 707.355 999.356 633.963 1024.67 573.495 C 1033.08 553.428 1047.44 532.057 1065.87 519.973 C 1067.37 597.385 1067.98 674.811 1067.68 752.237 z" fill="#A4A2A0" transform="translate(0,0)"></path>
<path d="M 903.179 191.222 L 904.967 192.178 C 913.805 190.527 923.957 186.074 932.204 182.447 L 935.127 963.865 C 926.126 963.868 920.769 964.029 911.948 961.398 L 904.779 409.996 L 903.758 261.565 C 903.753 250.173 904.73 200.045 903.179 191.222 z" fill="#E6E4DF" transform="translate(0,0)"></path>
<path d="M 873.699 524.526 C 882.784 524.342 891.87 524.272 900.957 524.315 L 901.103 554.925 L 310.5 555.959 L 283.177 556.005 C 282.873 547.298 283.03 537.74 282.999 528.964 L 873.699 524.526 z" fill="#E6E4DF" transform="translate(0,0)"></path>
<path d="M 1308.68 520.488 C 1458.73 519.663 1608.78 520.179 1758.81 522.036 L 1758.86 551.839 L 1638.25 550.313 C 1580.38 549.004 1519.36 549.918 1461.34 549.871 C 1369.23 549.157 1277.1 549.797 1185.01 551.791 C 1184.49 541.972 1184.14 532.145 1183.95 522.314 C 1225.52 521.12 1267.1 520.511 1308.68 520.488 z" fill="#A4A2A0" transform="translate(0,0)"></path>
<path d="M 1131.71 573.068 C 1148.41 572.863 1162.53 573.593 1179.1 575.118 C 1185.8 575.735 1197.16 573.951 1204.48 573.863 L 1291.08 573.408 C 1291.87 595.897 1292.45 618.393 1292.82 640.892 C 1274.26 641.124 1255.7 641.135 1237.15 640.925 C 1235.67 639.102 1234.18 637.068 1232.51 635.419 C 1230.48 633.417 1228.08 632.908 1225.27 632.971 C 1221.5 633.055 1219.58 635.211 1217.26 637.813 C 1208.64 647.452 1178.73 636.209 1159.86 655.518 C 1144.64 679.441 1154.02 721.657 1151.03 749.354 C 1132.02 751.373 1136.07 761.418 1147.37 769.693 C 1149.28 771.086 1149.14 773.397 1149.04 775.507 C 1145.99 781.136 1138.96 784.764 1133.33 787.2 C 1132.27 760.019 1133.01 729.018 1132.89 701.447 L 1131.71 573.068 z" fill="#A4A2A0" transform="translate(0,0)"></path>
<path d="M 1186.02 307.319 C 1188.32 306.378 1189.15 304.669 1190.64 302.58 C 1198.97 301.111 1246.82 300.707 1256.12 301.159 C 1256.28 305.136 1255.77 303.664 1257.9 306.828 C 1263.76 309.42 1264.33 305.96 1268.76 309.207 C 1272.66 322.498 1270.54 322.148 1283.93 327.299 C 1284.75 346.866 1285.78 367.417 1285.99 386.985 C 1234.41 387.498 1180.13 386.904 1128.97 388.621 C 1128.52 360.401 1128.27 331.178 1127.19 303.017 C 1141.69 302.41 1156.2 301.953 1170.72 301.647 C 1175.04 308.716 1177.73 309.987 1186.02 307.319 z" fill="#A4A2A0" transform="translate(0,0)"></path>
<path d="M 827.077 305.502 L 898.461 304.553 L 899.216 389.381 L 831.517 389.229 C 808.071 389.655 784.62 389.832 761.17 389.759 C 761.064 363.224 760.847 337.867 763.577 311.387 C 767.2 311.791 770.452 312.007 774.089 312.211 C 777.242 311.2 778.215 309.18 780.224 306.428 C 788.527 305.123 816.935 305.579 827.077 305.502 z" fill="#E6E4DF" transform="translate(0,0)"></path>
<path d="M 1129.59 452.04 C 1182.13 451.644 1235.3 453.6 1287.8 452.28 C 1288.09 472.163 1289.1 493.048 1288.55 512.927 C 1288.52 514.322 1288.45 513.866 1287 515.054 C 1272.64 515.361 1186.83 518.218 1181.08 514.232 C 1178.79 512.649 1176.13 511.35 1173.29 511.537 C 1168.97 511.82 1166.01 514.818 1161.94 515.627 C 1152.28 517.552 1140.11 516.304 1130.18 516.328 L 1129.59 452.04 z" fill="#A4A2A0" transform="translate(0,0)"></path>
<path d="M 622.855 396.363 C 648.657 397.253 680.355 396.108 706.667 396.002 C 770.795 395.612 834.925 395.706 899.052 396.285 C 899.012 402.913 900.72 425.956 898.698 430.609 L 896.25 431.231 L 722.116 430.766 C 687.219 431.019 652.351 432.009 617.475 431.808 C 617.104 423.038 615.732 408.608 617.683 399.943 C 618.15 397.872 620.68 397.322 622.855 396.363 z" fill="#E6E4DF" transform="translate(0,0)"></path>
<path d="M 766.124 704.521 C 777.963 704.255 818.971 701.39 827.215 705.853 C 828.665 706.637 830.143 707.284 831.709 707.806 C 835.471 709.061 839.463 707.821 842.879 706.076 C 852.301 701.262 890.331 703.846 903.017 703.92 C 903.091 728.011 903.878 752.354 904.022 776.588 L 889.661 776.75 C 873.701 776.863 830.515 778.656 812.047 777.709 C 809.539 774.028 808.164 772.232 804.249 770.015 C 797.225 766.038 786.53 775.878 784.798 775.877 C 756.975 775.866 789.315 763.701 763.868 753.122 C 764.419 745.598 763.967 707.689 766.124 704.521 z" fill="#E6E4DF" transform="translate(0,0)"></path>
<path d="M 1071.6 516.643 C 1070.56 500.194 1070.73 480.188 1070.48 463.507 L 1069.53 337.143 L 1068.68 235.669 C 1068.47 218.112 1067.29 189.353 1068.61 172.983 C 1072.85 170.021 1089.84 171.037 1096 171.139 L 1099.37 490.18 C 1099.22 493.997 1099.15 496.575 1099.4 500.387 C 1088.79 505.489 1081.18 509.629 1071.6 516.643 z" fill="#E6E4DF" transform="translate(0,0)"></path>
<path d="M 778.204 453.481 C 818.231 453.845 859.571 452.879 899.917 453.004 L 900.93 518.341 L 885.948 518.258 C 847.049 519.925 804.078 519.222 764.529 519.976 C 764.26 497.884 763.85 475.794 763.299 453.708 L 778.204 453.481 z" fill="#E6E4DF" transform="translate(0,0)"></path>
<path d="M 996.641 303.638 C 1001.9 310.01 1009.82 311.884 1016.09 305.555 L 1016.8 304.831 C 1024.61 302.446 1054.55 303.115 1063.91 303.134 C 1063.7 325.216 1065.59 368.807 1063.75 388.416 C 1048.31 388.849 1031 389.935 1015.78 388.446 C 1013.57 388.229 1007.56 375.172 997.147 387.583 L 996.588 388.255 C 988.235 389.799 968.629 389.353 959.166 389.358 C 959.065 360.356 960.178 332.233 959.216 303.238 C 971.427 303.696 984.371 303.564 996.641 303.638 z" fill="#E6E4DF" transform="translate(0,0)"></path>
<path d="M 765.377 576.259 C 807.451 575.545 859.32 575.354 901.156 576.594 C 901.072 594.688 902.708 623.96 901.55 640.692 C 899.232 642.517 895.717 641.993 892.5 641.989 C 883.308 642.102 857.061 643.107 846.406 641.064 C 844.87 639.819 842.903 635.349 841.346 634.492 C 832.037 629.367 827.327 634.114 822.573 640.639 C 817.327 643.091 775.029 642.066 766.236 642.003 L 765.377 576.259 z" fill="#E6E4DF" transform="translate(0,0)"></path>
<path d="M 1099.37 490.18 C 1101.23 514.63 1099.9 551.498 1100.12 576.866 C 1100.58 613.54 1101.26 650.211 1102.18 686.876 C 1102.67 718.344 1102.55 751.505 1104.01 782.779 C 1095.98 780.013 1079.16 765.191 1073.2 758.75 C 1073.54 678.045 1073.01 597.338 1071.6 516.643 C 1081.18 509.629 1088.79 505.489 1099.4 500.387 C 1099.15 496.575 1099.22 493.997 1099.37 490.18 z" fill="#A4A2A0" transform="translate(0,0)"></path>
<path d="M 1073.2 758.75 C 1079.16 765.191 1095.98 780.013 1104.01 782.779 L 1106.49 898.575 C 1106.78 913.75 1106.32 936.033 1107.24 950.364 C 1108.54 967.329 1108.19 988.77 1107.91 1005.97 C 1095.81 1005.99 1085.4 1004.23 1073.99 1003.94 C 1074.04 994.638 1073.87 984.384 1074.16 975.172 C 1075.42 905.388 1073.72 829.012 1073.2 758.75 z" fill="#E6E4DF" transform="translate(0,0)"></path>
<path d="M 1107.24 950.364 C 1108.54 967.329 1108.19 988.77 1107.91 1005.97 C 1095.81 1005.99 1085.4 1004.23 1073.99 1003.94 C 1074.04 994.638 1073.87 984.384 1074.16 975.172 C 1085.83 966.611 1095.78 959.349 1107.24 950.364 z" fill="#E6E4DF" transform="translate(0,0)"></path>
<path d="M 1295.41 313.539 C 1305.12 313.101 1315.14 313.133 1324.88 313.047 C 1324.88 331.532 1333.1 510.684 1331 514.772 L 1327.25 515.014 L 1294.99 515.086 C 1294.9 459.3 1291.06 402.48 1290.62 346.628 C 1290.54 336.918 1289.32 324.355 1290.23 314.947 C 1292.11 313.148 1292 313.754 1295.41 313.539 z" fill="#A4A2A0" transform="translate(0,0)"></path>
<path d="M 945.189 164.866 C 948.861 209.898 947.486 255.498 948.25 300.634 C 949.654 383.516 951.045 466.731 950.25 549.631 C 949.767 599.986 947.048 650.311 946.95 700.71 C 946.901 726.247 952.882 952.828 946.2 961.178 C 946.001 961.427 945.779 961.656 945.569 961.894 C 938.248 955.562 940.048 795.834 939.944 772 L 939.964 357.844 L 939.195 255.456 C 939.173 232.339 939.883 201.914 938.607 179.1 C 946.843 175.753 945.102 173.498 945.189 164.866 z" fill="#E6E4DF" transform="translate(0,0)"></path>
<path d="M 1224.32 393.487 L 1285.93 393.037 C 1285.97 405.228 1286.56 417.919 1286.96 430.14 C 1255.58 430.151 1223.29 430.958 1191.84 431.32 C 1171.21 431.649 1150.59 431.87 1129.96 431.983 C 1129.74 419.531 1129.44 407.08 1129.06 394.631 C 1159.73 393.326 1193.5 393.719 1224.32 393.487 z" fill="#A4A2A0" transform="translate(0,0)"></path>
<path d="M 1300.74 704.986 L 1336.11 704.934 C 1336.21 726.667 1338.23 752.026 1338.98 774.172 C 1339.44 788.1 1340.15 815.333 1341.89 828.383 L 1342.01 841.612 C 1329.49 847.156 1316.64 851.935 1303.54 855.924 L 1300.74 704.986 z" fill="#A4A2A0" transform="translate(0,0)"></path>
<path d="M 787.222 245.517 C 824.319 244.933 861.421 244.708 898.522 244.842 C 898.973 256.228 898.475 271.343 898.385 282.997 L 885.32 283.085 C 850.602 283.105 812.756 284.183 777.883 284.892 C 777.568 271.816 777.32 258.739 777.138 245.661 L 787.222 245.517 z" fill="#E6E4DF" transform="translate(0,0)"></path>
<path d="M 1332.65 935.468 L 1346.93 935.185 C 1347.54 939.671 1347.65 944.074 1347.93 948.531 C 1351.37 1002.41 1325.5 1012.37 1277.95 1013.89 L 1261.2 1013.62 C 1258.98 999.155 1259.29 987.07 1261.26 972.687 C 1280.33 973.072 1294.12 976.073 1306 958.398 C 1306.25 951.738 1305.84 942.733 1305.72 935.9 L 1332.65 935.468 z" fill="#E6E4DF" transform="translate(0,0)"></path>
<path d="M 959.773 784.985 C 995.901 784.772 1031.78 785.489 1067.91 784.958 L 1068.05 827.143 C 1031.01 827.919 996.981 827.275 959.989 826.395 L 959.773 784.985 z" fill="#E6E4DF" transform="translate(0,0)"></path>
<path d="M 1483.73 185.042 C 1495.17 183.478 1507.39 183.824 1519.02 183.724 C 1521.79 221.389 1522.89 267.849 1523.34 305.761 C 1515.82 305.371 1492.54 304.875 1486.23 303.791 C 1485.23 266.796 1482.67 221.441 1483.73 185.042 z" fill="#E6E4DF" transform="translate(0,0)"></path>
<path d="M 1340.54 555.463 C 1383.62 554.419 1429.78 555.122 1473.03 555.122 C 1564.64 555.432 1656.24 556.279 1747.84 557.664 C 1752.07 557.752 1755.88 558.314 1758.91 561.473 L 1758.84 563.127 C 1753.73 566.595 1707.95 564.477 1697.84 564.342 C 1667.28 564.167 1636.72 563.82 1606.16 563.302 L 1306.71 563.242 L 1226.36 562.852 C 1215.51 562.795 1204.72 563.206 1193.9 563.043 C 1190.37 562.99 1186.18 562.611 1185.73 558.633 C 1186.13 558.261 1186.52 557.888 1186.91 557.516 C 1226.72 556.607 1304.77 556.246 1340.54 555.463 z" fill="#A4A2A0" transform="translate(0,0)"></path>
<path d="M 849.295 784.536 C 867.508 783.861 885.736 783.661 903.959 783.936 L 903.831 827.028 C 889.306 827.419 874.774 827.413 860.25 827.009 C 842.974 826.458 823.828 826.98 806.412 827.118 C 806.068 813.295 805.58 799.476 804.95 785.663 C 815.422 784.465 837.957 784.69 849.295 784.536 z" fill="#E6E4DF" transform="translate(0,0)"></path>
<path d="M 1101.97 171.801 C 1106.45 172.241 1109.77 171.939 1113.06 174.512 L 1113.43 178.064 C 1113.34 215.56 1115.54 255.584 1116.62 293.167 C 1117.3 328.788 1117.66 364.414 1117.71 400.041 C 1117.78 418.04 1118.48 440.787 1117.73 458.474 C 1116.43 468.263 1117.08 486.05 1117.22 496.426 C 1113.57 496.818 1109.71 497.533 1106.2 496.67 L 1105.42 496.025 C 1103.85 452.886 1104.15 403.812 1103.97 360.602 C 1103.72 297.664 1103.05 234.729 1101.97 171.801 z" fill="#E6E4DF" transform="translate(0,0)"></path>
<path d="M 644.606 560.493 C 717.844 559.878 791.086 559.793 864.326 560.236 C 871.662 560.347 898.738 558.026 901.236 563.503 C 893.492 567.204 573.985 567.503 543.017 567.084 L 347.951 568.91 C 338.529 568.942 290.931 570.015 284.76 567.771 C 283.319 564.677 283.466 566.03 284.225 562.681 C 284.816 562.278 285.537 561.786 286.39 561.205 C 307.566 561.451 334.273 561.137 354.968 561.02 L 644.606 560.493 z" fill="#E6E4DF" transform="translate(0,0)"></path>
<path d="M 1197.5 647.398 C 1200.9 646.888 1212.7 646.73 1216.72 646.588 L 1217.84 684.066 C 1213.76 683.99 1208.84 683.784 1204.82 684.147 C 1169.24 687.366 1194.11 742.151 1185.44 752.718 L 1181.25 753.115 C 1173.19 753.161 1165.55 752.915 1157.49 752.62 C 1156.74 729.454 1151.68 676.171 1165.51 657.972 C 1172.76 648.425 1186.35 648.493 1197.5 647.398 z" fill="#A4A2A0" transform="translate(0,0)"></path>
<path d="M 704.117 771.169 C 717.639 771.203 731.161 770.984 744.674 770.512 C 756.573 788.537 766.193 787.059 786.202 787.22 C 786.362 793.36 787.871 824.666 785.686 827.727 C 768.421 828.161 748.858 832.35 732.574 826.059 C 709.446 817.125 704.811 793.198 704.117 771.169 z" fill="#E6E4DF" transform="translate(0,0)"></path>
<path d="M 1412.19 390.451 C 1425 390.1 1437.82 389.986 1450.63 390.108 C 1451.22 402.808 1451.68 415.512 1452.03 428.22 C 1433.51 428.144 1414.99 428.352 1396.48 428.845 C 1383.7 428.972 1370.93 429.342 1358.17 429.956 C 1357.19 417.613 1356.79 404.566 1356.22 392.15 C 1374.42 392.102 1393.91 391.091 1412.19 390.451 z" fill="#A4A2A0" transform="translate(0,0)"></path>
<path d="M 1117.22 496.426 C 1117.08 486.05 1116.43 468.263 1117.73 458.474 L 1120.06 663.293 L 1120.82 744.123 C 1120.95 754.978 1120.62 772.232 1121.41 782.688 L 1121.61 790.136 C 1117.7 789.137 1113.79 787.77 1109.95 786.498 C 1109.73 738.113 1109.05 689.731 1107.9 641.358 L 1105.42 496.025 L 1106.2 496.67 C 1109.71 497.533 1113.57 496.818 1117.22 496.426 z" fill="#A4A2A0" transform="translate(0,0)"></path>
<path d="M 597.093 144.36 C 604.627 143.965 612.965 144.282 620.576 144.422 C 621.014 154.846 620.786 166.43 620.798 176.942 C 608.145 176.665 596.39 175.368 586.369 184.676 C 576.831 193.537 581.987 205.721 576.648 215.607 C 572.888 217.798 572.733 216.982 567.633 216.837 C 557.723 216.006 554.018 216.214 544.626 218.021 C 541.395 179.096 553.579 149.01 597.093 144.36 z" fill="#E6E4DF" transform="translate(0,0)"></path>
<path d="M 751.84 245.396 C 756.248 245.517 756.086 244.848 759.328 246.886 C 760.512 253.233 759.992 277.38 760.001 285.701 C 754.127 285.964 747.526 286.184 743.158 289.878 C 738.256 294.023 741.134 299.213 743.759 302.508 C 743.033 301.597 740.043 312.608 739.693 315.357 C 730.185 315.147 720.672 315.272 711.173 315.734 L 697.881 316.29 C 697.521 275.076 703.632 248.47 751.84 245.396 z" fill="#E6E4DF" transform="translate(0,0)"></path>
<path d="M 1273.06 240.902 C 1303.11 240.536 1332.82 245.375 1337.94 281.724 C 1338.77 287.634 1341.76 294.403 1336.24 298.609 C 1334.95 298.562 1331.96 298.668 1331.57 297.319 C 1326.46 279.956 1333.02 268.447 1317.05 254.638 C 1312.93 253.151 1307.07 251.7 1302.74 250.491 C 1324.49 264.22 1324.45 274.058 1325.52 298.384 C 1317.47 298.803 1298.85 300.286 1292.06 299.121 C 1284.6 297.84 1294.57 284.485 1272.83 281.425 C 1272.56 268.333 1272.93 254.083 1273.06 240.902 z" fill="#E6E4DF" transform="translate(0,0)"></path>
<path d="M 1342.01 841.612 C 1343.19 866.077 1345.02 894.125 1345.19 918.405 C 1332.3 918.921 1317.47 919.855 1304.72 919.918 L 1304.02 897.312 C 1304.33 883.675 1303.84 869.591 1303.54 855.924 C 1316.64 851.935 1329.49 847.156 1342.01 841.612 z" fill="#E6E4DF" transform="translate(0,0)"></path>
<path d="M 1194.07 241.802 C 1214.47 241.7 1234.87 241.477 1255.27 241.132 C 1255.09 254.416 1254.7 268.274 1254.91 281.506 C 1241.93 281.605 1204.82 281.021 1193.58 282.488 C 1191.63 282.413 1190.43 282.066 1188.56 281.633 C 1187.56 278.27 1187.62 243.564 1188.88 242.084 L 1194.07 241.802 z" fill="#E6E4DF" transform="translate(0,0)"></path>
<path d="M 1193.58 282.488 C 1191.63 282.413 1190.43 282.066 1188.56 281.633 C 1187.56 278.27 1187.62 243.564 1188.88 242.084 L 1194.07 241.802 L 1193.58 282.488 z" fill="#E6E4DF" transform="translate(0,0)"></path>
<path d="M 1156.33 768.775 C 1166.57 768.615 1176.82 768.38 1187.06 768.069 C 1188.93 797.848 1188.48 815.87 1158.95 829.655 C 1147.42 833.578 1144.5 833.292 1133.2 829.902 C 1132.63 818.76 1132.92 804.303 1132.88 793.017 C 1143.1 788.356 1150.4 785.695 1154.58 774.211 C 1155.21 772.416 1155.8 770.603 1156.33 768.775 z" fill="#E6E4DF" transform="translate(0,0)"></path>
<path d="M 699.745 453.123 L 739.724 452.945 L 740.214 520.34 C 727.305 520.768 713.814 520.511 700.857 520.455 L 699.745 453.123 z" fill="#E6E4DF" transform="translate(0,0)"></path>
<path d="M 704.293 576.526 C 716.34 576.205 728.392 576.155 740.44 576.377 C 741.019 583.817 741.559 634.417 740.688 641.011 L 739.073 642.093 L 702.087 642.415 C 702.02 632.901 701.118 583.757 702.3 577.456 L 704.293 576.526 z" fill="#E6E4DF" transform="translate(0,0)"></path>
<path d="M 703.116 331.549 C 714.838 330.945 727.364 331.077 739.157 331 C 739.747 339.35 741.265 384.249 738.57 389.508 L 736.25 389.982 L 698.917 390.097 C 698.662 375.247 697.16 346.519 698.325 333.108 C 700.062 331.311 699.865 331.894 703.116 331.549 z" fill="#E6E4DF" transform="translate(0,0)"></path>
<path d="M 1492.81 376.521 C 1503.58 376.034 1514.37 375.936 1525.16 376.229 C 1525.91 399.311 1527.35 419.244 1500.83 427.097 C 1491 428.361 1479.15 428.024 1469.09 428.01 C 1469.01 414.638 1469.12 403.417 1469.89 390.054 L 1488.96 389.918 C 1489.1 384.541 1487.5 378.41 1492.81 376.521 z" fill="#A4A2A0" transform="translate(0,0)"></path>
<path d="M 1296.67 573.829 L 1333.01 573.661 C 1333.88 596.068 1333.98 618.328 1334.82 640.723 L 1298.48 640.687 C 1297.79 618.209 1297.56 596.486 1296.67 573.829 z" fill="#A4A2A0" transform="translate(0,0)"></path>
<path d="M 1330.18 313.116 C 1334.37 312.874 1335.96 312.703 1340.14 313.344 C 1343.02 317.64 1348.84 491.351 1349.52 514.98 L 1337.25 514.983 C 1336.9 449.762 1331.87 378.931 1330.18 313.116 z" fill="#A4A2A0" transform="translate(0,0)"></path>
<path d="M 545.129 300.976 C 554.233 299.065 570.63 292.662 579.783 289.268 C 579.252 313.746 579.237 338.233 579.735 362.713 L 545.568 362.826 C 545.847 342.208 545.701 321.588 545.129 300.976 z" fill="#E6E4DF" transform="translate(0,0)"></path>
<path d="M 546.491 377.489 C 557.431 377.133 569.17 377.316 580.172 377.292 C 581.377 393.694 584.156 397.597 601.045 398.101 C 601.13 405.505 601.745 425.382 600.586 431.713 C 574.216 430.936 561.805 425.391 546.539 403.461 C 546.182 398.336 544.639 381.233 546.491 377.489 z" fill="#E6E4DF" transform="translate(0,0)"></path>
<path d="M 545.142 232.878 C 556.692 232.54 568.245 232.306 579.799 232.176 L 579.783 289.268 C 570.63 292.662 554.233 299.065 545.129 300.976 C 544.835 278.278 544.84 255.577 545.142 232.878 z" fill="#E6E4DF" transform="translate(0,0)"></path>
<path d="M 1191.45 970.436 C 1198.44 975.17 1230.76 973.817 1240.9 973.858 C 1241 980.77 1241.73 1007.24 1240.74 1012.96 L 1239.05 1013.9 L 1187.87 1014.03 C 1186.38 997.482 1187.35 986.336 1191.45 970.436 z" fill="#E6E4DF" transform="translate(0,0)"></path>
<path d="M 674.159 436.486 C 697.6 435.871 895.562 433.942 900.441 438.914 C 899.828 441.362 897.261 443.845 894.747 443.83 C 878.118 443.73 861.468 443.741 844.816 443.827 C 787.002 444.333 729.185 444.138 671.377 443.241 C 654.249 442.825 635.671 443.586 618.88 442.344 L 617.611 440.772 L 618.294 439.371 C 624.182 435.98 663.713 436.794 674.159 436.486 z" fill="#A4A2A0" transform="translate(0,0)"></path>
<path d="M 1486.23 303.791 C 1492.54 304.875 1515.82 305.371 1523.34 305.761 C 1524.45 323.166 1524.81 341.5 1525.3 358.945 C 1512.99 358.954 1500.68 359.342 1488.39 360.108 C 1487.59 341.333 1487.18 322.544 1486.23 303.791 z" fill="#A4A2A0" transform="translate(0,0)"></path>
<path d="M 840.627 648.877 C 861.957 649.209 880.674 649.344 902.016 648.513 L 902.095 681.886 C 881.564 682.193 861.979 680.783 841.189 681.919 L 840.627 648.877 z" fill="#E6E4DF" transform="translate(0,0)"></path>
<path d="M 1015.02 244.1 C 1031.22 243.733 1047.43 243.672 1063.63 243.915 C 1063.74 257.112 1063.78 270.308 1063.74 283.505 L 1016 284.014 C 1015.4 270.717 1015.07 257.41 1015.02 244.1 z" fill="#E6E4DF" transform="translate(0,0)"></path>
<path d="M 703.084 705.011 L 740.064 704.802 C 740.212 726.426 742.039 734.308 743.676 754.351 L 743.727 755.021 C 730.496 755.506 717.259 755.825 704.02 755.977 L 703.084 705.011 z" fill="#E6E4DF" transform="translate(0,0)"></path>
<path d="M 1341.55 704.906 L 1355.05 704.881 C 1357.72 747.773 1358.64 792.73 1359.99 835.811 L 1358.39 834.453 C 1354.19 835.575 1351.94 837.054 1348.18 839.182 C 1348.12 842.477 1348.18 847.967 1347.87 851.062 C 1347.14 847.019 1346.27 814.193 1345.98 807.607 L 1341.55 704.906 z" fill="#A4A2A0" transform="translate(0,0)"></path>
<path d="M 1166.78 242.25 L 1169.38 242.929 C 1171.14 245.991 1170.32 250.934 1170.63 255.178 L 1170.85 282.772 L 1126.99 283.091 C 1126.46 269.714 1126.11 256.33 1125.94 242.944 C 1138.85 242.906 1154.07 243.239 1166.78 242.25 z" fill="#E6E4DF" transform="translate(0,0)"></path>
<path d="M 1014.85 395.093 C 1031.27 395.199 1047.68 395.088 1064.1 394.758 C 1064.24 406.614 1064.45 418.469 1064.74 430.322 C 1048.32 430.627 1031.02 430.249 1014.54 430.133 C 1014.24 418.94 1014.69 406.38 1014.85 395.093 z" fill="#E6E4DF" transform="translate(0,0)"></path>
<path d="M 1109.95 786.498 C 1113.79 787.77 1117.7 789.137 1121.61 790.136 L 1122.18 936.922 L 1112.84 944.875 C 1112.04 892.138 1109.87 839.106 1109.95 786.498 z" fill="#A4A2A0" transform="translate(0,0)"></path>
<path d="M 904.365 136.439 C 915.44 134.212 919.87 133.958 930.894 134.992 C 931.664 151.268 932.233 166.172 932.204 182.447 C 923.957 186.074 913.805 190.527 904.967 192.178 L 903.179 191.222 C 902.948 176.835 901.782 149.857 904.365 136.439 z" fill="#E6E4DF" transform="translate(0,0)"></path>
<path d="M 958.123 244.165 L 996.791 243.953 L 996.961 283.872 L 958.981 283.863 L 958.123 244.165 z" fill="#E6E4DF" transform="translate(0,0)"></path>
<path d="M 1352.89 935.255 C 1356.15 935.018 1359.02 934.543 1362.07 935.747 C 1363.16 938.377 1363.37 942.12 1363.28 944.935 C 1362.49 968.646 1361.24 989.874 1342.77 1007.11 C 1318.66 1029.6 1298.2 1029.14 1268.31 1028.49 C 1266.65 1028.5 1265.18 1028.2 1263.55 1027.95 C 1261.05 1024.34 1261.74 1023.25 1261.22 1018.25 C 1266.29 1018.46 1271.35 1018.54 1276.42 1018.48 C 1299.38 1018.4 1322.08 1018.34 1339.76 1000.81 C 1356.43 984.289 1353.12 957.644 1352.89 935.255 z" fill="#E6E4DF" transform="translate(0,0)"></path>
<path d="M 960.15 395.277 L 996.96 394.85 C 997.016 402.633 997.602 425.094 996.557 431.9 C 984.193 431.481 971.825 431.186 959.455 431.017 C 960.71 422.869 960.159 404.449 960.15 395.277 z" fill="#E6E4DF" transform="translate(0,0)"></path>
<path d="M 1130.67 521.981 C 1141.79 521.948 1152.9 522.024 1164.01 522.21 L 1164.85 551.932 C 1154.28 552.244 1141.48 551.914 1130.76 551.89 C 1130.52 542.167 1130.69 531.761 1130.67 521.981 z" fill="#A4A2A0" transform="translate(0,0)"></path>
<path d="M 1258 435.535 C 1264.92 435.282 1280.25 434.168 1286.46 435.682 C 1287.45 438.181 1287.43 438.265 1286.75 440.949 C 1283.45 443.096 1173.24 442.061 1158.69 442.104 C 1152.99 442.033 1133.6 443.645 1130.22 440.834 L 1130.26 437.932 C 1130.85 437.537 1131.43 437.142 1132.01 436.748 C 1169.42 436.235 1222.38 436.157 1258 435.535 z" fill="#A4A2A0" transform="translate(0,0)"></path>
<path d="M 1348.18 839.182 C 1351.94 837.054 1354.19 835.575 1358.39 834.453 L 1359.99 835.811 L 1361.07 917.28 C 1357.36 918.213 1354.35 919.174 1351.12 916.857 C 1349.75 910.668 1349.32 888.327 1348.86 880.434 C 1349.21 876.625 1348.03 856.269 1347.87 851.062 C 1348.18 847.967 1348.12 842.477 1348.18 839.182 z" fill="#E6E4DF" transform="translate(0,0)"></path>
<path d="M 1338.39 574.022 L 1351.9 574.017 C 1353.03 590.865 1354.45 623.959 1353.77 640.53 L 1339.83 640.863 C 1338.8 618.792 1339.08 596.262 1338.39 574.022 z" fill="#A4A2A0" transform="translate(0,0)"></path>
<path d="M 1529.29 305.384 C 1528.13 277.4 1527.14 249.408 1526.32 221.412 C 1526.07 214.138 1522.8 186.722 1527.94 182.948 C 1531.35 184.15 1532.38 186.5 1532.59 190.074 C 1533.36 203.289 1533.71 216.558 1534.13 229.792 L 1536.42 305.301 C 1533.1 306.241 1532.66 306.161 1529.29 305.384 z" fill="#E6E4DF" transform="translate(0,0)"></path>
<path d="M 782.565 290.484 C 794.512 290.088 893.748 288.574 898.33 291.001 C 898.751 293.671 898.727 292.707 896.903 295.623 L 893.25 296.102 L 818.875 296.873 C 811.298 296.961 783.123 299.088 778.266 295.5 C 777.728 292.574 777.537 293.737 778.992 291.132 L 782.565 290.484 z" fill="#E6E4DF" transform="translate(0,0)"></path>
<path d="M 960.038 832.966 C 981.897 833.066 1003.68 833.769 1025.53 833.823 C 1039.27 833.857 1053.23 833.409 1066.94 834.297 C 1068.56 836.127 1068.15 838.167 1068.39 841.123 C 1037.85 841.064 1007.3 839.745 976.754 840.048 C 971.597 840.099 966.548 840.01 961.402 839.633 C 959.706 837.176 960.209 836.293 960.038 832.966 z" fill="#A4A2A0" transform="translate(0,0)"></path>
<path d="M 1200.93 751.931 C 1197.83 752.427 1195.56 753.012 1192.46 752.325 C 1190.11 743.988 1191.54 713.331 1190.84 703.167 C 1189.87 689.232 1213.5 684.473 1218.24 692.315 C 1217.24 695.12 1217.7 694.172 1215.16 696.278 C 1211.1 695.911 1208.61 695.371 1204.82 696.882 C 1198.52 703.024 1200.84 741.114 1200.93 751.931 z" fill="#A4A2A0" transform="translate(0,0)"></path>
<path d="M 1530.76 376.491 C 1532.46 376.719 1534.15 377.096 1535.84 377.44 C 1537.64 379.443 1537.41 383.785 1537.52 386.456 C 1539.63 437.056 1514.59 439.643 1472.75 440.1 L 1470.95 439.942 C 1468.8 437.658 1469.3 438.821 1469.17 435.522 C 1478.45 426.095 1540.55 452.995 1530.76 376.491 z" fill="#A4A2A0" transform="translate(0,0)"></path>
<path d="M 1192.67 767.98 C 1195.8 767.793 1196.27 767.642 1199.23 768.459 C 1207.96 778.731 1196.37 807.954 1189.41 816.946 C 1177.97 831.744 1156.9 845.126 1138.2 847.173 C 1134.26 845.9 1130.34 843.422 1131.35 838.717 C 1135.13 836.9 1139.88 839.906 1144.05 839.21 C 1191.22 831.336 1193.31 804.821 1192.67 767.98 z" fill="#E6E4DF" transform="translate(0,0)"></path>
<path d="M 1122.18 936.922 C 1122.52 946.612 1125.06 1000.15 1122.21 1005.95 C 1119.06 1006.04 1117.65 1006.22 1114.54 1005.31 C 1112.84 1002.14 1112.92 952.25 1112.84 944.875 L 1122.18 936.922 z" fill="#E6E4DF" transform="translate(0,0)"></path>
<path d="M 1381.77 434.447 C 1397.24 433.904 1412.79 433.63 1428.27 433.718 C 1434.28 433.751 1447.69 431.913 1451.92 435.779 C 1452.6 438.69 1452.74 437.32 1451.49 440.028 C 1447.24 440.881 1432.83 440.624 1427.75 440.637 C 1417.53 440.581 1364.87 441.886 1359.75 440.825 C 1358.56 438.071 1358.62 439.265 1359.54 436.34 C 1363.25 434.028 1376.39 434.592 1381.77 434.447 z" fill="#A4A2A0" transform="translate(0,0)"></path>
<path d="M 805.411 833.095 C 820.679 831.928 842.577 832.824 858.078 832.829 C 871.952 832.833 888.719 832.546 902.368 833.299 C 904.641 835.085 904.131 835.546 904.923 838.872 C 879.937 840.075 834.824 839.4 808.302 838.182 C 806.931 838.119 806.056 834.768 805.411 833.095 z" fill="#A4A2A0" transform="translate(0,0)"></path>
<path d="M 1187.78 1019.01 C 1198.27 1019.01 1231.78 1017.54 1240.59 1019.05 C 1242.63 1021.64 1242.4 1023.1 1242.65 1026.42 L 1241.1 1027.43 C 1227.2 1027.43 1213.28 1027.19 1199.38 1027.49 C 1195.18 1027.59 1195.16 1030 1191 1029.44 C 1189.05 1027.21 1188.44 1022.19 1187.78 1019.01 z" fill="#E6E4DF" transform="translate(0,0)"></path>
<path d="M 1249.38 961.664 C 1258.82 962.436 1254.92 964.7 1253.96 972.333 C 1251.7 990.178 1253 1013.04 1256.39 1030.79 C 1253.36 1030.22 1247.89 1029.31 1247.74 1025.51 C 1247.22 1012.02 1243.06 972.394 1249.38 961.664 z" fill="#E6E4DF" transform="translate(0,0)"></path>
<path d="M 1261.13 234.225 C 1262.92 234.477 1264.07 234.879 1265.77 235.399 C 1268.6 239.631 1267.88 289.527 1267.97 297.147 C 1265.38 297.326 1264.58 297.302 1262 296.982 C 1258.33 292.23 1260.32 242.845 1261.13 234.225 z" fill="#E6E4DF" transform="translate(0,0)"></path>
<path d="M 841.068 686.933 C 852.05 686.539 891.83 686.104 901.583 687.486 C 903.405 689.751 902.877 690.822 903.086 694.185 C 886.749 694.293 858.263 694.849 842.745 693.564 C 840.78 691.204 841.339 690.465 841.068 686.933 z" fill="#A4A2A0" transform="translate(0,0)"></path>
<path d="M 791.933 783.414 C 795.532 783.735 796.236 783.167 798.592 785.213 C 800.149 796.06 800.315 832.52 800.316 844.194 L 794.976 842.545 C 790.728 837.699 792.08 792.736 791.933 783.414 z" fill="#A4A2A0" transform="translate(0,0)"></path>
<path d="M 590.324 287.643 C 590.319 297.159 590.945 359.227 588.449 363.891 C 585.355 360.824 584.511 353.153 584.61 348.973 C 585.082 328.971 584.987 308.934 585.006 288.923 L 590.324 287.643 z" fill="#E6E4DF" transform="translate(0,0)"></path>
<path d="M 1351.38 923.56 C 1355.42 923.208 1366.87 922.124 1368.97 925.982 C 1359.21 930.753 1324.67 929.992 1313.17 930.134 C 1308.49 930.498 1301.2 932.282 1298.39 928.547 L 1298.9 926.508 C 1301.97 923.848 1343.89 923.835 1351.38 923.56 z" fill="#E6E4DF" transform="translate(0,0)"></path>
<path d="M 1002.18 238.681 C 1005.63 239.025 1008.54 238.696 1008.68 242.787 C 1009.29 260.603 1009.63 278.765 1010.1 296.579 C 1007.52 296.317 1005.1 296.485 1003.36 294.807 C 1001.64 281.337 1002.08 253.049 1002.18 238.681 z" fill="#E6E4DF" transform="translate(0,0)"></path>
<path d="M 599.218 182.124 C 604.425 181.905 615.4 180.281 619.896 182.914 C 621.065 183.598 620.998 186.23 621.23 188.015 C 609.795 188.063 590.369 186.16 591.271 202.416 C 591.527 207.032 592.677 210.929 590.783 215.293 C 587.628 217.973 587.656 217.191 582.81 217.819 C 583.203 200.855 583.527 191.199 599.218 182.124 z" fill="#E6E4DF" transform="translate(0,0)"></path>
<path d="M 1457.7 381.392 C 1459.22 381.944 1461.06 382.291 1461.5 384.102 C 1463.32 391.577 1464.78 437.64 1462.92 442.177 C 1459.17 440.927 1460.16 441.762 1457.9 439.242 C 1456.8 431.446 1454.49 386.482 1457.7 381.392 z" fill="#A4A2A0" transform="translate(0,0)"></path>
<path d="M 1175.8 235.551 C 1178.14 235.722 1179.15 235.986 1181.45 236.535 C 1183.26 241.895 1182.38 286.186 1183.07 296.234 C 1181.4 296.072 1179.71 295.766 1178.04 295.497 C 1174.82 291.656 1175.84 244.497 1175.8 235.551 z" fill="#E6E4DF" transform="translate(0,0)"></path>
<path d="M 1223.58 638.488 C 1225.79 639.423 1227.82 640.555 1228.19 643.078 C 1229.48 651.808 1232.18 685.104 1228.96 691.578 C 1225.43 690.748 1225.22 691.349 1223.36 688.92 C 1222.6 681.681 1220.57 642.911 1223.58 638.488 z" fill="#A4A2A0" transform="translate(0,0)"></path>
<path d="M 1536.42 305.301 C 1537.2 319.526 1537.69 344.548 1536.61 358.575 L 1535.21 359.818 C 1528.29 356.753 1530.1 314.821 1529.29 305.384 C 1532.66 306.161 1533.1 306.241 1536.42 305.301 z" fill="#A4A2A0" transform="translate(0,0)"></path>
<path d="M 1144.64 754.848 C 1166.99 760.242 1184.14 756.743 1206.09 757.092 L 1206.76 758.431 L 1204.6 761.733 C 1199.35 763.859 1147.99 764.708 1144.31 761.413 C 1142.98 758 1143.36 759.033 1144.64 754.848 z" fill="#A4A2A0" transform="translate(0,0)"></path>
<path d="M 1169.75 523.221 C 1172.53 523.156 1175.8 522.64 1177.9 524.099 C 1179.26 531.399 1179.31 553.231 1179.62 561.786 C 1176.42 561.616 1172.78 561.662 1170.36 559.887 C 1169.3 552.157 1169.12 531.076 1169.75 523.221 z" fill="#A4A2A0" transform="translate(0,0)"></path>
<path d="M 1505.57 172.438 C 1512.12 172.008 1537.01 170.836 1540.47 175.458 C 1534.82 178.786 1519.43 177.948 1512.25 177.9 C 1504.38 177.896 1480.06 180.532 1475.68 178.789 L 1476.12 177.362 C 1483.7 172.554 1496.38 172.853 1505.57 172.438 z" fill="#E6E4DF" transform="translate(0,0)"></path>
<path d="M 1501.34 364.412 C 1509.99 364.017 1540.06 362.489 1546.49 367.416 L 1546.37 369.247 C 1543.36 371.108 1530.36 369.973 1525.75 369.836 C 1517.01 369.505 1485.35 371.347 1480.69 368.286 C 1483.54 364.538 1496.6 364.683 1501.34 364.412 z" fill="#A4A2A0" transform="translate(0,0)"></path>
<path d="M 765.517 244.437 C 768.041 244.896 768.174 244.944 770.437 246.185 C 772.377 254.125 771.858 296.71 772.134 307.855 C 770.706 307.06 769.324 306.082 767.963 305.168 C 764.134 297.81 765.392 254.723 765.517 244.437 z" fill="#A4A2A0" transform="translate(0,0)"></path>
<path d="M 748.276 575.477 C 751.853 576.104 751.819 575.496 754.084 577.788 C 754.776 585.414 756.068 637.866 753.809 643.223 L 750.544 641.994 C 748.452 639.325 750.009 618.883 749.983 613.747 C 749.916 600.864 748.691 588.289 748.276 575.477 z" fill="#E6E4DF" transform="translate(0,0)"></path>
<path d="M 763.408 759.528 C 766.202 759.556 766.343 759.674 768.972 760.764 L 769.385 762.194 C 764.369 764.748 710.114 765.617 700.538 765.868 C 695.86 765.531 696.339 765.813 693.881 763.206 L 694.274 761.752 C 698.421 760.07 754.212 759.947 763.408 759.528 z" fill="#A4A2A0" transform="translate(0,0)"></path>
<path d="M 1066.8 1009.06 C 1074.38 1009.45 1130.63 1010.23 1131.88 1010.97 L 1131.68 1013.64 C 1119.5 1015.99 1082.4 1017.82 1068.16 1013.62 C 1067 1013.28 1067.05 1010.77 1066.8 1009.06 z" fill="#E6E4DF" transform="translate(0,0)"></path>
<path d="M 828.818 646.468 L 833.546 646.821 C 836.918 650.244 836.127 689.981 836.201 697.324 C 834.53 697.081 832.867 696.741 831.206 696.427 C 828.661 692.884 828.928 653.835 828.818 646.468 z" fill="#A4A2A0" transform="translate(0,0)"></path>
<path d="M 585.006 288.923 C 584.803 278.885 583.548 239.665 585.133 232.463 L 586.85 231.385 L 588.048 231.728 C 590.465 234.326 590.422 237.116 590.379 240.482 C 590.179 256.201 590.292 271.922 590.324 287.643 L 585.006 288.923 z" fill="#E6E4DF" transform="translate(0,0)"></path>
<path d="M 536.778 222.268 C 551.355 222.161 587.096 221.013 599.674 222.338 C 601.624 224.646 601.142 223.509 600.858 227.262 C 591.573 226.569 540.493 228.573 536.545 225.591 L 536.778 222.268 z" fill="#E6E4DF" transform="translate(0,0)"></path>
<path d="M 1764.27 552.595 C 1764.28 543.814 1761.76 519.202 1767.25 514.105 L 1768.4 514.305 C 1770.9 519.519 1770.28 562.568 1769.14 569.168 L 1768.44 570.853 L 1766.65 570.644 C 1763.45 566.145 1763.99 557.971 1764.27 552.595 z" fill="#E6E4DF" transform="translate(0,0)"></path>
<path d="M 1764.27 552.595 C 1765.15 549.17 1764.72 548.641 1766.99 546.283 C 1770.02 549.244 1768.59 564.054 1769.14 569.168 L 1768.44 570.853 L 1766.65 570.644 C 1763.45 566.145 1763.99 557.971 1764.27 552.595 z" fill="#E6E4DF" transform="translate(0,0)"></path>
<path d="M 747.946 704.527 C 750.626 704.556 752.366 704.229 754.432 705.796 C 755.47 713.169 754.902 745.596 754.968 754.784 C 752.289 754.847 752.028 754.86 749.454 754.206 C 748.394 751.702 748.391 712.485 747.946 704.527 z" fill="#E6E4DF" transform="translate(0,0)"></path>
<path d="M 716.487 320.429 C 723.267 319.809 746.596 319.3 751.821 323.296 C 748.245 326.354 731.297 325.321 725.75 325.213 C 717.935 325.194 696.828 327.177 690.739 325.31 L 689.724 323.189 C 692.572 320.744 711.716 320.617 716.487 320.429 z" fill="#A4A2A0" transform="translate(0,0)"></path>
<path d="M 1014.03 436.069 C 1027.01 435.894 1051.28 435.026 1063.36 436.331 C 1065.4 438.077 1064.84 438.6 1065.26 441.894 C 1049.62 441.844 1031.89 442.492 1016.5 441.595 C 1014.11 439.944 1014.74 439.653 1014.03 436.069 z" fill="#E6E4DF" transform="translate(0,0)"></path>
<path d="M 1084.27 160.394 C 1090.72 160.131 1116.55 159.822 1120.15 164.94 C 1115.5 168.723 1101.25 165.864 1092.75 165.733 C 1085.46 165.386 1078.56 164.792 1071.29 166.158 C 1066.59 167.042 1063.65 170.625 1060.9 170.461 C 1061.1 162.453 1078.57 161.028 1084.27 160.394 z" fill="#E6E4DF" transform="translate(0,0)"></path>
<path d="M 1002.49 395.37 C 1005.19 396.165 1005.64 396.306 1007.97 397.885 C 1009 402.05 1008.19 434.583 1008.91 444.111 L 1003.94 443.176 C 1003.51 442.712 1002.98 442.147 1002.36 441.479 C 1001.62 427.768 1002.27 408.729 1002.49 395.37 z" fill="#E6E4DF" transform="translate(0,0)"></path>
<path d="M 938.607 179.1 C 938.325 171.718 936.267 140.633 938.799 136.23 C 941.669 135.995 940.562 135.85 943.365 137.651 C 945.834 140.773 945.154 159.581 945.189 164.866 C 945.102 173.498 946.843 175.753 938.607 179.1 z" fill="#E6E4DF" transform="translate(0,0)"></path>
<path d="M 1254.03 286.388 C 1254.94 288.061 1254.77 288.218 1254.66 290.084 C 1251.57 292.094 1198.51 291.3 1190.93 291.297 C 1189.77 291.296 1188.62 290.493 1187.7 289.818 L 1188.43 288.777 C 1195.13 286.824 1204.34 287.181 1211.67 286.946 C 1223.39 287.119 1242.54 287.536 1254.03 286.388 z" fill="#E6E4DF" transform="translate(0,0)"></path>
<path d="M 748.204 452.272 L 750.638 453.152 C 753.346 457.342 752.025 512.173 751.932 520.782 L 749.326 519.576 C 746.927 514.206 747.92 461.411 748.204 452.272 z" fill="#A4A2A0" transform="translate(0,0)"></path>
<path d="M 605.997 397.158 C 608.778 397.458 609.351 397.321 611.551 398.86 C 612.669 408.567 611.876 433.973 611.958 445.281 C 610.014 444.966 609.484 444.661 607.736 443.9 C 604.914 438.954 605.952 405.219 605.997 397.158 z" fill="#A4A2A0" transform="translate(0,0)"></path>
<path d="M 1323.75 303.44 C 1328.97 302.52 1340.74 303.36 1345.79 304.79 L 1345.79 305.702 C 1337.93 308.174 1317.35 307.96 1308.25 308.085 C 1300.76 308.399 1291.15 309.242 1284.02 307.555 L 1284.47 306.542 C 1292.69 303.529 1312.46 304.533 1323.75 303.44 z" fill="#E6E4DF" transform="translate(0,0)"></path>
<path d="M 920.653 124.426 C 926.518 124.125 943.65 124.066 947.365 129.138 C 943.617 132.599 931.458 129.693 926.548 128.908 C 917.643 128.82 900.487 132.82 896.903 131.227 L 897.944 129.815 C 907.816 125.587 910.218 125.413 920.653 124.426 z" fill="#E6E4DF" transform="translate(0,0)"></path>
<path d="M 959.557 442.989 C 959.552 440.236 959.212 438.609 960.814 436.448 C 968.059 435.593 990.509 435.71 997.733 436.56 C 997.302 438.234 997.074 440.751 995.895 441.096 C 987.102 443.671 968.535 442.467 959.557 442.989 z" fill="#E6E4DF" transform="translate(0,0)"></path>
<path d="M 914.712 968.281 C 926.345 969.953 950.185 966.294 957.251 969.406 L 957.816 970.99 C 956.046 973.209 956.787 972.508 953.25 973.168 C 946.912 973.364 910.008 974.828 907.098 973.543 C 912.933 973.12 913.432 974.036 914.712 968.281 z" fill="#E6E4DF" transform="translate(0,0)"></path>
<path d="M 550.404 418.65 C 552.12 419.561 561.196 427.009 564.223 428.907 C 576.644 436.694 583.928 436.98 597.814 437.738 C 600.545 437.887 601.071 439.669 602.339 441.734 C 582.834 444.204 559.767 437.15 550.404 418.65 z" fill="#E6E4DF" transform="translate(0,0)"></path>
<path d="M 748.233 330.425 L 750.325 331.29 C 753.369 335.805 751.375 381.833 751.148 389.794 L 749.059 389.736 C 746.675 386.57 747.842 337.529 748.233 330.425 z" fill="#A4A2A0" transform="translate(0,0)"></path>
<path d="M 536.629 368.206 C 544.908 368.13 585.5 366.342 589.756 369.169 L 589.625 371.766 C 582.055 371.643 541.262 372.513 537.601 371.046 L 536.629 368.206 z" fill="#E6E4DF" transform="translate(0,0)"></path>
<path d="M 1015.36 289.053 C 1023.24 288.944 1058.59 287.728 1063.32 289.963 L 1063.53 292.619 C 1055.11 292.61 1021.59 294.566 1016.61 292.456 L 1015.36 289.053 z" fill="#E6E4DF" transform="translate(0,0)"></path>
<path d="M 1130.08 558.046 C 1137.21 557.901 1156.75 556.693 1163.98 558.924 C 1165.15 559.287 1165.15 561.215 1165.48 562.846 C 1157.01 562.906 1139.98 564.984 1132.04 563.052 C 1130.86 562.764 1130.5 559.744 1130.08 558.046 z" fill="#A4A2A0" transform="translate(0,0)"></path>
<path d="M 958.854 289.359 C 965.664 289.183 992.08 287.786 996.702 290.166 L 996.805 292.959 C 989.87 293.219 964.55 295.909 959.423 292.865 L 958.854 289.359 z" fill="#E6E4DF" transform="translate(0,0)"></path>
<path d="M 1127.24 288.493 C 1134.38 288.293 1165.33 286.82 1170.39 288.847 L 1170.75 291.449 C 1163.64 291.618 1132.52 293.126 1127.69 290.744 L 1127.24 288.493 z" fill="#E6E4DF" transform="translate(0,0)"></path>
<path d="M 271.879 528.375 C 273.289 528.596 274.942 528.997 276.363 529.299 C 278.57 532.52 277.194 549.729 277.309 555.83 L 273.981 555.787 C 270.568 552.026 271.856 534.508 271.879 528.375 z" fill="#E6E4DF" transform="translate(0,0)"></path>
<path d="M 776.14 833.428 C 779.787 833.174 785.685 831.864 787.098 835.953 C 783.048 840.025 776.222 838.364 770.961 837.753 C 766.287 837.19 761.645 835.967 757.058 834.875 L 776.14 833.428 z" fill="#E6E4DF" transform="translate(0,0)"></path>
<path d="M 750.109 770.108 C 760.376 769.159 762.51 774.622 773.553 780.878 C 762.179 781.323 756.986 778.805 750.109 770.108 z" fill="#A4A2A0" transform="translate(0,0)"></path>
<path d="M 1272.57 286.989 C 1282.39 289.107 1285.23 291.428 1283.76 301.677 C 1280.93 299.59 1278.2 292.607 1273.91 290.789 C 1272.88 290.353 1272.83 288.256 1272.57 286.989 z" fill="#E6E4DF" transform="translate(0,0)"></path>
<path d="M 751.851 291.365 C 756.233 291.025 758.896 290.252 761.053 294.673 C 759.493 296.604 759.972 295.99 756.806 296.568 C 753.275 296.841 748.402 297.766 746.828 293.935 C 748.107 292.111 749.643 292.001 751.851 291.365 z" fill="#E6E4DF" transform="translate(0,0)"></path>
<path d="M 750.514 302.389 L 752.258 303.621 C 753.121 309.066 751.888 312.567 749.414 317.344 C 746.201 315.498 747.011 316.55 745.938 313.551 C 746.043 309.654 748.58 305.89 750.514 302.389 z" fill="#A4A2A0" transform="translate(0,0)"></path>
<path d="M 586.054 376.544 C 593.291 378.376 585.867 383.142 595.231 391.542 C 585.922 390.16 584.586 384.712 586.054 376.544 z" fill="#E6E4DF" transform="translate(0,0)"></path>
<path d="M 1276.88 303.484 C 1279.17 306.83 1278.64 311.395 1278.9 315.995 C 1276.77 314.405 1276.74 314.251 1275.36 311.919 C 1274.65 308.355 1275.58 306.805 1276.88 303.484 z" fill="#E6E4DF" transform="translate(0,0)"></path>
<path d="M 828.951 638.403 C 832.967 637.943 835.884 637.33 839.796 638.373 L 840.238 639.874 C 836.001 640.163 833.652 642.086 829.728 640.539 L 828.951 638.403 z" fill="#A4A2A0" transform="translate(0,0)"></path>
<path d="M 277.722 521.297 C 281.04 521.155 284.504 520.64 287.379 522.19 L 287.558 523.953 C 284.057 524.11 280.381 524.702 277.351 523.28 L 277.722 521.297 z" fill="#A4A2A0" transform="translate(0,0)"></path>
<path d="M 608.076 388.207 C 612.025 388.535 617.009 387.943 617.399 392.468 C 613.488 391.649 611.112 391.878 607.192 390.255 L 608.076 388.207 z" fill="#A4A2A0" transform="translate(0,0)"></path>
<path d="M 1171.16 566.783 C 1173.46 566.228 1179.09 566.951 1181.53 568.366 C 1178.21 569.011 1174.34 569.872 1171.31 568.603 L 1171.16 566.783 z" fill="#A4A2A0" transform="translate(0,0)"></path>
<path d="M 793.931 774.17 C 798.706 774.687 799.997 774.736 804.36 776.676 L 804.107 777.727 C 800.237 775.724 798.057 778.411 793.649 776.407 L 793.931 774.17 z" fill="#A4A2A0" transform="translate(0,0)"></path>
<metadata><recraft-signature>{"signed_by": "recraft", "signature_b64": "a87ef7NnaYS78Qte/cE6BVtHRitIDSG4kluMJfiopFUAHW8v3FboiIBo7+SmMgzr5tHZ3VmrljcTXbMIwcCxCw==", "signing_algo": "Ed25519", "generation_timestamp": 1777130390, "identifier": "4b722511-245c-44ee-8ee3-e140cb271b97"}</recraft-signature></metadata></svg>