<svg xmlns="http://www.w3.org/2000/svg" height="1024" preserveAspectRatio="none" style="display: block;" version="1.1" viewBox="0 0 2048 2048" width="1024">
<path d="M 0 0 L 2048 0 L 2048 2048 L 0 2048 L 0 0 z" fill="#08090A" transform="translate(0,0)"></path>
<path d="M 1158.53 697.438 C 1175.76 696.818 1192.51 696.994 1209.73 697.131 C 1206.81 704.827 1198.42 719.86 1194.4 727.469 C 1183.55 748.007 1172.49 768.438 1161.23 788.759 C 1144.51 819.284 1128.62 850.078 1111.99 880.61 C 1090.82 919.468 1067.5 958.872 1047.92 998.525 C 1081.52 982.267 1323.92 842.322 1338.48 845.518 C 1342.7 850.575 1342.66 878.665 1342.98 886.726 C 1343.91 909.789 1344.7 932.858 1345.34 955.931 L 1349.46 1087.46 C 1350.03 1104.8 1354.3 1199.3 1348.66 1207.66 C 1344.5 1208.7 1339.43 1206.19 1335.45 1204.14 C 1312.2 1192.19 1289.39 1179.55 1266.02 1167.78 L 1169.64 1118.84 C 1153.46 1110.75 1136.87 1103.8 1120.83 1095.21 C 1097.45 1082.68 1074.48 1069.49 1051.22 1056.72 C 1092.04 1121.25 1126.13 1192.55 1161.72 1260.17 C 1170.17 1276.22 1197.12 1322.09 1201.83 1335.91 L 1200.39 1336.16 C 1187.58 1338.49 1168.92 1338.63 1155.51 1339.03 L 1086.07 1340.68 L 896.989 1346.83 C 887.85 1346.88 845.028 1350.55 840.945 1346.11 C 843.361 1335.19 874.52 1277.12 881.052 1264.67 L 948.086 1139.54 C 965.451 1107.34 980.427 1078.46 998.839 1046.48 C 980.784 1054.53 950.359 1073.73 936.26 1081.4 C 910.521 1095.41 712.388 1205.44 701.082 1204.28 C 697.503 1198.89 697.14 1066.24 696.804 1049.38 L 694.583 935.755 C 694.296 923.862 691.119 855.133 695.101 850.691 C 701.804 849.292 743.557 869.971 753.554 874.209 C 814.466 900.029 874.42 928.343 934.082 956.917 C 954.308 966.604 973.544 979.199 993.913 988.84 C 991.318 983.405 987.603 976.994 984.31 971.928 C 960.211 934.854 941.139 896.107 920.38 857.162 C 905.619 829.936 890.658 802.82 875.496 775.816 C 867.915 762.145 843.844 723.034 840.884 710.562 C 847.871 705.708 1130.36 698.567 1158.53 697.438 z" fill="#E6E4DF" transform="translate(0,0)"></path>
<path d="M 1325.62 859.861 C 1328.75 859.81 1327.22 859.537 1330.1 861.453 C 1333.49 867.63 1333.27 914.465 1333.48 924.695 L 1335.41 1031.24 C 1336.07 1080.52 1338.76 1137.71 1336.93 1185.99 C 1317.22 1178.32 1279.53 1157.71 1259.66 1147.68 L 1141.62 1089.41 C 1123.4 1079.53 1105.03 1069.95 1086.5 1060.67 C 1071.94 1053.4 1054.37 1045.65 1041.14 1036.46 C 1036.37 1033.15 1034.34 1029.14 1031.67 1024.14 C 1038.07 1019.49 1051.79 1012.78 1059.23 1008.68 L 1113.33 978.68 C 1167.89 948.203 1221.13 915.357 1276.49 886.275 C 1292.95 877.628 1309.62 869.336 1325.62 859.861 z" fill="#08090A" transform="translate(0,0)"></path>
<path d="M 1298.59 897.9 C 1301.73 898.069 1302.31 897.754 1304.7 899.746 C 1306.66 902.915 1307.43 905.531 1307.54 909.344 C 1308.54 944.457 1309.21 979.991 1311.17 1015.06 L 1316.71 1101.9 C 1317.42 1114.89 1318.36 1129.4 1317.73 1142.4 C 1317.55 1146.21 1316.13 1146.79 1313.53 1148.76 C 1306.08 1149.35 1191.51 1084.27 1174.56 1074.8 C 1159.63 1066.52 1083.12 1026.11 1078.71 1015.22 C 1082.49 1009.83 1097.99 1002.7 1104.66 999 C 1114.45 993.559 1124.99 986.318 1134.66 981.249 C 1173.4 960.936 1212.24 941.222 1251.54 922.031 C 1267.3 914.335 1282.74 905.343 1298.59 897.9 z" fill="#E6E4DF" transform="translate(0,0)"></path>
<path d="M 1293.08 912.881 L 1293.69 913.146 C 1296.63 917.657 1297.78 1001.53 1297.3 1012.16 C 1282.2 1006.06 1261.75 987.996 1250.68 975.841 C 1244.53 969.086 1237.91 960.527 1230.35 955.473 C 1224.24 957.06 1192.68 1001.75 1180.14 1005.45 C 1177.43 1006.25 1162.62 1018.19 1161.49 1021.72 C 1162.4 1026.91 1175.76 1033.41 1180.12 1037.19 C 1194.41 1049.56 1213.87 1065.52 1222.95 1082.25 L 1223.63 1083.52 C 1223.45 1083.94 1223.26 1084.36 1223.07 1084.79 C 1211.27 1080.43 1180.84 1061.51 1168.67 1054.53 C 1147.68 1042.5 1120.61 1029.44 1101.11 1016.46 L 1225.34 948.639 C 1247.1 936.88 1270.61 922.722 1293.08 912.881 z" fill="#08090A" transform="translate(0,0)"></path>
<path d="M 1230.56 974.631 C 1236.59 979.667 1245.92 990.284 1252.13 996.224 C 1261.91 1005.57 1269.2 1011.3 1279.85 1019.33 C 1263.46 1039.24 1251.85 1051.01 1232.89 1068.17 C 1215.69 1052.24 1202.53 1037.69 1183.8 1021.82 C 1202.03 1006.35 1214.56 992.199 1230.56 974.631 z" fill="#08090A" transform="translate(0,0)"></path>
<path d="M 1297.94 1020.07 C 1299.9 1024.13 1303.55 1115.37 1303.51 1126.93 C 1289.75 1120.97 1275.03 1112.74 1261.68 1105.6 C 1250.99 1100.11 1240.44 1094.32 1230.06 1088.25 C 1251.13 1070.08 1278.71 1040.7 1297.94 1020.07 z" fill="#08090A" transform="translate(0,0)"></path>
<path d="M 706.896 865.582 C 760.678 889.82 814.057 914.944 867.009 940.944 L 954.53 983.625 C 965.432 988.899 994.238 1003.72 1004.3 1005.7 L 1013.69 1021.36 C 977.599 1039.94 941.768 1062.98 905.377 1082.42 C 887.273 1091.89 869.513 1102.55 851.672 1112.57 L 771.478 1157.13 C 756.09 1165.7 725.974 1183.37 710.426 1189.49 C 709.287 1174.88 709.819 1154.65 709.826 1139.57 L 709.817 1050.17 C 709.502 989.246 706.596 925.887 706.896 865.582 z" fill="#08090A" transform="translate(0,0)"></path>
<path d="M 735.217 902.383 C 738.876 903.644 743.82 906.647 747.513 908.398 C 814.383 940.1 879.86 974.039 943.024 1012.67 C 951.614 1017.92 960.52 1022.63 968.651 1028.6 C 954.636 1041.82 908.39 1065.82 889.455 1076.25 C 857.491 1092.94 825.358 1109.3 793.059 1125.33 C 783.527 1130.03 747.594 1149.53 739.927 1147.16 C 735.99 1141.4 737.058 1129.45 736.715 1122.23 L 734.482 1076.36 C 732.417 1035.8 731.206 995.204 730.847 954.594 C 730.657 942.49 729.856 930.383 729.738 918.345 C 729.648 909.209 729.322 908.297 735.217 902.383 z" fill="#E6E4DF" transform="translate(0,0)"></path>
<path d="M 744.404 921.316 C 813.38 953.335 880.235 989.738 944.558 1030.3 C 911.85 1047.91 880.073 1066.43 847.834 1083.87 C 815.042 1101.51 781.805 1118.3 748.155 1134.24 C 747.302 1112.77 746.901 1091.29 746.95 1069.81 L 746.114 1033.45 C 767.349 1046.27 799.515 1073.2 819.332 1089.13 C 835.952 1072.28 850.868 1055.62 870.18 1041.6 C 877.418 1036.34 886.804 1029.75 892.203 1022.87 C 874.57 1011.17 859.032 1003.03 842.572 988.87 C 832.071 979.836 821.693 968.097 811.46 959.94 C 806.312 965.218 801.673 973.028 797.066 978.363 C 790.278 986.222 756.383 1023.68 746.536 1021.02 C 745.378 1013.21 745.751 996.482 745.607 987.849 L 744.404 921.316 z" fill="#08090A" transform="translate(0,0)"></path>
<path d="M 812.546 981.685 C 814.5 982.653 825.317 991.406 828.033 993.521 C 841.37 1003.74 854.569 1014.14 867.626 1024.71 C 853.196 1039.06 834.436 1055.68 819.07 1069.27 L 817.986 1069.65 C 814.622 1068.55 771.421 1033.38 765.807 1028.59 C 781.226 1014.54 797.92 996.86 812.546 981.685 z" fill="#08090A" transform="translate(0,0)"></path>
<path d="M 1115.23 713.554 C 1137.81 712.655 1160.41 712.452 1183.01 712.946 C 1172.44 740.466 1155.61 766.677 1141.92 792.481 C 1111.76 849.341 1078.84 904.763 1049.87 962.195 C 1041.67 978.445 1030.96 995.668 1023.66 1011.98 C 1013.49 998.177 994.8 962.808 985.395 946.379 L 898.804 796.257 C 887.663 776.987 863.587 738.757 854.956 719.983 C 865.637 718.529 880.349 718.573 891.433 718.268 C 911.754 717.666 932.079 717.221 952.407 716.934 C 1006.69 716.214 1060.97 715.087 1115.23 713.554 z" fill="#08090A" transform="translate(0,0)"></path>
<path d="M 1145.23 733.443 C 1147.88 732.936 1148.98 733.322 1151.65 733.733 C 1155.55 736.805 1155.36 739.761 1153.16 743.968 C 1139.58 769.878 1025.85 953.453 1011.27 956.428 C 1004.34 950.81 981.847 908.74 975.673 897.661 C 966.297 880.105 957.279 860.903 948.3 842.976 C 937.001 820.893 925.814 798.753 914.738 776.557 C 910.77 768.485 901.996 753.148 904.678 745.29 C 911.004 738.559 957.246 739.009 968.324 738.63 C 1002.89 737.451 1037.47 736.709 1072.05 736.403 C 1094.3 736.01 1123.36 735.742 1145.23 733.443 z" fill="#E6E4DF" transform="translate(0,0)"></path>
<path d="M 1107.89 748.544 C 1116.61 748.064 1125.91 747.946 1134.69 747.68 C 1104.34 800.095 1077.13 851.969 1039 899.676 C 1029.94 911.021 1023.04 924.312 1013.48 935.62 C 991.159 899.511 970.104 858.521 949.98 821.014 C 938.617 799.836 924.701 774.954 915.206 753.312 L 952.629 751.909 C 967.774 751.147 992.475 750.462 1008.43 750.822 C 1010.64 750.872 1011.85 752.885 1012.88 754.501 C 1013.95 767.485 983.844 794.128 974.045 803.031 C 969.715 806.965 960.685 811.079 959.037 814.386 C 959.933 817.101 1019.79 878.589 1024.67 882.451 C 1030.68 875.493 1035.04 867.562 1040.62 860.296 C 1049.73 848.426 1059.67 835.808 1070.85 825.802 C 1076.25 820.97 1082.15 816.734 1086.89 811.356 C 1086.75 803.762 1069.24 792.242 1063.38 787.202 C 1050.73 776.314 1035.9 765.433 1025.8 752.061 L 1024.94 750.909 C 1052.58 749.799 1080.23 749.011 1107.89 748.544 z" fill="#08090A" transform="translate(0,0)"></path>
<path d="M 1022.66 769.653 C 1034.02 778.327 1057.92 799.655 1068.42 809.594 C 1053.65 824.91 1036.7 842.135 1023.77 858.898 L 1022.77 859.073 C 1018.43 857.231 984.186 822.97 978.171 817.135 C 995.472 800.862 1006.79 786.62 1022.66 769.653 z" fill="#08090A" transform="translate(0,0)"></path>
<path d="M 1021.6 1034.72 C 1027.26 1040.37 1042.86 1067.88 1047.28 1075.56 C 1064.03 1104.71 1079.36 1135.19 1095.7 1164.55 C 1115.44 1200.04 1136.5 1235.09 1156.13 1270.6 C 1165.15 1286.93 1178.32 1309.49 1184.14 1326.77 C 1165.69 1328.6 1143.9 1329 1125.2 1329.6 C 1089.97 1330.64 1054.74 1331.45 1019.5 1332.01 C 966.312 1331.97 913.128 1332.88 859.973 1334.76 C 864.925 1321.78 872.492 1310.79 879.17 1298.74 C 885.798 1286.78 892.187 1274.55 898.576 1262.45 C 938.546 1186.73 982.966 1110.95 1021.6 1034.72 z" fill="#08090A" transform="translate(0,0)"></path>
<path d="M 1031.08 1087.35 C 1038.93 1089.4 1051.05 1111.61 1055.25 1119.73 C 1074.99 1157.91 1093.98 1196.64 1112.76 1235.31 L 1133.15 1277.28 C 1136.2 1283.57 1146.06 1299.87 1143.47 1305.54 C 1139.05 1307.72 1016.14 1310.18 1003.25 1310.59 C 988.305 1310.77 899.703 1315.08 893.242 1311.77 L 892.437 1309.26 C 893.926 1300.8 905.912 1281.77 910.252 1273.58 C 945.409 1207.28 987.213 1148.09 1031.08 1087.35 z" fill="#E6E4DF" transform="translate(0,0)"></path>
<path d="M 1032.24 1108.93 C 1037.74 1114.62 1051.98 1141.65 1056.46 1150.16 C 1081.24 1197.2 1107.42 1245.11 1128.71 1293.77 C 1100.8 1295.26 1070.76 1295.38 1042.62 1296.32 L 1032.98 1289.71 C 1040.79 1282.42 1089.55 1236.79 1091.39 1232.12 C 1090.69 1226.65 1037.96 1182.84 1031.25 1174.19 C 1029.35 1171.73 1024.03 1167.12 1020.51 1167.31 C 1016.05 1169.86 1014.51 1172.49 1011.35 1176.54 C 993.933 1201.54 982.77 1214.96 957.564 1230.97 C 962.207 1236.59 970.914 1243.6 976.374 1249.07 C 991.657 1264.41 1007.99 1279.53 1022.06 1295.96 C 991.152 1299.05 944.087 1298.79 911.571 1300 C 919.35 1281 933.586 1260.76 943.815 1242.8 C 969.406 1197.89 999.491 1149.28 1032.24 1108.93 z" fill="#08090A" transform="translate(0,0)"></path>
<path d="M 1022.67 1185.55 C 1026.35 1188.2 1035.52 1197.21 1039.31 1200.77 L 1073.92 1233.3 C 1061.67 1246.45 1043.25 1262.47 1029.7 1275.32 C 1027.84 1277.21 1027.91 1277.58 1025.39 1278.02 C 1015.45 1269.84 989.51 1243.05 981.328 1232.64 C 996.902 1218.41 1009.58 1201.99 1022.67 1185.55 z" fill="#08090A" transform="translate(0,0)"></path>
<path d="M 1281.82 1365.55 C 1290.87 1365.1 1313.82 1363.07 1320.91 1366.59 C 1322.01 1368.23 1323.44 1370.17 1322.41 1372.25 C 1296.82 1423.97 1256.37 1498.29 1230.31 1547.42 L 1144.32 1709.9 C 1133.26 1730.94 1028.34 1931.52 1023.65 1934.84 C 1019.02 1928.87 1000.8 1894.3 996.555 1886.43 L 935.619 1771.71 C 920.831 1742.98 905.137 1715.01 889.939 1686.54 L 775.61 1470.62 L 745.663 1413.9 C 740.571 1404.15 733.87 1392.6 730.65 1382.22 C 729.781 1379.42 730.043 1380.07 731.414 1377.81 C 737.071 1374.7 772.3 1374.59 781.196 1374.33 L 881.056 1372.34 L 1281.82 1365.55 z" fill="#E6E4DF" transform="translate(0,0)"></path>
<path d="M 1267.65 1375.46 C 1275.02 1375.26 1303.71 1372.76 1306.49 1378.94 C 1301.48 1391.11 1283.3 1423.79 1276.18 1437.64 C 1250.13 1488.44 1223.5 1538.95 1196.31 1589.16 L 1103.1 1760.32 C 1085.45 1793 1067.17 1825.21 1049.22 1857.73 C 1041.09 1872.44 1032.54 1887.49 1023.11 1901.41 C 1009.66 1880.84 999.55 1857.72 987.957 1836.22 C 972.786 1808.09 957.726 1780.06 942.749 1751.81 C 901.029 1677.08 860.741 1597.8 820.367 1522.07 L 777.666 1441.26 C 770.258 1427.37 756.955 1404.2 751.526 1390.19 C 768.278 1388.42 792.052 1388.78 809.607 1388.26 L 932.745 1384.97 C 1044.4 1382.48 1156.04 1379.31 1267.65 1375.46 z" fill="#08090A" transform="translate(0,0)"></path>
<path d="M 1059.79 1412.53 C 1108.55 1411.21 1157.96 1412.49 1206.78 1412.11 C 1212.46 1412.06 1230.35 1411.32 1233.03 1415.78 C 1232.33 1423.58 1175.48 1530.02 1168.06 1544 L 1100.74 1671.17 L 1051.53 1764.47 C 1044.21 1778.51 1037.14 1792.64 1029.83 1806.67 C 1027.33 1811.46 1024.73 1814.15 1019.35 1813.85 C 1012.77 1810.12 1010.82 1803.6 1007.49 1796.61 C 984.534 1752.44 815.537 1434.37 815.79 1422.92 C 815.849 1420.25 816.506 1419.08 818.316 1417.21 C 827.981 1414.33 861.803 1414.6 873.76 1414.28 C 935.761 1412.87 997.778 1412.29 1059.79 1412.53 z" fill="#E6E4DF" transform="translate(0,0)"></path>
<path d="M 1190.37 1423.48 L 1217.63 1423.32 C 1211.45 1436.63 1202.53 1452.37 1195.57 1465.55 L 1150.28 1550.6 C 1108.4 1630.91 1066.04 1710.97 1023.21 1790.78 C 1017.7 1782.86 1008.3 1763.96 1003.37 1754.64 L 966.795 1685.46 C 922.173 1600.95 878.34 1516.02 835.3 1430.68 C 860.389 1429.25 889.025 1429.37 914.424 1428.69 C 1006.35 1426.22 1098.41 1425.56 1190.37 1423.48 z" fill="#08090A" transform="translate(0,0)"></path>
<path d="M 1010.26 1487.86 C 1047.68 1483.5 1081.57 1510.24 1086.03 1547.65 C 1090.5 1585.06 1063.85 1619.03 1026.46 1623.6 C 988.909 1628.19 954.774 1601.41 950.291 1563.85 C 945.808 1526.29 972.683 1492.23 1010.26 1487.86 z" fill="#E6E4DF" transform="translate(0,0)"></path>
<path d="M 1012.85 1523.59 C 1031.33 1520.19 1049.08 1532.34 1052.6 1550.8 C 1056.12 1569.25 1044.09 1587.08 1025.66 1590.73 C 1007.06 1594.42 989.006 1582.25 985.449 1563.61 C 981.893 1544.98 994.191 1527.01 1012.85 1523.59 z" fill="#08090A" transform="translate(0,0)"></path>
<path d="M 1013.62 1530.98 C 1028.49 1527.96 1043 1537.55 1046.05 1552.41 C 1049.1 1567.27 1039.53 1581.8 1024.67 1584.87 C 1009.78 1587.95 995.218 1578.36 992.163 1563.46 C 989.108 1548.56 998.722 1534.02 1013.62 1530.98 z" fill="#E6E4DF" transform="translate(0,0)"></path>
<path d="M 1019.65 116.385 C 1020.27 116.674 1021.79 117.775 1022.43 118.211 C 1033.98 141.281 1046.47 162.61 1059.01 185.137 L 1126.72 306.702 C 1168.35 382.168 1207.67 458.972 1248.62 534.805 C 1257.8 551.813 1313.07 649.746 1313.54 660.164 C 1313.68 663.279 1312.77 664.562 1310.97 666.866 C 1300.85 669.926 1214.74 668.951 1197.04 669.01 L 1026.25 670.418 L 836.632 671.018 L 774.98 671.239 C 761.068 671.313 746.97 671.852 733.125 670.815 C 729.106 667.852 734.892 658.032 736.892 654.19 C 746.891 634.983 757.432 616.041 767.554 596.893 C 787.809 557.681 808.311 518.597 829.058 479.643 L 965.934 218.797 L 1004.83 145.419 C 1009.35 136.894 1014.86 123.758 1019.65 116.385 z" fill="#E6E4DF" transform="translate(0,0)"></path>
<path d="M 1019.59 147.681 C 1021.28 149.324 1029.08 162.824 1030.96 165.965 C 1050.59 198.909 1068.91 233.084 1087.34 266.759 L 1211.17 495.932 C 1229.25 528.988 1246.88 562.286 1264.07 595.816 C 1274.21 615.123 1285.71 635.901 1294.96 655.505 C 1279.81 655.988 1264.65 656.161 1249.49 656.137 C 1172.83 656.014 1096.13 658.696 1019.5 659.106 L 819.52 660.958 C 805.543 661.024 759.562 662.897 748.924 659.794 L 747.903 657.928 C 749.738 648.751 767.573 618.947 772.971 609.118 L 809.709 541.6 C 857.25 450.725 905.435 360.189 954.262 269.998 C 975.56 230.055 997.723 187.035 1019.59 147.681 z" fill="#08090A" transform="translate(0,0)"></path>
<path d="M 1021.88 234.421 C 1032.89 240.05 1049.88 275.377 1056.35 287.355 L 1094.5 357.893 L 1235.61 620.065 C 1169.18 621.592 1101.44 619.997 1034.75 619.911 C 966.994 620.003 898.299 618.666 830.471 620.711 C 827.785 620.792 825.001 617.673 823.51 615.618 C 822.864 611.411 822.923 611.33 825.074 607.056 C 863.041 531.595 905.319 457.498 944.146 382.712 L 991.373 291.639 C 997.665 279.283 1014.63 244.59 1021.88 234.421 z" fill="#E6E4DF" transform="translate(0,0)"></path>
<path d="M 1022.74 261.661 C 1025.27 264.04 1029.45 271.765 1031.42 275.175 C 1084.17 366.632 1132.26 460.502 1183.25 552.905 C 1193.06 570.693 1203.24 589.183 1212.17 607.387 C 1197.58 609.035 1161.27 608.005 1145.06 607.95 C 1105.96 607.829 1066.85 607.948 1027.75 608.307 C 992.309 608.65 956.866 608.689 921.424 608.425 C 894.808 608.388 866.44 608.83 839.971 607.416 C 858.593 574.161 877.335 535.666 895.151 501.517 L 981.045 339.779 C 994.245 315.034 1008.7 285.419 1022.74 261.661 z" fill="#08090A" transform="translate(0,0)"></path>
<path d="M 1018.38 423.944 C 1056.18 417.777 1091.81 443.485 1097.87 481.306 C 1103.92 519.127 1078.11 554.676 1040.27 560.624 C 1002.59 566.548 967.218 540.864 961.185 503.198 C 955.152 465.533 980.732 430.087 1018.38 423.944 z" fill="#E6E4DF" transform="translate(0,0)"></path>
<path d="M 1024.85 459.405 C 1042.16 458.045 1057.32 470.923 1058.78 488.225 C 1060.23 505.528 1047.44 520.758 1030.14 522.31 C 1012.71 523.876 997.337 510.959 995.869 493.52 C 994.401 476.08 1007.4 460.775 1024.85 459.405 z" fill="#08090A" transform="translate(0,0)"></path>
<path d="M 1022.01 465.871 C 1035.69 462.984 1049.16 471.585 1052.3 485.209 C 1055.44 498.834 1047.09 512.462 1033.52 515.851 C 1024.53 518.099 1015.01 515.314 1008.65 508.565 C 1002.28 501.817 1000.06 492.158 1002.83 483.306 C 1005.6 474.453 1012.94 467.786 1022.01 465.871 z" fill="#E6E4DF" transform="translate(0,0)"></path>
<path d="M 1373.64 726.244 C 1382.95 729.932 1408.86 744.073 1418.43 749.107 L 1495.9 789.871 L 1687.44 890.241 L 1845.82 972.621 L 1893.76 997.044 C 1901.19 1000.8 1927.29 1011.85 1929.14 1019.78 C 1921.2 1026.75 1874.01 1050.63 1861.45 1057.01 C 1819.43 1078.33 1778.95 1102.49 1737.67 1124.32 C 1649.75 1171.23 1562.25 1218.92 1475.17 1267.38 C 1463.18 1274.02 1390.93 1316.14 1384.73 1316.09 C 1379.34 1309.98 1380.91 1242.3 1380.72 1229.15 L 1377.94 930.652 C 1377.27 886.838 1376.19 843.031 1374.7 799.238 C 1374.13 778.83 1372.49 745.717 1373.64 726.244 z" fill="#E6E4DF" transform="translate(0,0)"></path>
<path d="M 1384.33 746.222 C 1402.42 751.462 1436.44 770.906 1453.69 779.878 C 1514.19 811.932 1574.46 844.423 1634.48 877.348 C 1700.25 912.841 1768.01 945.917 1833.68 981.816 C 1855.54 993.767 1878.1 1004.7 1899.7 1017.16 C 1888.63 1025.55 1859.28 1041.24 1846.4 1048.45 L 1722.45 1116.29 L 1397.76 1292.79 C 1396.47 1205.07 1393.97 1117.37 1390.27 1029.72 C 1389.19 996.128 1389.97 962.175 1388.64 928.691 C 1386.22 867.76 1384.89 807.216 1384.33 746.222 z" fill="#08090A" transform="translate(0,0)"></path>
<path d="M 1425.54 813.24 C 1441.66 819.652 1462.74 831.35 1478.47 839.548 L 1580.05 893.059 L 1745.29 979.274 C 1758.65 986.227 1802.74 1006.38 1811.9 1014.33 C 1812.36 1015.47 1813.2 1016.56 1812.74 1017.8 C 1809.05 1027.73 1691.13 1087.34 1676.5 1095.07 C 1650.7 1108.33 1439.36 1228.39 1428.44 1229.59 C 1424.94 1226.51 1424.95 1219.11 1424.94 1214.57 C 1424.85 1184.64 1425.06 1154.71 1425.25 1124.78 C 1425.46 1085.95 1425.4 1047.11 1425.06 1008.27 L 1424.72 919.019 C 1424.28 882.424 1423.29 849.947 1425.54 813.24 z" fill="#E6E4DF" transform="translate(0,0)"></path>
<path d="M 1435.59 831.246 C 1440.48 833.435 1445.55 835.785 1450.29 838.269 C 1542.72 886.703 1634.03 937.302 1727.04 984.646 C 1746.64 994.622 1767.5 1005.13 1786.3 1016.5 C 1745.71 1039.47 1705.08 1060.53 1664.36 1083.54 L 1516.1 1165.32 C 1491.89 1178.59 1465.66 1193.57 1440.97 1205.37 L 1436.98 978.928 C 1436.4 930.417 1437.46 879.477 1435.59 831.246 z" fill="#08090A" transform="translate(0,0)"></path>
<path d="M 1550.86 957.381 C 1570.31 955.424 1596.31 959.785 1611.72 972.117 C 1664.8 1014.57 1623.96 1070.39 1569.25 1077.02 C 1533.54 1080.7 1487.78 1063.05 1482.04 1023.39 C 1480.13 1009.91 1483.93 996.253 1492.52 985.698 C 1506.22 968.531 1529.6 959.813 1550.86 957.381 z" fill="#E6E4DF" transform="translate(0,0)"></path>
<path d="M 1553.28 992.236 C 1569.06 991.083 1591.66 994.338 1596.47 1012.36 C 1597.89 1017.67 1597.07 1023.32 1594.2 1028 C 1588.04 1038.27 1576.59 1041.36 1565.89 1043.98 C 1518.88 1049.56 1498.48 1002.41 1553.28 992.236 z" fill="#08090A" transform="translate(0,0)"></path>
<path d="M 1549.67 999.204 C 1562.93 998.095 1583.89 997.879 1589.62 1013.64 C 1594.66 1027.53 1577.32 1034.64 1566.65 1037.75 C 1529.99 1043.64 1508.63 1011.6 1549.67 999.204 z" fill="#E6E4DF" transform="translate(0,0)"></path>
<path d="M 662.975 728.934 C 667.885 729.296 666.593 728.481 669.706 731.214 C 673.214 740 671.023 760.691 670.93 770.866 C 670.808 800.676 670.443 830.485 669.833 860.289 C 668.987 939.295 667.515 1018.29 665.419 1097.28 L 661.952 1233.8 C 661.276 1256.53 660.913 1280.55 658.849 1303.2 C 658.555 1306.42 658.775 1305.7 656.722 1307.25 C 647.317 1305.37 628.462 1295.43 618.978 1290.76 C 587.498 1275.25 556.659 1257.98 525.652 1241.6 L 311.653 1128.67 L 204.664 1071.37 C 191.93 1064.63 129.272 1034.16 122.106 1026.04 L 122.795 1023.43 C 126.483 1019.26 234.481 961.728 245.816 955.525 L 519.265 806.232 C 566.016 780.855 615.657 752.592 662.975 728.934 z" fill="#E6E4DF" transform="translate(0,0)"></path>
<path d="M 653.19 751.02 C 655.95 753.623 655.023 807.12 655.029 816.721 C 655.096 859.285 654.84 901.849 654.26 944.41 C 653.105 1058.94 656.174 1177.01 649.638 1291.16 C 625.163 1279.93 599.744 1264.99 575.435 1252.85 C 491.349 1210.86 409.047 1164.5 325.908 1120.78 C 287.711 1100.68 249.776 1080.08 212.113 1059 C 197.518 1051 164.068 1033.67 152.359 1024.52 C 163.44 1016.72 180.314 1007.99 192.457 1001.26 C 316.413 932.47 440.802 864.699 566.202 798.581 C 595.525 783.12 624.551 767.62 653.19 751.02 z" fill="#08090A" transform="translate(0,0)"></path>
<path d="M 613.821 817.947 C 622.124 817.787 624.474 822.624 624.381 830.355 C 624.047 858.042 623.541 885.791 623.506 913.48 C 623.911 972.53 623.801 1031.58 623.176 1090.63 L 621.857 1175.29 C 621.648 1185.56 623.083 1222.83 615.484 1228.62 C 606.285 1230.64 543.669 1195.83 532.054 1189.85 C 478.216 1162.7 424.948 1134.43 372.283 1105.07 C 329.577 1081.52 284.68 1059.21 242.058 1035.26 C 238.755 1033.4 235.476 1031.64 234.613 1028.28 C 237.905 1020.16 264.987 1008.13 273.675 1003.54 L 335.525 970.558 C 427.553 920.702 523.623 870.448 613.821 817.947 z" fill="#E6E4DF" transform="translate(0,0)"></path>
<path d="M 607.448 838.911 L 608.634 839.334 C 610.826 846.856 610.168 875.447 610.205 885.49 C 610.404 915.673 610.365 945.857 610.088 976.04 C 609.904 1053.32 612.566 1135.24 608.886 1212.02 C 590.419 1206.08 536.872 1176.96 518.163 1167.01 L 383.683 1095.54 C 343.895 1074.77 298.213 1050.45 259.61 1028.16 C 279.439 1016.95 301.399 1006.38 321.705 995.281 L 490.014 903.186 C 529.352 882.116 568.498 860.69 607.448 838.911 z" fill="#08090A" transform="translate(0,0)"></path>
<path d="M 478.344 968.332 C 484.387 967.461 495.336 967.585 501.329 968.769 C 583 984.914 588.022 1076.18 499.917 1091.85 C 448.044 1098.33 388.393 1052.77 424.985 997.191 C 436.145 980.241 458.434 971.14 478.344 968.332 z" fill="#E6E4DF" transform="translate(0,0)"></path>
<path d="M 484.139 999.152 C 531.489 995.858 539.584 1049.17 495.666 1057.54 C 451.513 1062.2 436.45 1010.77 484.139 999.152 z" fill="#08090A" transform="translate(0,0)"></path>
<path d="M 485.92 1005.17 C 498.51 1004.05 511.768 1007.86 516.039 1021.11 C 517.904 1026.87 517.323 1033.15 514.432 1038.47 C 509.524 1047.38 502.694 1049.79 493.77 1052.42 C 480.812 1052.79 466.389 1048.7 462.166 1034.86 C 460.467 1029.29 461.231 1023.26 464.266 1018.3 C 469.413 1009.77 477.096 1007.47 485.92 1005.17 z" fill="#E6E4DF" transform="translate(0,0)"></path>
<metadata><recraft-signature>{"signed_by": "recraft", "signature_b64": "USBuE/1JMy6fLyuACOR2ZrfU3DwQb3K17pXMUku38ogQG4AJ7HToQNoPy3L4esPqx3EaPImUuro2Ezgi7EILDQ==", "signing_algo": "Ed25519", "generation_timestamp": 1777129237, "identifier": "80a8fbea-c938-4e71-9e14-df4ece2b1391"}</recraft-signature></metadata></svg>