<svg xmlns="http://www.w3.org/2000/svg" height="1024" preserveAspectRatio="none" style="display: block;" version="1.1" viewBox="0 0 2048 1152" width="1820">
<path d="M 0 0 L 2048 0 L 2048 1152 L 0 1152 L 0 0 z" fill="#E6E4DF" transform="translate(0,0)"></path>
<path d="M 879.583 31.4458 C 887.97 32.7852 889.771 33.4561 895.995 39.083 L 899.382 269.822 C 915.704 270.778 916.977 266.701 930.346 267.819 L 928.358 35.6117 C 933.087 34.5148 938.369 33.6618 943.182 32.7802 C 945.148 54.991 944.237 91.7615 944.485 115.379 L 945.999 270.859 L 1085.01 274.045 L 1079.55 41.4063 C 1085.48 39.7838 1088.97 39.2886 1094.98 38.4585 C 1098.9 116.515 1098.53 195.568 1102.25 274.011 C 1112.48 273.909 1122.83 274.492 1133.06 274.955 C 1132.2 198.556 1128.09 120.012 1126.03 43.26 C 1130.87 41.8362 1136.89 40.5183 1141.88 39.2823 C 1142.47 61.4372 1144.26 84.2329 1144.89 106.787 C 1145.97 162.957 1147.61 219.114 1149.81 275.251 L 1272.94 277.84 C 1271.78 267.327 1271.53 252.023 1271.04 241.013 L 1268.08 174.584 L 1282.48 172.916 C 1283.64 207.067 1285.09 241.208 1286.82 275.335 C 1299.51 274.318 1302.59 274.66 1314.83 277.764 L 1311.19 176.64 C 1315.63 175.84 1320.93 174.312 1325.38 173.158 C 1326.36 208.379 1327.85 243.584 1329.85 278.761 C 1368.74 279.072 1401.64 280.554 1440.97 278.965 L 1437.9 291.002 C 1426.15 291.037 1333.73 287.891 1331.02 290.438 C 1329.4 298.56 1336.52 310.591 1337.43 320.095 C 1370.84 321.573 1406.41 321.106 1439.99 321.035 C 1440.23 325.182 1440.66 328.437 1439.62 332.469 C 1434.44 333.678 1404.32 332.344 1397.25 332.133 C 1375.8 331.381 1354.33 330.972 1332.86 330.904 C 1334.99 369.07 1337.2 409.577 1338.16 447.733 C 1340.39 448.405 1344.19 449.596 1346.47 449.701 C 1414.55 452.85 1482.84 449.539 1550.94 451.986 C 1549.46 456.271 1548.12 460.74 1546.76 465.074 C 1481.53 465.312 1408.51 462.461 1342.96 460.697 C 1341.97 472.374 1342.11 484.225 1342.06 495.952 C 1410.29 496.724 1478.52 497.08 1546.76 497.021 C 1548.64 502.254 1551.29 507.223 1553.79 512.202 C 1483.6 511.688 1412.47 508.427 1341.98 507.564 C 1343.43 550.024 1345.17 597.103 1348.56 639.214 C 1423.72 639.312 1501.88 640.738 1577 641.861 C 1575.9 646.576 1574.56 651.427 1573.34 656.127 C 1499.11 653.739 1424.86 651.757 1350.61 650.182 C 1352.02 661.699 1353.7 673.645 1354.14 685.205 C 1369.02 686.238 1386.87 686.089 1402.05 686.297 C 1433.77 686.8 1465.5 687.024 1497.23 686.969 C 1522.22 686.971 1548.88 686.533 1573.71 688.05 C 1575.72 692.877 1577.45 697.94 1579.22 702.872 C 1508.28 702.446 1436.36 698.515 1365.36 697.683 C 1362.59 697.65 1359.63 697.942 1357.14 699.217 C 1356.28 700.341 1353.49 704.073 1353.52 705.128 C 1354.6 740.107 1358.37 785.865 1360.05 819.936 C 1396.48 820.86 1432.91 821.596 1469.35 822.145 L 1466 835.894 C 1431.65 835.6 1395.2 833.921 1360.77 832.866 L 1361.92 865.116 C 1371.33 866.231 1388.34 866.189 1398.56 866.422 C 1421.66 866.755 1444.76 867.286 1467.86 868.013 L 1473.45 882.398 C 1436.63 881.001 1399.79 879.874 1362.95 879.018 C 1363.56 897.694 1364.54 916.355 1365.89 934.991 C 1366.7 945.414 1371.16 980.476 1367.4 988.861 C 1362.95 990.165 1355.61 985.56 1351.32 983.312 C 1350.19 949.47 1346.57 912.672 1344.77 878.222 C 1324.83 877.224 1333.52 884.217 1314.7 882.736 C 1316.83 909.31 1320.23 956.481 1319.83 981.895 C 1313.11 986.086 1310.21 987.258 1302.87 990.17 C 1301.32 952.531 1299.46 914.905 1297.29 877.296 L 1169.84 874.729 C 1169.75 921.233 1173.67 974.284 1176.56 1021.08 C 1178.2 1049.35 1179.51 1077.64 1180.49 1105.94 C 1175.84 1104.29 1169.41 1102.22 1165.18 1099.9 C 1159.99 1097.07 1160.31 1095.33 1159 1090.37 C 1158.65 1080.82 1158.64 1070.16 1158.75 1060.59 C 1159.44 998.464 1152.43 936.047 1151.87 874.103 C 1141.47 873.926 1130.87 873.974 1120.45 873.913 C 1119.66 921.775 1122.36 970.969 1122.9 1018.93 C 1123.2 1045.93 1128.43 1071.43 1125.87 1098.85 C 1118.85 1102.25 1115.12 1103.58 1107.68 1105.97 C 1106.6 1095.52 1106.56 1079.62 1106.28 1068.81 C 1105.64 1045.06 1105.21 1021.3 1105.02 997.546 C 1104.58 954.888 1102.91 915.559 1100.88 873.113 C 1056.2 871.607 999.331 869.812 955.276 870.665 C 956.204 903.413 955.93 937.032 956.375 969.906 C 957.295 1014.4 957.808 1058.9 957.915 1103.4 C 951.413 1100.57 945.71 1096.78 939.7 1093.03 C 936.169 1068.54 939.013 1037.24 939.048 1011.27 C 939.082 964.336 938.609 917.401 937.629 870.476 L 904.162 869.538 L 901.98 1093.07 C 895.705 1096.25 888.83 1098.53 882.202 1100.94 C 881.8 1083.86 882.974 1065.47 883.049 1048.26 C 883.307 989.451 888.067 928.015 886.614 869.446 L 756.41 866.464 C 753.059 879.766 753.974 903.603 753.878 918.039 C 753.755 938.769 753.447 959.498 752.955 980.222 C 746.123 977.185 741.457 974.965 734.959 971.284 C 735.467 942.956 739.533 911.345 740.079 881.765 C 737.469 878.092 733.696 870.451 731.254 866.136 L 707.127 865.636 C 707.133 900.436 704.562 936.138 705.121 970.672 L 685.629 976.68 C 686.467 942.679 689.503 907.93 690.371 873.254 C 683.652 869.655 684.992 864.757 677.76 864.373 C 666.564 863.778 655.289 863.869 644.065 863.685 C 621.211 863.362 598.359 862.897 575.511 862.288 C 577.801 858.056 581.608 852.93 584.429 848.889 C 619.535 849.256 656.084 851.036 691.311 852.04 C 692.645 831.542 692.926 834.865 683.446 818.128 C 650.563 817.965 617.878 816.983 584.971 816.944 L 580.867 803.911 C 616.393 803.905 655.296 805.662 690.965 807.048 C 692.461 779.22 696.76 720.217 693.615 690.92 C 691.312 688.211 689.344 685.897 687.711 683.976 C 679.957 682.556 667.763 682.919 659.434 682.794 L 613.067 682.108 L 459.165 679.88 L 466.057 665.044 C 491.747 664.644 519.03 666.134 544.84 667.095 L 694.996 672.956 C 695.516 654.729 694.565 653.94 692.369 636.036 L 466.128 631.808 C 464.288 627.263 461.997 622.421 459.976 617.913 C 538.759 619.208 617.099 623.194 695.952 624.848 C 696.154 608.467 697.278 591.205 697.676 574.625 C 698.054 549.854 698.218 525.08 698.167 500.306 C 696.598 498.129 695.367 495.477 694.132 493.067 L 480.31 488.862 C 482.112 484.687 484.992 479.664 487.183 475.579 C 514.427 475.386 542.644 477.181 569.938 478.09 L 698.002 481.991 C 698.17 471.134 698.426 460.279 698.769 449.427 C 690.911 448.707 682.744 446.95 675.148 446.665 C 646.238 445.581 616.921 445.377 588.002 445.14 L 488.036 443.342 L 481.894 428.954 C 554.387 431.296 626.394 434.79 698.976 435.105 C 698.9 395.724 700.101 356.415 700.014 316.842 C 664.998 316.223 629.498 313.766 594.483 313.917 L 592.494 299.813 C 625.957 304.093 658.261 306.053 692.065 306.884 C 693.471 306.918 697.906 306.649 698.458 305.574 C 702.353 297.984 701.458 280.306 701.16 272.952 C 665.265 271.779 631.916 270.819 595.937 270.829 C 593.533 266.236 592.506 262.873 590.896 258.014 C 625.524 258.003 664.772 262.629 701.422 262.906 C 700.53 227.443 700.481 190.408 699.886 154.73 C 705.133 155.916 710.002 157.967 715.014 159.91 L 715.976 263.27 L 745.47 263.994 C 745.564 228.493 745.42 192.992 745.037 157.493 C 750.724 157.809 753.472 158.27 759.088 159.402 C 761.03 191.035 760.403 232.419 761.101 264.911 C 800.969 265.615 843.178 267.792 883.226 269.053 C 882.696 189.834 879.732 110.888 879.583 31.4458 z" fill="#08090A" transform="translate(0,0)"></path>
<path d="M 951.627 498.968 C 995.07 498.621 1048.06 501.713 1092.46 502.834 L 1095.37 634.01 C 1047.87 633.296 1000.38 632.23 952.896 630.812 C 953.413 588.163 952.01 542.023 951.627 498.968 z" fill="#E6E4DF" transform="translate(0,0)"></path>
<path d="M 953.632 687.789 C 1001.29 689.525 1049.21 690.006 1096.96 691.564 C 1099.5 727.059 1099.54 778.581 1099.72 814.974 C 1083.11 815.262 1063.68 814.39 1046.96 814.037 L 954.287 812.195 C 953.595 771.073 953.86 728.994 953.632 687.789 z" fill="#E6E4DF" transform="translate(0,0)"></path>
<path d="M 947.903 322.8 C 993.474 323.153 1041.09 324.561 1086.7 325.826 C 1088.25 365.882 1089.36 405.955 1090.02 446.037 C 1055.12 445.734 1019.93 443.535 984.979 443.375 C 973.911 443.324 961.806 442.952 950.857 441.874 C 948.536 407.677 948.238 357.731 947.903 322.8 z" fill="#E6E4DF" transform="translate(0,0)"></path>
<path d="M 760.99 494.48 L 885.967 497.988 L 886.206 629.331 C 844.133 628.156 802.051 627.326 759.964 626.839 C 761.77 582.501 760.715 538.814 760.99 494.48 z" fill="#E6E4DF" transform="translate(0,0)"></path>
<path d="M 1157.89 504.025 C 1197.55 504.626 1240.16 505.129 1279.65 506.743 L 1285 638.067 C 1244.19 638.037 1202.84 636.504 1161.97 635.913 C 1160.25 593.112 1158.35 546.747 1157.89 504.025 z" fill="#E6E4DF" transform="translate(0,0)"></path>
<path d="M 759.043 684.314 C 771.948 683.909 788.88 684.704 802.17 684.996 C 830.082 685.594 857.99 686.353 885.893 687.272 C 885.98 699.833 887.286 807.753 884.83 811.171 L 756.485 808.909 L 759.043 684.314 z" fill="#E6E4DF" transform="translate(0,0)"></path>
<path d="M 1164.85 693.767 C 1205.14 694.224 1245.42 695.183 1285.69 696.642 C 1289.88 738.048 1293.39 777.17 1294.14 819.027 C 1252.49 817.62 1210.71 817.733 1169.07 816.273 C 1167.24 796.852 1166.74 774.344 1165.77 754.679 C 1164.92 737.585 1163.14 710.354 1164.85 693.767 z" fill="#E6E4DF" transform="translate(0,0)"></path>
<path d="M 760.13 317.995 C 800.738 318.063 843.05 319.873 883.772 321.149 C 884.251 360.787 884.944 400.422 885.852 440.052 C 844.205 439.6 802.565 438.636 760.942 437.16 L 760.13 317.995 z" fill="#E6E4DF" transform="translate(0,0)"></path>
<path d="M 1151.82 327.064 C 1191.69 328.178 1231.57 328.959 1271.45 329.408 L 1276.96 449.719 L 1155.2 447.468 C 1154.97 408.363 1152.92 366.376 1151.82 327.064 z" fill="#E6E4DF" transform="translate(0,0)"></path>
<path d="M 902.956 641.005 C 966.074 641.245 1029.65 644.999 1092.81 645.661 C 1109.73 645.839 1127.1 645.809 1143.95 646.951 C 1143.89 658.227 1144.01 669.502 1144.31 680.774 C 1118.65 679.56 1089.92 679.597 1063.93 679.003 C 1010.37 677.649 956.806 676.645 903.236 675.99 C 902.532 665.422 902.93 651.801 902.956 641.005 z" fill="#E6E4DF" transform="translate(0,0)"></path>
<path d="M 902.119 451.096 C 926.567 452.898 953.668 452.665 978.418 453.521 C 1031.74 455.367 1085.6 455.721 1138.89 457.819 C 1139.2 469.35 1139.97 480.743 1139.74 492.302 L 902.509 487.089 C 902.274 475.093 902.144 463.095 902.119 451.096 z" fill="#E6E4DF" transform="translate(0,0)"></path>
<path d="M 899.67 279.865 C 976.16 283.246 1057.1 282.982 1133.9 285.083 C 1134.3 295.685 1134.51 306.292 1134.53 316.901 C 1122.18 316.828 1109.14 316.301 1096.75 315.982 L 1093.67 315.602 C 1089 312.229 1087.12 307.417 1083.88 302.245 L 1082.95 302.294 C 1081.98 306.479 1082.88 311.527 1083.37 315.879 L 954.34 312.893 C 956.47 304.541 955.68 298.629 954.424 290.354 C 953.853 294.045 952.064 307.948 949.775 309.039 C 939.574 313.899 910.843 312.094 900.417 311.554 C 899.797 301.763 899.874 289.826 899.67 279.865 z" fill="#E6E4DF" transform="translate(0,0)"></path>
<path d="M 958.862 824.024 L 1100.19 829.618 C 1103.63 829.762 1116.67 827.957 1121.01 827.6 C 1132.12 826.683 1139.35 827.193 1150.44 828.256 C 1150.34 839.485 1150.63 848.331 1151.37 859.546 L 1151.32 860.663 C 1147.73 862.393 977.694 858.216 958.937 857.921 L 958.862 824.024 z" fill="#E6E4DF" transform="translate(0,0)"></path>
<path d="M 1174.44 828.096 C 1186.09 827.929 1202.72 829.137 1214.98 829.522 C 1241.56 830.398 1268.16 830.961 1294.75 831.209 L 1295.62 842.148 C 1301.21 838.443 1307.13 834.785 1312.81 831.187 C 1321.72 831.969 1332.98 832.034 1342.08 832.326 C 1342.55 840.276 1342.92 848.231 1343.2 856.189 C 1343.63 859.497 1344.52 862.464 1342.29 864.923 C 1329.94 865.934 1303.41 864.652 1289.46 864.469 L 1172.93 862.755 C 1174.23 850.429 1175.9 840.37 1174.44 828.096 z" fill="#E6E4DF" transform="translate(0,0)"></path>
<path d="M 714.874 273.912 C 768.274 273.774 828.82 277.264 883.129 278.521 C 883.265 282.358 883.855 287.391 882.392 290.736 C 880.124 291.017 880.2 291.011 878.135 292.01 C 875.516 295.323 875.371 301.529 874.849 305.95 L 874.847 309.017 C 870.718 312.231 783.403 308.368 768.55 307.912 C 767.26 305.503 766.575 304.683 764.839 302.559 C 760.091 300.83 759.427 301.963 756.583 305.291 C 749.13 308.354 726.32 307.129 717.05 306.994 C 716.07 295.985 715.345 284.955 714.874 273.912 z" fill="#E6E4DF" transform="translate(0,0)"></path>
<path d="M 1149.67 285.705 C 1162.94 285.006 1184.93 285.983 1198.72 286.176 L 1315.88 288.957 C 1315.9 299.366 1316.28 309.77 1317.02 320.152 L 1297.75 319.694 L 1274.63 319.072 C 1270.45 308.442 1272.09 308.429 1269.85 301.332 C 1265.43 303.459 1268.32 313.401 1265.84 318.996 C 1253.79 319.689 1237.86 318.964 1225.35 318.736 C 1203.49 318.399 1181.62 317.926 1159.76 317.317 C 1155.65 302.618 1149.56 300.948 1149.67 285.705 z" fill="#E6E4DF" transform="translate(0,0)"></path>
<path d="M 716.123 317.132 C 725.355 317.009 735.77 317.609 745.088 317.947 C 746.776 356.728 745.527 396.563 745.889 435.423 C 745.936 440.443 742.917 441.551 744.761 448.599 C 746.211 454.14 747.534 479.379 744.751 483.122 L 714.686 482.931 C 714.614 471.07 714.462 459.057 714.945 447.208 C 715.144 442.342 716.879 443.237 718.613 439.227 C 717.448 437.733 715.271 434.939 715.264 433.081 C 715.221 420.937 715.342 408.192 715.45 396.118 L 716.123 317.132 z" fill="#E6E4DF" transform="translate(0,0)"></path>
<path d="M 1302.88 649.781 C 1312.3 650.049 1322.17 649.949 1331.63 649.993 C 1332.39 669.206 1343.48 814.878 1340.9 819.626 L 1338.25 820.064 C 1329.7 819.829 1321.15 819.695 1312.6 819.663 C 1309.71 780.507 1309.11 740.382 1306.38 701.107 C 1306.12 697.266 1308.37 699.289 1310.84 696.895 C 1310.74 693.416 1310.96 690.997 1309.1 688.009 C 1305.67 686.19 1303.96 685.178 1303.67 681.084 C 1302.96 670.791 1303.02 660.096 1302.88 649.781 z" fill="#E6E4DF" transform="translate(0,0)"></path>
<path d="M 1288.46 329.681 L 1317.11 330.383 C 1320.2 364.42 1320.08 401.882 1321.92 436.258 C 1323 456.389 1324.58 475.576 1325.48 495.842 C 1315.68 495.548 1305.87 495.338 1296.07 495.211 C 1293.93 471.133 1293.23 441.962 1292.33 417.569 L 1288.46 329.681 z" fill="#E6E4DF" transform="translate(0,0)"></path>
<path d="M 761.118 447.862 C 800.301 448.28 840.314 449.325 879.474 450.377 C 880.949 467.091 886.41 464.685 885.802 486.58 C 844.181 485.779 802.566 484.647 760.963 483.183 L 761.118 447.862 z" fill="#E6E4DF" transform="translate(0,0)"></path>
<path d="M 759.573 637.592 L 886.447 640.315 C 886.513 646.289 887.245 658.009 885.849 663.176 C 883.95 664.536 884.986 664.262 882.627 663.969 L 880.67 665.984 C 881.009 669.437 881.231 670.868 880.761 674.411 C 877.23 676.419 769.392 672.175 759.178 671.855 C 759.154 660.432 759.285 649.011 759.573 637.592 z" fill="#E6E4DF" transform="translate(0,0)"></path>
<path d="M 902.703 498.084 L 934.212 498.969 C 936.615 537.284 936.011 590.85 935.654 629.743 C 933.115 630.984 907.484 629.934 902.919 629.815 C 901.72 587.957 902.85 540.55 902.703 498.084 z" fill="#E6E4DF" transform="translate(0,0)"></path>
<path d="M 1162.67 647.127 C 1203.58 648.317 1244.55 648.158 1285.59 649.647 L 1286.87 684.857 C 1247.51 683.607 1208.13 682.63 1168.75 681.927 C 1166.21 669.63 1163 659.773 1162.67 647.127 z" fill="#E6E4DF" transform="translate(0,0)"></path>
<path d="M 902.971 687.906 L 936.307 688.17 C 935.903 728.567 937.095 771.159 937.335 811.785 C 926.551 811.93 914.481 811.399 903.609 811.155 C 901.711 774.181 903.009 725.691 902.971 687.906 z" fill="#E6E4DF" transform="translate(0,0)"></path>
<path d="M 757.16 821.009 C 782.908 821.045 808.655 821.379 834.396 822.011 C 847.353 822.227 861.984 821.894 874.728 822.77 C 876.907 832.428 879.718 846.867 882.338 856.039 C 851.221 856.215 820.32 855.432 789.218 854.531 C 784.284 854.388 756.292 854.144 753.004 853.313 C 752.931 847.729 752.552 841.713 753.842 836.328 C 756.199 829.591 756.731 828.043 757.16 821.009 z" fill="#E6E4DF" transform="translate(0,0)"></path>
<path d="M 1157.96 458.062 C 1197.28 457.849 1238.24 459.515 1277.72 460.45 C 1277.99 472.031 1278.39 483.608 1278.91 495.18 C 1239.63 493.956 1200.35 493.145 1161.05 492.747 C 1159.81 481.727 1158.05 469.01 1157.96 458.062 z" fill="#E6E4DF" transform="translate(0,0)"></path>
<path d="M 715.041 493.292 C 723.882 493.029 739.244 493.509 745.652 500.346 C 747.079 507.102 745.738 617.176 744.117 621.43 L 741.92 621.02 C 736.246 622.034 738.246 621.011 734.115 625.398 C 729.216 626.719 718.515 626.035 712.94 625.885 C 715.474 583.345 714.532 536.165 715.041 493.292 z" fill="#E6E4DF" transform="translate(0,0)"></path>
<path d="M 1110.69 502.991 C 1120.76 503.031 1130.82 503.348 1140.87 503.941 C 1141.18 546.819 1143.19 591.904 1143.96 635.223 L 1114.19 634.701 C 1112.53 590.812 1111.36 546.906 1110.69 502.991 z" fill="#E6E4DF" transform="translate(0,0)"></path>
<path d="M 711.78 682.883 L 742.968 683.151 C 743.209 724.988 741.43 766.811 737.636 808.476 C 730.418 809.39 716.117 808.26 708.42 807.861 C 708.88 766.649 711.061 724.508 711.78 682.883 z" fill="#E6E4DF" transform="translate(0,0)"></path>
<path d="M 1103.56 325.873 C 1114 325.864 1124.58 326.431 1135.02 326.879 C 1137.3 363.8 1138.25 409.955 1138.94 447.067 C 1128.55 447.048 1117.51 446.484 1107.08 446.132 C 1106.91 406.828 1104.76 365.375 1103.56 325.873 z" fill="#E6E4DF" transform="translate(0,0)"></path>
<path d="M 1297.02 506.284 C 1306.41 506.827 1316.11 506.812 1325.54 506.92 C 1326.14 549.071 1328.31 596.985 1330.88 639.066 C 1321.14 638.598 1311.39 638.298 1301.63 638.166 C 1300.62 594.394 1297.58 549.876 1297.02 506.284 z" fill="#E6E4DF" transform="translate(0,0)"></path>
<path d="M 1115.25 692.805 C 1125.2 692.854 1135.16 692.987 1145.11 693.204 C 1145.59 697.06 1145.74 701.178 1145.82 705.078 C 1146.62 741.76 1148.99 778.48 1150.09 815.124 C 1139.44 814.885 1128.8 814.714 1118.15 814.61 C 1118.04 776.576 1116.96 730.898 1115.25 692.805 z" fill="#E6E4DF" transform="translate(0,0)"></path>
<path d="M 900.599 321.274 C 910.513 321.847 921.265 321.997 931.255 322.331 C 932.349 362.228 932.959 402.137 933.086 442.048 L 902.001 440.845 C 902.107 401.202 900.924 361.044 900.599 321.274 z" fill="#E6E4DF" transform="translate(0,0)"></path>
<path d="M 707.928 818.457 C 719.388 815.615 729.204 816.101 740.875 816.093 C 744.065 822.385 748.881 827.122 751.047 834.22 L 753.842 836.328 C 752.552 841.713 752.931 847.729 753.004 853.313 L 751.655 853.005 C 744.783 853.879 716.217 852.783 707.773 852.614 C 707.494 841.225 707.751 829.847 707.928 818.457 z" fill="#E6E4DF" transform="translate(0,0)"></path>
<path d="M 751.047 834.22 L 753.842 836.328 C 752.552 841.713 752.931 847.729 753.004 853.313 L 751.655 853.005 C 751.052 846.14 751.02 841.077 751.047 834.22 z" fill="#5C5D62" transform="translate(0,0)"></path>
<path d="M 903.032 823.021 C 943.586 823.764 946.689 815.705 947.366 857.35 L 903.044 856.973 L 903.032 823.021 z" fill="#E6E4DF" transform="translate(0,0)"></path>
<path d="M 712.407 635.999 C 723.695 635.821 733.643 634.523 743.949 638.855 L 743.065 679.068 C 736.765 679.357 718.665 676.182 711.798 675.164 C 711.836 662.107 712.039 649.051 712.407 635.999 z" fill="#E6E4DF" transform="translate(0,0)"></path>
<metadata><recraft-signature>{"signed_by": "recraft", "signature_b64": "JOdFnUvaRqAYcgyjyOV9wKYnf2pfzaicKAO2jlv3W6+34Sk4OyqH580nRiFMxDI0P+tMCrbvxPDq5OG1WKegAQ==", "signing_algo": "Ed25519", "generation_timestamp": 1777130899, "identifier": "fd65c652-00ea-4769-a813-16f614c899b0"}</recraft-signature></metadata></svg>