<svg xmlns="http://www.w3.org/2000/svg" height="1024" preserveAspectRatio="none" style="display: block;" version="1.1" viewBox="0 0 2048 1152" width="1820">
<path d="M 0 0 L 2048 0 L 2048 663.41 L 2048 1152 L 0 1152 L 0 912.52 L 0 0 z" fill="#08090A" transform="translate(0,0)"></path>
<path d="M 0 0 L 2048 0 L 2048 663.41 C 2026.83 654.721 1996.26 639.345 1974.67 629.41 C 1914.53 601.28 1854.24 573.472 1793.81 545.988 C 1778.05 538.87 1762.37 531.585 1746.77 524.132 C 1739.56 520.731 1722.31 512.3 1715.08 510.254 C 1714.85 498.117 1714.86 485.978 1715.1 473.842 C 1706.62 467.552 1697.05 461.472 1688.2 455.622 C 1693.66 424.144 1698.41 390.843 1703 359.162 C 1689.88 352.66 1596.6 311.464 1589.05 311.437 C 1584.56 315.683 1581.93 339.961 1580.74 347.638 C 1573.6 345.055 1550.68 335.624 1544.89 336.725 C 1540.45 343.187 1533.68 404.127 1531.72 416.922 C 1520.15 412.131 1508.35 406.882 1496.81 401.928 C 1498.98 390.211 1511.58 316.58 1510.33 307.702 C 1503.86 302.455 1456.33 281.443 1444.82 276.178 C 1385.35 248.987 1325.33 219.656 1265.53 193.344 C 1261.29 194.504 1256.88 195.558 1252.61 196.638 C 1241.55 259.703 1231.04 322.861 1221.07 386.107 C 1210.33 390.349 1199.7 394.873 1189.19 399.675 C 1182.57 402.751 1142.3 423.002 1138.42 423.557 C 1136.41 419.291 1139.56 412.275 1141.14 407.667 C 1148.35 408.743 1157.98 410.213 1165.08 407.71 C 1173.22 404.836 1169.92 398.351 1173.18 390.201 L 1173.99 389.676 C 1182.58 384.063 1175.33 382.038 1175.95 377.978 C 1177.37 368.711 1193.32 343.652 1187.53 335.192 C 1183.86 332.609 1178.51 333.11 1173.86 333.003 L 1172.89 331.461 L 1173.5 329.671 C 1174.07 329.605 1174.65 329.533 1175.22 329.457 C 1177.84 329.092 1178.02 329.509 1179.75 327.433 C 1187.67 317.906 1204.93 287.848 1190.72 277.858 C 1186.11 278.062 1186.8 279.678 1182.2 281.859 C 1166.57 289.868 1149.87 275.728 1135.41 271.824 C 1110.97 265.227 1103.49 268.837 1085.56 282.868 C 1071.64 293.757 1060.98 291.968 1055.19 313.694 C 1046.43 346.586 1068.39 359.388 1081.26 382.742 C 1081.01 388.548 1079.99 394.101 1079.07 399.829 C 1057.83 405.045 1036.8 424.444 1023.71 441.407 C 1010.81 446.267 994.91 454.506 982.093 460.472 L 892.081 502.935 L 891.975 114.686 C 847.2 92.3932 801.693 71.4537 756.976 49.0203 C 751.657 46.352 746.558 44.05 741.041 41.831 C 693.982 63.136 640.637 89.6839 594.626 113.432 L 595.015 551.537 L 595.147 660.949 C 595.192 671.712 595.879 707.42 594.676 715.131 C 572.035 724.758 548.02 736.934 525.119 747.138 L 524.951 669.931 L 524.817 426.282 L 524.849 330.449 C 524.82 316.858 525.381 296.158 524.589 283.12 C 479.925 257.864 430.694 237.272 384.882 214.014 C 377.488 210.26 372.639 208.336 365.206 212.446 C 353.166 218.088 341.382 224.142 329.459 230.018 L 275.959 255.956 C 259.88 263.853 242.824 271.577 227.286 280.491 C 225.154 281.714 222.586 284.213 222.542 286.788 C 221.396 301.618 221.897 318.479 221.937 333.267 L 222.021 431.672 L 221.917 806.97 C 207.182 811.585 160.329 835.886 143.936 843.859 L 0 912.52 L 0 0 z" fill="#5C5D62" transform="translate(0,0)"></path>
<path d="M 524.951 669.931 L 571.044 648.306 C 576.569 645.654 589.15 638.99 594.38 637.016 C 594.163 654.494 594.05 671.973 594.041 689.452 C 594.041 694.769 593.816 710.313 594.676 715.131 C 572.035 724.758 548.02 736.934 525.119 747.138 L 524.951 669.931 z" fill="#E6E4DF" transform="translate(0,0)"></path>
<path d="M 1715.08 510.254 C 1722.31 512.3 1739.56 520.731 1746.77 524.132 C 1762.37 531.585 1778.05 538.87 1793.81 545.988 C 1854.24 573.472 1914.53 601.28 1974.67 629.41 C 1996.26 639.345 2026.83 654.721 2048 663.41 L 2048 1152 L 0 1152 L 0 912.52 L 143.936 843.859 C 160.329 835.886 207.182 811.585 221.917 806.97 C 221.761 834.015 221.778 861.061 221.966 888.106 C 196.541 900.721 169.833 912.277 144.341 924.67 C 132.538 930.408 104.28 941.497 95.6963 948.722 L 95.6989 950.182 C 100.847 956.051 119.647 962.854 127.736 966.844 C 163.701 984.566 199.851 1001.91 236.181 1018.87 C 280.592 1040 330.655 1065.66 375.128 1085.1 C 438.734 1052.53 506.255 1021.16 570.813 989.5 C 585.922 982.093 601.073 974.772 616.265 967.537 C 622.367 964.613 648.321 953.471 649.425 948.142 C 641.04 942.954 621.794 934.58 612.254 929.977 C 582.989 916.189 553.853 902.129 524.85 887.801 L 524.995 804.792 C 562.122 822.605 599.5 839.927 636.709 857.591 C 670.967 873.854 707.959 893.498 742.656 907.966 C 817.17 871.211 891.928 834.955 966.926 799.199 L 967.003 829.242 C 979.355 835.224 991.671 841.283 1003.95 847.416 C 1031.54 833.851 1059.25 820.515 1087.06 807.41 C 1086.74 842.183 1086.65 876.957 1086.81 911.73 C 1068.19 904.015 1048.65 892.969 1030.09 885.999 C 1025.26 887.917 1018.17 891.785 1013.36 894.226 C 1013.1 898.481 1013.22 903.758 1013.21 908.097 C 1029.24 916.579 1050.03 925.529 1066.78 933.263 C 1048.72 943.05 1028.26 951.5 1010.75 962.231 C 1007.8 964.041 1008.51 970.44 1008.96 973.537 C 1010.6 976.321 1022.69 981.575 1026.71 983.581 C 1049.88 972.736 1074.22 958.695 1097 948.985 C 1119.57 958.174 1147.8 972.643 1170.21 983.408 C 1175.61 980.752 1183.02 977.491 1187.53 973.786 C 1194.65 958.269 1142.93 939.626 1130.38 933.554 C 1138.96 929.182 1180.99 909.919 1185.27 905.89 C 1186.58 902.269 1185.67 897.049 1185.28 893.064 C 1187.56 891.914 1204.08 889.314 1208.44 888.243 C 1206.59 899.621 1205.21 914.139 1208.39 925.267 C 1211.13 934.846 1230.68 932.791 1236.06 934.643 C 1247.36 938.531 1259.02 944.722 1269.83 949.889 L 1490.02 1055.03 C 1532.49 1075.42 1575.18 1095.34 1618.09 1114.78 C 1706.4 1073.29 1794.43 1031.2 1882.17 988.5 C 1918.84 970.9 1955.91 954.004 1992.3 935.807 C 1994.46 934.727 1994.89 933.666 1995.32 931.601 L 1994.43 930.73 C 1985.59 927.71 1969.31 938.916 1960.81 942.985 L 1900.92 971.365 L 1715.55 1060.18 C 1683.86 1075.3 1650.03 1092.61 1617.79 1106.22 C 1608.47 1102.84 1595.29 1096.23 1586.01 1091.93 L 1517.64 1059.56 C 1469.25 1037.12 1421.01 1014.34 1372.95 991.21 C 1332.64 971.84 1291.57 951.223 1250.64 933.269 C 1273.41 932.765 1293.92 927.981 1314.76 918.697 C 1322.84 914.509 1332.92 913.609 1330.63 901.932 C 1325.27 874.566 1286.64 890.913 1276.32 883.203 C 1276.13 882.591 1275.89 881.835 1275.61 880.934 C 1278.47 875.114 1284.68 863.466 1285.89 857.199 C 1288.44 844.049 1291.35 831.833 1294.45 818.823 C 1301.72 788.316 1309.83 757.431 1313.59 726.31 C 1317.94 699.986 1310.33 666.189 1282.65 655.159 C 1260.75 646.434 1231.81 639.276 1209.18 630.356 C 1202.91 627.886 1191.94 626.582 1185.11 625.816 C 1208.3 624.065 1216.51 621.411 1238.13 612.161 C 1252.62 618.247 1271.7 628.295 1286.4 635.238 L 1391.87 685.108 C 1455.69 715.544 1522.39 745.369 1585.25 776.969 L 1585.15 973.347 C 1585.16 985.205 1584.39 1043.53 1586.43 1052.11 C 1590.56 1057.57 1611.94 1065.94 1619.09 1069.04 L 1785.94 989.993 C 1807.53 979.727 1835.4 967.779 1855.95 956.622 C 1856.94 919.88 1856.06 878.73 1856.04 841.628 L 1855.97 620.839 C 1843.61 613.851 1819.97 603.959 1806.19 597.61 C 1775.96 583.425 1745.6 569.52 1715.1 555.896 L 1715.08 510.254 z" fill="#E6E4DF" transform="translate(0,0)"></path>
<path d="M 892.081 502.935 L 982.093 460.472 C 994.91 454.506 1010.81 446.267 1023.71 441.407 C 1008.29 464.664 1001.53 486.95 994.903 514.117 C 961.388 528.562 967.746 527.499 966.9 562.007 C 962.361 564.144 945.573 571.883 945.875 577.124 C 947.077 597.933 954.784 650.103 965.022 667.208 C 965.696 668.33 966.383 669.443 967.084 670.548 L 967.145 746.834 C 944.209 735.457 914.656 719.371 892.097 709.24 L 892.081 502.935 z" fill="#E6E4DF" transform="translate(0,0)"></path>
<path d="M 515.298 375.869 L 516.739 376.272 C 517.574 379.368 517.349 407.069 517.364 411.513 L 517.368 514.674 L 517.101 932.974 C 489.39 946.037 462.22 960.915 434.507 974.099 C 415.901 982.95 397.06 992.437 378.849 1002.08 L 377.384 1000.84 C 376.567 979.53 377.075 955.926 377.084 934.391 L 377.199 815.876 L 377 443.23 C 421.347 420.512 470.106 398.043 515.298 375.869 z" fill="#E6E4DF" transform="translate(0,0)"></path>
<path d="M 229.882 376.436 C 276.248 397.742 322.468 422.258 369.194 443.261 L 369.598 1000.78 C 362.708 998.456 339.126 986.569 330.915 982.706 L 229.699 933.871 C 231.191 800.006 228.38 665.195 229.759 531.241 C 230.288 479.947 228.563 427.643 229.882 376.436 z" fill="#E6E4DF" transform="translate(0,0)"></path>
<path d="M 882.961 208.962 L 883.821 209.38 C 885.935 212.984 884.285 704.303 884.142 758.64 L 748.322 826.377 L 747.012 826.716 C 744.815 823.354 745.938 774.512 745.932 767.202 L 745.879 636.87 L 746.078 274.673 C 791.063 254.42 836.976 229.603 882.961 208.962 z" fill="#E6E4DF" transform="translate(0,0)"></path>
<path d="M 847.73 380.918 C 849.248 380.912 850.069 381.431 851.447 382.051 C 853.297 385.24 852.186 480.147 852.171 490.279 C 833.57 500.19 805.911 512.34 786.3 521.6 C 783.797 521.895 784.986 522.134 782.707 520.507 C 780.337 513.097 781.825 427.295 781.615 412.381 C 799.332 402.825 828.462 390.215 847.73 380.918 z" fill="#08090A" transform="translate(0,0)"></path>
<path d="M 843.731 390.983 C 843.862 391.079 844.023 391.144 844.125 391.271 C 846.759 394.53 845.25 474.41 845.224 485.349 C 826.958 494.365 808.62 503.234 790.212 511.956 C 788.043 509.768 788.961 426.954 788.975 416.587 C 805.571 410.011 827.233 398.882 843.731 390.983 z" fill="#E6E4DF" transform="translate(0,0)"></path>
<path d="M 827.723 462.955 C 830.656 463.721 829.585 463.112 831.747 465.365 L 831.455 467.755 C 827.879 471.72 811.741 478.702 806.444 481.171 C 803.494 480.758 804.426 481.299 802.44 479.434 L 802.819 477.109 C 806.541 472.135 821.418 465.912 827.723 462.955 z" fill="#08090A" transform="translate(0,0)"></path>
<path d="M 827.564 443.906 C 830.681 445.194 829.703 444.315 831.318 447.146 C 829.04 453.009 811.973 459.773 805.491 462.902 L 803.037 461.808 L 802.598 459.817 C 805.046 454.036 821.217 447.143 827.564 443.906 z" fill="#08090A" transform="translate(0,0)"></path>
<path d="M 827.028 425.876 C 830.019 426.01 828.89 425.593 831.39 427.243 L 831.417 429.272 C 828.334 433.899 813.116 440.256 807.319 442.958 C 805.283 443.318 805.898 443.197 803.68 442.285 L 802.803 439.908 C 804.655 434.943 821.324 428.518 827.028 425.876 z" fill="#08090A" transform="translate(0,0)"></path>
<path d="M 848.109 271.893 C 849.531 271.827 849.876 272.136 851.271 272.635 C 853.909 277.197 852.801 341 852.777 351.375 C 836.949 360.396 804.215 374.768 787.257 382.513 C 785.606 382.273 785.358 381.963 783.849 381.199 C 780.983 375.741 782.07 314.023 782.075 303.352 C 798.922 293.726 828.973 281.494 848.109 271.893 z" fill="#08090A" transform="translate(0,0)"></path>
<path d="M 844.831 281.986 C 846.521 285.302 845.551 339.256 845.538 346.943 C 829.014 355.982 808.582 364.64 791.161 373.057 L 789.881 372.401 C 788.517 367.126 789.308 317.199 789.39 307.796 C 807.995 299.333 826.14 290.223 844.831 281.986 z" fill="#E6E4DF" transform="translate(0,0)"></path>
<path d="M 827.481 308.508 C 829.924 309.233 828.844 308.622 830.705 310.61 C 830.776 314.584 825.244 322.074 822.816 325.833 C 826.812 328.991 829.728 330.145 829.72 335.42 L 827.953 336.563 C 824.306 336.751 822.089 334.454 819.129 332.191 C 815.896 338.364 814.568 341.406 809.865 346.721 C 808.044 346.21 807.915 345.871 806.538 344.599 C 806.162 340.486 811.32 333.385 813.737 329.518 C 808.98 326.804 805.872 326.294 806.339 320.604 L 808.604 319.387 C 812.42 319.241 814.037 320.84 817.188 323.057 C 820.827 317.339 823.102 313.781 827.481 308.508 z" fill="#08090A" transform="translate(0,0)"></path>
<path d="M 602.089 209.792 C 646.403 232.189 693.701 253.612 738.723 275.136 L 738.336 825.758 C 734.488 825.661 614.463 766.857 602.009 760.488 C 601.609 738.386 601.784 715.631 601.974 693.512 C 603.361 532.453 599.948 370.784 602.089 209.792 z" fill="#E6E4DF" transform="translate(0,0)"></path>
<path d="M 1622.71 735.948 C 1664.92 715.417 1707.26 695.15 1749.72 675.148 C 1782.18 659.701 1815.33 643.385 1848.08 628.753 C 1848.15 649.394 1848.09 670.036 1847.9 690.676 C 1849.34 753.752 1847.02 817.512 1848.01 880.65 C 1848.14 888.852 1848.29 898.21 1847.9 906.337 C 1848.71 918.117 1848.01 939.579 1848 952.098 C 1773.29 988.294 1696.94 1022.41 1622.69 1059.11 L 1622.71 735.948 z" fill="#E6E4DF" transform="translate(0,0)"></path>
<path d="M 1847.9 906.337 C 1847.26 903.499 1846.7 898.328 1846.72 895.389 C 1846.83 876.362 1845.8 857.478 1844.56 838.541 L 1844.29 842.964 C 1840.56 833.864 1842.43 758.7 1844.08 745.571 L 1844.58 755.037 C 1847.05 739.05 1845.22 710.519 1847.9 690.676 C 1849.34 753.752 1847.02 817.512 1848.01 880.65 C 1848.14 888.852 1848.29 898.21 1847.9 906.337 z" fill="#A4A2A0" transform="translate(0,0)"></path>
<path d="M 1217.3 394.915 L 1218.67 395.549 C 1219 404.808 1212.92 419.571 1216.2 428.195 C 1218.82 435.111 1243.43 443.678 1250.57 446.926 C 1276.46 458.887 1302.46 470.605 1328.57 482.08 C 1316.38 488.899 1303.8 495.677 1291.96 503.099 C 1288.87 505.033 1288.39 505.678 1288.57 508.882 C 1289.71 510.825 1291.39 512.162 1293.49 512.962 C 1317.84 522.262 1342.01 533.886 1366.18 543.352 C 1377.04 533.547 1387.76 523.59 1398.34 513.486 C 1418.34 522.149 1439.49 531.717 1459.74 539.466 C 1466.76 537.713 1474.57 535.675 1476.62 527.516 C 1480.34 512.765 1482.18 497.169 1484.42 482.093 C 1488.01 457.398 1491.94 432.754 1496.22 408.17 C 1506.24 413.175 1520.55 419.022 1531.06 423.688 C 1530.1 429.731 1529.48 437.849 1528.85 444.084 C 1519.81 448.17 1510.92 452.872 1502.09 457.418 C 1500.81 505.914 1502 560.247 1502.16 609.028 C 1505.45 611.008 1508.51 612.472 1511.94 614.149 C 1552.08 633.787 1593.18 651.321 1633.63 670.27 C 1660.72 657.411 1688.01 643.687 1715 630.48 L 1715.33 564.456 C 1741.97 575.801 1770.28 589.429 1796.75 601.603 C 1811.76 608.514 1826.71 615.575 1841.58 622.784 C 1785.25 651.072 1726.87 676.958 1670.25 704.849 C 1644.24 717.658 1615.73 731.464 1588.97 742.4 C 1551.29 722.961 1507.47 703.132 1468.84 684.99 L 1323.41 616.371 C 1337.21 610.288 1366.21 596.12 1379.14 588.353 C 1379.2 583.87 1378.99 578.879 1378.9 574.352 C 1370.99 570.337 1350.81 562.962 1344.94 558.261 C 1344.9 556.895 1344.62 554.39 1343.79 553.287 C 1324.47 527.507 1317.81 530.139 1292.54 544.931 C 1273.25 536.956 1245.32 524.392 1227.02 514.73 C 1216.33 519.426 1205.4 523.953 1194.64 528.517 C 1186.13 481.009 1181.22 459.396 1143.03 429.551 C 1166.24 417.844 1193.47 405.928 1217.3 394.915 z" fill="#E6E4DF" transform="translate(0,0)"></path>
<path d="M 1255.75 215.863 C 1276.65 224.202 1299.38 236.405 1320.17 245.665 C 1376.47 270.746 1433.62 300.722 1490.29 324.416 C 1482.45 381.634 1471.19 438.872 1463.39 496.145 C 1456.04 492.256 1443.57 487.115 1435.7 483.544 L 1382.33 459.072 L 1227.6 387.237 C 1236.2 330.336 1247.61 272.799 1255.75 215.863 z" fill="#E6E4DF" transform="translate(0,0)"></path>
<path d="M 1263.8 334.369 C 1270.23 336.628 1286.3 344.524 1293.03 347.724 C 1306.12 353.954 1324.75 360.98 1336.77 368.031 C 1334.55 376.445 1329.72 400.27 1329.84 408.474 C 1331.24 411.234 1334.54 412.347 1337.51 413.855 C 1340.26 401.887 1342.16 383.668 1344.54 370.588 C 1355.41 375.304 1376.04 383.352 1386.06 390.439 C 1387.55 391.488 1386.79 394.19 1386.56 396.238 C 1384.33 410.312 1381.89 424.353 1379.25 438.356 C 1360.28 431.769 1329.49 416.341 1310.05 407.893 C 1295.95 401.766 1267.56 389.802 1255.1 382.827 C 1255.58 373.802 1261.17 342.75 1263.8 334.369 z" fill="#08090A" transform="translate(0,0)"></path>
<path d="M 1349.56 380.06 C 1359.85 384.53 1370.05 389.216 1380.15 394.114 C 1378.44 406.036 1376.53 417.929 1374.44 429.789 C 1365.6 425.245 1352.79 420.012 1343.45 415.859 L 1349.56 380.06 z" fill="#E6E4DF" transform="translate(0,0)"></path>
<path d="M 1299.81 357.697 C 1309.68 362.111 1319.7 366.941 1329.52 371.524 C 1327.3 379.993 1325.04 396.998 1323.33 406.517 C 1313.07 402.106 1302.88 397.559 1292.74 392.878 C 1295.33 381.2 1297.69 369.47 1299.81 357.697 z" fill="#E6E4DF" transform="translate(0,0)"></path>
<path d="M 1268.3 343.357 C 1276.83 347.11 1285.3 350.981 1293.72 354.968 C 1291.54 366.607 1289.45 378.261 1287.42 389.928 C 1283.38 389.427 1266.18 381.098 1261.45 378.913 C 1263.52 367.021 1265.81 355.167 1268.3 343.357 z" fill="#E6E4DF" transform="translate(0,0)"></path>
<path d="M 1294.33 261.218 C 1342.15 256.485 1363.8 322.727 1315.24 338.371 C 1306.05 339.498 1301.42 338.917 1292.67 335.679 C 1265.75 325.712 1256.97 286.714 1280.2 268.359 C 1284.67 264.833 1289.12 263.194 1294.33 261.218 z" fill="#08090A" transform="translate(0,0)"></path>
<path d="M 1293.92 268.196 C 1301.54 267.467 1306.1 267.051 1313.31 270.071 C 1322.5 273.961 1329.71 281.452 1333.23 290.797 C 1340.2 308.727 1334.17 324.263 1316 331.031 C 1308.13 332.265 1303.74 332.525 1296.12 329.648 C 1287.29 326.31 1280.19 319.552 1276.42 310.907 C 1268.47 292.612 1275.83 275.82 1293.92 268.196 z" fill="#E6E4DF" transform="translate(0,0)"></path>
<path d="M 1299.83 278.985 C 1328.63 277.817 1320.42 313.968 1306.3 321.738 C 1279.56 321.492 1284.62 287.024 1299.83 278.985 z" fill="#08090A" transform="translate(0,0)"></path>
<path d="M 1300.75 284.688 C 1318.26 287.191 1313.11 304.041 1306.81 315.067 C 1303.85 315.021 1299.76 315.078 1297.36 313.104 C 1290.66 307.603 1296.5 290.43 1300.75 284.688 z" fill="#E6E4DF" transform="translate(0,0)"></path>
<path d="M 1396.38 394.262 C 1401.9 395.196 1443.14 414.977 1450.68 418.568 C 1449.16 430.481 1445.05 454.719 1442.37 465.718 C 1435.6 465.244 1396.03 446.743 1388.56 442.67 C 1391.89 426.96 1394.19 410.155 1396.38 394.262 z" fill="#08090A" transform="translate(0,0)"></path>
<path d="M 1401.31 402.796 C 1415.58 409.135 1429.76 415.656 1443.86 422.356 C 1441.96 434.217 1439.85 446.044 1437.54 457.831 C 1423.95 452.305 1409.49 445.149 1395.82 439.154 C 1397.88 429.201 1399.79 413.141 1401.31 402.796 z" fill="#E6E4DF" transform="translate(0,0)"></path>
<path d="M 1364.68 290.389 C 1373.67 294.031 1398.16 305.947 1407.35 310.474 C 1421.08 317.236 1455.91 331.275 1467.2 338.684 C 1468.78 341.879 1468.49 340.441 1467.35 344.879 C 1462.24 342.863 1456.28 340.283 1451.39 337.833 C 1423.09 323.659 1392.52 311.898 1364.39 297.677 C 1363.1 294.597 1363.87 294.2 1364.68 290.389 z" fill="#08090A" transform="translate(0,0)"></path>
<path d="M 1357.1 328.435 C 1376.63 336.753 1435.56 364.306 1457.16 375.775 C 1458.04 376.238 1457.22 378.913 1456.96 380.443 C 1454.98 380.3 1451.91 379.555 1449.1 378.248 C 1418.52 364.05 1387.07 349.719 1357 334.66 C 1355.89 334.101 1356.85 330.138 1357.1 328.435 z" fill="#08090A" transform="translate(0,0)"></path>
<path d="M 1360.47 309.267 C 1370.37 311.621 1446.5 348.956 1461.12 355.19 C 1462.27 355.68 1461.41 359.421 1461.18 361.166 C 1456.35 360.3 1423.79 344.839 1417.58 341.883 C 1399.03 333.052 1379.52 324.903 1361.01 316.168 C 1359.47 313.73 1360.19 312.73 1360.47 309.267 z" fill="#08090A" transform="translate(0,0)"></path>
<path d="M 1354.37 346.199 C 1368.99 352.75 1404.15 367.392 1416.05 374.474 C 1417.61 377.386 1417.02 376.994 1416.25 380.798 C 1408.58 378.282 1361.77 357.152 1354.82 353.178 C 1353.02 350.352 1353.77 350.222 1354.37 346.199 z" fill="#08090A" transform="translate(0,0)"></path>
<path d="M 1061.11 416.983 C 1078.93 438.76 1108.93 444.449 1134.24 433.111 C 1180.6 460.908 1183.54 502.831 1191.03 552.196 C 1192.06 558.956 1194.16 583.424 1200.97 585.625 C 1204.45 583.391 1204.01 579.478 1205.26 578.471 C 1213.09 572.136 1264.01 559.141 1270.01 565.802 C 1275.11 586.836 1262.42 595.448 1244.86 602.818 C 1226.97 610.325 1194.67 623.638 1175.52 615.118 C 1142.94 600.627 1135.25 549.273 1129.62 518.31 C 1128.23 510.186 1127.91 499.214 1125.44 491.344 C 1124.82 489.39 1123.35 487.971 1121.47 487.2 L 1120.53 488.2 C 1116.17 502.418 1130.11 558.118 1135.19 572.804 C 1140.03 586.783 1146.25 591.997 1148.3 609.241 C 1152.6 633.379 1155.72 645.146 1164.16 667.713 C 1152.93 694.279 1135.92 702.974 1109.52 709.392 C 1108.21 694.958 1095.72 654.369 1092.12 638.529 C 1086.4 613.438 1047.59 597.277 1024.42 585.816 C 1015.62 544.342 1020.55 515.931 1034.05 475.932 C 1035.28 472.278 1035.87 469.598 1033.99 466.109 L 1032.27 465.871 C 1029.03 468.668 1027.08 474.266 1025.67 478.297 C 1012.95 514.625 1010.44 544.201 1016.63 581.721 L 997.354 572.33 C 996.236 553.13 997.808 533.869 1002.02 515.104 C 1011.12 473.341 1024.75 440.431 1061.11 416.983 z" fill="#E6E4DF" transform="translate(0,0)"></path>
<path d="M 525.044 896.6 C 561.113 914.58 599.591 932.113 636.15 949.565 C 630.308 953.167 615.606 959.731 608.932 962.942 L 555.04 989.045 C 495.094 1019.08 434.79 1048.39 374.141 1076.97 C 351.404 1064.67 323.192 1052.33 299.685 1041.15 L 162.252 975.464 L 107.131 949.349 C 143.487 934.56 185.531 913.502 221.948 896.784 L 222.021 932.231 C 220.999 932.544 219.995 932.912 219.012 933.332 C 205.743 938.971 205.442 950.091 218.469 956.604 C 248.533 971.635 279.043 985.85 309.58 999.896 C 328.249 1008.5 346.02 1019.47 365.313 1026.58 C 379.528 1031.82 396.065 1021.04 408.635 1015.08 C 417.626 1010.81 426.656 1006.11 435.583 1001.68 C 469.819 984.979 503.929 968.019 537.911 950.803 C 539.373 935.91 537.845 936.036 524.986 929.976 L 525.044 896.6 z" fill="#E6E4DF" transform="translate(0,0)"></path>
<path d="M 1229.17 653.374 C 1248.54 650.685 1271.99 655.037 1288.03 666.504 C 1298.36 673.887 1304.22 684.561 1306.25 696.98 C 1308.22 709.03 1307.04 721.741 1305.43 733.761 C 1302.66 754.44 1279.34 862.828 1271.34 873.769 C 1265.16 882.228 1254.52 887.762 1244.31 889.368 C 1237.08 890.506 1228.92 889.931 1222.93 885.316 C 1220.15 883.176 1218.32 880.245 1217.9 876.728 C 1216.81 867.537 1237.28 731.304 1240.57 727.753 C 1240.78 727.526 1241.01 727.318 1241.23 727.101 C 1246.57 725.576 1255.85 723.553 1258.27 718.541 L 1257.34 716.765 C 1251.68 714.237 1199.14 731.121 1191.13 735.046 C 1131.87 764.083 1106.65 763.342 1044.97 732.709 L 1041.48 716.561 C 1063.41 725.437 1088.07 737.534 1107.39 716.983 C 1137.76 711.77 1161.24 698.438 1171.17 667.401 C 1190.83 661.181 1208.62 655.833 1229.17 653.374 z" fill="#E6E4DF" transform="translate(0,0)"></path>
<path d="M 891.957 717.278 C 915.44 728.017 943.618 743.213 966.943 755.114 L 967.037 790.197 C 948.804 801.019 913.871 816.411 893.631 826.315 L 741.926 900.166 C 721.856 891.912 689.911 875.18 669.433 865.338 L 538.618 803.285 L 524.938 796.084 L 524.942 756.059 C 544.567 745.814 574.377 732.022 594.71 723.472 L 594.347 758.038 C 585.938 762.232 575.418 765.143 578.44 776.347 C 583.621 781.277 616.454 795.904 625.83 800.476 C 664.624 819.506 703.515 838.336 742.502 856.966 C 757.603 850.274 777.838 839.377 793.141 831.862 C 829.996 814.032 866.634 795.754 903.044 777.032 L 902.877 764.012 L 891.945 758.053 L 891.957 717.278 z" fill="#E6E4DF" transform="translate(0,0)"></path>
<path d="M 374.197 217.107 L 457.226 257.538 C 475.342 266.418 495.123 276.679 513.489 284.656 C 500.211 291.632 485.047 298.436 471.398 305.091 L 373.573 352.504 L 233.981 284.978 C 268.873 267.393 304.472 250.9 339.422 233.388 C 350.773 227.7 362.511 222.001 374.197 217.107 z" fill="#E6E4DF" transform="translate(0,0)"></path>
<path d="M 374.258 236.828 C 378.621 237.333 462.45 279.719 472.519 284.767 C 440.983 298.098 405.459 317.197 373.659 331.844 C 367.219 330.992 286.362 289.948 276.152 285.021 C 286.366 278.637 302.851 271.327 313.984 266.039 C 334.19 256.541 354.283 246.803 374.258 236.828 z" fill="#08090A" transform="translate(0,0)"></path>
<path d="M 373.409 245.829 C 377.373 245.595 446.309 279.985 456.116 284.439 C 428.863 296.884 402.155 310.91 374.764 323.024 L 373.47 323.562 C 368.597 322.308 355.512 315.521 350.234 312.976 C 330.889 303.788 311.692 294.293 292.651 284.493 L 373.409 245.829 z" fill="#E6E4DF" transform="translate(0,0)"></path>
<path d="M 741.363 50.3271 C 751.972 54.404 772.942 65.6304 784.482 71.194 L 879.065 116.594 C 833.7 137.749 787.981 161.299 742.535 181.644 C 739.162 181.427 615.913 121.429 604.828 116.142 C 618.942 108.628 637.998 100.15 652.678 93.0985 L 741.363 50.3271 z" fill="#E6E4DF" transform="translate(0,0)"></path>
<path d="M 740.109 70.8496 C 748.425 71.1019 798.893 99.3319 810.442 103.748 C 814.15 105.166 830.933 112.851 832.515 117.281 C 830.724 122.126 810.628 130.7 805.227 133.326 C 784.686 143.315 764.036 153.078 743.28 162.612 C 734.995 161.632 666.994 126.172 654.239 120.842 C 652.417 120.08 650.978 118.666 650.468 116.513 C 652.683 111.767 676.725 101.822 682.538 98.9798 C 701.654 89.4512 720.845 80.0742 740.109 70.8496 z" fill="#08090A" transform="translate(0,0)"></path>
<path d="M 740.986 78.8603 C 747.144 80.7479 764.265 89.3113 770.518 92.3812 L 821.384 117.439 C 797.73 128.623 764.982 142.948 742.68 155.131 C 716.903 143.809 688.426 128.944 662.256 116.78 C 688.59 104.328 714.834 91.688 740.986 78.8603 z" fill="#E6E4DF" transform="translate(0,0)"></path>
<path d="M 1509.06 463.306 C 1548.5 480.908 1592.97 499.156 1631.18 517.56 L 1631.55 660.252 C 1628.51 660.878 1520.16 609.657 1509.24 604.286 C 1508.26 558.295 1508.86 509.381 1509.06 463.306 z" fill="#E6E4DF" transform="translate(0,0)"></path>
<path d="M 1526.28 481.358 C 1534.86 484.362 1551.66 492.47 1560.52 496.455 C 1577.93 504.279 1597.15 512.455 1614.12 520.946 C 1614.22 531.016 1614.75 551.965 1613.51 561.091 C 1605.19 558.924 1590.84 552.184 1582.39 548.485 L 1525.35 522.977 C 1525.14 510.184 1524.6 493.75 1526.28 481.358 z" fill="#08090A" transform="translate(0,0)"></path>
<path d="M 1532.09 491.531 C 1556.51 503.322 1582.41 513.696 1607.35 525.576 L 1607.32 551.292 C 1585.08 542.657 1554.58 528.532 1532.6 518.379 C 1532.18 509.645 1532.21 500.32 1532.09 491.531 z" fill="#E6E4DF" transform="translate(0,0)"></path>
<path d="M 1525.31 532.456 C 1528.85 532.769 1608.06 567.256 1613.99 570.776 C 1615.61 573.952 1615.1 573.145 1614.56 577.232 C 1606.33 576.31 1538.38 545.257 1527.23 539.5 C 1525.06 538.382 1525.41 534.921 1525.31 532.456 z" fill="#08090A" transform="translate(0,0)"></path>
<path d="M 1525.7 570.706 C 1538.01 570.989 1579.57 594.415 1592.98 599.956 C 1595.01 600.794 1594.86 603.581 1595.05 605.43 C 1587.38 605.586 1537.73 581.95 1528.46 576.423 C 1525.81 574.844 1526.12 573.414 1525.7 570.706 z" fill="#08090A" transform="translate(0,0)"></path>
<path d="M 1526.03 585.496 C 1538.8 586.746 1577.92 609.159 1593.17 614.024 C 1594.59 614.479 1594.34 618.468 1594.38 619.926 C 1588.07 619.745 1536.19 596.179 1527.02 591.327 C 1525.66 590.61 1526.04 587.408 1526.03 585.496 z" fill="#08090A" transform="translate(0,0)"></path>
<path d="M 1548.61 343.423 C 1584.52 356.009 1629.22 372.226 1664.37 386.88 C 1657.32 423.577 1649.94 469.061 1645.25 505.948 L 1635.88 510.693 C 1602.02 495.339 1568.03 480.249 1533.94 465.424 C 1536.57 424.678 1544.27 384.001 1548.61 343.423 z" fill="#E6E4DF" transform="translate(0,0)"></path>
<path d="M 1597.72 392.271 C 1602.96 392.439 1608.19 393.785 1612.72 396.47 C 1619.46 400.506 1624.3 407.084 1626.14 414.725 C 1630.2 431.188 1620.18 442.564 1604.58 445.98 C 1598.5 445.497 1593.6 444.41 1588.41 441.015 C 1581.68 436.697 1576.94 429.874 1575.25 422.055 C 1571.81 405.465 1582.06 394.998 1597.72 392.271 z" fill="#08090A" transform="translate(0,0)"></path>
<path d="M 1594.58 398.738 C 1608.05 399.099 1591.54 423.17 1596.94 431.67 L 1599.38 431.778 C 1606.54 425.749 1598.91 401.701 1608.97 402.051 C 1614.81 405.464 1616.62 409.259 1619.43 415.286 C 1626.05 465.345 1549 421.524 1594.58 398.738 z" fill="#E6E4DF" transform="translate(0,0)"></path>
<path d="M 1549.08 444.633 C 1554.58 444.73 1620.6 470.898 1628.86 475.441 C 1630.64 478.33 1630.16 477.084 1629.77 481.341 C 1618.63 478.975 1563.65 455.685 1551.08 449.951 C 1549.08 449.038 1549.3 446.748 1549.08 444.633 z" fill="#08090A" transform="translate(0,0)"></path>
<path d="M 1547.27 460.805 C 1547.88 460.753 1550.27 460.687 1550.6 460.854 C 1559.9 465.654 1621.63 487.203 1625.37 492.509 L 1624.52 495.867 C 1605.75 490.033 1568.09 473.475 1548.87 464.749 C 1547.29 464.034 1547.54 462.738 1547.27 460.805 z" fill="#08090A" transform="translate(0,0)"></path>
<path d="M 882.625 122.98 L 883.703 123.311 C 885.574 125.596 884.688 192.166 884.705 199.658 C 839.17 220.85 792.982 243.851 747.558 265.524 L 746.381 265.371 C 744.191 257.458 745.967 200.828 746.028 189.407 C 760.117 181 784.099 170.178 799.214 162.942 L 882.625 122.98 z" fill="#E6E4DF" transform="translate(0,0)"></path>
<path d="M 601.523 122.642 C 617.648 129.841 636.278 139.446 652.414 147.232 L 738.424 188.632 L 738.439 266.638 C 718.838 258.178 698.117 247.65 678.772 238.309 C 653.143 225.981 627.431 213.826 601.639 201.845 C 601.385 175.445 601.346 149.043 601.523 122.642 z" fill="#E6E4DF" transform="translate(0,0)"></path>
<path d="M 229.505 291.302 C 275.527 311.722 323.26 337.125 369.228 358.958 C 369.622 384.262 369.649 409.571 369.311 434.876 C 360.509 432.126 333.725 418.244 323.954 413.508 C 292.653 398.293 261.264 383.258 229.79 368.404 L 229.505 291.302 z" fill="#E6E4DF" transform="translate(0,0)"></path>
<path d="M 515.702 291.964 L 516.718 292.703 C 518.484 298.549 517.177 356.979 517.169 367.108 L 378.338 434.292 C 375.809 431.729 376.834 368.047 376.842 359.702 C 422.048 336.404 469.787 314.254 515.702 291.964 z" fill="#E6E4DF" transform="translate(0,0)"></path>
<path d="M 956.743 584.342 L 957.667 584.288 C 981.497 582.991 1044.79 617.319 1065.51 632.758 C 1073.31 638.567 1086.07 701.579 1088.48 714.03 C 1089.01 716.78 1086.73 718.405 1085.05 719.959 C 1057.21 720.774 1029.14 701.118 1004.25 690.299 C 991.733 684.857 978.292 676.2 971.319 664.237 C 968.914 660.068 967.03 655.621 965.706 650.993 C 963.425 643.235 952.858 590.146 954.033 585.63 L 956.743 584.342 z" fill="#E6E4DF" transform="translate(0,0)"></path>
<path d="M 1706.76 485.051 C 1708.89 488.096 1707.99 611.487 1707.99 625.517 C 1688.06 636.346 1661.02 648.584 1640.29 658.546 C 1637.14 654.551 1638.96 532.543 1638.98 517.541 C 1659.45 506.647 1685.48 495.118 1706.76 485.051 z" fill="#E6E4DF" transform="translate(0,0)"></path>
<path d="M 1226.53 394.22 C 1304.92 429.327 1383.12 468.358 1462.04 502.577 C 1460.14 512.226 1458.65 521.949 1457.56 531.722 C 1439.02 523.033 1418.23 514.519 1399.33 506.163 C 1356.95 487.471 1314.69 468.515 1272.55 449.294 C 1256.07 441.742 1237.94 434.228 1221.97 426.077 L 1226.53 394.22 z" fill="#E6E4DF" transform="translate(0,0)"></path>
<path d="M 1111.61 276.288 C 1145.64 275.058 1156.74 301.05 1189.25 287.083 C 1188.67 294.594 1188.57 300.083 1184.91 306.939 C 1173.77 327.86 1140.21 313.384 1126.55 317.398 L 1126.17 318.734 C 1130.55 324.227 1139.18 324.663 1146.02 325.992 C 1145.82 355.198 1139.28 339.245 1122.87 349.616 L 1121.92 350.222 C 1116.48 358.687 1117.1 364.631 1121.73 373.208 C 1110.18 382.554 1102.74 384.256 1088.54 385.525 C 1086.93 377.147 1084.83 374.581 1079.78 367.854 C 1068.02 352.186 1055.95 334.282 1062.77 313.78 C 1065.19 306.52 1071.72 298.921 1078.56 295.413 C 1082.79 293.238 1084.66 296.113 1088.53 296.544 C 1098.87 287.894 1088.39 281.309 1111.61 276.288 z" fill="#E6E4DF" transform="translate(0,0)"></path>
<path d="M 1613.35 740.026 C 1613.83 740.504 1614.3 740.981 1614.78 741.459 C 1615.04 808.632 1614.98 1008.83 1615.01 1059.39 L 1601.38 1052.79 L 1592.91 1048.68 L 1592.94 749.416 C 1599.86 746.611 1606.61 743.258 1613.35 740.026 z" fill="#E6E4DF" transform="translate(0,0)"></path>
<path d="M 1264.17 600.988 C 1271.22 602.852 1280.53 607.604 1287.73 610.081 C 1322.85 622.17 1355.51 639.771 1389.11 655.712 L 1585.56 748.901 L 1585.49 768.553 L 1577.53 765.094 C 1470.13 710.459 1356.49 662.065 1248.72 607.778 C 1253.9 605.583 1259.05 603.319 1264.17 600.988 z" fill="#E6E4DF" transform="translate(0,0)"></path>
<path d="M 1094.04 803.793 L 1105.9 805.12 C 1105.93 841.071 1104.73 887.114 1106.72 922.512 C 1119.85 914.271 1149.59 900.478 1164.28 894.084 C 1168.02 894.867 1177.4 896.282 1179.25 898.825 C 1176.17 907.863 1121.42 925.078 1117.38 933.75 C 1121.88 939.23 1171.5 961.07 1182.56 967.949 C 1178.81 970.688 1174.19 973.208 1170.14 975.561 C 1146.81 964.559 1123.59 953.338 1100.47 941.899 C 1095.1 939.29 1076.08 950.96 1069.89 954.142 C 1055.75 961.429 1041.49 968.474 1027.11 975.273 C 1022.07 973.451 1017.48 971.293 1012.61 969.073 C 1032.41 956.308 1061.3 945.759 1082.25 933.399 C 1067.29 923.993 1037.28 913.203 1021.18 903.803 C 1020.25 903.261 1020.58 900.992 1020.61 899.782 C 1022.3 896.634 1026.65 895.049 1030.01 893.409 C 1051.2 903.002 1072.53 913.776 1093.56 922.979 C 1094.32 910.557 1093.83 892.922 1093.85 880.146 L 1094.04 803.793 z" fill="#E6E4DF" transform="translate(0,0)"></path>
<path d="M 1592.89 317.483 C 1603.98 323.478 1617.94 329.327 1629.59 334.552 L 1695.91 363.927 L 1675.51 491.944 L 1665.28 496.687 L 1652.36 502.345 L 1664.58 427.167 C 1666.76 413.581 1670.09 395.481 1671.04 382.252 C 1664.05 378.424 1648.58 373.01 1640.71 370.038 C 1622.75 363.318 1604.84 356.491 1586.96 349.558 C 1588.72 337.96 1590.22 328.996 1592.89 317.483 z" fill="#E6E4DF" transform="translate(0,0)"></path>
<path d="M 1208.75 766.049 C 1211.4 779.545 1195.58 832.307 1188.34 846.49 C 1173.94 856.061 1161.08 858.068 1145.61 850.297 C 1143.04 848.181 1140.28 845.166 1140.39 841.712 C 1140.88 826.571 1144.67 810.169 1147.35 795.272 C 1162.56 786.701 1191.66 774.162 1208.75 766.049 z" fill="#E6E4DF" transform="translate(0,0)"></path>
<path d="M 888.185 764.932 C 892.101 765.16 894.816 767.36 895.934 770.957 C 895.784 771.212 894.524 773.363 894.522 773.364 C 859.16 792.327 775.457 831.64 743.063 848.974 C 729.126 843.448 708.304 831.939 693.985 825.031 L 596.657 778.41 L 583.903 772.069 L 595.824 765.65 C 617.254 777.532 646.801 790.646 669.157 801.535 C 691.78 812.554 721.025 828.329 743.68 837.097 C 787.213 812.946 842.697 787.857 888.185 764.932 z" fill="#E6E4DF" transform="translate(0,0)"></path>
<path d="M 523.773 937.921 C 527.496 939.495 530.305 940.088 531.187 944.308 C 529.712 946.428 528.619 947.018 526.337 948.194 C 483.238 970.397 439.255 990.981 396.056 1013.01 C 390.399 1015.9 376.43 1022.54 370.783 1020.5 C 352.808 1014.01 334.72 1004.09 317.52 995.721 L 223.653 950.963 C 220.857 949.676 219.19 949.194 217.411 946.613 C 217.433 943.176 217.019 944.525 219.227 941.551 C 220.493 940.883 223.051 939.633 224.357 940.188 C 233.167 943.933 243.643 949.071 252.115 953.125 L 335.082 993.109 C 343.639 997.136 362.676 1006.69 371.146 1009.24 L 371.863 1009.46 C 380.427 1012.03 420.148 989.797 430.347 984.673 L 523.773 937.921 z" fill="#E6E4DF" transform="translate(0,0)"></path>
<path d="M 1138.2 799.148 L 1139.47 799.42 C 1137.87 812.417 1132.54 832.134 1133.09 845.905 C 1133.09 845.908 1135.56 850.447 1135.56 850.449 C 1135.65 858.9 1133.75 869.183 1136.75 877.162 C 1140.04 885.91 1144.37 887.589 1151.95 891.316 C 1145.82 894.793 1135.84 899.301 1129.25 902.535 L 1112.97 910.178 L 1113.04 805.245 C 1123.07 803.732 1128.68 802.344 1138.2 799.148 z" fill="#E6E4DF" transform="translate(0,0)"></path>
<path d="M 1007.49 770.477 C 1030.59 780.635 1054.27 792.647 1077.56 803.133 L 1053.31 815.542 C 1038.2 822.941 1023.01 830.191 1007.76 837.288 C 1006.91 815.895 1007.44 792.051 1007.49 770.477 z" fill="#E6E4DF" transform="translate(0,0)"></path>
<path d="M 1201.1 738.995 C 1204.43 738.825 1205.47 738.578 1208.44 740.317 L 1208.38 741.754 C 1200.22 748.59 1165.11 761.484 1153.2 768.015 C 1109.13 792.175 1094.77 783.631 1052.45 764.182 C 1050.28 761.416 1047.84 745.726 1047.02 741.248 C 1087.03 763.378 1126.84 771.964 1168.93 752.109 C 1178.98 747.364 1190.67 743.115 1201.1 738.995 z" fill="#E6E4DF" transform="translate(0,0)"></path>
<path d="M 1335.15 485.74 C 1339.4 486.143 1385.23 507.623 1391.38 510.764 C 1383.97 518.07 1374.72 528.077 1365.93 533.815 C 1363.6 535.335 1362.32 534.262 1359.73 533.354 C 1340.92 524.482 1316.81 514.878 1297.37 507.528 L 1335.15 485.74 z" fill="#E6E4DF" transform="translate(0,0)"></path>
<path d="M 1257.36 204.402 C 1338.89 239.572 1421.44 281.48 1502.77 318.096 C 1496.04 363.917 1487.7 410.475 1480.56 456.29 C 1478.26 471.049 1472.21 517.411 1468.28 529.777 C 1465.65 530.12 1466.03 530.523 1464.4 529.394 C 1475.34 462.266 1489.11 387.948 1497.41 321.195 C 1478.77 310.891 1444.93 296.731 1424.06 287.051 L 1301.32 229.352 C 1289.8 224.066 1269.45 215.339 1257.64 209.606 C 1256.98 209.287 1257.33 205.647 1257.36 204.402 z" fill="#E6E4DF" transform="translate(0,0)"></path>
<path d="M 1268.43 886.967 C 1271.76 887.232 1279.7 893.3 1285.16 893.897 C 1295.49 895.027 1309.16 886.771 1317.41 895.235 C 1318 906.435 1268.16 914.582 1259.23 915.912 C 1248.8 916.898 1223.07 920.248 1216.02 910.641 C 1212.05 905.236 1214.95 895.856 1216.32 889.575 C 1233.57 902.096 1251.65 897.238 1268.43 886.967 z" fill="#E6E4DF" transform="translate(0,0)"></path>
<path d="M 974.121 751.461 C 986.683 760.226 980.883 760.361 1000.31 767.51 C 1000.06 790.721 999.976 813.932 1000.04 837.144 C 991.457 832.885 982.898 828.578 974.363 824.224 C 974.737 799.97 974.656 775.712 974.121 751.461 z" fill="#E6E4DF" transform="translate(0,0)"></path>
<path d="M 1004.06 698.132 C 1011.48 700.992 1025.92 708.793 1033.54 712.616 C 1036.28 727.261 1044.26 768.825 1048.88 781.814 C 1040.1 778.055 1032.25 774.58 1023.69 770.358 C 1017.96 746.07 1011.41 721.982 1004.06 698.132 z" fill="#E6E4DF" transform="translate(0,0)"></path>
<path d="M 965.467 570.981 C 966.051 570.959 966.634 570.935 967.218 570.929 C 985.521 570.753 1062.69 610.652 1076.61 624.466 C 1085.3 633.098 1102.14 698.633 1102.01 711.823 C 1100.6 714.948 1099.22 717.629 1095.51 717.391 L 1095.68 714.74 C 1095.6 713.405 1095.47 712.073 1095.29 710.747 C 1092.69 691.982 1081.66 652.863 1075.06 635.094 C 1069.66 620.529 1026.04 601.392 1011.25 594.093 C 991.376 584.282 974.247 575.072 951.207 578.217 C 956.82 574.892 959.352 573.52 965.467 570.981 z" fill="#E6E4DF" transform="translate(0,0)"></path>
<path d="M 1214.7 747.021 C 1216.97 749.896 1216.57 748.601 1216.56 751.876 C 1212.67 757.276 1166.24 776.434 1156.3 782.031 C 1115.98 804.723 1093.89 799.556 1054.39 780.913 C 1053.71 777.206 1052.77 776.206 1054.3 773.628 C 1056.45 773.51 1075.07 782.744 1079.65 784.436 C 1115 797.479 1136.02 783.781 1166.31 769.524 L 1214.7 747.021 z" fill="#E6E4DF" transform="translate(0,0)"></path>
<path d="M 1124.78 376.194 C 1128.89 378.14 1131.07 378.863 1135.45 380.198 C 1137.39 390.122 1123.53 391.865 1132.56 402.517 C 1134.77 405.115 1131.77 414.775 1130.9 418.635 L 1107.55 413.623 C 1099.7 411.878 1092.05 409.375 1084.69 406.149 L 1087.6 393.054 C 1098.82 392.238 1121.92 389.007 1124.78 376.194 z" fill="#E6E4DF" transform="translate(0,0)"></path>
<path d="M 1194.31 849.782 C 1200.09 851.633 1206.32 853.951 1212.09 855.979 C 1212.08 861.08 1211.49 866.112 1210.99 871.187 C 1194.44 877.149 1172.6 878.161 1155.25 875.619 C 1141.02 872.565 1140.11 870.598 1142.13 856.726 C 1160.53 866.501 1178.91 863.182 1194.31 849.782 z" fill="#E6E4DF" transform="translate(0,0)"></path>
<path d="M 1333.14 564.258 C 1342.81 563.445 1358 572.307 1367.34 576.545 C 1357.61 580.329 1323.61 597.89 1315.05 603.347 C 1308.73 600.855 1283.17 591.893 1281.22 587.809 L 1284.21 586.135 C 1289.72 584.653 1296.34 582.732 1301.96 583.546 L 1302.73 584.656 C 1301.07 586.566 1300.41 587.36 1299.1 589.521 C 1300.67 591.262 1299.98 590.732 1303.03 590.955 C 1310.75 586.109 1310.13 592.918 1318.42 592.414 L 1319.95 590.53 L 1319.5 588.839 C 1316.75 585.836 1310.7 583.574 1306.79 581.802 L 1314.51 578.118 C 1319.13 580.224 1324.74 583.256 1329.78 581.785 C 1329.39 579.572 1323.83 575.391 1321.34 572.241 L 1322.18 571.349 C 1328.17 572.962 1334.96 576.113 1339.39 571.052 C 1338.3 568.518 1335.36 567.604 1332.54 566.136 L 1333.14 564.258 z" fill="#E6E4DF" transform="translate(0,0)"></path>
<path d="M 1230.92 729.2 C 1232.13 732.423 1215.29 835.135 1213.68 848.687 C 1208.01 847.354 1203.47 846.484 1199.05 842.645 C 1207.04 821.549 1213.94 784.265 1217.77 762.006 C 1230.21 754.803 1222.93 741.415 1214.33 734.447 L 1230.92 729.2 z" fill="#E6E4DF" transform="translate(0,0)"></path>
<path d="M 1225.72 523.017 C 1230.36 523.616 1278.78 546.724 1283.3 549.712 C 1273.98 555.105 1228.32 521.903 1220.21 527.579 C 1220.6 529.086 1220.48 530.077 1221.94 531.051 C 1228.33 535.309 1265.73 548.079 1266.99 553.885 L 1262.19 554.767 C 1257.66 552.155 1227.4 537.039 1223.7 536.155 C 1218.59 533.933 1217.2 533.353 1211.76 532.39 L 1210.16 534.211 C 1214.86 540.462 1243.44 551.523 1252.28 556.166 L 1252.57 557.476 C 1242.69 561.79 1215.72 544.352 1204.98 541.379 C 1200.81 540.225 1198.58 540.004 1194.23 539.686 C 1204.2 547.658 1224.46 555.21 1236.76 560.355 C 1233.99 561.268 1229.18 562.236 1226.2 562.92 C 1217.29 558.365 1207.48 554.557 1198.25 549.958 L 1195.9 535.274 C 1204.15 532.42 1217.21 526.518 1225.72 523.017 z" fill="#E6E4DF" transform="translate(0,0)"></path>
<path d="M 1176.15 633.24 C 1191.09 631.631 1219.27 638.96 1231.67 646.244 C 1222.22 647.318 1215.53 648.395 1206.22 650.302 C 1194.23 652.971 1180.74 656.889 1168.74 660.097 C 1165.83 652.198 1163.86 645.178 1161.58 637.059 C 1166.82 635.164 1170.75 634.393 1176.15 633.24 z" fill="#E6E4DF" transform="translate(0,0)"></path>
<path d="M 1276.31 562.18 C 1281.67 559.045 1297.26 549.143 1302.48 548.644 C 1306.86 548.224 1307.12 552.012 1317.27 549.596 L 1317.51 550.974 C 1316.29 553.064 1316.64 551.945 1316.61 554.493 C 1320.98 557.307 1328.05 553.023 1332.88 555.79 L 1333.05 557.211 C 1323 566.035 1294.35 575.842 1280.94 579.658 C 1279.68 573.241 1278.2 568.406 1276.31 562.18 z" fill="#E6E4DF" transform="translate(0,0)"></path>
<path d="M 1074.42 407.797 C 1075.22 408.01 1075.27 407.938 1075.85 408.335 C 1091.27 418.908 1113.63 422.215 1132.26 426.334 L 1122.64 430.688 C 1110.68 433.905 1070.1 427.979 1068.87 413.112 C 1070.53 409.463 1070.52 410.3 1074.42 407.797 z" fill="#E6E4DF" transform="translate(0,0)"></path>
<path d="M 974.425 681.541 C 983.12 687.222 985.792 689.218 995.085 694.006 L 998.877 707.948 L 989.615 712.667 C 982.885 716.292 980.027 718.652 974.46 723.536 C 974.278 709.665 974.434 695.443 974.425 681.541 z" fill="#E6E4DF" transform="translate(0,0)"></path>
<path d="M 974.697 531.34 C 980 533.15 985.566 535.644 990.761 537.838 C 989.863 548.267 990.071 558.681 990.115 569.145 C 985.637 567.277 978.836 565.156 974.097 563.512 C 974.065 553.418 973.714 541.212 974.697 531.34 z" fill="#E6E4DF" transform="translate(0,0)"></path>
<path d="M 1000.92 714.849 C 1003.94 717.778 1008.84 740.443 1010.17 745.796 L 998.737 740.679 C 992.471 737.918 984.76 735.803 983.309 728.646 C 985.338 722.369 994.91 718.289 1000.92 714.849 z" fill="#E6E4DF" transform="translate(0,0)"></path>
<path d="M 1168.29 358.601 C 1169.04 362.919 1170.73 367.985 1169.75 371.7 L 1167.34 372.778 C 1167.05 376.672 1167.09 380.936 1165.24 384.265 C 1160.27 387.159 1153.17 380.109 1150.44 376.173 L 1149.95 374.86 C 1151.23 370.832 1149.81 366.652 1149.49 362.068 C 1152.68 358.831 1163.24 358.953 1168.29 358.601 z" fill="#E6E4DF" transform="translate(0,0)"></path>
<path d="M 1324.23 903.262 C 1324.26 903.747 1323.87 905.303 1323.75 905.878 C 1308.45 920.339 1232.08 933.2 1214.36 921.527 C 1214.8 920.939 1215.23 920.351 1215.67 919.763 C 1219.88 920.993 1230.68 922.828 1234.17 923.086 C 1264.68 925.341 1297.46 917.115 1324.23 903.262 z" fill="#E6E4DF" transform="translate(0,0)"></path>
<path d="M 975.947 734.927 C 987.231 746.816 997.827 745.945 1010.97 754.306 C 1014.49 756.545 1014.57 759.498 1015.37 763.688 C 1002.75 759.378 976.262 749.902 975.947 734.927 z" fill="#E6E4DF" transform="translate(0,0)"></path>
<path d="M 1153.03 326.553 L 1166.41 327.127 C 1167.79 332.106 1170.04 337.411 1167.73 341.708 L 1151.59 344.574 C 1152.38 338.054 1152.75 333.103 1153.03 326.553 z" fill="#E6E4DF" transform="translate(0,0)"></path>
<path d="M 1155.49 610.507 C 1161.14 614.624 1173.34 621.672 1177.47 625.286 L 1175.76 625.869 C 1170.55 626.971 1164.79 628.649 1159.6 630.033 C 1158.15 623.637 1156.84 616.949 1155.49 610.507 z" fill="#E6E4DF" transform="translate(0,0)"></path>
<path d="M 1371.21 581.991 L 1372.41 583.196 C 1370.46 587.282 1327.57 607.135 1320.86 610.125 L 1319.5 609.857 C 1321.41 605.615 1363.51 585.747 1371.21 581.991 z" fill="#E6E4DF" transform="translate(0,0)"></path>
<path d="M 1206.39 879.235 L 1208.78 878.825 L 1209.41 879.903 C 1199.55 887.488 1163.63 886.06 1150.57 883.341 C 1148.66 882.698 1148.63 882.499 1147.19 881.174 C 1148.97 880.275 1153.04 881.285 1155.2 881.688 C 1172.81 884.968 1188.88 882.578 1206.39 879.235 z" fill="#A4A2A0" transform="translate(0,0)"></path>
<path d="M 1685.34 471.842 C 1690.56 473.873 1696.46 476.523 1701.67 478.733 L 1694.2 482.919 L 1683.09 488.487 L 1685.34 471.842 z" fill="#E6E4DF" transform="translate(0,0)"></path>
<path d="M 1127.56 354.369 C 1132.59 354.607 1140.38 358.589 1142.35 363.277 L 1141.76 364.687 C 1136.2 364.02 1136.37 358.681 1131.18 358.035 C 1128.52 359.958 1128.85 360.555 1127.39 363.795 C 1131.27 365.902 1136.27 367.856 1137.56 371.977 L 1136.5 373.156 C 1126.88 372.71 1124.08 362.79 1127.56 354.369 z" fill="#E6E4DF" transform="translate(0,0)"></path>
<path d="M 1272.47 593.092 C 1278.32 595.689 1310.89 607.821 1312.77 610.749 C 1306.28 610.182 1275.97 599.239 1271.58 595.317 L 1272.47 593.092 z" fill="#E6E4DF" transform="translate(0,0)"></path>
<path d="M 1165.15 349.372 L 1168.47 349.059 L 1169.29 350.034 L 1168.23 351.539 C 1162.51 353.872 1159.29 353.883 1153.24 354.379 C 1151.75 354.763 1152.5 354.65 1150.79 354.184 L 1151.15 352.764 C 1156.44 350.263 1159.45 350.108 1165.15 349.372 z" fill="#E6E4DF" transform="translate(0,0)"></path>
<path d="M 1526.61 452.995 C 1529.18 455.594 1527.8 459.857 1525.38 462.288 L 1521.4 461.102 C 1519.48 460.316 1519.33 460.404 1517.91 458.79 C 1519.8 455.918 1523.26 454.767 1526.61 452.995 z" fill="#E6E4DF" transform="translate(0,0)"></path>
<path d="M 1198.82 558.105 C 1203.89 559.084 1214.52 562.227 1218.47 565.545 C 1212.88 565.979 1201.57 563.345 1198.82 558.105 z" fill="#E6E4DF" transform="translate(0,0)"></path>
<path d="M 1149.95 374.86 L 1150.44 376.173 C 1148.2 382.493 1146.1 392.943 1143.55 397.759 C 1142.2 394.542 1147.81 378.226 1149.95 374.86 z" fill="#5C5D62" transform="translate(0,0)"></path>
<path d="M 1152.53 384.731 C 1153.48 389.373 1151.29 396.909 1149.85 401.414 C 1147.87 397.44 1151.11 389.183 1152.53 384.731 z" fill="#5C5D62" transform="translate(0,0)"></path>
<path d="M 1317.27 549.596 C 1320.47 547.976 1323.68 546.304 1327.21 547.447 C 1325.33 549.747 1320.74 550.248 1317.51 550.974 L 1317.27 549.596 z" fill="#A4A2A0" transform="translate(0,0)"></path>
<path d="M 1164.38 387.884 L 1164.87 388.149 C 1165.81 390.418 1163.99 397.186 1163.41 400.029 L 1162.11 398.494 C 1162.42 393.873 1162.98 392.328 1164.38 387.884 z" fill="#5C5D62" transform="translate(0,0)"></path>
<metadata><recraft-signature>{"signed_by": "recraft", "signature_b64": "VKfHz+7JErkbU1XKzh1MHcgvfFI4zZzvD1U+ctNHP6Ppkgm/h6UnoEXj9ZqOHvxyVzqfFVEJ9aQSouMI4gNuDQ==", "signing_algo": "Ed25519", "generation_timestamp": 1777128901, "identifier": "2ed1cc7a-b9f5-4fa9-9c00-98b3167a78e7"}</recraft-signature></metadata></svg>