<svg viewBox="75 38 545 162" fill="none" xmlns="http://www.w3.org/2000/svg">
<g opacity="0.3">
<path d="M155.196 195.29C197.467 195.29 231.735 161.022 231.735 118.751C231.735 76.4797 197.467 42.2122 155.196 42.2122C112.925 42.2122 78.6572 76.4797 78.6572 118.751C78.6572 161.022 112.925 195.29 155.196 195.29Z" stroke="#60A5FA" stroke-width="0.675342" stroke-dasharray="1.8 10.81"/>
</g>
<path d="M155.196 168.276C182.548 168.276 204.721 146.103 204.721 118.751C204.721 91.399 182.548 69.2258 155.196 69.2258C127.844 69.2258 105.671 91.399 105.671 118.751C105.671 146.103 127.844 168.276 155.196 168.276Z" stroke="url(#paint0_linear_179_836)" stroke-width="16.2082"/>
<mask id="mask0_179_836" style="mask-type:luminance" maskUnits="userSpaceOnUse" x="-76" y="-112" width="462" height="462">
<path d="M385.713 -111.766H-75.3203V349.268H385.713V-111.766Z" fill="white"/>
<path d="M155.196 168.276C182.548 168.276 204.721 146.103 204.721 118.751C204.721 91.399 182.548 69.2258 155.196 69.2258C127.844 69.2258 105.671 91.399 105.671 118.751C105.671 146.103 127.844 168.276 155.196 168.276Z" stroke="black" stroke-width="23.4118"/>
</mask>
<g mask="url(#mask0_179_836)">
<path d="M200.604 125.955L206.971 170.525L162.4 164.158" stroke="url(#paint1_linear_179_836)" stroke-width="16.2082" stroke-linecap="round" stroke-linejoin="round"/>
</g>
<g filter="url(#filter0_f_179_836)">
<path d="M227.233 123.253C229.719 123.253 231.735 121.238 231.735 118.751C231.735 116.265 229.719 114.249 227.233 114.249C224.746 114.249 222.73 116.265 222.73 118.751C222.73 121.238 224.746 123.253 227.233 123.253Z" fill="white"/>
</g>
<g opacity="0.4" filter="url(#filter1_f_179_836)">
<path d="M155.196 125.955C159.174 125.955 162.399 122.729 162.399 118.751C162.399 114.773 159.174 111.547 155.196 111.547C151.217 111.547 147.992 114.773 147.992 118.751C147.992 122.729 151.217 125.955 155.196 125.955Z" fill="#2DD4BF"/>
</g>
<g filter="url(#filter2_f_179_836)">
<path d="M105.671 76.4295C107.66 76.4295 109.273 74.8169 109.273 72.8277C109.273 70.8384 107.66 69.2258 105.671 69.2258C103.682 69.2258 102.069 70.8384 102.069 72.8277C102.069 74.8169 103.682 76.4295 105.671 76.4295Z" fill="#EF4444"/>
</g>
<path d="M105.671 74.6287C106.666 74.6287 107.472 73.8224 107.472 72.8278C107.472 71.8332 106.666 71.0269 105.671 71.0269C104.676 71.0269 103.87 71.8332 103.87 72.8278C103.87 73.8224 104.676 74.6287 105.671 74.6287Z" fill="white"/>
<path d="M289.132 141.87H301.619V165.21H289.132V141.87ZM295.376 147.249C287.115 147.249 280.039 145.968 274.148 143.407C268.321 140.781 263.839 137.067 260.701 132.265C257.628 127.462 256.091 121.699 256.091 114.976C256.091 108.188 257.628 102.393 260.701 97.5903C263.839 92.7878 268.321 89.1058 274.148 86.5445C280.039 83.9191 287.115 82.6064 295.376 82.6064C303.7 82.6064 310.776 83.9191 316.603 86.5445C322.43 89.1058 326.88 92.7878 329.954 97.5903C333.092 102.393 334.66 108.188 334.66 114.976C334.66 121.699 333.092 127.462 329.954 132.265C326.88 137.067 322.43 140.781 316.603 143.407C310.776 145.968 303.7 147.249 295.376 147.249ZM295.376 136.203C300.498 136.203 304.981 135.434 308.823 133.898C312.729 132.361 315.77 130.024 317.948 126.886C320.189 123.748 321.309 119.778 321.309 114.976C321.309 110.173 320.189 106.203 317.948 103.065C315.77 99.9276 312.729 97.5903 308.823 96.0535C304.981 94.4527 300.498 93.6522 295.376 93.6522C290.317 93.6522 285.802 94.4527 281.832 96.0535C277.862 97.5903 274.757 99.9276 272.515 103.065C270.274 106.203 269.154 110.173 269.154 114.976C269.154 119.778 270.274 123.748 272.515 126.886C274.757 130.024 277.862 132.361 281.832 133.898C285.802 135.434 290.317 136.203 295.376 136.203ZM400.727 146H388.24V98.2627H400.727V146ZM388.913 123.044L389.009 126.31C388.881 127.206 388.56 128.519 388.048 130.248C387.536 131.913 386.735 133.705 385.647 135.626C384.622 137.548 383.278 139.405 381.613 141.197C379.948 142.926 377.899 144.367 375.465 145.52C373.032 146.608 370.151 147.153 366.821 147.153C364.196 147.153 361.602 146.832 359.041 146.192C356.543 145.552 354.27 144.495 352.221 143.022C350.172 141.486 348.539 139.437 347.323 136.875C346.106 134.314 345.498 131.08 345.498 127.174V98.2627H357.984V125.061C357.984 128.135 358.464 130.568 359.425 132.361C360.45 134.09 361.922 135.306 363.843 136.011C365.764 136.715 368.038 137.067 370.663 137.067C374.121 137.067 377.098 136.331 379.596 134.858C382.093 133.321 384.11 131.464 385.647 129.287C387.248 127.11 388.336 125.029 388.913 123.044ZM426.407 77.3236V88.2734H411.903V77.3236H426.407ZM412.864 98.2627H425.35V146H412.864V98.2627ZM438.757 79.0525H451.244V146H438.757V79.0525ZM464.833 79.0525H477.32V146H464.833V79.0525ZM518.092 147.153C512.073 147.153 506.758 146.192 502.148 144.271C497.601 142.35 494.047 139.565 491.486 135.915C488.925 132.201 487.644 127.654 487.644 122.275C487.644 116.897 488.925 112.35 491.486 108.636C494.047 104.858 497.601 102.009 502.148 100.088C506.758 98.1666 512.073 97.2061 518.092 97.2061C524.111 97.2061 529.362 98.1666 533.844 100.088C538.391 102.009 541.945 104.858 544.506 108.636C547.068 112.35 548.348 116.897 548.348 122.275C548.348 127.654 547.068 132.201 544.506 135.915C541.945 139.565 538.391 142.35 533.844 144.271C529.362 146.192 524.111 147.153 518.092 147.153ZM518.092 137.548C521.422 137.548 524.399 136.971 527.025 135.819C529.714 134.602 531.827 132.873 533.364 130.632C534.901 128.327 535.669 125.541 535.669 122.275C535.669 119.01 534.901 116.224 533.364 113.919C531.827 111.55 529.746 109.757 527.121 108.54C524.496 107.323 521.486 106.715 518.092 106.715C514.762 106.715 511.753 107.323 509.063 108.54C506.374 109.757 504.229 111.518 502.628 113.823C501.091 116.128 500.323 118.946 500.323 122.275C500.323 125.541 501.091 128.327 502.628 130.632C504.165 132.873 506.278 134.602 508.967 135.819C511.657 136.971 514.698 137.548 518.092 137.548ZM557.579 98.2627H570.065V146H557.579V98.2627ZM592.253 97.2061C595.199 97.2061 597.92 97.5903 600.418 98.3587C602.915 99.1271 605.092 100.312 606.949 101.913C608.806 103.513 610.247 105.563 611.271 108.06C612.296 110.493 612.808 113.407 612.808 116.801V146H600.321V119.01C600.321 114.976 599.329 112.03 597.344 110.173C595.423 108.252 592.253 107.291 587.835 107.291C584.505 107.291 581.496 107.932 578.806 109.212C576.117 110.493 573.939 112.126 572.275 114.111C570.61 116.032 569.649 118.049 569.393 120.162L569.297 115.264C569.617 113.023 570.354 110.845 571.506 108.732C572.659 106.619 574.196 104.698 576.117 102.969C578.102 101.176 580.439 99.7675 583.128 98.7429C585.818 97.7184 588.859 97.2061 592.253 97.2061Z" fill="white"/>
<defs>
<filter id="filter0_f_179_836" x="215.527" y="107.045" width="23.4122" height="23.4119" filterUnits="userSpaceOnUse" color-interpolation-filters="sRGB">
<feFlood flood-opacity="0" result="BackgroundImageFix"/>
<feBlend mode="normal" in="SourceGraphic" in2="BackgroundImageFix" result="shape"/>
<feGaussianBlur stdDeviation="3.60182" result="effect1_foregroundBlur_179_836"/>
</filter>
<filter id="filter1_f_179_836" x="140.789" y="104.344" width="28.8145" height="28.8145" filterUnits="userSpaceOnUse" color-interpolation-filters="sRGB">
<feFlood flood-opacity="0" result="BackgroundImageFix"/>
<feBlend mode="normal" in="SourceGraphic" in2="BackgroundImageFix" result="shape"/>
<feGaussianBlur stdDeviation="3.60182" result="effect1_foregroundBlur_179_836"/>
</filter>
<filter id="filter2_f_179_836" x="94.8657" y="62.0222" width="21.6114" height="21.6109" filterUnits="userSpaceOnUse" color-interpolation-filters="sRGB">
<feFlood flood-opacity="0" result="BackgroundImageFix"/>
<feBlend mode="normal" in="SourceGraphic" in2="BackgroundImageFix" result="shape"/>
<feGaussianBlur stdDeviation="3.60182" result="effect1_foregroundBlur_179_836"/>
</filter>
<linearGradient id="paint0_linear_179_836" x1="105.671" y1="69.2258" x2="105.671" y2="168.276" gradientUnits="userSpaceOnUse">
<stop stop-color="#3B82F6"/>
<stop offset="1" stop-color="#7C3AED"/>
</linearGradient>
<linearGradient id="paint1_linear_179_836" x1="200.604" y1="125.955" x2="212.358" y2="184.729" gradientUnits="userSpaceOnUse">
<stop stop-color="#2DD4BF"/>
<stop offset="1" stop-color="#60A5FA"/>
</linearGradient>
</defs>
</svg>
