<svg xmlns="http://www.w3.org/2000/svg" height="1024" preserveAspectRatio="none" style="display: block;" version="1.1" viewBox="0 0 2048 2048" width="1024">
<path d="M 0 0 L 2048 0 L 2048 2048 L 0 2048 L 0 0 z" fill="rgb(254,254,254)" transform="translate(0,0)"></path>
<path d="M 925.383 95.9973 C 927.867 96.8223 927.62 96.7898 929.933 98.0659 C 932.791 102.089 933.897 107.766 933.962 112.647 C 934.618 161.779 935.609 210.7 935.236 259.826 C 935.149 329.255 934.115 398.68 932.132 468.081 C 929.478 580.476 926.167 692.383 927.093 804.859 C 926.164 841.88 928.823 866.173 903.399 896.093 C 867.083 940.934 808.769 925.126 758.14 929.715 C 678.871 937.47 597.498 929.665 518.376 934.089 C 419.678 939.607 322.433 931.705 223.756 933.11 C 207.585 933.341 191.013 931.443 174.917 931.659 C 154.133 931.939 132.969 932.964 112.24 934.358 C 108.778 934.907 110.314 935.204 107.419 933.854 C 101.303 921.734 124.605 890.504 132.767 881.591 C 137.566 876.351 143.23 871.843 150.556 871.362 C 164.697 870.432 179 871.01 193.182 870.979 L 291.299 871.157 C 302.852 871.176 315.208 871.475 326.72 870.905 C 402.322 867.158 477.65 869.321 553.306 866.025 C 555.656 819.674 560.132 772.873 560.917 726.483 C 561.585 686.959 561.044 658.288 578.981 621.532 C 604.957 568.305 653.607 550.985 709.968 550.822 C 727.864 550.77 747.317 548.165 765.507 549.115 C 800.037 550.717 834.502 553.319 869.044 552.002 C 873.841 496.766 871.982 438.827 871.074 383.499 C 870.559 352.096 873.718 320.626 872.918 288.922 C 871.812 245.057 870.965 201.081 869.937 157.221 C 869.854 153.646 870.603 144.634 872.135 142.097 C 879.021 130.697 914.301 99.8663 925.383 95.9973 z" fill="rgb(1,1,1)" transform="translate(0,0)"></path>
<path d="M 919.728 113.934 C 922.897 129.145 921.022 177.707 920.954 196.307 L 919.103 407.507 L 917.348 680.413 L 917.825 778.871 C 917.744 801.475 917.553 826.562 914.605 848.876 C 911.983 868.713 897.644 889.22 881.653 900.752 C 866.62 911.593 847.551 916.996 829.155 918.321 C 803.417 920.174 776.589 919.014 750.716 919.116 C 726.675 919.211 702.799 920.849 678.774 921.2 C 661.37 921.455 643.971 919.856 626.607 919.772 L 351.483 920.918 L 173.936 921.84 C 159.306 921.854 137.019 924.778 123.356 922.544 C 135.497 870.03 176.004 897.735 209.268 893.946 C 277.256 886.202 342.634 891.056 410.47 891.01 L 546 891.495 C 573.807 891.421 599.585 890.918 627.658 891.724 C 664.963 892.796 703.611 889.829 741.064 890.052 C 770.085 889.846 799.156 888.971 828.157 888.451 C 853.123 888.003 882.991 864.122 885.322 839.017 C 890.687 781.233 888.255 724.237 886.927 666.441 C 886.528 649.074 887.127 631.219 887.156 613.826 C 889.399 560.182 888.697 506.768 889.069 453.132 L 890.741 251.481 C 891.143 217.043 893.834 171.37 890.898 138.603 C 898.217 131.082 911.442 120.508 919.728 113.934 z" fill="rgb(254,254,254)" transform="translate(0,0)"></path>
<path d="M 739.472 699.322 C 751.858 698.585 778.022 700.23 791.497 701.067 C 817.481 702.683 839.234 703.118 865.178 702.998 C 864.006 744.249 865.503 787.306 862.409 828.495 C 861.529 840.216 838.351 857.954 828.951 864.474 C 821.662 868.613 782.985 865.749 772.482 865.429 C 750.554 864.911 728.619 864.778 706.687 865.028 C 709.977 825.49 708.515 789.34 709.286 749.933 C 709.757 725.845 712.402 705.75 739.472 699.322 z" fill="rgb(254,254,254)" transform="translate(0,0)"></path>
<path d="M 710.543 627.349 C 719.849 625.87 757.109 627.062 767.711 627.384 C 802.078 628.427 834.402 629.675 868.937 628.708 C 868.796 636.15 868.352 643.922 868.04 651.388 C 839.309 646.966 796.06 652.484 766.063 653.009 C 747.073 653.962 727.603 653.47 708.711 655.385 C 694.081 656.868 682.402 671.695 675.184 683.17 C 665.403 698.718 660.709 713.862 658.302 731.765 C 654.136 768.329 654.582 827.825 655.218 865.037 L 632.463 865.053 C 630.874 843.256 630.984 820.942 631.037 799 C 631.118 764.962 630.102 728.743 638.106 695.488 C 641.034 683.324 647.145 669.251 655.015 659.548 C 672.12 638.458 684.299 630.842 710.543 627.349 z" fill="rgb(254,254,254)" transform="translate(0,0)"></path>
<path d="M 749.983 662.555 C 775.284 661.329 788.904 663.286 813.548 664.287 C 831.383 664.973 849.24 664.882 867.067 664.016 C 866.996 673.319 866.373 683.28 865.957 692.625 L 783.884 691.444 C 772.941 691.183 761.741 690.435 750.786 690.131 C 697.473 688.652 697.585 732.486 696.187 771.588 C 695.766 801.282 697.286 834.901 698 864.852 L 670.305 864.975 C 670.015 835.798 670.068 806.618 670.463 777.442 C 670.63 761.318 670.048 740.277 673.009 724.825 C 675.886 709.812 683.662 691.071 694.503 680.03 C 712.242 661.964 727.287 663.139 749.983 662.555 z" fill="rgb(254,254,254)" transform="translate(0,0)"></path>
<path d="M 698.999 581.427 C 716.229 580.04 747.764 582.313 766.014 583.103 C 789.483 583.96 812.966 584.36 836.451 584.304 C 844.981 584.35 862.675 585.401 869.595 582.613 L 868.222 601.244 C 848.76 598.966 813.788 601.124 791.854 601.143 C 755.132 602.258 717.906 597.685 681.403 602.642 C 621.757 610.741 615.678 668.208 609.137 715.764 C 602.718 767.757 607.281 812.523 605.03 864.928 L 585.212 865.133 C 591.521 823.852 585.807 780.817 587.178 739.34 C 587.589 714.139 592.481 690.08 598.573 665.831 C 606.823 632.997 623.563 604.168 655.096 589.043 C 669.055 582.348 683.714 582.389 698.999 581.427 z" fill="rgb(254,254,254)" transform="translate(0,0)"></path>
<path d="M 1130.88 104.632 C 1142.63 106.598 1153.12 118.935 1162.89 125.888 C 1169.73 130.749 1178.9 136.396 1184.6 142.067 C 1191.78 168.574 1187.48 257.672 1187.41 290.729 L 1188.1 550.062 C 1231.78 550.377 1275.47 551.294 1319.13 552.813 C 1379.72 554.511 1420.45 548.367 1465.28 600.366 C 1512.46 655.092 1498.52 725.684 1497.79 791.896 C 1497.53 814.584 1497.65 839.396 1495.98 861.718 C 1575.71 857.681 1655.91 861.707 1735.47 861.893 C 1792.19 862.026 1852.14 859.259 1909.22 858.031 C 1917.85 869.594 1924.09 880.923 1933.97 891.981 C 1941.72 900.651 1950.82 907.353 1958.16 915.997 C 1959.99 918.156 1959.49 918.69 1959.05 920.424 C 1955.53 922.357 1952.3 922.256 1948.25 922.626 C 1931.63 923.891 1918.57 921.286 1902.74 921.268 L 1758.13 920.927 C 1724.81 920.679 1690.04 922.946 1655.77 923.033 C 1602.39 923.304 1549.02 923.104 1495.64 922.434 C 1475.55 922.099 1455.54 920.756 1435.64 920.425 C 1415.79 920.094 1394.51 921.286 1374.51 921.482 L 1242.73 921.725 C 1212.66 921.569 1202.4 930.655 1173.94 911.601 C 1109.69 868.569 1120 831.213 1121.89 760.992 C 1122.82 725.093 1123.21 689.183 1123.07 653.272 L 1125.48 273.45 C 1125.93 227.864 1124.9 182.209 1126.71 136.637 C 1127.3 121.899 1121.41 117.533 1130.88 104.632 z" fill="rgb(1,1,1)" transform="translate(0,0)"></path>
<path d="M 1138.62 120.811 C 1149.35 129.509 1157.03 135.304 1168.99 142.138 C 1163.94 172.577 1165.92 207.389 1166.19 238.619 C 1166.56 278.323 1166.47 318.031 1165.92 357.733 L 1162.52 618.996 L 1160.46 706.358 C 1159 752.139 1149.56 822.068 1180.2 859.746 C 1199.84 883.903 1229.83 883.515 1258.19 883.86 C 1283.28 884.166 1308.7 883.708 1333.95 883.212 L 1452.03 880.47 C 1560.1 877.896 1668.09 879.367 1776.13 877.843 C 1804.42 877.444 1832.2 881.959 1860.72 879.097 C 1882.97 876.864 1905.54 874.601 1919.27 895.585 C 1922.12 899.943 1929.14 905.241 1925.78 910.388 C 1908.57 914.183 1882.65 910.749 1864.25 909.701 L 1806.2 906.707 C 1797.52 906.263 1789.08 906.101 1780.4 905.935 C 1746.82 905.294 1713.04 903.961 1679.48 905.911 C 1664.82 906.763 1650.51 908.874 1635.76 908.982 L 1484.87 909.164 C 1465.37 909.158 1448.46 908.02 1428.62 908.573 L 1306.06 911.643 C 1282.39 912.297 1256.5 913.847 1233.27 913.465 C 1198.91 912.902 1175.09 903.173 1152.13 877.593 C 1141.45 865.705 1133.99 856.051 1132.5 839.282 C 1130.52 816.914 1132.19 793.075 1132.25 770.47 L 1133.08 612.441 L 1138.89 210.198 C 1139.4 179.996 1137.75 152.041 1138.62 120.811 z" fill="rgb(254,254,254)" transform="translate(0,0)"></path>
<path d="M 1185.1 703.758 C 1231.9 705.079 1278.63 703.301 1325.29 705.301 C 1344.76 706.136 1347.55 727.304 1347.13 742.907 C 1346.09 781.251 1345.98 819.276 1347.04 857.72 C 1341.14 861.747 1256.64 855.499 1243.21 855.518 C 1197.32 855.583 1189.8 820.162 1187.01 782.696 C 1185 755.747 1185 730.628 1185.1 703.758 z" fill="rgb(254,254,254)" transform="translate(0,0)"></path>
<path d="M 1185.28 630.841 L 1323.05 630.735 C 1352.27 630.969 1384.76 625.082 1406.47 649.541 C 1427.75 673.514 1426.94 704.319 1425.96 734.918 C 1424.64 776.361 1424.63 819.311 1422.31 860.752 L 1421.57 861.653 C 1418.4 862.887 1407.03 862.107 1402.89 861.974 C 1403.12 857.998 1403.32 854.021 1403.49 850.042 C 1404.52 825.554 1402.91 732.903 1397.02 712.931 C 1393.14 699.758 1385.13 687.134 1375.81 677.146 C 1366.91 667.616 1356.01 660.142 1343.49 656.284 C 1320.27 649.132 1286.33 651.197 1261.85 650.67 C 1236.22 650.06 1210.6 649.252 1184.98 648.248 L 1185.28 630.841 z" fill="rgb(254,254,254)" transform="translate(0,0)"></path>
<path d="M 1196.63 583.43 C 1221.81 582.246 1267.76 581.868 1293.12 583.289 C 1335.26 585.649 1412.69 583.444 1441.95 615.888 C 1478.83 656.772 1471.71 710.292 1470.66 760.289 C 1469.93 795.277 1467.8 828.679 1466.42 863.198 C 1461.49 863.818 1455.82 863.904 1450.8 864.117 L 1449.2 863.609 C 1444.25 853.212 1456.64 708.408 1453.39 685.085 C 1450.37 663.427 1447.48 642.344 1428.4 626.185 C 1417.85 617.253 1400.45 610.244 1387.34 607.768 C 1370.76 604.64 1347.49 603.9 1330.58 603.628 C 1284.51 602.886 1230.45 600.482 1184.81 604.881 L 1184.08 584.55 L 1196.63 583.43 z" fill="rgb(254,254,254)" transform="translate(0,0)"></path>
<path d="M 1224.98 666.57 C 1257.57 664.848 1290.5 666.197 1323.1 666.944 C 1343.51 667.905 1354.75 671.32 1368.7 686.659 C 1391.88 712.145 1388.46 733.417 1387.97 765.295 C 1387.47 797.878 1385.38 829.342 1383.12 861.814 C 1373.97 861.846 1367.3 861.891 1358.12 860.878 L 1358.03 848.669 L 1358.08 846.344 C 1358.9 803.268 1361.05 758.358 1356.39 715.621 C 1353.04 684.881 1302.64 692.237 1280.47 692.309 L 1185.45 692.662 C 1184.81 685.024 1185.04 675.603 1185.02 667.803 C 1197.99 667.11 1211.93 666.948 1224.98 666.57 z" fill="rgb(254,254,254)" transform="translate(0,0)"></path>
<path d="M 1542.51 1116.54 C 1588.22 1114.77 1640.27 1115.7 1686.18 1116.38 L 1798.87 1117.66 C 1844.03 1118.34 1889.37 1117.37 1934.54 1118.09 C 1940.13 1118.18 1946.44 1117.98 1948.62 1123.58 C 1948.44 1133.12 1929.04 1160.53 1921.74 1167.94 C 1915.64 1174.14 1908.93 1178.57 1900.08 1179 C 1878.15 1180.07 1855.04 1178.98 1833.17 1178.07 C 1809.01 1177.12 1784.83 1176.74 1760.65 1176.95 C 1722.85 1177.15 1682.75 1179.53 1644.76 1180.68 C 1594.16 1181.89 1543.55 1182.81 1492.94 1183.45 C 1493.96 1204.29 1495.65 1232.46 1493.67 1253.03 C 1487.24 1319.97 1498.91 1409.76 1444 1459.88 C 1429.3 1473.4 1411.51 1483.09 1392.19 1488.11 C 1369.78 1494.14 1346.07 1493.91 1322.92 1494.8 C 1276.63 1496.84 1230.26 1496.71 1183.97 1494.4 C 1183.85 1534.18 1184 1573.97 1184.42 1613.75 C 1184.08 1666.36 1182.52 1721.7 1183.12 1773.88 C 1183.55 1802.9 1184.26 1831.91 1185.25 1860.92 C 1185.54 1871.4 1188.62 1908.29 1182.12 1913.13 C 1171.78 1920.83 1137.9 1954.62 1125.79 1951.87 C 1123.02 1948.63 1123.37 1945.2 1123.28 1940.41 C 1122.87 1918.06 1124.13 1895.83 1123.8 1873.4 L 1122.87 1754.51 C 1122.71 1740.45 1121.46 1726.4 1121.52 1712.34 C 1121.68 1677.44 1123.43 1642.42 1122.95 1607.53 C 1122.75 1592.58 1120.23 1577.8 1120.26 1562.83 C 1120.29 1546.08 1122.86 1529.51 1123.22 1512.78 C 1123.78 1486.83 1123.11 1460.94 1123.17 1435 C 1123.24 1404.01 1124 1373.25 1123.11 1342.25 C 1122.1 1306.79 1120.38 1215.36 1130.2 1184.27 C 1134.08 1171.96 1141.02 1161.16 1149.91 1151.86 C 1162.68 1138.52 1179.43 1125.81 1197.63 1121.31 C 1219.78 1115.83 1269.42 1119.07 1294.86 1118.82 L 1542.51 1116.54 z" fill="rgb(1,1,1)" transform="translate(0,0)"></path>
<path d="M 1748.14 1127.43 C 1770.84 1126.48 1794.81 1129.63 1817.96 1129.93 L 1881.94 1130.38 C 1898.83 1130.36 1914.76 1129.59 1931.6 1131.49 C 1916.25 1167.08 1900.02 1159.04 1866.74 1157.44 C 1851.18 1156.84 1835.61 1156.66 1820.03 1156.91 C 1793.73 1157.5 1763.56 1162.55 1737.67 1161.26 C 1639.91 1156.38 1542.6 1156.86 1444.77 1155.94 C 1403.35 1155.84 1361.94 1156.24 1320.53 1157.15 C 1308.91 1157.35 1296.98 1157.65 1285.41 1157.85 C 1236.14 1158.7 1174.92 1156.74 1165.98 1219.24 C 1162.07 1246.57 1163.07 1272.84 1163.24 1300.71 L 1163.11 1378.53 L 1166.1 1782.5 C 1166.09 1826.27 1165.37 1870.03 1163.97 1913.77 C 1157.32 1920.42 1143.24 1930.61 1135.41 1936.54 C 1134.98 1921.44 1133.67 1905.54 1134.01 1890.5 C 1135.05 1844.78 1136.41 1799.25 1135.01 1753.51 C 1134.72 1744.31 1140.2 1729.1 1138.93 1720.92 C 1132.89 1681.98 1135.42 1641.97 1135.04 1602.5 L 1134.2 1382.37 C 1134.27 1353.26 1133.95 1324.14 1133.25 1295.03 C 1132.05 1233.69 1123.64 1147.56 1202.96 1133.7 C 1225.26 1129.81 1250.26 1130.88 1272.91 1131.06 L 1360 1131.68 C 1486.82 1131.53 1621.95 1134.36 1748.14 1127.43 z" fill="rgb(254,254,254)" transform="translate(0,0)"></path>
<path d="M 1276.09 1181.43 C 1291.48 1180.25 1328.54 1180.97 1344.26 1181.67 C 1346.06 1206.9 1346.55 1325.01 1333.05 1339.95 C 1331.35 1341.83 1329.28 1342.33 1326.83 1342.67 C 1317.45 1343.99 1307.27 1343.14 1297.81 1343.16 C 1283.64 1343.34 1269.47 1343.63 1255.3 1344.03 C 1232.73 1344.94 1210.13 1345.17 1187.55 1344.74 C 1187.26 1319.78 1184.89 1252.46 1190.02 1232.13 C 1192.69 1221.4 1197.88 1211.47 1205.16 1203.16 C 1223.24 1182.88 1250.86 1183.02 1276.09 1181.43 z" fill="rgb(254,254,254)" transform="translate(0,0)"></path>
<path d="M 1399.91 1182.08 L 1416.87 1182.06 C 1418.82 1240.86 1420.77 1303.33 1408.66 1360.91 C 1395.21 1424.9 1333.33 1421.51 1281.46 1421.05 C 1254.9 1420.81 1228.5 1419.46 1202.04 1418.93 C 1196.48 1418.87 1190.62 1418.43 1185.04 1418.12 L 1185.07 1395.02 C 1225.38 1394.76 1265.34 1395.33 1305.52 1397.13 C 1335.55 1398.47 1378.65 1381.78 1387 1349.81 C 1400.56 1297.87 1400.63 1235.84 1399.91 1182.08 z" fill="rgb(254,254,254)" transform="translate(0,0)"></path>
<path d="M 1372.6 1181.49 L 1380.31 1181.73 C 1380.5 1214.31 1386.33 1342.89 1364.54 1364.82 C 1356.48 1372.93 1344 1377.64 1332.91 1379.76 C 1311.53 1383.84 1287.84 1381.39 1266.15 1380.87 C 1242.1 1380.39 1218.05 1380.07 1194.01 1379.9 C 1192.45 1379.77 1188.84 1379.9 1188.23 1378.75 C 1185.21 1373.02 1186.89 1359.88 1187.04 1353.57 C 1233.57 1353.9 1279.75 1354.87 1326.29 1353.09 C 1333.06 1352.83 1341.19 1352.62 1345.93 1347.08 C 1363.63 1326.42 1357.08 1212.17 1354.93 1181.71 L 1372.6 1181.49 z" fill="rgb(254,254,254)" transform="translate(0,0)"></path>
<path d="M 1447.87 1182.58 L 1461.19 1181.96 C 1460.8 1218.18 1462.59 1253.71 1463.44 1289.64 C 1464.23 1322.58 1451.27 1381.9 1436.99 1411.08 C 1432.03 1421.45 1425.25 1430.85 1416.99 1438.84 C 1381.62 1472.45 1316.95 1465.09 1271.91 1465.21 C 1246.27 1465.28 1219.1 1465.38 1193.51 1464.73 C 1188.54 1464.23 1189.02 1465.04 1185.6 1462.49 C 1184.31 1459.43 1184.14 1459.14 1184.37 1455.66 L 1185.07 1444 C 1243.41 1444.69 1342.08 1461.72 1393.51 1434.83 C 1452.64 1403.91 1445.56 1275.64 1445.21 1218.25 C 1445.16 1211.26 1443.89 1187.28 1445.17 1183.19 L 1447.87 1182.58 z" fill="rgb(254,254,254)" transform="translate(0,0)"></path>
<path d="M 757.737 1125.44 C 772.75 1124.58 788.982 1125.18 804.224 1124.91 C 838.217 1123.93 866.406 1122.65 893.581 1147.13 C 941.614 1190.41 926.677 1267.31 927.243 1324.84 C 927.86 1387.61 925.353 1447.94 929.235 1510.19 C 930.643 1531.01 931.224 1551.87 930.976 1572.73 C 930.631 1588.54 929.331 1604.6 928.936 1620.68 C 928.372 1648.91 928.241 1677.15 928.544 1705.39 C 928.856 1776.16 932.819 1846.61 933.475 1917.36 C 933.895 1962.56 921.294 1951.7 893.457 1929.13 C 885.995 1923.08 878.699 1916.7 871.783 1910 C 868.825 1889.31 869.956 1867.52 869.719 1846.55 C 869.464 1824.06 868.092 1801 868.127 1778.6 C 868.158 1758.88 869.9 1738.24 870.116 1718.41 C 870.441 1688.49 867.567 1658.33 867.034 1628.52 C 866.254 1584.87 867.547 1540.59 864.898 1497 C 847.852 1494.99 825.666 1494.96 808.155 1494.53 C 777.361 1493.62 746.557 1493.12 715.75 1493.03 C 706.045 1492.96 696.345 1492.56 686.668 1491.81 C 646.11 1489.03 609.143 1477.24 581.474 1445.19 C 542.319 1399.85 550.439 1314.86 552.487 1258.03 C 553.289 1235.79 554.394 1209.34 556.149 1187.33 C 530.333 1186.64 500.415 1188.17 473.649 1187.84 L 364.824 1186.86 C 342.97 1186.61 318.928 1185.48 297.364 1186.21 C 247.464 1187.91 199.04 1190.03 149.017 1190.53 C 138.803 1183.29 94.1083 1142.55 94.6288 1131.21 C 102.208 1128.2 133.25 1129.88 143.697 1129.41 C 191.091 1127.3 238.62 1128.11 286.041 1128.18 C 308.519 1128.21 331.21 1126.75 353.619 1127.05 L 491.44 1128.99 C 511.005 1129.33 530.361 1131.78 550.078 1131.23 C 619.229 1129.29 688.664 1128.92 757.737 1125.44 z" fill="rgb(1,1,1)" transform="translate(0,0)"></path>
<path d="M 796.451 1136.57 C 832.151 1134.59 867.324 1136.91 894.856 1163.46 C 904.072 1172.35 915.579 1197.73 916.57 1210.42 C 918.888 1240.11 917.226 1270.87 917.139 1300.75 C 917.513 1360.17 917.558 1419.58 917.272 1479 L 919.086 1784.94 C 919.35 1834.23 921.1 1885.47 919.426 1934.66 C 908.521 1926.81 896.869 1918.82 887.62 1909.13 C 891.158 1887.17 889.177 1869.02 890.089 1847.42 C 892.068 1800.55 889.496 1754.34 889.375 1707.5 L 889.191 1278.75 C 889.142 1260.92 889.793 1235.12 887.295 1218.46 C 885.145 1198.62 860.975 1174.01 840.923 1171.18 C 791.696 1164.25 731.09 1168.04 681.732 1168.54 L 325.899 1169.77 L 202.633 1170.97 C 186.72 1171.01 170.676 1171.8 154.792 1171.28 C 138.723 1170.75 126.318 1158.03 123.271 1142.74 C 122.841 1140.58 123.58 1140.33 124.809 1138.95 C 133.193 1136.41 207.939 1139.96 222.568 1140.19 C 263.688 1140.85 308.832 1143.39 350.313 1144.78 C 365.594 1145.7 384.404 1141.75 399.304 1143.15 C 451.25 1148.04 501.02 1144.04 552.832 1142.91 L 796.451 1136.57 z" fill="rgb(254,254,254)" transform="translate(0,0)"></path>
<path d="M 703.999 1187.91 C 739.248 1187.04 786.328 1188.17 821.456 1196.53 C 850.308 1203.4 862.629 1234.34 861.949 1261.76 C 861.636 1274.38 866.67 1340.36 862.741 1346.95 C 852.856 1347.85 842.539 1348.1 832.648 1348.04 C 800.104 1347.83 767.262 1350.05 734.839 1346.96 C 720.991 1345.63 713.206 1338.83 705.368 1328.57 C 701.187 1282.86 702.459 1233.73 703.999 1187.91 z" fill="rgb(254,254,254)" transform="translate(0,0)"></path>
<path d="M 627.441 1187.32 C 635.767 1187.06 644.148 1187.38 652.48 1187.6 C 649.503 1225.44 648.904 1271.85 651.524 1309.95 C 652.711 1327.23 663.356 1360.29 673.924 1373.92 C 683.25 1385.95 711.261 1393.86 726.195 1396.23 C 735.317 1397.73 748.443 1396.72 757.747 1397.52 C 790.917 1400.36 830.376 1397.55 862.896 1400.74 C 862.94 1405.22 863.539 1413.32 862.255 1417.27 L 860.216 1418.12 C 828.339 1418.84 795.432 1418.68 763.451 1418.88 C 739.066 1417.81 711.662 1421.64 687.926 1416.22 C 631.904 1403.42 620.045 1365.34 623.46 1313.14 C 624.851 1291.88 624.974 1270.54 626.919 1249.02 C 628.649 1229.87 627.433 1206.58 627.441 1187.32 z" fill="rgb(254,254,254)" transform="translate(0,0)"></path>
<path d="M 667.114 1187.23 C 676.148 1187.22 685.473 1187.59 694.527 1187.84 C 692.377 1226.75 691.539 1266.09 691.425 1305.03 C 691.25 1365.09 733.641 1360.92 778.115 1359.88 C 806.829 1359.44 835.52 1358.07 864.145 1355.76 L 864.824 1382.48 C 842.715 1386.5 806.283 1383.54 783.539 1383.87 C 752.452 1384.31 705.988 1391.13 683.029 1365.69 C 656.039 1335.78 664.89 1283.26 665.907 1246.06 C 666.448 1226.27 666.498 1206.86 667.114 1187.23 z" fill="rgb(254,254,254)" transform="translate(0,0)"></path>
<path d="M 587.328 1187.66 L 604.038 1188.06 C 602.153 1211.92 601.217 1237.51 600.795 1261.49 C 599.988 1307.32 581.677 1371.67 615.055 1409.6 C 623.381 1419.17 633.881 1426.6 645.672 1431.27 C 696.223 1451.37 805.031 1442.9 863.012 1446.32 C 863.094 1452.48 862.946 1458.64 862.568 1464.79 C 844.606 1464.93 823.524 1463.2 806.295 1464.15 C 764.03 1466.49 728.758 1465.03 687.013 1456.66 C 651.917 1450.7 624.007 1447.98 600.22 1418.72 C 569.318 1380.7 578.477 1355.34 581.352 1311.23 C 584.01 1270.46 582.788 1228.79 587.328 1187.66 z" fill="rgb(254,254,254)" transform="translate(0,0)"></path>
<path d="M 965.113 769.885 C 967.885 770.152 966.928 769.829 969.227 771.421 C 972.851 778.692 968.162 788.473 965.529 796.447 C 1014.74 854.83 1202.4 1051.92 1262.82 1075.98 L 1263.77 1075.36 C 1278.9 1065.56 1284.9 1078.2 1274.6 1088.62 C 1269.1 1094.17 1261.69 1093.29 1254.38 1092.91 C 1237.59 1083.46 1216.65 1057.85 1198.11 1045.2 C 1147.8 1091.51 1101.37 1146.68 1053.48 1196.24 C 1064.13 1208.69 1075.54 1221.24 1085.95 1233.13 C 1095.59 1244.13 1120.44 1279.52 1090.99 1281.13 C 1081.17 1281.67 1086.12 1265.17 1083.73 1259.07 C 1079.82 1249.07 1072.06 1241.37 1065.44 1233.12 C 1029.4 1193.1 991.435 1154.81 954.334 1115.76 C 927.76 1088.95 900.642 1061.87 871.032 1038.43 C 845.861 1018.5 823.186 996.067 799.05 975.102 C 795.304 971.848 783.549 973.105 778.794 972.04 C 776.388 971.526 774.357 969.925 773.295 967.706 C 768.225 957.106 790.183 951.584 796.064 956.079 C 822.144 976.013 842.654 1003.27 868.481 1024.06 C 872.868 1018.72 877.525 1013.78 882.286 1008.77 C 925.396 963.452 974.011 918.324 1014.47 870.798 C 1010.49 866.819 1006.6 863.899 1002.21 860.43 C 987.485 873.326 974.576 890.753 960.701 904.709 C 930.009 935.58 899.735 966.776 869.357 997.946 C 866.239 1001.14 863.515 1003.03 859.175 1002.82 L 858.09 1001.57 C 858.57 991.107 908.402 944.827 917.74 934.726 C 943.162 907.228 967.168 878.325 992.078 850.515 C 976.416 834.493 941.477 802.76 952.298 779.888 C 955.216 773.722 959.062 771.698 965.113 769.885 z" fill="rgb(1,1,1)" transform="translate(0,0)"></path>
<path d="M 1027.09 883.95 C 1031.37 886.687 1053.58 910.186 1059.05 915.53 C 1095.79 951.409 1132.47 990.742 1174.16 1021.13 C 1145.76 1039.43 1098.77 1092.97 1073.6 1117.58 C 1064.52 1126.46 1034.29 1158.93 1027.86 1168.35 C 1021.82 1163.99 1004.95 1146.66 998.882 1140.69 L 941.646 1084.44 C 920.453 1063.77 900.721 1048.95 880.289 1029.75 C 899.023 1007.4 929.086 980.318 950.431 958.875 L 997.587 911.74 C 1005.89 903.398 1017.61 889.897 1027.09 883.95 z" fill="rgb(254,254,254)" transform="translate(0,0)"></path>
<path d="M 1024 1035.65 C 1030.6 1035.91 1053.41 1066.64 1059.18 1073.74 C 1052.84 1079.88 1035.95 1092.37 1027.76 1099.3 C 1025.58 1100.48 1025.57 1100.24 1023.05 1100.82 C 1018.46 1099.53 996.139 1077.76 993.203 1073.19 C 1000.36 1062.82 1014.49 1042.69 1024 1035.65 z" fill="rgb(1,1,1)" transform="translate(0,0)"></path>
<path d="M 1023.91 948.882 C 1032.71 947.79 1054.99 969.512 1062.54 976.196 C 1049.9 987.669 1041.22 995.183 1029.96 1008.64 C 1027.13 1010.84 1027.65 1011.16 1024.57 1011.51 C 1015.95 998.821 1001.52 987.911 995.592 976.148 C 997.766 970.422 1018.16 952.731 1023.91 948.882 z" fill="rgb(1,1,1)" transform="translate(0,0)"></path>
<path d="M 1077.53 991.635 C 1083.28 993.473 1085.57 1001.34 1089.25 1005.48 C 1092.46 1009.1 1107.45 1020.6 1103.94 1024.81 C 1099.73 1029.88 1078.55 1054.02 1073.89 1056.35 L 1072.08 1055.35 C 1061.55 1044.82 1055.32 1039.03 1042.96 1031.08 L 1038.82 1020.42 C 1058.35 1011.18 1061.12 1005.52 1077.53 991.635 z" fill="rgb(1,1,1)" transform="translate(0,0)"></path>
<path d="M 977.855 992.894 C 988.433 998.158 1004.86 1015.24 1014.33 1024.03 C 1007.9 1031.79 989.728 1043.85 980.5 1050.49 C 978.232 1052.12 978.283 1051.97 975.536 1052.65 C 969.711 1050.98 951.92 1029.51 948.187 1024.05 C 951.571 1020.45 956.578 1016.54 960.336 1012.75 C 966.734 1006.31 972.058 999.845 977.855 992.894 z" fill="rgb(1,1,1)" transform="translate(0,0)"></path>
<path d="M 1182.54 1025.55 C 1187.55 1026 1191.04 1029.95 1194.71 1033.27 C 1175.36 1058.1 1142.51 1086.95 1119.3 1110.31 C 1094.4 1135.36 1069.85 1164.11 1045.1 1188.23 C 1041.03 1184.94 1037.22 1180.55 1033.61 1176.68 C 1041.59 1166.93 1058.22 1150.86 1067.58 1141.28 C 1087.5 1120.65 1107.59 1100.19 1127.84 1079.9 C 1141.86 1065.87 1168.54 1036.98 1182.54 1025.55 z" fill="rgb(254,254,254)" transform="translate(0,0)"></path>
<path d="M 1060.08 100.307 C 1067.48 102.427 1068.5 106.283 1068.4 113.774 C 1066.95 217.715 1066.73 321.887 1070.88 425.799 C 1074.42 514.592 1069.29 603.816 1072.02 692.669 C 1072.9 721.03 1073.17 753.456 1066.78 780.936 C 1064.22 791.936 1038.99 817.959 1030.19 827.331 C 1033.61 831.137 1037.08 834.039 1040.9 837.403 C 1053.09 824.08 1067.6 809.174 1077.68 794.517 C 1076.15 790.059 1072.14 777.712 1076.92 774.92 C 1086.28 775.288 1093.61 781.481 1093.19 790.723 C 1092.3 810.271 1062.47 834.842 1049.32 848.191 C 1066.17 873.192 1087.82 888.644 1110.95 906.91 C 1115.85 910.774 1121.45 921.668 1126.57 926.137 C 1152.07 948.392 1176.49 972.141 1201.88 994.448 C 1217.25 979.919 1225.49 966.63 1245.02 954.504 C 1276.43 934.996 1278.22 966.962 1269.06 970.346 C 1266.83 967.008 1263.39 962.646 1259.03 963.914 C 1241.48 969.021 1222.99 992.929 1211.85 1006.17 C 1213.51 1008.06 1216.38 1010.58 1218.3 1012.38 C 1230.07 1001.48 1240.6 989.272 1252.98 978.885 C 1263.62 969.968 1268.4 976.826 1281.44 976.486 C 1375.32 974.958 1469.21 974.581 1563.1 975.356 C 1586.93 975.579 1611.15 973.635 1635.53 974.41 C 1668.12 975.445 1702.06 978.198 1734.5 978.756 L 1880.12 981.541 C 1902.21 981.795 1923.64 979.993 1945.84 981.413 L 1942.18 992.512 C 1898.73 994.635 1849.61 990.492 1804.83 992.178 C 1727.47 994.687 1650.29 1000.51 1572.84 997.913 C 1561.87 996.908 1545.6 997.655 1535.02 995.566 C 1498.35 988.325 1473.2 991.52 1436.77 997.567 C 1420.39 1000.29 1387.61 997.706 1369.55 996.98 C 1339.93 996.387 1309.75 1000.78 1276.89 999.578 C 1273.44 996.987 1268.59 992.386 1264.31 992.81 C 1252.74 993.955 1239.89 1011.75 1232.03 1020.19 C 1241.61 1027.79 1262.52 1040.1 1253.1 1053.88 C 1251.02 1054.73 1250.45 1055.12 1248.2 1054.44 C 1235.38 1050.62 1118.85 932.84 1099.23 913.703 C 1084.04 898.887 1067.58 885.418 1052.36 870.618 C 1037.86 856.509 1024.59 841.234 1010.34 826.883 C 998.962 815.418 983.081 803.087 975.287 789.034 C 981.193 743.15 979.178 680.282 979.223 633.736 L 981.063 404.681 C 981.308 389.616 986.033 376.889 986.718 362.994 C 988.031 336.363 987.54 309.312 988.545 282.6 C 990.105 241.125 991.592 201.586 990.291 159.873 C 991.156 143.62 985.943 123.884 990.943 108.46 C 991.571 106.522 998.421 106.548 1000.82 109.05 C 1002.01 120.342 1001.17 148.626 1001.25 161.184 C 1002.02 203.717 999.149 246.435 1000.85 288.941 C 1005.56 406.599 1002.77 524.07 1002.75 641.821 C 1002.66 658.43 1003.02 675.039 1003.84 691.628 C 1005.4 718.274 1010.85 761.853 997.515 785.595 C 1005.9 797.304 1011.47 802.237 1022.49 811.614 C 1030.89 803.469 1043.93 787.017 1051.24 781.433 C 1044.04 765.842 1046.9 734.52 1046.98 716.573 L 1046.98 630.5 C 1046.3 560.998 1046.72 491.49 1048.21 422.002 C 1048.84 401.363 1050.38 380.587 1050.57 359.952 C 1050.96 317.174 1054.84 274.683 1056.92 232.009 C 1058.92 191.041 1054.76 149.593 1055.46 108.563 C 1055.51 105.171 1057.96 102.687 1060.08 100.307 z" fill="rgb(1,1,1)" transform="translate(0,0)"></path>
<path d="M 611.947 983.408 C 634.884 980.928 656.277 992.765 680.608 992.02 C 691.514 993.248 700.93 986.2 711.101 985.507 C 733.79 983.962 762.509 981.319 784.775 985.105 C 790.573 986.091 804.112 1000.72 809.642 1005.11 C 822.813 1015.57 836.106 1025.43 849.045 1036.13 C 878.017 1062.26 904.897 1089.09 931.336 1117.78 C 950.812 1138.91 968.952 1160.87 988.653 1181.59 C 994.15 1187.37 1005.84 1196.34 1012.2 1202.01 C 1023.79 1212.47 1035.95 1222.46 1047.63 1232.79 C 1057.47 1241.48 1071.33 1248.84 1077.25 1260.51 L 1069.01 1267.23 C 1071.02 1292.54 1068.98 1312.61 1069.34 1337 C 1069.7 1361.8 1072.64 1386.8 1071.94 1412.31 C 1071.62 1423.96 1068.76 1442.08 1069.2 1451.7 C 1070.59 1482.03 1070.68 1511.76 1071.35 1542 C 1071.63 1554.72 1070.34 1577.48 1071.26 1588.27 C 1073.09 1609.84 1078.17 1622.2 1077.12 1646.4 C 1076.32 1664.91 1071.04 1680.25 1070.09 1697.12 C 1068.37 1732.73 1066.06 1767.59 1066.13 1803.41 C 1066.22 1848.31 1066.58 1894.77 1066.83 1939.68 C 1066.84 1942.18 1064.4 1945.42 1062.22 1946.76 L 1060.18 1945.85 C 1054.77 1937.54 1056.56 1901.91 1056.28 1889.77 L 1053.29 1757.49 C 1052.19 1721.68 1048.98 1686.1 1048.2 1650.34 C 1047.71 1627.96 1049.06 1604.94 1048.88 1582.56 L 1046.04 1391.82 C 1045.65 1355.91 1043.47 1320.61 1041.83 1284.79 C 1041.37 1274.7 1044.01 1265.38 1049.9 1256.98 C 1037.02 1242.73 1023.91 1228.7 1010.55 1214.89 C 996.335 1231.11 979.631 1245.21 966.342 1262.04 C 963.629 1265.47 968.042 1274.42 962.115 1279.42 C 958.687 1280.13 958.871 1280.31 955.728 1278.89 C 937.788 1260.18 989.626 1219.75 1000.65 1205.21 C 972.932 1177.13 944.196 1149.79 916.925 1121.17 C 895.411 1098.58 875.698 1073.56 850.17 1055.17 C 840.017 1062.75 775.73 1138.48 777.95 1091.61 C 779.915 1090.09 786.839 1089.55 790.43 1088.57 C 799.761 1086.02 832.594 1049.94 835.753 1042.86 C 833.477 1040.58 833.375 1040.74 830.373 1039.4 C 824.705 1041.64 803.493 1067.47 796.197 1073.86 C 775.353 1070.13 753.536 1072.84 732.504 1071.93 C 692.182 1070.19 652.193 1072.28 611.953 1073.85 C 596.381 1074.46 580.178 1069.99 563.185 1071.22 C 542.579 1070.71 522.325 1076.54 502.102 1077.28 C 416.185 1080.39 329.159 1074.9 243.308 1070.72 C 228.922 1070.02 214.942 1072.29 201.189 1071.88 C 174.448 1071.09 149.227 1069.12 122.51 1072.41 C 118.432 1072.91 113.251 1069.71 110.296 1066.85 C 109.309 1064.09 109.087 1065.21 109.999 1063.21 C 113.944 1059.6 122.795 1059.93 127.849 1060.17 C 162.858 1061.8 197.859 1059.42 232.928 1060.08 C 255.746 1060.52 279.142 1057.07 302.026 1056.69 C 368.296 1055.59 434.557 1053.33 500.839 1052.96 C 521.468 1052.84 541.865 1056.69 562.492 1056.23 C 579.156 1055.92 595.179 1052.13 611.696 1051.11 C 632.48 1049.83 653.47 1052.61 674.272 1051.96 C 690.455 1051.35 706.692 1048.49 722.852 1047.75 C 745.525 1046.71 768.42 1046.58 791.119 1046.2 C 799.546 1041.02 808.896 1033.83 816.5 1027.49 C 807.632 1020.14 798.172 1009.55 788.915 1003.92 C 768.489 1007.76 743.029 1008.73 722.53 1007.54 C 706.372 1007.69 682.049 1001.98 666.686 1004.05 C 633.073 1008.59 604.002 1007.39 570.275 1005.89 C 545.911 1004.8 518.878 1009.19 494.194 1008.94 C 475.854 1008.75 457.541 1007.01 439.187 1006.66 L 268.228 1004.65 C 218.723 1004.13 169.241 1003.55 119.735 1003.96 C 114.765 1004 105.109 1004.95 102.003 1001.49 C 101.125 991.644 109.901 990.433 117.855 990.881 C 161.758 993.35 206.186 993.306 250.203 993.306 C 290.42 992.524 330.5 989.868 370.65 988.091 C 394.198 987.049 418.22 989.54 441.793 988.873 C 462.693 988.282 483.529 985.593 504.459 985.425 C 524.003 985.268 542.846 992.018 562.5 991.067 C 579.761 990.274 594.312 984.824 611.947 983.408 z" fill="rgb(1,1,1)" transform="translate(0,0)"></path>
<path d="M 1018.16 1233.49 C 1037.84 1235.79 1004.74 1265.79 1000.65 1269.71 C 1001.09 1284.16 1003.68 1298.37 1003.28 1313.45 C 1002.73 1334.38 1001.21 1354.92 1001.41 1375.88 C 1001.62 1397.73 1004.27 1421.12 1004.23 1442.77 L 1000.07 1871.8 C 999.961 1894.52 1001.21 1916.33 1002.62 1938.98 C 1002.95 1944.28 1002.14 1952.62 996.076 1953.95 C 992.55 1952.84 992.591 1952.59 989.942 1950.19 C 987.664 1938.76 988.874 1903.74 988.907 1889.57 C 988.933 1856.78 988.523 1823.99 987.678 1791.21 C 986.463 1758.67 984.524 1726.17 981.864 1693.71 C 980.62 1678.7 978.012 1663.61 977.53 1648.57 C 977.126 1635.96 982.616 1611.68 978.411 1601.17 C 974.967 1592.56 976.353 1544.8 977.188 1532.88 C 978.831 1509.42 982.331 1486.57 982.573 1462.91 C 980.78 1460.76 978.078 1457.98 976.133 1455.85 C 975.066 1442.61 976.09 1425.56 976.959 1411.94 C 979.899 1365.87 979.722 1320.85 978.864 1274.72 C 989.03 1262.97 1007.05 1243.99 1018.16 1233.49 z" fill="rgb(1,1,1)" transform="translate(0,0)"></path>
<path d="M 1271.94 1041.06 C 1305.79 1040.1 1344.17 1043.76 1378.23 1045.1 C 1398.06 1045.88 1419.55 1041.5 1439.98 1043.12 C 1456.2 1044.4 1470.71 1048.84 1486.55 1049.71 C 1496.14 1049.75 1505.74 1046.86 1515.25 1045.67 C 1549.19 1041.39 1582.6 1043.51 1616.74 1043.81 L 1836.04 1046.2 C 1870.18 1046.32 1903.77 1046.41 1937.87 1044.41 C 1943.11 1044.1 1948.98 1045.57 1950.3 1051.3 C 1948.86 1057.92 1943.72 1059.65 1937.71 1059.63 C 1902.51 1058.1 1868.1 1058.99 1832.96 1059.95 C 1811.96 1060.52 1790.15 1059.47 1769.11 1060.23 C 1753.68 1060.79 1738.02 1062.38 1722.55 1062.92 C 1703.21 1063.59 1683.57 1062.59 1664.24 1062.77 C 1660.28 1062.81 1652.26 1068.98 1646.94 1068.95 C 1632.64 1068.79 1618.47 1066.59 1604.11 1066.34 C 1575.97 1065.84 1547.88 1068.27 1519.76 1066.52 C 1515.18 1066.23 1510.08 1065.93 1505.5 1065.97 C 1468.17 1066.26 1430.96 1068.26 1393.67 1069.01 C 1378.84 1069.3 1363.53 1065.16 1348.58 1065.75 C 1325.96 1065.63 1303.28 1066.13 1280.66 1065.69 C 1273.32 1065.54 1261.12 1059.39 1263.75 1050.25 C 1265.09 1045.6 1268.09 1043.53 1271.94 1041.06 z" fill="rgb(1,1,1)" transform="translate(0,0)"></path>
<path d="M 1081.9 375.959 C 1090.28 375.567 1095.31 375.501 1096.65 385.798 C 1097.38 393.625 1097.85 402.143 1097.72 410.036 C 1097.52 421.577 1099.82 435.376 1092.63 444.989 C 1077.34 448.611 1077.77 426.635 1078.16 416.914 C 1078.68 404.121 1077.52 387.829 1081.9 375.959 z" fill="rgb(1,1,1)" transform="translate(0,0)"></path>
<path d="M 955.609 1603.55 C 970.927 1603.21 972.208 1617.01 972.821 1629.58 C 973.351 1640.44 974.992 1652.93 968.438 1662.19 C 960.253 1663.65 955.219 1661.06 953.097 1652.87 C 950.428 1642.57 950.934 1612.51 955.609 1603.55 z" fill="rgb(1,1,1)" transform="translate(0,0)"></path>
<path d="M 1631.84 1071.13 C 1643.44 1070.59 1662.92 1074.85 1670.54 1086.13 C 1671.2 1087.1 1670.44 1088.23 1670.03 1089.38 C 1664.35 1093.93 1649.02 1093.45 1641.25 1093.88 C 1640.53 1093.95 1639.81 1094.01 1639.1 1094.07 C 1631.34 1094.69 1606.41 1096.71 1601.35 1092.39 L 1602.04 1090.84 C 1605.09 1088.98 1606.01 1088.36 1609.47 1087.82 L 1619.59 1086.27 C 1623.23 1077.9 1623.79 1074.93 1631.84 1071.13 z" fill="rgb(1,1,1)" transform="translate(0,0)"></path>
<path d="M 967.533 374.415 C 970.715 374.678 970.808 374.372 973.181 376.362 C 979.644 387.153 979.287 431.076 969.334 440.287 C 966.081 439.748 966.226 439.886 963.439 438.187 C 955.086 426.237 958.026 385.749 967.533 374.415 z" fill="rgb(1,1,1)" transform="translate(0,0)"></path>
<path d="M 1088.77 1730.3 C 1091.75 1730.42 1091.75 1730.21 1094.3 1731.62 C 1096.42 1737.14 1096.4 1750.47 1096.53 1756.74 C 1096.9 1775.12 1098.07 1793.65 1098.04 1812.03 C 1098.03 1815.4 1097.5 1815.47 1095.67 1817.86 C 1092.19 1817.32 1090.19 1817.51 1088.19 1815.29 C 1084.14 1801.1 1082.78 1743.49 1088.77 1730.3 z" fill="rgb(1,1,1)" transform="translate(0,0)"></path>
<path d="M 1625.24 951.439 C 1635.31 951.068 1660.51 949.115 1667.45 955.352 C 1671.28 965.433 1660.54 967.19 1653.24 969.315 C 1644.27 970.425 1635.81 970.651 1626.92 968.692 C 1621.58 967.514 1605.84 963.185 1607.99 955.602 C 1613.6 950.96 1617.96 951.694 1625.24 951.439 z" fill="rgb(1,1,1)" transform="translate(0,0)"></path>
<path d="M 1088.38 1454.74 C 1092.36 1455.49 1092.31 1454.79 1094.59 1457.14 C 1096.14 1467.41 1098.62 1511.22 1095.37 1519.95 C 1092.88 1522.63 1090.99 1522.88 1087.51 1524.03 C 1071.36 1519.52 1084.25 1466.18 1088.38 1454.74 z" fill="rgb(1,1,1)" transform="translate(0,0)"></path>
<path d="M 958.281 1462.28 C 965.789 1465.34 966.914 1476.24 967.372 1483.66 C 968.069 1494.98 974.735 1518.34 966.638 1526.59 C 949.255 1521.42 952.573 1492.52 952.259 1477.96 C 952.118 1471.39 953.213 1466.61 958.281 1462.28 z" fill="rgb(1,1,1)" transform="translate(0,0)"></path>
<path d="M 1088.41 1601.16 C 1089.28 1601.32 1090.89 1601.87 1091.79 1602.15 C 1095.82 1609.03 1099.98 1646.02 1099.13 1655.67 C 1098.75 1660.02 1096.96 1660.79 1094.08 1663.07 C 1090.84 1663.22 1090.82 1663.18 1087.64 1662.5 C 1077.53 1654.31 1080.75 1611.29 1088.41 1601.16 z" fill="rgb(1,1,1)" transform="translate(0,0)"></path>
<path d="M 436.872 956.416 C 442.709 956.047 451.922 955.148 449.347 964.299 C 442.446 972.153 418.184 975.99 407.247 978.494 C 400.47 979.551 397.341 978.583 393.248 973.089 C 391.306 959.414 427.743 957.295 436.872 956.416 z" fill="rgb(1,1,1)" transform="translate(0,0)"></path>
<path d="M 1483.09 1075.23 C 1492.38 1074.78 1519.7 1074.85 1518.18 1089.11 C 1514.28 1091.83 1501.63 1092.39 1496.4 1092.91 C 1489.27 1093.27 1460.51 1095.77 1460.16 1085.03 C 1463.67 1080.29 1477.24 1076.32 1483.09 1075.23 z" fill="rgb(1,1,1)" transform="translate(0,0)"></path>
<path d="M 568.941 957.343 C 573.51 956.95 580.693 957.315 583.723 961.027 L 583.134 963.449 C 577.179 970.312 555.009 980.643 546.238 983.305 C 540.334 982.557 534.391 981.812 530.664 977.139 C 529.304 964.889 559.561 958.512 568.941 957.343 z" fill="rgb(1,1,1)" transform="translate(0,0)"></path>
<path d="M 1087.03 1350.76 C 1088.65 1350.81 1092.78 1351.03 1093.41 1352.27 C 1097.13 1359.59 1098.4 1391.54 1097.73 1398.88 C 1096.1 1401.69 1094.19 1402.16 1091.21 1403.55 C 1081.98 1401.51 1079.13 1396.4 1079.55 1386.59 C 1080.02 1375.57 1078.99 1359.09 1087.03 1350.76 z" fill="rgb(1,1,1)" transform="translate(0,0)"></path>
<path d="M 1745.84 949.267 C 1757 947.99 1801.39 950.972 1812.84 953.392 C 1810.35 955.977 1807.64 958.542 1805.06 961.06 C 1789.79 972.635 1773.32 965.112 1757.04 958.95 C 1750.7 956.553 1748.17 955.455 1745.84 949.267 z" fill="rgb(1,1,1)" transform="translate(0,0)"></path>
<path d="M 422.258 1083.55 C 430.151 1084.39 440.921 1084.65 446.361 1090.81 C 446.977 1100.9 416.288 1099.96 409.821 1100.04 C 404.235 1099.85 387.609 1099.89 385.288 1094.11 C 389.906 1086.52 413.751 1084.34 422.258 1083.55 z" fill="rgb(1,1,1)" transform="translate(0,0)"></path>
<path d="M 672.877 957.177 C 679.655 956.662 685.018 956.475 690.248 961.089 C 693.458 970.441 668.067 978.204 660.591 981.369 C 654.375 982.825 645.487 984.408 642.544 977.42 C 643.818 964.979 662.608 959.555 672.877 957.177 z" fill="rgb(1,1,1)" transform="translate(0,0)"></path>
<path d="M 954 639.87 C 960.612 640.067 964.726 640.953 967.14 647.732 C 970.897 658.277 969.144 682.574 965.017 692.183 C 963.708 692.585 960.485 693.753 959.402 693.24 C 948.273 687.964 951.637 646.871 954 639.87 z" fill="rgb(1,1,1)" transform="translate(0,0)"></path>
<path d="M 254.099 1089.37 C 262.928 1088.18 302.41 1089.03 310.014 1094.11 L 310.129 1095.75 C 303.303 1101.77 292.941 1100.94 284.22 1100.83 C 269.72 1099.27 257.4 1098.82 242.87 1099.62 C 238.398 1099.87 231.082 1099.96 227.874 1096.88 C 231.307 1091.71 248.047 1090.17 254.099 1089.37 z" fill="rgb(1,1,1)" transform="translate(0,0)"></path>
<path d="M 1765.53 1082.34 C 1776.04 1081.51 1808.02 1083.15 1812.47 1094.19 L 1810.98 1095.84 C 1806.53 1097.69 1803.11 1097.19 1798.25 1097.12 C 1787.48 1097.13 1776.37 1096.26 1765.62 1095.44 C 1760.08 1095.02 1746.89 1095.05 1747.27 1087.87 C 1750.78 1083.44 1759.83 1083.12 1765.53 1082.34 z" fill="rgb(1,1,1)" transform="translate(0,0)"></path>
<path d="M 1470.54 950.795 C 1473.51 951.212 1482.08 952.792 1484.73 953.527 C 1493.76 956.033 1518.95 952.887 1525.35 957.903 L 1525.48 960.254 C 1523.81 964.136 1523.82 963.899 1520.12 966.16 C 1508.5 969.325 1456.38 974.973 1470.54 950.795 z" fill="rgb(1,1,1)" transform="translate(0,0)"></path>
<path d="M 531.099 1082.21 C 542.724 1081.49 569.037 1080.73 578.791 1087.21 C 580.882 1090.68 580.432 1088.85 580.197 1092.89 C 577.766 1095.51 577.227 1094.83 572.874 1095.77 C 562.289 1097.29 537.604 1100.1 528.679 1095.21 C 524.949 1089.7 526.744 1086.23 531.099 1082.21 z" fill="rgb(1,1,1)" transform="translate(0,0)"></path>
<path d="M 655.575 1081.26 C 663.38 1080.28 693.889 1080.24 693.361 1091.35 C 689.087 1096.03 683.558 1095.77 677.249 1096.51 C 667.832 1097.95 648.527 1099.2 641.401 1092.21 C 639.637 1084.64 649.961 1083 655.575 1081.26 z" fill="rgb(1,1,1)" transform="translate(0,0)"></path>
<path d="M 962.809 236.166 C 965.444 236.604 969.446 237.166 969.904 240.405 C 971.653 252.772 974.685 297.285 969.823 306.857 C 965.962 306.343 961.203 305.994 961.494 300.331 C 962.062 289.278 958.545 241.926 962.809 236.166 z" fill="rgb(1,1,1)" transform="translate(0,0)"></path>
<path d="M 1373.2 951.315 C 1374.7 951.134 1376.2 951.007 1377.71 950.934 C 1385.9 950.489 1403.59 951.598 1409.82 957.153 C 1412.01 962.824 1405.03 965.414 1400.42 966.875 C 1390.88 967.404 1366.23 971.252 1361.76 961.121 C 1362.03 952.817 1366.13 952.306 1373.2 951.315 z" fill="rgb(1,1,1)" transform="translate(0,0)"></path>
<path d="M 1088.46 535.321 C 1106.72 539.226 1103.81 572.01 1098.96 584.837 C 1096.59 585.208 1094.73 585.112 1092.36 585.091 C 1081.88 578.211 1085.53 546.389 1088.46 535.321 z" fill="rgb(1,1,1)" transform="translate(0,0)"></path>
<path d="M 1092.22 246.172 C 1094.53 246.64 1094.28 246.642 1096.48 247.562 C 1102.12 256.437 1100.83 283.282 1100.94 294.361 C 1100.99 299.481 1099.91 302.523 1096.46 306.233 C 1093.81 305.2 1090.91 303.835 1089.93 301.062 C 1084.88 286.694 1086.42 259.885 1092.22 246.172 z" fill="rgb(1,1,1)" transform="translate(0,0)"></path>
<path d="M 265.893 957.388 C 281.919 955.791 301.106 959.239 317.212 961.648 C 308.378 965.308 302.589 966.412 293.264 968.313 C 284.788 969.575 247.987 972.913 245.51 962.6 C 249.823 958.291 259.648 958.114 265.893 957.388 z" fill="rgb(1,1,1)" transform="translate(0,0)"></path>
<path d="M 1088.26 628.578 C 1091.51 628.798 1097.33 629.236 1098.17 632.709 C 1100.53 642.404 1101.56 673.786 1098.88 682.224 C 1082.9 681.339 1086.77 665.446 1086.36 653.433 C 1086.11 645.982 1086.72 635.819 1088.26 628.578 z" fill="rgb(1,1,1)" transform="translate(0,0)"></path>
<path d="M 954.196 1368.89 C 957.384 1368.87 957.841 1368.94 960.989 1369.51 C 971.791 1376.94 970.628 1400.81 964.621 1411.19 C 961.038 1412.68 960.909 1413.05 956.981 1412.55 C 948.283 1407.41 951.731 1377.61 954.196 1368.89 z" fill="rgb(1,1,1)" transform="translate(0,0)"></path>
<path d="M 1396.72 1078.39 C 1401.22 1078.52 1400.33 1077.85 1403.62 1079.95 C 1415.82 1101.33 1384.03 1096.16 1372.75 1096.08 C 1367.35 1096 1366.32 1096.34 1362.94 1091.97 C 1361.92 1081.56 1388.84 1079.33 1396.72 1078.39 z" fill="rgb(1,1,1)" transform="translate(0,0)"></path>
<path d="M 959.298 1749.76 L 964.144 1750.11 C 972.822 1755.92 970.801 1791.67 966.593 1799.28 C 964.903 1799.17 960.836 1799 960.023 1798.05 C 953.681 1790.66 954.327 1755.93 959.298 1749.76 z" fill="rgb(1,1,1)" transform="translate(0,0)"></path>
<path d="M 961.753 530.055 C 963.595 530.119 965.06 530.284 966.89 530.469 C 974.139 536.759 974.464 568.092 969.593 575.046 C 968.059 574.706 964.231 573.758 962.939 573.012 C 951.738 566.548 957.448 539.177 961.753 530.055 z" fill="rgb(1,1,1)" transform="translate(0,0)"></path>
<metadata><recraft-signature>{"signed_by": "recraft", "signature_b64": "Dsdg6u7HnxnC4AZTMwjBQmtts25uZ2emSEANIEi71bTOCafa78W3mBC7h79O5kVen4F1S8mNLJLPOUSIZ/1yAw==", "signing_algo": "Ed25519", "generation_timestamp": 1777231210, "identifier": "caad983f-7341-4a69-ab61-1f9a62e32c38"}</recraft-signature></metadata></svg>