<svg xmlns="http://www.w3.org/2000/svg" height="1024" preserveAspectRatio="none" style="display: block;" version="1.1" viewBox="0 0 2048 1152" width="1820">
<path d="M 0 0 L 2048 0 L 2048 1152 L 0 1152 L 0 0 z" fill="rgb(248,247,254)" transform="translate(0,0)"></path>
<path d="M 1121.19 249.269 C 1141.76 225.791 1166.4 198.904 1190.12 178.657 C 1258.63 120.344 1344.21 85.8278 1434.01 80.2882 C 1541.64 74.3561 1647.35 110.659 1728.62 181.472 C 1766.18 214.531 1794.88 247.65 1820.74 290.334 C 1830.41 290.29 1900.97 289.261 1905.01 290.929 L 1906.19 292.604 C 1905.53 293.761 1905.4 294.573 1903.73 294.651 C 1879.41 295.798 1848.84 294.718 1824.98 295.155 C 1827.74 303.524 1834.55 311.798 1838.46 319.786 C 1849.38 342.113 1860.58 364.533 1869.7 387.665 C 1919.51 521.975 1918.72 670.447 1859.78 801.752 C 1851.75 819.659 1841.54 839.141 1830.69 855.347 C 1833.99 855.371 1851.58 855.307 1853.66 855.761 C 1863.85 855.771 1899.27 853.716 1905.66 858.242 L 1905.29 859.353 C 1899.35 860.843 1836.43 860.459 1827.14 860.128 C 1766.47 959.588 1669.03 1031.1 1555.96 1059.15 C 1448.88 1085.41 1335.75 1067.7 1241.82 1009.97 C 1204.66 987.085 1177.74 962.843 1148.63 930.476 C 1140.97 921.961 1128.38 905.592 1121.25 898.555 C 1104.05 919.432 1088.95 925.708 1063.06 929.291 C 1063.09 935.053 1064.15 953.712 1060.86 957.44 C 1057.72 952.904 1058.64 935.511 1058.74 929.161 C 1016 925.407 989.409 901.974 983.662 858.753 L 750.414 858.715 C 749.025 874.143 744.211 887.454 734.626 899.767 C 721.88 916.116 703.173 926.745 682.603 929.324 C 661.238 931.855 639.739 925.823 622.808 912.547 C 605.811 899.097 597.056 880.084 594.611 858.935 L 431.965 858.766 C 427.518 893.969 405.851 921.564 369.742 928.471 C 348.695 932.551 326.891 928.02 309.212 915.894 C 287.665 901.033 279.966 882.954 275.563 858.491 C 264.731 858.98 252.024 858.73 241.051 858.789 C 241.016 869.064 241.352 916.101 239.497 923.115 L 238.708 922.886 C 234.176 914.461 235.977 907.375 236.024 898.248 L 236.053 861.688 L 236.029 736.566 L 236.045 329.032 L 235.942 261.147 C 235.92 254.764 234.763 230.406 237.597 226.965 L 239.273 226.956 C 241.397 231.035 240.644 283.34 240.644 290.856 L 276.772 290.919 C 277.273 274.445 283.287 258.616 293.852 245.966 C 307.005 229.991 326.332 220.444 346.828 218.508 C 367.594 216.374 388.335 222.781 404.279 236.257 C 421.665 250.759 429.489 268.647 431.473 290.785 C 485.456 290.917 540.643 291.246 594.58 290.55 C 598.325 250.61 627.543 222.029 667.273 218.507 C 688.003 216.818 708.567 223.341 724.533 236.67 C 741.488 251.053 748.859 268.922 750.72 290.681 L 939.57 290.802 C 955.331 281.12 975.294 269.52 990.275 258.383 C 991.447 257.512 997.622 247.931 999.629 245.81 C 1017.7 226.715 1033.14 220.155 1058.8 218.213 C 1058.7 213.142 1057.72 199.256 1060.98 195.654 C 1064.15 199.396 1063.15 212.577 1063.05 217.718 C 1089.05 221.745 1103.65 228.965 1121.19 249.269 z" fill="rgb(9,8,23)" transform="translate(0,0)"></path>
<path d="M 1121.19 249.269 C 1141.76 225.791 1166.4 198.904 1190.12 178.657 C 1258.63 120.344 1344.21 85.8278 1434.01 80.2882 C 1541.64 74.3561 1647.35 110.659 1728.62 181.472 C 1766.18 214.531 1794.88 247.65 1820.74 290.334 C 1830.41 290.29 1900.97 289.261 1905.01 290.929 L 1906.19 292.604 C 1905.53 293.761 1905.4 294.573 1903.73 294.651 C 1879.41 295.798 1848.84 294.718 1824.98 295.155 C 1827.74 303.524 1834.55 311.798 1838.46 319.786 C 1849.38 342.113 1860.58 364.533 1869.7 387.665 C 1919.51 521.975 1918.72 670.447 1859.78 801.752 C 1851.75 819.659 1841.54 839.141 1830.69 855.347 C 1833.99 855.371 1851.58 855.307 1853.66 855.761 C 1863.85 855.771 1899.27 853.716 1905.66 858.242 L 1905.29 859.353 C 1899.35 860.843 1836.43 860.459 1827.14 860.128 C 1766.47 959.588 1669.03 1031.1 1555.96 1059.15 C 1448.88 1085.41 1335.75 1067.7 1241.82 1009.97 C 1204.66 987.085 1177.74 962.843 1148.63 930.476 C 1140.97 921.961 1128.38 905.592 1121.25 898.555 C 1129.81 885.085 1133.96 874.915 1135.43 859.042 L 1341.64 859.727 C 1356.7 958.07 1490.77 948.369 1495.33 857.248 C 1520.27 857.196 1545.2 857.271 1570.14 857.473 C 1571.76 872.275 1575.37 884.468 1583.94 896.845 C 1595.67 913.903 1613.73 925.569 1634.1 929.254 C 1654.01 932.605 1674.43 927.875 1690.83 916.113 C 1711.76 901.29 1719.21 884.573 1723.38 859.993 C 1728.96 860.093 1743.61 861.002 1747.83 857.853 C 1743.33 854.281 1729.22 855.396 1723.23 855.546 C 1723.49 839.374 1719.1 824.232 1709.48 811.09 C 1697.25 794.435 1678.88 783.344 1658.44 780.273 C 1620.35 774.635 1581.63 799.725 1572.47 837.311 C 1571.24 842.368 1570.53 847.371 1569.81 852.519 C 1544.99 852.233 1520.17 852.249 1495.35 852.565 C 1492.9 814.087 1464.25 785.167 1426.32 780.558 C 1413.9 779.05 1404.24 781.167 1392.3 783.755 L 1368.28 760.27 C 1385.41 754.778 1400.2 749.121 1416.89 743.111 C 1433.77 737.033 1448.8 737.024 1464.53 725.289 C 1484.65 710.283 1492.12 694.726 1496.39 670.963 L 1570.77 670.952 C 1572.63 686.789 1577.22 699.954 1587.86 712.345 C 1601.45 728.271 1620.85 738.104 1641.73 739.657 C 1709.5 744.472 1749.68 666.273 1704.19 617.044 C 1689.98 601.876 1670.37 592.9 1649.6 592.048 C 1606.81 590.484 1571.83 623.075 1570.86 666.17 L 1496.2 666.429 C 1496.26 655.37 1493.83 644.441 1489.08 634.454 C 1480.17 616.218 1464.3 602.33 1445.04 595.919 C 1420.8 587.602 1399.38 591.908 1377.12 602.812 C 1365.1 590.899 1352.8 579.275 1340.23 567.95 C 1350.99 557.949 1361.07 547.203 1371.23 536.591 C 1409.16 561.003 1455.04 557.696 1483.25 518.422 C 1491.42 507.05 1494.4 494.187 1495.59 480.42 C 1520.57 480.091 1545.55 480.077 1570.53 480.377 C 1571.05 495.469 1576.26 510.024 1585.41 522.031 C 1598.15 538.377 1616.87 548.977 1637.44 551.486 C 1657.84 554.243 1678.48 548.626 1694.67 535.916 C 1709.91 524.106 1720.1 507.446 1722.39 488.118 C 1724.54 468.828 1719.08 449.461 1707.17 434.131 C 1694.5 418.039 1677.75 407.611 1657.16 405.162 C 1636.21 402.472 1615.06 408.364 1598.52 421.501 C 1580.2 436.038 1573.29 453.168 1570.67 475.389 L 1495.43 475.517 C 1490.82 422.264 1443.22 395.792 1393.81 408.526 C 1378.15 401.061 1354.88 386.661 1338.41 377.554 L 1192.1 294.993 L 1340.64 295.284 C 1344.17 334.335 1374.49 363.867 1413.39 366.501 C 1434.05 367.782 1454.39 360.997 1470.15 347.576 C 1486.18 333.656 1494.08 315.967 1495.49 295.093 L 1569.98 295.041 C 1572.03 313.329 1574.86 325.406 1587.39 340.27 C 1600.41 355.852 1619.18 365.512 1639.43 367.061 C 1684.44 370.796 1720.09 339.972 1723.54 295.187 C 1729.57 295.204 1745.34 296.215 1749.59 292.713 C 1745.45 289.411 1729.36 290.423 1723.36 290.541 C 1722.85 274.195 1716.96 258.475 1706.59 245.824 C 1693.53 229.904 1674.63 219.882 1654.13 218.001 C 1633.68 216.108 1613.32 222.535 1597.67 235.829 C 1580.21 250.568 1572.51 268.398 1570.62 290.751 L 1495.63 290.708 C 1493.67 254.408 1467.53 224.63 1431.67 218.604 C 1410.88 215.235 1389.61 220.291 1372.56 232.654 C 1351.61 247.99 1344.46 266.33 1340.57 290.974 L 1182.6 290.903 C 1164.96 280.495 1147.01 270.617 1128.78 261.282 C 1126.67 257.206 1123.76 253.111 1121.19 249.269 z" fill="rgb(101,86,255)" transform="translate(0,0)"></path>
<path d="M 1820.74 290.334 C 1830.41 290.29 1900.97 289.261 1905.01 290.929 L 1906.19 292.604 C 1905.53 293.761 1905.4 294.573 1903.73 294.651 C 1879.41 295.798 1848.84 294.718 1824.98 295.155 C 1818.41 295.16 1769.86 296.138 1767.33 293.194 C 1775.26 287.387 1809.23 290.273 1820.74 290.334 z" fill="rgb(9,8,23)" transform="translate(0,0)"></path>
<path d="M 1827.14 860.128 C 1819.14 859.998 1769.7 861.49 1766.65 856.597 C 1774.78 853.172 1839.16 856.497 1853.66 855.761 C 1863.85 855.771 1899.27 853.716 1905.66 858.242 L 1905.29 859.353 C 1899.35 860.843 1836.43 860.459 1827.14 860.128 z" fill="rgb(9,8,23)" transform="translate(0,0)"></path>
<path d="M 520.516 670.844 L 538.392 670.881 C 561.015 694.222 583.325 717.864 605.315 741.803 C 617.614 754.998 633.085 770.296 644.472 783.871 C 614.055 797.497 597.462 821.318 594.57 854.151 L 529.5 854.146 L 431.989 854.162 C 430.747 828.035 421.274 814.447 404.391 796.182 C 418.641 781.998 433.986 764.422 447.781 749.5 C 472.233 723.474 496.479 697.254 520.516 670.844 z" fill="rgb(248,247,254)" transform="translate(0,0)"></path>
<path d="M 1135.75 294.936 C 1155.19 295.103 1178.09 291.274 1194.87 301.525 C 1211.37 311.599 1228.39 320.795 1245.2 330.335 C 1292.68 357.447 1340.36 384.182 1388.26 410.537 C 1366.7 420.434 1353.41 434.415 1344.49 456.379 C 1342.19 463.072 1341.28 468.417 1340.64 475.409 L 1243.09 475.265 C 1198.24 433.404 1155.01 389.373 1110.31 347.726 C 1127.64 332.574 1133.56 317.218 1135.75 294.936 z" fill="rgb(101,86,255)" transform="translate(0,0)"></path>
<path d="M 941.445 294.901 C 948.678 294.09 974.111 295.015 982.644 295.154 C 986.975 326.809 999.303 345.287 1028.43 359.468 C 988.154 388.309 922.078 442.415 878.918 472.371 C 877.817 473.135 876.397 471.886 875.103 471.112 C 844.509 444.925 814.075 418.551 783.803 391.993 L 941.445 294.901 z" fill="rgb(248,247,254)" transform="translate(0,0)"></path>
<path d="M 1241.87 670.948 L 1269.79 670.616 C 1299.24 698.844 1330.76 731.782 1360.79 758.334 C 1309.95 776.933 1259.27 795.975 1208.76 815.458 C 1184.57 825.085 1159.04 834.189 1134.59 843.339 C 1130.71 825.761 1126.16 817.552 1115.02 803.639 C 1157.69 759.786 1199.98 715.553 1241.87 670.948 z" fill="rgb(101,86,255)" transform="translate(0,0)"></path>
<path d="M 240.735 295.162 C 252.309 294.891 265.096 295.147 276.762 295.17 C 277.193 304.126 279.186 312.938 282.649 321.209 C 290.55 340.15 305.668 355.164 324.663 362.934 C 347.534 372.143 368.21 369.55 390.182 360.274 C 408.564 380.12 427.74 403.274 445.643 423.887 C 460.947 441.296 476.441 458.536 492.123 475.604 C 483.562 475.634 436.958 476.661 432.458 474.627 L 431.915 471.753 C 430.109 457.564 425.369 444.84 416.279 433.613 C 402.887 417.373 383.643 407.056 362.705 404.89 C 318.431 400.397 280.93 431.141 276.558 475.742 C 264.661 475.905 252.478 475.741 240.557 475.715 C 240.011 415.897 240.653 355.062 240.735 295.162 z" fill="rgb(248,247,254)" transform="translate(0,0)"></path>
<path d="M 348.382 782.391 C 388.181 779.208 423.004 808.939 426.101 848.745 C 429.197 888.551 399.389 923.309 359.576 926.318 C 319.887 929.318 285.259 899.623 282.173 859.94 C 279.086 820.257 308.706 785.564 348.382 782.391 z" fill="rgb(254,254,255)" transform="translate(0,0)"></path>
<path d="M 352.509 832.18 C 354.538 832.913 354.557 833.114 356.078 834.557 C 357.588 838.069 356.617 841.899 356.105 845.79 C 353.188 845.073 354.249 845.668 352.109 843.476 C 350.921 839.446 351.805 836.332 352.509 832.18 z" fill="rgb(9,8,23)" transform="translate(0,0)"></path>
<path d="M 351.936 859.041 C 353.966 859.36 354.245 859.654 355.932 860.709 C 357.452 863.819 356.687 867.017 356.347 870.618 C 354.832 870.755 354.091 870.323 352.679 869.784 C 350.838 866.65 351.66 862.899 351.936 859.041 z" fill="rgb(9,8,23)" transform="translate(0,0)"></path>
<path d="M 868.569 679.83 C 871.343 680.051 994.197 795.969 1003.51 805.077 C 991.297 819.015 985.951 832.671 983.611 850.76 C 966.359 842.343 949.266 833.604 932.342 824.546 C 878.418 797.938 824.717 770.878 771.247 743.37 C 803.875 722.479 836.317 701.298 868.569 679.83 z" fill="rgb(248,247,254)" transform="translate(0,0)"></path>
<path d="M 667.944 782.752 C 707.537 780.218 741.717 810.193 744.375 849.778 C 747.032 889.363 717.165 923.637 677.589 926.419 C 637.837 929.214 603.376 899.184 600.707 859.423 C 598.037 819.662 628.175 785.296 667.944 782.752 z" fill="rgb(254,254,255)" transform="translate(0,0)"></path>
<path d="M 669.586 857.207 C 673.187 858.086 672.085 857.295 674.008 859.938 C 674.939 863.598 673.893 867.079 673.16 870.826 C 671.203 870.221 671.187 870.029 669.711 868.696 C 668.151 864.987 669.07 861.264 669.586 857.207 z" fill="rgb(9,8,23)" transform="translate(0,0)"></path>
<path d="M 669.796 831.294 C 671.131 831.806 671.809 832.295 673.026 833.021 C 675.114 837.061 673.993 841.07 672.866 845.257 C 666.635 842.914 668.828 836.864 669.796 831.294 z" fill="rgb(9,8,23)" transform="translate(0,0)"></path>
<path d="M 661.989 222.069 C 701.281 215.986 738.05 242.953 744.054 282.257 C 750.059 321.562 723.018 358.277 683.701 364.202 C 644.496 370.11 607.908 343.163 601.921 303.97 C 595.934 264.777 622.808 228.135 661.989 222.069 z" fill="rgb(254,254,255)" transform="translate(0,0)"></path>
<path d="M 672.135 297.607 C 672.779 298.009 674.018 299.135 674.658 299.679 C 676.209 304.839 675.777 309.196 673.606 314.11 C 668.666 309.649 668.753 302.999 672.135 297.607 z" fill="rgb(9,8,23)" transform="translate(0,0)"></path>
<path d="M 670.928 271.169 C 673.18 271.659 673.144 271.537 674.734 273.126 C 676.304 277.018 675.203 281.888 674.646 286.16 C 667.93 282.66 669.784 277.771 670.928 271.169 z" fill="rgb(9,8,23)" transform="translate(0,0)"></path>
<path d="M 350.646 221.575 C 390.236 219.72 423.846 250.283 425.75 289.871 C 427.655 329.458 397.133 363.106 357.548 365.06 C 317.894 367.017 284.173 336.43 282.265 296.773 C 280.358 257.116 310.986 223.433 350.646 221.575 z" fill="rgb(254,254,255)" transform="translate(0,0)"></path>
<path d="M 352.044 272.16 C 354.05 272.656 354.098 272.862 355.685 274.098 C 357.367 277.538 356.353 281.282 355.819 285.19 C 354.105 284.795 354.237 284.698 352.659 283.823 C 350.856 280.513 351.714 276.054 352.044 272.16 z" fill="rgb(9,8,23)" transform="translate(0,0)"></path>
<path d="M 665.558 594.808 C 704.997 590.941 740.11 619.762 744.005 659.199 C 747.899 698.635 719.102 733.768 679.668 737.69 C 640.196 741.616 605.021 712.784 601.123 673.309 C 597.224 633.834 626.08 598.679 665.558 594.808 z" fill="rgb(254,254,255)" transform="translate(0,0)"></path>
<path d="M 670.419 668.206 C 672.085 668.639 672.645 669.153 674.04 670.104 C 675.76 673.479 674.79 677.883 674.355 681.782 C 672.128 681.329 672.152 681.178 670.415 679.842 C 668.849 676.491 669.914 672.018 670.419 668.206 z" fill="rgb(9,8,23)" transform="translate(0,0)"></path>
<path d="M 344.776 594.347 C 384.022 589.112 420.082 616.682 425.321 655.927 C 430.559 695.172 402.994 731.235 363.749 736.477 C 324.499 741.72 288.43 714.15 283.191 674.899 C 277.952 635.648 305.525 599.583 344.776 594.347 z" fill="rgb(254,254,255)" transform="translate(0,0)"></path>
<path d="M 351.486 668.238 C 353.255 668.529 353.578 668.773 355.18 669.5 C 357.202 673.49 355.971 677.19 354.934 681.417 C 353.812 680.883 353.024 680.162 352.027 679.397 C 350.41 675.937 351.166 672.131 351.486 668.238 z" fill="rgb(9,8,23)" transform="translate(0,0)"></path>
<path d="M 346.712 407.704 C 385.905 403.554 421.04 431.966 425.183 471.161 C 429.326 510.355 400.906 545.485 361.711 549.62 C 322.527 553.754 287.408 525.344 283.267 486.16 C 279.125 446.976 307.529 411.853 346.712 407.704 z" fill="rgb(254,254,255)" transform="translate(0,0)"></path>
<path d="M 351.894 456.19 C 353.957 456.718 354.009 456.926 355.649 458.191 C 357.15 461.521 356.342 466.168 356.031 469.953 C 354.469 469.686 353.957 469.266 352.568 468.505 C 350.926 465.012 351.653 460.171 351.894 456.19 z" fill="rgb(9,8,23)" transform="translate(0,0)"></path>
<path d="M 352.091 483.151 C 352.994 483.489 354.367 484.273 355.269 484.745 C 357.029 488.029 356.153 491.89 355.784 495.731 C 354.466 495.309 353.769 494.865 352.554 494.231 C 350.788 490.952 351.704 487 352.091 483.151 z" fill="rgb(9,8,23)" transform="translate(0,0)"></path>
<path d="M 1415.5 594.532 C 1454.93 593.066 1488.06 623.874 1489.46 663.303 C 1490.86 702.731 1460 735.812 1420.57 737.146 C 1381.23 738.477 1348.25 707.702 1346.85 668.366 C 1345.45 629.031 1376.17 595.994 1415.5 594.532 z" fill="rgb(254,254,255)" transform="translate(0,0)"></path>
<path d="M 1416.93 666.339 L 1419.5 667.493 C 1422.01 671.571 1420.65 675.89 1419.77 680.542 C 1413.8 677.898 1415.96 671.862 1416.93 666.339 z" fill="rgb(9,8,23)" transform="translate(0,0)"></path>
<path d="M 1407.36 784.503 C 1446.37 778.427 1482.88 805.196 1488.83 844.221 C 1494.77 883.245 1467.88 919.672 1428.83 925.481 C 1389.98 931.263 1353.76 904.527 1347.85 865.691 C 1341.93 826.854 1368.55 790.551 1407.36 784.503 z" fill="rgb(254,254,255)" transform="translate(0,0)"></path>
<path d="M 1416.73 831.156 C 1418.07 831.751 1418.75 832.287 1419.96 833.093 C 1421.94 837.777 1420.82 841.107 1419.21 845.655 C 1413.41 842.527 1415.54 836.487 1416.73 831.156 z" fill="rgb(9,8,23)" transform="translate(0,0)"></path>
<path d="M 1416.04 857.097 C 1417.43 857.455 1418.36 857.903 1419.68 858.451 C 1421.67 861.393 1420.8 866.021 1420.53 869.751 C 1417.94 870.091 1419.21 870.206 1416.62 869.132 C 1415.09 866.028 1415.82 860.736 1416.04 857.097 z" fill="rgb(9,8,23)" transform="translate(0,0)"></path>
<path d="M 662.387 407.558 C 701.327 401.904 737.471 428.906 743.092 467.85 C 748.713 506.795 721.68 542.916 682.731 548.504 C 643.829 554.084 607.761 527.091 602.147 488.194 C 596.533 449.297 623.495 413.206 662.387 407.558 z" fill="rgb(254,254,255)" transform="translate(0,0)"></path>
<path d="M 670.675 479.2 C 672.765 479.714 672.698 479.769 674.349 480.971 C 676.27 486.016 675.464 489.321 673.886 494.426 C 671.789 493.881 671.809 493.599 670.43 491.958 C 669.228 487.491 670.056 483.761 670.675 479.2 z" fill="rgb(9,8,23)" transform="translate(0,0)"></path>
<path d="M 1412.24 221.461 C 1451.16 218.068 1485.52 246.707 1489.19 285.597 C 1492.87 324.486 1464.48 359.056 1425.62 363.013 C 1386.36 367.011 1351.35 338.265 1347.64 298.974 C 1343.93 259.684 1372.92 224.889 1412.24 221.461 z" fill="rgb(254,254,255)" transform="translate(0,0)"></path>
<path d="M 1415.96 272.172 C 1418.31 272.762 1418.18 272.733 1419.77 274.598 C 1420.95 278.563 1419.98 281.551 1419.16 285.623 C 1413.41 283.265 1415.08 276.978 1415.96 272.172 z" fill="rgb(9,8,23)" transform="translate(0,0)"></path>
<path d="M 1416.07 299.113 C 1417.56 299.425 1418.27 299.975 1419.55 300.748 C 1421.16 304.029 1420.12 308.616 1419.67 312.403 C 1418.37 312.131 1417.77 311.768 1416.57 311.236 C 1414.9 307.969 1415.77 302.946 1416.07 299.113 z" fill="rgb(9,8,23)" transform="translate(0,0)"></path>
<path d="M 1641.42 221.969 C 1680.29 218.938 1714.34 247.824 1717.67 286.672 C 1721.01 325.52 1692.39 359.788 1653.57 363.43 C 1614.32 367.112 1579.58 338.104 1576.21 298.822 C 1572.83 259.54 1602.11 225.034 1641.42 221.969 z" fill="rgb(254,254,255)" transform="translate(0,0)"></path>
<path d="M 1643.75 783.934 C 1682.82 782.135 1715.97 812.315 1717.84 851.385 C 1719.71 890.456 1689.59 923.662 1650.52 925.6 C 1611.36 927.543 1578.05 897.33 1576.18 858.161 C 1574.3 818.991 1604.58 785.737 1643.75 783.934 z" fill="rgb(254,254,255)" transform="translate(0,0)"></path>
<path d="M 1645.78 857.19 C 1647.82 857.695 1647.74 857.732 1649.35 858.907 C 1651 862.463 1649.98 866.791 1649.48 870.79 C 1647.32 870.247 1647.34 870.081 1645.72 868.663 C 1644.13 864.978 1645.17 861.242 1645.78 857.19 z" fill="rgb(9,8,23)" transform="translate(0,0)"></path>
<path d="M 1646.04 831.295 C 1647.43 831.68 1648.15 832.288 1649.33 833.083 C 1650.93 836.505 1649.92 840.912 1649.43 844.792 C 1642.8 841.722 1644.7 837.697 1646.04 831.295 z" fill="rgb(9,8,23)" transform="translate(0,0)"></path>
<path d="M 241.573 480.475 L 276.464 480.095 C 282.12 550.183 358.217 573.871 408.838 531.231 C 417.836 541.025 426.928 551.59 435.787 561.576 C 425.248 575.359 411.388 592.31 399.8 605.109 C 394.659 601.875 390.946 600.022 385.566 597.402 C 377.06 594.387 369.594 592.356 360.492 591.68 C 339.212 590.036 318.139 596.829 301.826 610.592 C 284.166 625.739 277.202 643.317 275.45 666.185 L 240.779 666.327 C 240.828 647.332 239.821 484.164 241.573 480.475 z" fill="rgb(248,247,254)" transform="translate(0,0)"></path>
<path d="M 1405.79 409.004 C 1444.38 402.125 1481.2 427.973 1487.85 466.61 C 1494.49 505.248 1468.42 541.91 1429.74 548.317 C 1391.4 554.669 1355.12 528.87 1348.53 490.565 C 1341.95 452.26 1367.52 415.824 1405.79 409.004 z" fill="rgb(254,254,255)" transform="translate(0,0)"></path>
<path d="M 1416.84 481.291 C 1419.07 481.99 1418.95 481.972 1420.57 483.701 C 1421.95 487.498 1420.97 490.731 1420.27 494.739 C 1418.31 494.154 1418.03 493.682 1416.6 492.287 C 1415.26 488.502 1416.18 485.273 1416.84 481.291 z" fill="rgb(9,8,23)" transform="translate(0,0)"></path>
<path d="M 240.666 671.012 C 251.958 670.744 264.353 670.948 275.723 670.931 C 277.935 684.897 280.303 694.72 288.974 706.556 C 301.931 723.881 321.267 735.319 342.691 738.332 C 387.723 745.008 426.191 716.499 432.609 671.054 L 472.368 671.02 C 457.043 690.465 433.595 715.723 416.85 734.89 C 403.388 750.541 389.76 766.048 375.969 781.41 C 323.73 769.548 281.44 800.014 275.753 853.966 L 240.738 854.158 C 239.911 793.883 240.55 731.376 240.666 671.012 z" fill="rgb(248,247,254)" transform="translate(0,0)"></path>
<path d="M 878.504 479.964 C 915.679 510.836 952.408 544.424 989.573 575.889 L 1003.24 587.203 L 988.35 595.91 C 974.001 606.497 945.471 624.069 929.852 633.647 C 883.868 607.045 832.856 577.142 787.886 549.181 C 809.784 531.77 832.737 515.391 854.64 497.956 C 862.415 491.766 870.318 485.598 878.504 479.964 z" fill="rgb(248,247,254)" transform="translate(0,0)"></path>
<path d="M 989.573 575.889 L 1003.24 587.203 L 988.35 595.91 L 989.573 575.889 z" fill="rgb(101,86,255)" transform="translate(0,0)"></path>
<path d="M 1636.77 596.456 C 1675.21 590.802 1710.94 617.409 1716.54 655.854 C 1722.14 694.3 1695.49 729.995 1657.03 735.542 C 1618.66 741.078 1583.05 714.486 1577.46 676.116 C 1571.87 637.747 1598.41 602.1 1636.77 596.456 z" fill="rgb(254,254,255)" transform="translate(0,0)"></path>
<path d="M 1647.58 642.375 C 1653.17 645.334 1651.41 649.568 1649.56 654.877 C 1644.75 651.66 1646.05 647.032 1647.58 642.375 z" fill="rgb(9,8,23)" transform="translate(0,0)"></path>
<path d="M 1639.81 408.641 C 1678.41 404.775 1712.82 432.964 1716.64 471.571 C 1720.45 510.179 1692.21 544.556 1653.6 548.316 C 1615.06 552.069 1580.77 523.9 1576.96 485.367 C 1573.16 446.834 1601.28 412.5 1639.81 408.641 z" fill="rgb(254,254,255)" transform="translate(0,0)"></path>
<path d="M 1647.6 456.145 C 1653.18 459.336 1652.04 465.291 1649.66 470.574 C 1644.43 467.417 1646.48 461.055 1647.6 456.145 z" fill="rgb(9,8,23)" transform="translate(0,0)"></path>
<path d="M 1647.13 482.389 C 1648.93 482.845 1649.1 483.209 1650.48 484.42 C 1651.95 488.063 1650.98 491.829 1650.42 495.797 C 1647.97 494.993 1648.84 495.462 1647.03 493.471 C 1645.79 489.394 1646.52 486.607 1647.13 482.389 z" fill="rgb(9,8,23)" transform="translate(0,0)"></path>
<path d="M 765.466 746.808 C 771.275 747.339 963.641 845.438 978.356 854.099 L 921.449 854.227 L 750.601 854.054 C 748.099 821.206 733.021 802.175 705.311 786.066 C 725.473 773.15 745.525 760.063 765.466 746.808 z" fill="rgb(248,247,254)" transform="translate(0,0)"></path>
<path d="M 431.278 295.001 L 594.743 294.947 C 596.387 313.932 600.729 323.52 611.159 338.923 C 600.905 349.756 581.762 375.726 571.795 388.525 C 563.726 399.534 553.425 411.928 544.857 422.78 C 506.072 390.315 463.361 358.512 423.654 325.877 C 428.391 315.763 430.573 306.056 431.278 295.001 z" fill="rgb(248,247,254)" transform="translate(0,0)"></path>
<path d="M 613.328 341.794 C 649.596 373.329 686.654 378.557 726.277 347.696 C 742.666 363.034 759.221 377.06 776.342 391.58 C 759.214 401.614 741.801 412.66 724.855 423.099 C 712.955 413.954 706.201 409.905 691.244 406.314 C 647.591 399.643 607.714 419.152 595.987 463.81 C 580.297 451.69 564.102 438.129 548.644 425.563 C 569.929 397.439 592.324 370.113 613.328 341.794 z" fill="rgb(248,247,254)" transform="translate(0,0)"></path>
<path d="M 1136.16 480.037 L 1242.44 479.901 C 1255.98 493.847 1269.7 506.763 1283.81 520.094 L 1232.96 561.287 L 1193.2 592.928 L 1119.45 524.045 C 1129.86 510.664 1135.57 497.181 1136.16 480.037 z" fill="rgb(101,86,255)" transform="translate(0,0)"></path>
<path d="M 882.663 670.451 C 899.472 669.865 918.447 670.294 935.405 670.137 C 949.46 670.007 970.049 669.545 983.628 671.051 C 984.037 682.268 987.838 692.2 992.575 702.167 C 1009.8 725.608 1028.45 738.083 1058.29 740.242 L 1058.35 779.968 C 1042.65 781.668 1036.34 782.81 1021.81 790.55 C 1016.2 794.171 1012.13 797.42 1006.94 801.551 L 873.681 677.054 C 876.454 674.87 879.776 672.561 882.663 670.451 z" fill="rgb(248,247,254)" transform="translate(0,0)"></path>
<path d="M 992.575 702.167 C 1009.8 725.608 1028.45 738.083 1058.29 740.242 L 1058.35 779.968 C 1042.65 781.668 1036.34 782.81 1021.81 790.55 C 1015.97 779.385 1011.95 764.302 1008.16 752.144 L 992.575 702.167 z" fill="rgb(101,86,255)" transform="translate(0,0)"></path>
<path d="M 1364.04 762.1 L 1387.81 785.718 C 1381.59 788.343 1375.74 791.777 1370.42 795.932 C 1350.39 811.872 1343.76 831.075 1341.04 855.286 L 1159.5 854.615 C 1151.9 854.739 1136.76 857.779 1135.33 849.035 C 1137.41 846.409 1345.01 769.204 1364.04 762.1 z" fill="rgb(101,86,255)" transform="translate(0,0)"></path>
<path d="M 751.341 295.003 C 811.611 294.724 871.882 294.849 932.15 295.378 C 913.04 308.527 882.126 326.062 861.513 338.557 C 835.035 355.317 807.07 373.275 779.847 388.556 C 763.634 375.709 745.284 358.955 730.162 344.695 C 744.198 329.629 748.424 314.621 751.341 295.003 z" fill="rgb(248,247,254)" transform="translate(0,0)"></path>
<path d="M 1230.47 670.47 C 1231.99 670.311 1232.78 670.557 1234.25 670.842 C 1233.38 674.584 1122.66 789.29 1111.58 800.684 C 1103.06 792.723 1095.72 789.132 1085.21 784.635 C 1077.05 782.386 1071.5 781.348 1063.13 780.758 C 1063.2 767.257 1063.19 753.755 1063.11 740.254 C 1103.25 738.031 1131.26 710.548 1135.24 670.71 C 1166.98 671.006 1198.73 670.926 1230.47 670.47 z" fill="rgb(101,86,255)" transform="translate(0,0)"></path>
<path d="M 501.467 486.661 C 524.894 510.448 547.208 535.009 570.714 558.717 C 565.957 565.297 555.34 576.861 549.673 583.402 L 509.174 630.163 L 507.529 630.231 C 485.389 607.451 463.469 584.459 441.771 561.258 C 462.149 537.224 482.02 511.465 501.467 486.661 z" fill="rgb(248,247,254)" transform="translate(0,0)"></path>
<path d="M 1106.23 350.909 C 1109.09 351.917 1222.69 462.485 1236 475.158 L 1192.13 475.231 L 1136.25 475.327 C 1131.41 433.662 1104.44 409.713 1063.12 405.209 L 1063.04 366.226 C 1081.32 365.031 1091.23 361.05 1106.23 350.909 z" fill="rgb(101,86,255)" transform="translate(0,0)"></path>
<path d="M 420.976 329.936 C 431.267 336.88 452.195 354.907 462.781 363.353 C 489.492 384.299 516.059 405.428 542.479 426.741 C 532.256 440.568 519.658 455.565 508.781 469.097 C 506.56 471.869 503.661 474.995 501.274 477.707 C 468.017 445.251 425.587 393.998 394.764 358.268 C 407.821 348.488 412.438 343.894 420.976 329.936 z" fill="rgb(248,247,254)" transform="translate(0,0)"></path>
<path d="M 1287.06 523.766 C 1289.92 524.58 1326.96 562.319 1333.49 568.159 C 1309.81 594.035 1279.6 625.05 1254.82 649.906 C 1253.05 648.665 1250.26 646.21 1248.5 644.759 C 1231.12 628.749 1213.83 612.65 1196.62 596.46 C 1225.14 572.364 1257.69 547.338 1287.06 523.766 z" fill="rgb(101,86,255)" transform="translate(0,0)"></path>
<path d="M 1051.69 223.297 C 1054.78 222.914 1055.22 222.688 1058.08 223.633 C 1059.24 226.452 1059.05 266.048 1058.67 271.308 C 1057.81 272.392 1054.98 275.924 1055.15 276.873 C 1057.32 288.553 1059.91 289.978 1058.58 302.607 C 1055.45 305.262 1054.21 305.59 1054.16 309.521 C 1055.77 311.576 1056.61 312.421 1058.52 314.21 C 1059.51 326.476 1058.72 348.454 1058.63 361.438 C 1041.54 360.926 1032.73 358.01 1018.59 349.082 C 1002.48 337.788 991.663 322.621 988.476 302.878 C 985.504 285.258 989.771 267.185 1000.31 252.755 C 1013.41 235.182 1030.49 226.391 1051.69 223.297 z" fill="rgb(254,254,255)" transform="translate(0,0)"></path>
<path d="M 1050.21 597.291 C 1053.16 596.866 1056.08 596.292 1058.3 598.331 C 1059.72 610.783 1058.85 627.79 1058.01 640.467 C 1057.72 644.809 1050.34 645.072 1057.84 652.374 C 1061.62 656.051 1056.64 670.913 1055.33 675.593 C 1054.25 679.69 1059.96 680.485 1058.67 685.148 C 1058.97 701.853 1058.71 718.685 1058.58 735.392 C 1042.66 734.84 1032.1 730.459 1018.81 722.741 C 1003.54 711.406 992.423 697.167 989.172 677.892 C 986.063 659.834 990.328 641.283 1001.01 626.398 C 1013.53 609.045 1029.39 600.676 1050.21 597.291 z" fill="rgb(254,254,255)" transform="translate(0,0)"></path>
<path d="M 1052.55 785.322 C 1054.74 784.918 1055.21 785.046 1057.45 785.27 C 1059.69 788.489 1058.74 827.738 1058.01 832.929 C 1054.53 836.193 1053.45 836.515 1054.55 841.211 C 1063.74 848.412 1057.13 859.476 1054.94 868.723 C 1054.23 871.709 1058.4 871.738 1058.58 876.272 C 1059.24 892.296 1058.77 908.471 1058.48 924.518 C 1042.69 923.733 1031.01 919.486 1017.92 911.153 C 1001.89 898.712 991.617 884.278 988.91 863.525 C 986.643 845.479 991.688 827.275 1002.92 812.969 C 1015.58 796.726 1032.3 787.979 1052.55 785.322 z" fill="rgb(254,254,255)" transform="translate(0,0)"></path>
<path d="M 1051.11 410.34 C 1054.05 410.002 1056.3 409.554 1058.47 411.475 C 1059.83 424.933 1058.47 442.232 1058.31 455.954 C 1058.27 459.451 1057.65 458.94 1054.46 461.873 C 1053.54 465.503 1053.45 464.097 1054.43 467.39 C 1060.95 471.087 1059.52 477.242 1057.47 483.651 C 1055.11 491.077 1051.26 491.445 1058.47 497.687 C 1059.54 511.467 1058.94 532.711 1058.94 547.06 C 1041.71 545.954 1033.85 544.333 1018.86 535.679 C 1002.2 522.901 991.379 508.355 988.616 486.829 C 986.379 469.214 991.302 451.438 1002.28 437.485 C 1014.69 421.559 1031.41 412.925 1051.11 410.34 z" fill="rgb(254,254,255)" transform="translate(0,0)"></path>
<path d="M 1116.12 527.947 C 1126.88 536.29 1137.48 547.324 1147.51 556.636 C 1161.69 569.794 1175.87 582.874 1189.67 596.439 C 1171.9 609.852 1151.11 627.833 1133.72 642.153 L 1133.43 642.291 C 1132.95 642.217 1132.46 642.144 1131.98 642.07 C 1117.69 609.401 1096.65 596.214 1063.06 591.812 L 1063.14 551.822 C 1087.59 548.634 1097.67 545.008 1116.12 527.947 z" fill="rgb(101,86,255)" transform="translate(0,0)"></path>
<path d="M 1028.49 366.159 C 1036.81 360.098 1048.15 365.897 1058.75 366.171 L 1058.83 405.102 C 1037.71 406.76 1026.54 410.552 1009.38 423.091 C 993.341 438.637 985.392 453.396 983.671 476.021 C 950.046 476.164 916.42 476.074 882.796 475.75 C 914.693 453.377 946.113 426.814 977.509 403.568 C 992.462 392.497 1012.97 375.358 1028.49 366.159 z" fill="rgb(248,247,254)" transform="translate(0,0)"></path>
<path d="M 1028.49 366.159 C 1036.81 360.098 1048.15 365.897 1058.75 366.171 L 1058.83 405.102 C 1037.71 406.76 1026.54 410.552 1009.38 423.091 C 1015.77 404.648 1023.05 384.763 1028.49 366.159 z" fill="rgb(101,86,255)" transform="translate(0,0)"></path>
<path d="M 1063.06 784.725 C 1082.64 787.677 1097.8 792.105 1112.1 807.314 C 1124.81 820.949 1131.56 839.096 1130.83 857.724 C 1129.9 879.203 1120.51 894.277 1105.21 908.333 C 1091.45 919.509 1080.29 922.959 1063.01 924.529 C 1062.96 908.652 1062.43 889.673 1063.14 874.045 C 1068.34 868.091 1065.84 868.622 1064.09 861.493 C 1061.97 852.881 1060.47 846.242 1066.73 839.312 C 1068.5 837.348 1063.21 832.679 1063.19 832.415 C 1062.53 816.573 1062.93 800.592 1063.06 784.725 z" fill="rgb(254,254,255)" transform="translate(0,0)"></path>
<path d="M 1062.95 596.802 C 1081.87 597.911 1098.52 604.583 1111.69 618.632 C 1124.65 632.461 1131.55 650.889 1130.87 669.828 C 1130.01 691.029 1121.28 705.125 1106.38 719.062 C 1092.16 730.131 1080.81 733.956 1063.12 735.418 C 1063.02 721.951 1062.12 694.601 1063.44 682.088 C 1065.67 679.954 1066.38 679.495 1067.27 676.583 C 1066.76 673.832 1067.06 673.875 1065.13 672.329 C 1058.92 667.336 1065.25 653.208 1066.53 646.93 C 1066.99 644.697 1063.2 642.394 1063.13 640.849 C 1062.48 626.373 1062.84 611.327 1062.95 596.802 z" fill="rgb(254,254,255)" transform="translate(0,0)"></path>
<path d="M 1063.02 222.695 C 1126.36 228.988 1155.8 298.562 1106.05 345.515 C 1091.24 356.413 1080.94 359.776 1062.92 361.966 C 1062.8 346.309 1062.42 330.023 1063.16 314.562 C 1069.89 307.962 1066.37 308.995 1062.85 302.043 C 1061.32 299.028 1064.49 281.879 1065.89 277.486 C 1066.54 275.441 1063.14 273.917 1063.08 271.216 C 1062.68 255.063 1062.94 238.859 1063.02 222.695 z" fill="rgb(254,254,255)" transform="translate(0,0)"></path>
<path d="M 1063.02 409.717 C 1082.96 412.326 1099.01 417.571 1113.36 432.94 C 1125.89 446.186 1132.41 464.012 1131.37 482.217 C 1130.44 502.097 1121.69 516.684 1107.33 529.669 C 1090.69 542.721 1083.58 544.696 1063.06 547.407 C 1062.96 533.414 1062.81 519.421 1062.98 505.428 C 1063.07 497.553 1062.52 499.107 1066.66 492.567 C 1066.25 485.86 1062.91 488.992 1062.6 483.467 C 1061.73 467.878 1069.04 471.984 1063.39 459.041 C 1062.78 457.661 1063.02 413.152 1063.02 409.717 z" fill="rgb(254,254,255)" transform="translate(0,0)"></path>
<path d="M 545.306 670.994 L 593.606 671.018 C 603.984 735.291 670.444 759.987 722.647 723.609 C 735.771 730.136 748.755 736.94 761.59 744.019 L 746.817 753.507 C 732.242 763.503 715.497 774.808 700.22 783.513 C 680.165 777.742 669.485 778.146 649.271 781.812 C 633.274 766.17 617.163 747.635 601.752 731.238 C 582.956 711.238 563.813 691.221 545.306 670.994 z" fill="rgb(248,247,254)" transform="translate(0,0)"></path>
<path d="M 783.516 552.391 C 801.71 562.451 820.422 574.124 838.483 584.778 C 867.397 601.835 896.688 618.8 925.385 636.177 C 915.166 643.509 904.676 650.125 894.097 656.913 L 881.091 665.726 L 861.585 665.849 C 828.129 635.8 793.615 601.511 759.924 570.574 C 767.798 564.632 775.917 558.653 783.516 552.391 z" fill="rgb(248,247,254)" transform="translate(0,0)"></path>
<path d="M 779.333 394.989 C 784.056 396.844 863.122 466.689 873.944 475.957 L 824.5 476.051 L 750.193 475.911 C 748.741 454.775 742.439 442.029 728.637 426.528 C 744.698 415.702 762.697 405.131 779.333 394.989 z" fill="rgb(248,247,254)" transform="translate(0,0)"></path>
<path d="M 718.84 536.796 C 724.169 540.655 746.957 564.138 752.488 569.781 C 738.451 580.756 725.089 591.227 710.042 600.835 C 681.971 586.593 657.575 589.205 630.408 603.532 L 623.094 608.563 C 616.064 600.278 606.471 590.36 598.948 582.064 C 610.122 569.606 623.273 554.558 633.607 541.646 C 662.675 556.535 691.83 555.728 718.84 536.796 z" fill="rgb(248,247,254)" transform="translate(0,0)"></path>
<path d="M 756.064 573.119 C 767.315 582.58 780.528 595.598 791.503 605.892 C 812.712 625.649 833.711 645.63 854.496 665.832 L 814.5 666.042 C 793.112 666.154 771.723 666.051 750.336 665.732 C 749.793 636.203 737.009 620.312 715.215 603.356 L 756.064 573.119 z" fill="rgb(248,247,254)" transform="translate(0,0)"></path>
<path d="M 1336.52 571.669 C 1341.71 574.647 1366.74 599.329 1373.43 605.403 C 1372.46 605.977 1371.52 606.605 1370.62 607.283 C 1348.96 623.611 1343.33 640.863 1339.67 665.979 L 1296.33 666.01 L 1271.62 666.102 L 1258.13 653.596 C 1283.81 627.682 1311.41 598.233 1336.52 571.669 z" fill="rgb(101,86,255)" transform="translate(0,0)"></path>
<path d="M 438.799 565.681 C 443.948 569.664 458.579 585.739 463.54 591.014 L 504.888 634.487 C 497.898 642.494 484.27 658.736 475.921 666.188 C 474.492 666.308 473.268 666.411 472.25 666.496 L 432.694 666.538 C 431.135 638.533 423.956 626.495 403.866 607.737 C 415.623 594.1 427.304 579.596 438.799 565.681 z" fill="rgb(248,247,254)" transform="translate(0,0)"></path>
<path d="M 750.341 670.453 C 783.418 670.574 826.763 669.206 858.85 670.841 C 861.37 672.336 862.295 673.789 864.144 676.035 C 859.524 681.721 822.163 704.943 813.697 710.45 C 797.976 720.535 782.342 730.757 766.798 741.114 C 753.358 734.348 740.045 727.332 726.867 720.069 C 741.779 703.856 747.813 692.196 750.341 670.453 z" fill="rgb(248,247,254)" transform="translate(0,0)"></path>
<path d="M 772.854 480.493 L 869.3 480.78 L 810.816 526.133 C 801.88 532.928 792.895 539.659 783.864 546.328 C 770.826 540.084 749.762 527.027 736.963 519.318 C 744.813 506.976 748.945 495.24 750.249 480.706 L 772.854 480.493 z" fill="rgb(248,247,254)" transform="translate(0,0)"></path>
<path d="M 886.413 480.695 C 918.335 479.885 951.117 480.444 983.078 480.699 C 985.214 497.378 987.757 505.567 996.527 520.041 C 994.36 530.233 992.866 538.614 991.855 549.029 C 991.261 555.145 990.962 564.148 989.73 569.905 C 955.036 540.465 920.596 510.727 886.413 480.695 z" fill="rgb(248,247,254)" transform="translate(0,0)"></path>
<path d="M 1192.63 599.675 C 1195.2 601.418 1198.06 604.187 1200.38 606.283 C 1217.71 621.896 1234.19 638.362 1251.8 653.685 L 1239.41 666.028 L 1193.5 665.993 L 1135.7 666.158 C 1135.26 660.283 1134.28 654.216 1133.45 648.365 C 1152.59 632.143 1173.19 615.743 1192.63 599.675 z" fill="rgb(101,86,255)" transform="translate(0,0)"></path>
<path d="M 505.724 480.47 C 535.335 479.983 564.951 479.885 594.565 480.174 C 595.382 495.256 599.259 505.123 607.128 517.503 C 601.875 522.873 593.42 533.441 588.279 539.405 C 583.863 544.603 578.293 550.362 573.607 555.438 C 558.714 540.831 544.113 524.43 529.469 509.374 C 521.846 501.536 512.178 491.586 505.545 482.938 C 504.92 482.123 505.317 481.981 505.724 480.47 z" fill="rgb(248,247,254)" transform="translate(0,0)"></path>
<path d="M 478.211 671.003 L 514.274 670.991 C 478.514 707.774 443.493 748.813 407.623 786.295 L 400.726 793.937 C 393.349 789.344 388.636 786.672 380.818 782.913 C 390.86 769.713 409.321 750.529 420.975 737.421 C 440.202 715.41 459.282 693.271 478.211 671.003 z" fill="rgb(248,247,254)" transform="translate(0,0)"></path>
<path d="M 1277.54 670.488 C 1298.43 670.68 1319.32 670.749 1340.21 670.696 C 1345.25 712.768 1371.95 732.763 1411.05 740.515 L 1399.73 744.366 L 1365.46 756.547 C 1355.61 747.825 1278.14 673.877 1277.54 670.488 z" fill="rgb(101,86,255)" transform="translate(0,0)"></path>
<path d="M 595.675 585.613 C 598.487 587.548 617.018 607.928 619.943 611.32 C 602.578 629.37 596.164 641.653 593.808 666.726 L 558.358 666.5 L 540.607 666.314 L 532.597 657.619 L 595.675 585.613 z" fill="rgb(248,247,254)" transform="translate(0,0)"></path>
<path d="M 432.097 480.118 C 454.728 479.993 477.361 480.052 499.991 480.295 C 487.538 498.107 471.464 517.338 457.776 534.514 C 451.946 542.518 445.159 550.319 438.762 557.92 C 429.829 547.996 421.025 537.957 412.352 527.804 C 425.187 512.773 430.807 499.721 432.097 480.118 z" fill="rgb(248,247,254)" transform="translate(0,0)"></path>
<path d="M 1339.9 482.078 C 1340.87 483.197 1341.82 490.661 1342.42 492.862 C 1347.36 510.851 1353.94 521.604 1367.66 533.857 C 1357.5 544.451 1347.12 554.834 1336.52 565.001 L 1326.63 555.143 C 1314.8 543.366 1302.79 531.777 1290.6 520.38 C 1305.18 508.467 1324.77 492.67 1339.9 482.078 z" fill="rgb(101,86,255)" transform="translate(0,0)"></path>
<path d="M 573.688 562.653 C 578.014 566.193 588.104 577.39 592.405 581.933 C 574.19 604.601 549.622 631.83 529.84 653.4 C 526.484 651.84 514.323 638.077 511.173 634.651 C 531.87 610.529 552.709 586.529 573.688 562.653 z" fill="rgb(248,247,254)" transform="translate(0,0)"></path>
<path d="M 1007.27 590.663 L 1021.52 602.392 C 1004.84 612.621 994.379 625.353 986.901 643.42 C 985.114 651.701 984.242 657.907 983.212 666.34 C 967.213 657.756 950.414 645.326 933.844 636.457 C 951.971 625.565 970.573 612.774 988.691 601.438 L 1007.27 590.663 z" fill="rgb(248,247,254)" transform="translate(0,0)"></path>
<path d="M 1007.27 590.663 L 1021.52 602.392 C 1004.84 612.621 994.379 625.353 986.901 643.42 C 986.945 629.061 987.801 615.764 988.691 601.438 L 1007.27 590.663 z" fill="rgb(101,86,255)" transform="translate(0,0)"></path>
<path d="M 545.834 429.627 C 554.394 434.935 594.75 465.509 594.601 473.654 C 591.046 476.57 565.746 475.438 559.5 475.406 L 509.465 475.512 C 521.205 460.122 533.945 445.279 545.834 429.627 z" fill="rgb(248,247,254)" transform="translate(0,0)"></path>
<path d="M 996.527 520.041 C 1013.84 543.026 1031.97 550.433 1060.22 551.38 C 1045.64 562.129 1023.36 575.098 1007.52 584.921 L 989.73 569.905 C 990.962 564.148 991.261 555.145 991.855 549.029 C 992.866 538.614 994.36 530.233 996.527 520.041 z" fill="rgb(101,86,255)" transform="translate(0,0)"></path>
<path d="M 1248.46 480.049 C 1274.94 479.005 1307.27 479.963 1334.08 480.051 C 1327.29 485.141 1320.6 490.362 1314.02 495.711 C 1305.21 502.935 1296.31 510.061 1287.34 517.09 C 1275.93 507.551 1259.47 490.75 1248.46 480.049 z" fill="rgb(101,86,255)" transform="translate(0,0)"></path>
<path d="M 609.64 521.608 C 616.752 527.355 618.586 531.552 629.496 539.386 C 619.538 552.304 606.806 566.198 595.87 578.281 C 592.737 576.627 580.142 562.593 576.83 559.005 C 587.486 547.972 599.502 533.402 609.64 521.608 z" fill="rgb(248,247,254)" transform="translate(0,0)"></path>
<path d="M 930.044 638.922 C 943.865 648.018 959.41 657.176 973.594 665.859 L 933.75 665.871 L 889.763 665.723 C 903.079 656.623 916.507 647.689 930.044 638.922 z" fill="rgb(248,247,254)" transform="translate(0,0)"></path>
<path d="M 733.886 523.075 C 748.861 531.244 764.957 541.012 779.851 549.616 L 763.788 561.868 L 756.649 567.106 C 745.58 556.034 734.102 545.402 722.998 534.259 L 733.886 523.075 z" fill="rgb(248,247,254)" transform="translate(0,0)"></path>
<path d="M 1057.92 559.112 C 1059.69 561.289 1058.81 587.285 1058.77 591.885 C 1043.78 593.51 1039.55 594.272 1025.62 599.717 L 1020.3 595.239 L 1011.54 588.237 C 1026.89 578.19 1042.46 569.815 1057.92 559.112 z" fill="rgb(101,86,255)" transform="translate(0,0)"></path>
<path d="M 507.626 638.648 C 511.194 640.262 523.083 654.129 525.956 657.449 C 523.447 659.97 520.63 663.516 518.295 666.301 L 502.64 666.4 L 482.962 666.347 C 490.926 656.887 499.15 647.651 507.626 638.648 z" fill="rgb(248,247,254)" transform="translate(0,0)"></path>
<path d="M 986.094 267.039 C 987.116 268.811 983.266 285.411 982.703 290.797 L 951.314 290.702 L 950.61 290.208 C 951.519 287.868 981.847 269.686 986.094 267.039 z" fill="rgb(248,247,254)" transform="translate(0,0)"></path>
<path d="M 1131.36 267.882 C 1144.28 274.541 1160.21 282.856 1172.39 290.652 L 1135.45 290.147 C 1135.1 280.923 1133.84 276.525 1131.36 267.882 z" fill="rgb(101,86,255)" transform="translate(0,0)"></path>
<path d="M 1255.32 656.962 C 1257.99 659.263 1261.39 661.764 1262.94 664.761 L 1262.22 665.894 L 1258.25 666.145 C 1254.4 666.153 1251.12 666.745 1248.22 664.95 C 1248.98 662.168 1253 659.087 1255.32 656.962 z" fill="rgb(101,86,255)" transform="translate(0,0)"></path>
<path d="M 90.7732 288.864 L 151.136 288.7 L 151.322 862.832 C 145.669 865.053 100.285 864.057 90.9547 863.985 C 89.6464 789.786 90.7536 710.872 90.9003 636.35 L 90.7732 288.864 z" fill="rgb(101,86,255)" transform="translate(0,0)"></path>
<path d="M 1923.86 290.401 C 1929.81 290.293 1951.36 288.339 1954.67 292.95 L 1953.8 295.282 C 1947.95 295.28 1925.54 297.215 1922.57 292.662 L 1923.86 290.401 z" fill="rgb(9,8,23)" transform="translate(0,0)"></path>
<path d="M 1921.85 856.389 C 1928.25 855.178 1942.88 855.417 1949.85 855.693 C 1952.8 855.811 1953.1 857.004 1954.53 859.002 C 1949.33 861.046 1930.92 861.142 1924.74 859.849 C 1922.89 859.463 1922.95 858.475 1921.85 856.389 z" fill="rgb(9,8,23)" transform="translate(0,0)"></path>
<metadata><recraft-signature>{"signed_by": "recraft", "signature_b64": "10bH7LDLvKH4hDMfJBMjKPeN2tQZhhEYAcEhaBoi0VkjItISKCj7rsqMEi2ieOkHJ7Uuer4uNQY0E4dwYV6PAg==", "signing_algo": "Ed25519", "generation_timestamp": 1777350688, "identifier": "574fba2f-2d2b-4035-8578-07c0a2c55d16"}</recraft-signature></metadata></svg>