<svg xmlns="http://www.w3.org/2000/svg" height="1024" preserveAspectRatio="none" style="display: block;" version="1.1" viewBox="0 0 2048 1152" width="1820">
<path d="M 0 0 L 2048 0 L 2048 1152 L 0 1152 L 0 0 z" fill="rgb(254,254,254)" transform="translate(0,0)"></path>
<path d="M 745.941 195.837 C 745.643 195.596 745.345 195.355 745.047 195.113 C 718.292 181.723 699.741 158.738 695.606 128.549 C 692.67 106.113 698.71 83.4255 712.413 65.4191 C 726.336 47.0461 747.037 35.0132 769.892 32.0072 C 791.746 28.928 813.917 34.8034 831.378 48.3009 C 849.21 61.9052 861.673 82.1272 864.615 104.469 C 865.153 108.755 865.56 113.057 865.835 117.368 C 889.314 117.056 914.363 116.686 937.825 117.43 C 938.709 93.7103 947.784 71.2488 965.372 55.0001 C 982.341 39.2786 1004.85 30.9216 1027.97 31.7591 C 1050.41 32.6561 1071.55 42.5154 1086.67 59.1294 C 1101.35 75.3471 1108.17 95.4556 1108.19 117.149 C 1132.04 117.041 1155.89 117.143 1179.74 117.453 C 1181.34 104.431 1182.55 96.0447 1187.75 83.9717 C 1203.04 48.4356 1238.98 27.4992 1277.55 32.3944 C 1299.19 35.065 1318.87 46.2746 1332.21 63.5293 C 1361.48 101.357 1354.44 158.009 1315.74 186.221 C 1310.05 190.368 1304.79 193.578 1298.69 197.116 C 1326.95 262.575 1352.92 326.325 1380.24 391.924 L 1409.6 462.092 C 1413.27 470.875 1419.44 484.267 1422.45 492.671 C 1425.44 493.66 1439.22 490.582 1443.87 490.146 C 1474.93 487.344 1504.96 502.086 1521.73 528.373 C 1533.77 547.619 1537.5 572.42 1532.2 594.458 C 1527.2 616.179 1513.63 634.957 1494.58 646.528 C 1473.42 659.293 1450.62 662.806 1426.65 656.755 C 1425.5 656.464 1424.35 656.137 1423.22 655.773 C 1417.72 671.119 1409.38 689.205 1402.91 704.654 L 1359.26 808.577 L 1318.18 908.473 C 1312.6 921.946 1305.18 941.778 1299.03 954.432 C 1322.29 966.545 1338.56 981.77 1346.67 1007.47 C 1353.84 1029.62 1351.82 1053.72 1341.06 1074.37 C 1330.3 1094.65 1311.96 1109.86 1290.03 1116.7 C 1268.4 1123.17 1245.08 1120.8 1225.2 1110.09 C 1205.28 1099.64 1190.4 1081.61 1183.93 1060.07 C 1180.98 1050.18 1180.53 1043.57 1179.96 1033.46 C 1156.24 1033.1 1132.51 1033 1108.78 1033.17 C 1106.95 1059.01 1100.02 1080.64 1079.66 1098.25 C 1062.5 1112.89 1040.32 1120.26 1017.81 1118.81 C 994.826 1117.17 973.437 1106.46 958.363 1089.03 C 943.378 1071.53 939.811 1055.96 937.357 1033.89 C 913.948 1033.66 889.768 1034.09 866.474 1033.32 C 865.754 1058.27 859.105 1078.59 840.395 1096.13 C 823.487 1112 800.901 1120.38 777.738 1119.38 C 754.549 1118.56 732.656 1108.48 716.948 1091.41 C 701.217 1074.53 693.759 1052.71 694.707 1029.76 C 695.785 1006.82 705.833 985.232 722.685 969.638 C 728.44 964.405 738.533 957.383 745.838 954.899 C 705.491 854.86 664.527 755.072 622.946 655.54 C 621.503 655.454 616.057 656.791 614.244 657.121 C 602.91 659.184 592.755 660.792 581.187 658.536 C 558.864 653.98 539.226 640.832 526.509 621.929 C 513.859 603.255 509.261 580.274 513.751 558.17 C 518.239 536.083 531.408 516.724 550.302 504.437 C 575.317 487.959 595.785 488.446 623.672 494.242 C 624.511 489.851 633.468 468.948 635.515 463.943 L 666.358 389.116 C 691.283 328.617 718.07 254.071 745.941 195.837 z" fill="rgb(28,3,17)" transform="translate(0,0)"></path>
<path d="M 1395.33 640.572 C 1403.49 647.092 1411.77 652.041 1421.74 655.293 L 1423.22 655.773 C 1417.72 671.119 1409.38 689.205 1402.91 704.654 L 1359.26 808.577 L 1318.18 908.473 C 1312.6 921.946 1305.18 941.778 1299.03 954.432 L 1296.75 952.6 C 1287.35 952.107 1275.91 947.066 1265.89 947.827 C 1258.78 948.366 1251.7 950.221 1244.61 950.607 C 1243 950.695 1242.45 949.126 1241.67 947.917 C 1240.32 949.16 1240.33 949.887 1239.9 951.673 L 1239.76 952.309 C 1231.52 955.939 1225.62 958.687 1217.78 963.049 C 1200.49 930.847 1177.3 895.624 1158.86 862.878 C 1180.87 834.988 1203.07 807.252 1225.47 779.672 C 1231.09 772.621 1255.17 741.425 1260.38 736.87 C 1271.53 727.134 1298.5 709.587 1311.64 700.477 C 1339.79 680.864 1367.69 660.894 1395.33 640.572 z" fill="rgb(254,254,254)" transform="translate(0,0)"></path>
<path d="M 1421.74 655.293 L 1423.22 655.773 C 1417.72 671.119 1409.38 689.205 1402.91 704.654 L 1359.26 808.577 L 1318.18 908.473 C 1312.6 921.946 1305.18 941.778 1299.03 954.432 L 1296.75 952.6 C 1306.47 933.178 1317.97 902.553 1326.54 881.749 C 1345.81 833.995 1365.58 786.442 1385.84 739.099 C 1396.71 713.033 1409.25 680.122 1421.74 655.293 z" fill="rgb(27,26,27)" transform="translate(0,0)"></path>
<path d="M 1228.12 913.275 C 1234.34 915.05 1240.19 935.855 1239.6 941.445 C 1233.2 938.947 1227.2 919.223 1228.12 913.275 z" fill="rgb(28,3,17)" transform="translate(0,0)"></path>
<path d="M 1212.58 869.551 C 1214.22 869.833 1215.93 869.884 1216.85 871.637 C 1219.54 876.819 1225.17 890.18 1224.18 895.513 C 1218.16 894.356 1212.29 874.848 1212.58 869.551 z" fill="rgb(28,3,17)" transform="translate(0,0)"></path>
<path d="M 1198.43 824.443 C 1204.36 826.603 1209.69 845.368 1208.98 851.113 C 1207.2 850.462 1206.79 850.006 1205.35 848.847 C 1202.73 843.244 1197.01 830.273 1198.43 824.443 z" fill="rgb(28,3,17)" transform="translate(0,0)"></path>
<path d="M 1265.09 733.098 C 1267.07 733.64 1267.07 733.816 1268.56 735.13 C 1269.94 740.076 1269.07 745.591 1268.63 750.769 C 1266.33 750.581 1267.39 750.956 1265.46 749.334 C 1264.2 744.745 1264.87 738.023 1265.09 733.098 z" fill="rgb(28,3,17)" transform="translate(0,0)"></path>
<path d="M 1265.99 770.482 L 1268.33 772.191 C 1270.01 777.732 1269.42 782.021 1268.25 787.638 L 1265.71 785.743 C 1264.14 780.31 1264.75 775.94 1265.99 770.482 z" fill="rgb(28,3,17)" transform="translate(0,0)"></path>
<path d="M 1265.59 808.213 C 1267 808.752 1267.17 808.964 1268.47 809.777 C 1269.94 814.546 1269.7 819.682 1267.78 824.29 C 1266.48 823.45 1266.38 823.132 1265.38 821.956 C 1264.34 816.917 1265.02 813.272 1265.59 808.213 z" fill="rgb(28,3,17)" transform="translate(0,0)"></path>
<path d="M 1266.12 917.599 L 1268.68 919.246 C 1270.49 923.771 1269.51 928.123 1268.49 932.75 L 1266.06 930.843 C 1264.13 926.266 1264.97 922.267 1266.12 917.599 z" fill="rgb(28,3,17)" transform="translate(0,0)"></path>
<path d="M 1265.92 845.229 L 1268.43 846.509 C 1270.48 851.032 1269.33 856.019 1268.59 860.841 C 1263.57 857.969 1265.33 849.973 1265.92 845.229 z" fill="rgb(28,3,17)" transform="translate(0,0)"></path>
<path d="M 1266.64 881.352 L 1268.84 883.155 C 1270.46 887.948 1269.33 891.805 1268.26 896.63 L 1266.3 895.186 C 1264.05 890.632 1265.51 886.164 1266.64 881.352 z" fill="rgb(28,3,17)" transform="translate(0,0)"></path>
<path d="M 648.471 641.019 C 682.538 666.214 716.513 691.532 752.759 713.442 C 761.908 718.973 773.865 723.437 781.974 730.642 C 804.949 756.787 825.831 787.691 848.079 814.374 C 845.342 821.904 841.904 830.249 841.116 838.116 L 841.795 839.491 C 846.276 835.437 849.511 825.737 851.805 819.919 C 862.837 833.782 873.7 847.779 884.39 861.907 C 865.382 895.838 845.314 928.992 826.443 962.643 C 822.634 960.553 806.895 953.123 805.278 951.786 L 804.565 947.266 L 802.566 946.16 L 800.833 946.758 C 800.21 948.147 799.453 950.688 798.358 950.872 C 793.258 951.73 785.423 947.828 780.547 947.43 C 774.425 946.929 751.196 953.483 747.444 953.535 L 745.838 954.899 C 705.491 854.86 664.527 755.072 622.946 655.54 L 625.213 653.967 C 633.867 650.594 640.861 646.289 648.471 641.019 z" fill="rgb(254,254,254)" transform="translate(0,0)"></path>
<path d="M 622.946 655.54 L 625.213 653.967 C 638.628 689.438 655.153 727.329 669.863 762.541 L 721.906 889.548 C 724.629 896.228 746.838 948.658 747.444 953.535 L 745.838 954.899 C 705.491 854.86 664.527 755.072 622.946 655.54 z" fill="rgb(27,26,27)" transform="translate(0,0)"></path>
<path d="M 831.403 861.152 L 834.244 862.718 C 835.575 867.986 828.732 882.008 826.29 887.781 C 823.609 886.73 824.587 887.616 823.293 885.002 C 824.094 878.905 829.007 867.439 831.403 861.152 z" fill="rgb(28,3,17)" transform="translate(0,0)"></path>
<path d="M 815.736 907.506 L 818.033 908.95 C 819.425 913.456 811.545 929.739 809.288 934.801 L 807.203 932.759 C 805.8 927.544 813.164 912.769 815.736 907.506 z" fill="rgb(28,3,17)" transform="translate(0,0)"></path>
<path d="M 779.696 808.236 C 780.476 808.758 781.508 809.729 782.248 810.373 C 783.496 815.546 783.322 820.508 781.588 825.554 L 779.107 823.459 C 777.338 818.304 778.633 813.483 779.696 808.236 z" fill="rgb(28,3,17)" transform="translate(0,0)"></path>
<path d="M 779.774 843.459 L 781.928 845.591 C 782.946 849.805 783.088 856.676 781.612 860.805 C 780.364 860.014 779.892 859.511 778.804 858.545 C 777.527 853.369 777.851 848.436 779.774 843.459 z" fill="rgb(28,3,17)" transform="translate(0,0)"></path>
<path d="M 779.93 879.444 L 782.255 881.363 C 783.631 886.341 782.842 891.68 782.005 896.703 C 780.741 896.164 780.333 895.725 779.24 894.9 C 777.755 889.234 778.446 885.054 779.93 879.444 z" fill="rgb(28,3,17)" transform="translate(0,0)"></path>
<path d="M 779.556 915.301 L 782.176 917.501 C 783.544 922.502 782.429 928.006 781.623 933.088 C 780.823 932.425 779.751 931.195 779.003 930.4 C 777.529 924.754 778.426 920.998 779.556 915.301 z" fill="rgb(28,3,17)" transform="translate(0,0)"></path>
<path d="M 781.155 734.666 L 782.366 736.088 C 783.184 740.752 783.173 747.418 781.53 751.877 C 776.903 748.324 777.987 738.835 781.155 734.666 z" fill="rgb(28,3,17)" transform="translate(0,0)"></path>
<path d="M 780.183 771.734 C 783.904 774.152 782.432 784.822 782.053 788.753 C 780.588 788.291 780.475 787.966 779.318 786.904 C 778.134 782.203 778.097 776.179 780.183 771.734 z" fill="rgb(28,3,17)" transform="translate(0,0)"></path>
<path d="M 747.199 196.405 C 753.768 196.877 760.605 200.007 767.23 200.978 C 787.636 203.969 806.841 198.797 824.705 188.983 C 842.583 221.208 866.762 255.874 883.819 288.404 C 874.339 301.108 863.615 313.817 854.527 326.241 C 852.639 321.099 847.207 303.873 843.844 301.55 L 842.729 302.007 C 842.32 310.105 848.911 322.035 850.828 329.875 C 831.651 354.14 811.086 377.308 791.873 401.549 C 789.612 404.402 787.281 407.177 784.798 409.84 L 783.506 409.718 C 782.827 404.952 783.458 403.673 780.858 400.489 L 779.42 400.716 C 777.843 404.255 778.713 409.089 778.981 413.122 C 739.8 441.252 699.533 467.755 661.23 497.172 C 656.707 500.645 651.837 504.278 647.152 507.514 C 640.199 502.815 633.393 498.185 625.324 495.549 L 623.672 494.242 C 624.511 489.851 633.468 468.948 635.515 463.943 L 666.358 389.116 C 691.283 328.617 718.07 254.071 745.941 195.837 L 747.199 196.405 z" fill="rgb(254,254,254)" transform="translate(0,0)"></path>
<path d="M 745.941 195.837 L 747.199 196.405 C 739.449 218.907 722.911 255.382 713.358 278.751 L 665.477 397.173 C 652.333 429.228 637.609 463.345 625.324 495.549 L 623.672 494.242 C 624.511 489.851 633.468 468.948 635.515 463.943 L 666.358 389.116 C 691.283 328.617 718.07 254.071 745.941 195.837 z" fill="rgb(27,26,27)" transform="translate(0,0)"></path>
<path d="M 811.621 213.275 C 818.841 215.143 822.008 229.628 822.085 236.286 C 820.061 236.126 820.041 235.925 818.419 234.786 C 815.09 228.314 812.404 220.536 811.621 213.275 z" fill="rgb(28,3,17)" transform="translate(0,0)"></path>
<path d="M 825.609 256.481 C 828.967 256.608 827.913 256.108 830.339 257.913 C 833.209 263.556 836.203 272.785 836.013 279.122 C 834.679 278.916 834.192 278.584 832.954 278.044 C 830.285 272.888 827.151 262.244 825.609 256.481 z" fill="rgb(28,3,17)" transform="translate(0,0)"></path>
<path d="M 779.08 215.193 C 780.5 215.559 780.965 216.121 782.119 217.047 C 783.472 221.139 782.832 226.675 782.623 231.103 C 780.085 230.78 781.199 231.27 779.24 229.435 C 778.023 225.323 778.782 219.609 779.08 215.193 z" fill="rgb(28,3,17)" transform="translate(0,0)"></path>
<path d="M 779.149 326.117 C 780.476 326.527 780.964 326.868 782.176 327.508 C 783.654 331.628 782.89 337.39 782.626 341.904 C 780.512 341.732 781.555 341.993 779.523 340.626 C 778.158 336.355 778.879 330.712 779.149 326.117 z" fill="rgb(28,3,17)" transform="translate(0,0)"></path>
<path d="M 779.822 252.368 C 781.098 252.994 781.512 253.632 782.482 254.683 C 783.506 260.117 782.831 263.388 782.133 268.796 L 779.659 267.474 C 777.957 262.116 778.821 257.838 779.822 252.368 z" fill="rgb(28,3,17)" transform="translate(0,0)"></path>
<path d="M 779.319 363.367 C 780.518 363.809 781.054 364.269 782.122 364.966 C 783.599 369.052 782.89 374.274 782.619 378.722 C 780.334 378.532 781.423 378.869 779.379 377.342 C 777.959 373.329 778.917 367.752 779.319 363.367 z" fill="rgb(28,3,17)" transform="translate(0,0)"></path>
<path d="M 779.091 290.077 C 780.433 290.49 780.952 290.835 782.182 291.47 C 783.678 295.087 782.891 300.71 782.634 304.813 C 781.274 304.608 780.758 304.187 779.551 303.517 C 778.027 299.898 778.83 294.201 779.091 290.077 z" fill="rgb(28,3,17)" transform="translate(0,0)"></path>
<path d="M 1220.72 191.483 C 1225.96 194.281 1231.65 196.668 1237.1 199.077 C 1235.3 203.653 1229.9 215.005 1232.17 219.382 C 1236.82 217.532 1240.33 205.006 1242.02 200.307 C 1250.58 202.319 1256.21 203.46 1264.91 204.181 C 1264.75 210.059 1263.87 219.684 1266.78 224.577 C 1270.01 220.793 1268.83 209.551 1268.66 204.242 C 1280.02 202.672 1285.79 201.014 1296.74 197.815 L 1298.69 197.116 C 1326.95 262.575 1352.92 326.325 1380.24 391.924 L 1409.6 462.092 C 1413.27 470.875 1419.44 484.267 1422.45 492.671 L 1420.97 494.836 C 1410.24 498.296 1406.3 500.899 1397.46 507.274 C 1387.26 499.017 1370.91 488.444 1359.9 480.543 C 1329.75 458.889 1298.53 438.234 1268.37 416.574 C 1268.47 411.12 1269.28 406.593 1267.05 401.811 L 1265.7 401.597 C 1263.67 405.188 1264.27 409.633 1264.41 413.846 C 1242.46 390.345 1223.87 362.848 1202.3 338.926 C 1187.26 322.25 1173.73 304.698 1159.92 287.026 C 1180.78 255.494 1200.03 223.03 1220.72 191.483 z" fill="rgb(254,254,254)" transform="translate(0,0)"></path>
<path d="M 1296.74 197.815 L 1298.69 197.116 C 1326.95 262.575 1352.92 326.325 1380.24 391.924 L 1409.6 462.092 C 1413.27 470.875 1419.44 484.267 1422.45 492.671 L 1420.97 494.836 C 1414.26 480.839 1407.04 462.23 1400.96 447.672 L 1364.85 360.552 L 1296.74 197.815 z" fill="rgb(27,26,27)" transform="translate(0,0)"></path>
<path d="M 1206.28 288.293 C 1207.38 289.022 1208.65 289.519 1208.81 290.582 C 1209.55 295.688 1203.24 308.92 1201.2 313.134 L 1198.44 311.577 C 1197.72 305.832 1203.79 293.854 1206.28 288.293 z" fill="rgb(28,3,17)" transform="translate(0,0)"></path>
<path d="M 1221.52 243.167 C 1223.98 244.142 1222.95 243.399 1224.62 245.585 C 1224.83 250.099 1219.19 262.275 1217.15 267.082 C 1215.71 266.808 1215.7 266.599 1214.37 265.768 C 1213.01 260.638 1219.23 248.499 1221.52 243.167 z" fill="rgb(28,3,17)" transform="translate(0,0)"></path>
<path d="M 1265.59 321.268 L 1268.26 323.324 C 1269.84 329.152 1269 333.669 1268.25 339.658 L 1265.69 337.79 C 1263.96 331.997 1264.73 327.219 1265.59 321.268 z" fill="rgb(28,3,17)" transform="translate(0,0)"></path>
<path d="M 1265.82 360.249 L 1267.7 361.229 C 1270.24 364.491 1268.81 373.537 1268.31 377.789 L 1265.65 376.105 C 1263.88 370.415 1264.81 366.079 1265.82 360.249 z" fill="rgb(28,3,17)" transform="translate(0,0)"></path>
<path d="M 1267.33 283.808 C 1270.21 287.108 1269.17 297.561 1267.53 301.526 C 1263.6 296.621 1263.27 288.686 1267.33 283.808 z" fill="rgb(28,3,17)" transform="translate(0,0)"></path>
<path d="M 1265.77 246.429 C 1266.42 246.895 1267.43 247.987 1268.03 248.596 C 1269.09 253.218 1268.4 259.01 1268.09 263.839 C 1267.31 263.506 1266.2 262.743 1265.44 262.265 C 1263.85 256.88 1264.51 251.827 1265.77 246.429 z" fill="rgb(28,3,17)" transform="translate(0,0)"></path>
<path d="M 939.772 389.788 C 943.465 392.213 956.746 419.552 960.166 424.661 C 964.78 431.552 959.79 433.519 962.047 437.729 C 964.195 437.647 964.446 437.681 966.578 438.022 C 970.172 442.637 991.371 482.961 995.839 491.176 C 969.317 501.363 949.806 523.388 942.046 550.583 C 939.566 559.272 943.125 572.66 929.722 573.093 C 914.357 573.589 898.816 573.216 883.421 573.143 L 789.502 573.061 C 793.492 567.108 804.376 552.19 804.927 546.04 L 803.634 544.587 C 797.23 547.233 792.866 564.948 786.792 569.086 C 786.034 569.603 781.769 568.418 780.385 568.151 C 779.447 569.878 778.965 570.877 778.19 572.683 C 773.684 574.109 754.058 573.191 748.545 573.093 L 681.036 573.022 C 679.943 563.788 678.97 558.1 676.621 549.18 C 705.277 537.983 734.076 527.153 763.01 516.693 C 771.236 513.75 799.547 505.699 805.038 501.413 C 820.264 489.527 838.005 470.979 853.623 457.954 C 850.936 463.654 842.296 476.132 844.079 481.402 L 845.593 481.332 C 849.616 475.911 853.385 469.588 856.18 463.422 C 857.669 460.135 856.727 459.212 856.297 455.685 C 862.325 450.623 880.269 435.162 885.647 432.269 L 888.62 433.577 L 890.482 432.469 L 890.195 429.558 C 891.437 426.479 933.316 394.753 939.772 389.788 z" fill="rgb(254,254,254)" transform="translate(0,0)"></path>
<path d="M 830.202 501.549 L 832.319 503.056 C 832.758 507.732 821.235 523.762 818 528.105 L 815.937 525.891 C 815.949 520.769 826.77 506.292 830.202 501.549 z" fill="rgb(28,3,17)" transform="translate(0,0)"></path>
<path d="M 949.728 504.368 C 951.235 504.996 952.227 505.016 952.562 506.3 C 954.109 512.234 950.604 525.198 948.291 530.493 C 945.904 528.634 945.252 528.289 945.631 524.997 C 946.383 518.46 947.324 510.469 949.728 504.368 z" fill="rgb(28,3,17)" transform="translate(0,0)"></path>
<path d="M 892.912 448.662 C 897.642 451.277 903.492 469.33 901.956 474.239 L 900.117 473.776 C 896.51 470.784 890.838 453.463 892.912 448.662 z" fill="rgb(28,3,17)" transform="translate(0,0)"></path>
<path d="M 921.761 536.518 C 927.042 539.094 932.303 555.769 932.966 561.605 C 931.029 561.346 930.793 561.108 929.068 560.278 C 925.846 554.394 920.474 543.15 921.761 536.518 z" fill="rgb(28,3,17)" transform="translate(0,0)"></path>
<path d="M 957.893 457.167 C 959.167 457.669 960.526 457.878 960.872 458.949 C 962.457 463.843 958.503 477.769 957.274 482.849 L 954.846 481.672 C 952.34 477.012 956.578 462.907 957.893 457.167 z" fill="rgb(28,3,17)" transform="translate(0,0)"></path>
<path d="M 908.511 493.462 L 910.876 495.152 C 913.78 502.052 918.354 511.781 915.815 518.507 C 911.969 515.161 906.067 498.804 908.511 493.462 z" fill="rgb(28,3,17)" transform="translate(0,0)"></path>
<path d="M 779.526 532.228 C 780.33 532.78 781.418 533.829 782.181 534.51 C 783.6 539.075 782.567 543.961 781.971 548.753 L 780.483 548.084 C 777.601 544.244 779.007 537.173 779.526 532.228 z" fill="rgb(28,3,17)" transform="translate(0,0)"></path>
<path d="M 1098.53 389.484 C 1116.83 403.533 1136.89 421.37 1154.55 436.627 C 1152.37 441.404 1148.83 446.674 1151.27 451.611 L 1153.25 451.142 C 1156.27 448.422 1157.36 443.654 1158.67 439.686 C 1169.45 448.531 1186.48 460.397 1196 469.508 C 1200.44 473.757 1212.17 504.633 1219.84 507.92 L 1221.39 506.621 C 1220.96 502.477 1209.35 484.397 1206.34 479.45 C 1230.35 496.476 1234.12 506.243 1264.87 512.957 C 1264.8 516.859 1264.5 520.434 1265.64 524.16 L 1267.52 525.089 C 1270.75 522.166 1267.03 520.085 1269.79 515.195 C 1273.19 514.537 1358.85 544.51 1368.26 548.122 C 1365.9 555.291 1364.34 570.972 1362.36 573.892 L 1359.25 574.293 L 1263.82 574.159 C 1260.22 568.974 1259.67 566.644 1254.29 563.466 L 1253.14 563.946 L 1253.94 566.414 L 1253.21 564.859 C 1253.87 568.557 1255.95 571.318 1257.95 574.515 L 1172.16 574.273 C 1156.94 574.252 1141.1 574.54 1125.93 573.763 C 1117.5 573.332 1117.06 572.558 1112.47 567.122 L 1110.86 567.215 C 1110.03 569.368 1109.98 569.691 1109.67 572.016 L 1109.59 572.618 C 1108.16 571.155 1104.88 552.627 1103.45 547.684 C 1101.74 541.791 1099.43 536.093 1096.53 530.683 C 1083.6 506.698 1066.3 496.035 1041 488.474 C 1048.08 471.695 1068.97 441.146 1077.8 423.226 C 1077.8 423.226 1080.96 421.475 1080.96 421.475 C 1085.6 411.281 1092.98 398.636 1098.53 389.484 z" fill="rgb(254,254,254)" transform="translate(0,0)"></path>
<path d="M 1092.24 474.256 C 1094.09 474.865 1095.47 474.89 1096.25 476.636 C 1098.94 482.618 1103.27 497.847 1101.82 503.774 C 1095.82 501.005 1091.54 480.239 1092.24 474.256 z" fill="rgb(28,3,17)" transform="translate(0,0)"></path>
<path d="M 1142.32 475.318 L 1144.95 477.042 C 1146.23 482.016 1139.39 498.579 1137.24 504.452 C 1135.64 503.993 1135.79 503.895 1134.37 502.902 C 1133.36 497.657 1140.08 481.423 1142.32 475.318 z" fill="rgb(28,3,17)" transform="translate(0,0)"></path>
<path d="M 1104.54 523.467 L 1107.41 524.137 C 1111.57 528.386 1113.72 544.982 1114.67 551.395 C 1113.33 551.124 1111.53 551.053 1110.95 550.132 C 1107.89 545.332 1104.47 528.545 1104.54 523.467 z" fill="rgb(28,3,17)" transform="translate(0,0)"></path>
<path d="M 1126.45 525.154 C 1127.23 525.438 1128.51 526.188 1129.29 526.61 C 1130.31 531.402 1123.95 547.595 1122.15 552.685 C 1119.54 552.047 1120.22 552.592 1118.58 550.851 C 1118.31 545.138 1124.25 530.893 1126.45 525.154 z" fill="rgb(28,3,17)" transform="translate(0,0)"></path>
<path d="M 1081.74 426.477 C 1087.8 428.366 1090.4 448.214 1089.5 453.758 C 1088.08 453.23 1086.26 452.763 1085.71 451.139 C 1083.72 445.29 1079.86 432.082 1081.74 426.477 z" fill="rgb(28,3,17)" transform="translate(0,0)"></path>
<path d="M 1230.06 525.39 C 1236.32 526.816 1244.85 540.692 1245.12 546.554 C 1240.59 545.209 1239.82 544.257 1236.99 540.207 C 1234.17 536.179 1229.16 530.426 1230.06 525.39 z" fill="rgb(28,3,17)" transform="translate(0,0)"></path>
<path d="M 1264.97 548.286 C 1270.85 550.918 1268.48 560.943 1267.88 566.516 L 1265.63 564.964 C 1263.72 559.415 1264.39 554.065 1264.97 548.286 z" fill="rgb(28,3,17)" transform="translate(0,0)"></path>
<path d="M 676.046 601.495 C 704.412 611.294 733.659 619.738 761.931 629.906 C 780.907 636.731 798.303 638.862 814.529 652.081 C 824.841 660.481 836.505 668.716 847.358 676.495 L 846.736 676.296 C 849.084 684.323 853.473 695.166 859.103 701.263 L 860.019 700.587 C 859.188 693.311 856.246 688.168 853.375 681.326 C 864.374 690.503 875.584 699.426 886.994 708.088 C 883.956 715.73 881.148 720.944 880.333 729.174 L 881.208 730.125 C 885.745 726.008 888.532 717.706 890.997 711.849 C 904.949 721.627 930.234 744.26 943.341 755.825 C 936.97 769.966 923.479 792.316 915.39 806.481 C 909.934 796.331 875.111 724.174 871.407 721.774 L 869.672 722.44 L 868.842 724.862 C 881.432 746.943 901.953 788.522 912.569 811.616 C 904.21 826.968 895.828 842.775 886.81 857.707 C 875.865 844.973 864.964 828.419 853.325 814.629 C 855.562 809.868 858.261 805.742 857.043 800.689 L 855.583 800.278 C 852.274 802.499 851.445 806.261 850.028 810.105 C 831.89 785.423 804.89 750.354 784.916 726.816 C 780.175 721.229 744.498 703.254 734.981 696.917 C 706.517 677.964 679.466 658.379 651.759 638.17 C 664.264 626.295 669.739 617.328 676.046 601.495 z" fill="rgb(254,254,254)" transform="translate(0,0)"></path>
<path d="M 870.158 752.394 L 871.874 753.675 C 873.288 759.122 866.829 774.143 864.236 779.442 C 863.241 778.562 861.841 777.699 861.773 776.624 C 861.412 770.908 867.561 757.019 870.158 752.394 z" fill="rgb(28,3,17)" transform="translate(0,0)"></path>
<path d="M 778.854 694.236 C 785.335 696.632 782.881 703.819 781.964 709.607 C 781.268 709.237 780.111 708.285 779.433 707.769 C 777.944 702.996 778.514 699.183 778.854 694.236 z" fill="rgb(28,3,17)" transform="translate(0,0)"></path>
<path d="M 780.038 657.675 L 781.652 659.286 C 783.271 664.454 782.448 669.626 781.55 674.876 L 779.334 672.835 C 778.037 667.668 778.297 662.702 780.038 657.675 z" fill="rgb(28,3,17)" transform="translate(0,0)"></path>
<path d="M 791.568 577.429 L 892.236 577.402 C 898.776 577.412 930.633 577.125 934.881 578.3 C 932.568 584.136 925.555 600.214 926.289 605.405 L 927.537 606.275 C 933.508 604.026 933.619 589.04 938.229 581.294 C 938.696 581.531 939.163 581.768 939.63 582.005 C 945.64 619.689 963.75 641.594 998.516 656.798 C 994.967 662.587 991.283 669.489 987.913 675.471 C 980.114 689.802 972.159 704.91 963.664 718.756 C 963.331 715.022 963.606 709.771 960.078 707.857 C 956.883 712.693 959.299 719.03 960.571 724.334 L 946.102 751.497 C 932.024 739.718 905.208 718.685 893.478 706.783 C 893.561 704.764 893.728 703.486 894.02 701.484 L 892.435 700.145 C 890.075 701.694 887.763 703.352 885.09 701.279 C 877.029 695.024 869.206 688.424 861.25 682.019 C 847.414 671.092 833.366 660.435 819.115 650.054 C 796.339 633.543 787.654 633.583 761.633 624.979 L 677.388 597.081 C 679.317 590.366 679.4 584.063 681.189 577.49 C 716.161 577.287 751.134 577.366 786.104 577.726 C 791.294 586.326 801.621 604.776 808.642 610.836 L 808.751 608.907 L 807.704 609.55 L 808.422 607.989 C 804.542 598.683 796.759 586.632 791.568 577.429 z" fill="rgb(254,254,254)" transform="translate(0,0)"></path>
<path d="M 818.796 628.71 C 824.37 630.91 833.796 648.317 833.071 654.407 C 832.22 654.218 830.94 653.67 830.081 653.342 C 826.49 647.581 817.52 634.548 818.796 628.71 z" fill="rgb(28,3,17)" transform="translate(0,0)"></path>
<path d="M 919.118 627.338 C 920.406 627.87 921.447 627.948 921.628 629.053 C 922.457 634.12 916.09 648.637 914.226 652.976 L 912.002 651.537 C 910.536 646.368 916.816 632.704 919.118 627.338 z" fill="rgb(28,3,17)" transform="translate(0,0)"></path>
<path d="M 940.586 611.499 C 947.71 613.686 949.826 630.416 948.585 636.729 C 942.694 634.599 940.49 617.261 940.586 611.499 z" fill="rgb(28,3,17)" transform="translate(0,0)"></path>
<path d="M 902.309 673.304 L 904.337 674.531 L 904.924 676.943 C 903.538 683.194 900.012 692.263 896.364 697.553 C 890.815 694.158 899.797 678.543 902.309 673.304 z" fill="rgb(28,3,17)" transform="translate(0,0)"></path>
<path d="M 949.573 660.347 L 952.347 661.177 C 955.426 665.127 958.511 680.643 956.022 685.396 C 951.044 683.28 949.457 665.545 949.573 660.347 z" fill="rgb(28,3,17)" transform="translate(0,0)"></path>
<path d="M 779.953 597.532 L 781.779 599.148 C 783.238 605.12 782.525 610.177 781.533 616.186 L 779.332 613.851 C 778.243 608.439 778.456 602.846 779.953 597.532 z" fill="rgb(28,3,17)" transform="translate(0,0)"></path>
<path d="M 1107.9 577.187 C 1109.94 577.54 1110.06 577.397 1111.59 578.867 C 1111.97 585.132 1120.08 605.74 1123.8 609.745 L 1125.39 609.171 C 1127.07 603.187 1118.09 584.999 1115.13 578.819 C 1132.09 577.529 1152.95 578.029 1170.32 578.021 C 1199.29 577.93 1228.26 578.038 1257.22 578.343 L 1255.6 580.431 C 1252.79 584.081 1245.69 592.448 1246.28 597.025 C 1251.7 595.713 1260.82 582.578 1264.58 577.663 C 1264.36 582.73 1263.27 591.865 1266.37 595.715 L 1267.61 594.711 C 1269.39 589.726 1268.71 583.46 1268.52 578.056 C 1300.03 578.442 1332.15 578.128 1363.71 578.127 C 1364.6 585.291 1365.76 591.274 1367.18 598.348 C 1343.39 605.969 1319.65 613.743 1295.96 621.672 C 1290.25 623.554 1274.62 629.523 1270.02 630.113 C 1269.26 626.034 1269.14 624.456 1267.21 620.753 L 1265.91 620.901 C 1263.91 624.468 1264.16 628.472 1263.99 632.622 C 1251.18 636.5 1241.91 638.486 1230.49 645.812 C 1224.4 650 1218.36 654.269 1212.38 658.616 C 1215.47 653.739 1223.46 644.865 1224.74 640.999 L 1223.67 639.307 C 1219.54 639.234 1213.91 648.12 1211.97 651.867 C 1206.26 662.923 1200.36 666.71 1191.16 674.657 L 1158.05 703.015 C 1156.58 698.454 1151.65 680.227 1147.49 678.944 C 1146.01 685.223 1151.88 699.654 1154.23 706.37 C 1135.76 722.416 1117.16 738.324 1098.44 754.093 C 1093.56 745.309 1088.64 736.549 1083.68 727.815 C 1084.46 723.095 1086.11 718.849 1083.09 715.068 C 1081.64 716.866 1081.43 717.176 1079.61 718.555 C 1077.64 717.348 1048.47 664.541 1044.61 657.903 C 1055.02 654.594 1064.81 649.599 1073.6 643.116 C 1095.66 626.637 1104.11 603.345 1107.9 577.187 z" fill="rgb(254,254,254)" transform="translate(0,0)"></path>
<path d="M 1130.82 630.457 C 1136.97 632.275 1143.06 652.403 1141.11 657.442 C 1135.7 656.228 1129.46 635.436 1130.82 630.457 z" fill="rgb(28,3,17)" transform="translate(0,0)"></path>
<path d="M 1093.95 664.359 L 1096.38 665.511 C 1097.97 670.264 1092.6 688.006 1090.35 692.756 L 1088.21 691.287 C 1086.23 686.103 1091.63 669.677 1093.95 664.359 z" fill="rgb(28,3,17)" transform="translate(0,0)"></path>
<path d="M 1106.27 615.599 L 1108.55 617.374 C 1110.09 622.486 1104.75 639.196 1102.45 644.253 L 1100.27 642.302 C 1098.22 636.795 1104.17 621.801 1106.27 615.599 z" fill="rgb(28,3,17)" transform="translate(0,0)"></path>
<path d="M 1236.54 612.365 L 1238.85 614.077 C 1239.78 618.835 1232.86 627.557 1230 631.81 L 1227.79 630.254 C 1227.11 624.907 1233.35 617.206 1236.54 612.365 z" fill="rgb(28,3,17)" transform="translate(0,0)"></path>
<path d="M 1156.57 291.55 C 1162.88 296.397 1184.84 325.337 1189.84 333.43 C 1190.37 334.28 1186.81 336.829 1188.68 340.951 C 1192.45 342.037 1188.9 339.899 1194.54 338.131 C 1202.83 342.489 1250.33 407.616 1259.63 416.499 C 1264.03 420.701 1290.62 437.684 1296.94 442.174 C 1328.8 464.822 1362.36 486.609 1393.72 509.856 C 1381.76 521.423 1377.14 528.698 1369.88 543.59 C 1337.23 531.975 1303.79 521.498 1271.17 509.763 C 1269.03 508.994 1269.21 507.961 1268.08 505.325 L 1265.96 505.021 L 1264.06 507.545 C 1252.69 509.159 1238.86 498.993 1230.56 492.198 C 1224.86 487.885 1206.68 474.345 1202.95 469.846 C 1190.51 454.837 1177.52 429.118 1167.68 411.635 C 1169.85 405.757 1173.28 398.939 1171.23 393.03 L 1169.82 393.453 C 1166.85 397.109 1166 402.244 1164.83 406.874 C 1161.56 400.877 1154.9 387.338 1150.35 383.163 L 1148.38 383.27 L 1147.46 384.678 C 1148.42 390.937 1159.5 403.149 1162.19 413.001 C 1161.14 415.576 1160.97 415.782 1160.89 418.509 C 1164.38 422.082 1161.26 418.804 1166.25 419.129 C 1172.69 427.54 1182.87 447.067 1188.42 457.127 C 1182.97 453.012 1163.69 439.054 1160.94 434.364 C 1161.65 431.934 1161.85 431.685 1161.46 429.255 C 1156.88 427.142 1160.24 430.447 1155.61 431.091 C 1138.55 418.589 1118.92 399.746 1101.04 385.823 C 1109.12 371.267 1117.32 357.716 1126 343.499 C 1128.33 348.58 1132.41 359.712 1137.39 361.661 L 1137.9 359.674 C 1135.93 350.859 1133.06 347.185 1128.25 339.715 C 1133.83 328.27 1149.65 303.261 1156.57 291.55 z" fill="rgb(254,254,254)" transform="translate(0,0)"></path>
<path d="M 1184.59 348.211 C 1187.22 349.376 1186.32 348.45 1187.47 351.002 C 1186.68 356.616 1183.45 364.145 1181.35 369.624 C 1179.79 368.963 1178.68 368.922 1178.36 367.614 C 1177.29 363.222 1182.78 352.383 1184.59 348.211 z" fill="rgb(28,3,17)" transform="translate(0,0)"></path>
<path d="M 1265.79 470.351 L 1268.29 472.189 C 1269.77 477.802 1269.06 482.934 1268.05 488.592 C 1267.34 488.196 1266.17 487.224 1265.47 486.687 C 1264.01 480.816 1264.49 476.216 1265.79 470.351 z" fill="rgb(28,3,17)" transform="translate(0,0)"></path>
<path d="M 1265.77 433.23 C 1271.34 436.187 1269.2 444.253 1268.5 449.795 L 1265.86 448.154 C 1263.91 442.843 1264.95 438.764 1265.77 433.23 z" fill="rgb(28,3,17)" transform="translate(0,0)"></path>
<path d="M 1368.03 603.196 C 1369.59 604.085 1372.65 611.291 1373.92 613.541 C 1379.64 623.662 1383.82 629.149 1391.88 637.331 C 1348.31 670.172 1301.14 701.125 1256.97 733.225 C 1252.69 736.34 1236.73 758.516 1232.14 764.134 L 1155.79 859.024 L 1130.46 813.181 L 1137.71 799.562 L 1167.72 744.614 C 1169.55 749.351 1171.54 756.11 1175.61 758.903 L 1176.32 757.409 C 1176.29 750.973 1173.32 744.784 1170.96 738.709 C 1174.94 732.352 1192.17 707.561 1190.42 701.835 L 1188.78 701.417 C 1186.01 703.427 1171.63 729.062 1168.83 733.867 L 1159.7 708.155 C 1166.34 702.35 1195.15 676.401 1200.16 673.785 C 1200.78 676.22 1201.27 677.71 1202.15 680.065 L 1203.87 680.029 C 1208.33 675.726 1210.33 668.223 1212.37 665.831 C 1218.56 658.538 1235.63 648.047 1244.34 643.692 C 1249.53 641.095 1261.61 639.929 1267.57 638.325 C 1267.57 638.325 1270.22 635.146 1270.22 635.146 C 1297.78 627.342 1341.99 609.507 1368.03 603.196 z" fill="rgb(254,254,254)" transform="translate(0,0)"></path>
<path d="M 1182.33 781.318 C 1187.4 784.388 1194.69 803.909 1193.28 809.486 C 1187.32 807.691 1180.98 787.452 1182.33 781.318 z" fill="rgb(28,3,17)" transform="translate(0,0)"></path>
<path d="M 1265.51 698.226 L 1268.06 699.359 C 1270.17 703.84 1269.05 710.894 1268.56 715.79 C 1267.04 715.154 1266.76 714.749 1265.55 713.666 C 1264.22 708.867 1265.09 703.267 1265.51 698.226 z" fill="rgb(28,3,17)" transform="translate(0,0)"></path>
<path d="M 1265.69 660.205 C 1271.39 662.216 1269.08 671.89 1268.58 676.892 L 1266.46 675.719 C 1263.58 671.906 1265.06 664.927 1265.69 660.205 z" fill="rgb(28,3,17)" transform="translate(0,0)"></path>
<path d="M 772.99 953.055 C 817.629 949.065 857.117 981.86 861.39 1026.47 C 865.664 1071.09 833.121 1110.78 788.536 1115.34 C 743.549 1119.94 703.417 1087.03 699.105 1042.02 C 694.792 997.003 727.948 957.081 772.99 953.055 z" fill="rgb(254,254,254)" transform="translate(0,0)"></path>
<path d="M 741.467 1017.47 C 757.134 1017.2 764.197 1022.7 757.108 1038.4 C 753.28 1040.43 747.798 1042.85 743.665 1040.64 C 739.363 1035.61 741.157 1024.46 741.467 1017.47 z" fill="rgb(27,26,27)" transform="translate(0,0)"></path>
<path d="M 743.782 1019.79 C 757.187 1019.34 759.25 1025.12 755.094 1036.84 C 754.145 1037.24 753.186 1037.62 752.217 1037.98 C 748.802 1039.19 747.773 1039.08 745.107 1037.8 C 742.661 1033.94 743.658 1024.85 743.782 1019.79 z" fill="rgb(254,254,254)" transform="translate(0,0)"></path>
<path d="M 770.05 1022.71 C 782.173 1024.55 782.103 1036.5 773.052 1042.45 C 760.531 1040.9 760.513 1028.61 770.05 1022.71 z" fill="rgb(28,3,17)" transform="translate(0,0)"></path>
<path d="M 765.642 1033.16 C 769.172 1032.98 772.694 1032.44 775.923 1033.62 C 777.276 1036.23 776.814 1035.46 775.765 1039.26 C 772.475 1039.93 771.936 1040.1 768.705 1039.29 C 766.312 1037.28 766.323 1036.29 765.642 1033.16 z" fill="rgb(254,254,254)" transform="translate(0,0)"></path>
<path d="M 769.937 1024.23 C 773.516 1025.15 775.36 1025.95 776.393 1029.51 L 774.971 1031.43 C 771.764 1031.44 769.57 1031.76 766.77 1030.28 C 766.903 1027.13 767.716 1027.09 769.937 1024.23 z" fill="rgb(254,254,254)" transform="translate(0,0)"></path>
<path d="M 802.2 1019.59 L 803.5 1020.09 C 804.186 1022.46 804.064 1022.42 805.786 1024.12 C 812.872 1024.53 808.537 1022.81 813.527 1021.73 C 818.646 1029.6 808.947 1031.24 817.255 1041.08 L 816.267 1042.45 L 814.209 1041.99 C 810.432 1037.83 811.555 1035.32 811.819 1028.92 L 811.118 1026.53 C 807.585 1025.25 809.057 1025.33 805.522 1026.06 C 802.525 1030.46 804.572 1036.36 805.586 1041.89 L 803.863 1042.31 L 802.265 1040.4 C 801.476 1034.39 800.142 1025.06 802.2 1019.59 z" fill="rgb(28,3,17)" transform="translate(0,0)"></path>
<path d="M 787.436 1022.91 C 791.099 1023.15 795.63 1023.11 797.088 1027.27 C 793.508 1026.35 790.621 1025.24 787.064 1025.91 L 786.144 1027.76 C 789.462 1033.06 796.256 1030.24 797.702 1037.18 C 796.361 1040.45 794.912 1041.05 792.013 1042.93 C 787.545 1041.92 786.163 1041.84 783.812 1038.51 L 784.082 1037.13 C 787.148 1038.68 789.05 1039.99 792.46 1040.01 C 794.72 1038.2 794.064 1039.2 794.705 1036.19 C 791.739 1031.61 785.183 1033.58 783.111 1028.19 C 784.109 1025.29 784.987 1024.85 787.436 1022.91 z" fill="rgb(27,26,27)" transform="translate(0,0)"></path>
<path d="M 1253.82 953.828 C 1298.36 947.252 1339.78 978.047 1346.32 1022.59 C 1352.85 1067.13 1322.02 1108.52 1277.47 1115.02 C 1232.98 1121.5 1191.66 1090.71 1185.13 1046.23 C 1178.6 1001.75 1209.35 960.396 1253.82 953.828 z" fill="rgb(116,120,246)" transform="translate(0,0)"></path>
<path d="M 1227 1017.99 C 1233.03 1018.02 1238.3 1017.13 1242.56 1020.9 C 1243.68 1024.12 1243.33 1025.58 1242.9 1028.88 L 1242.74 1030.02 L 1243.07 1030.6 C 1245.68 1035.27 1245.17 1035.39 1243.9 1039.87 C 1238.67 1043.2 1233.28 1042.57 1227.2 1042.52 L 1227 1017.99 z" fill="rgb(27,26,27)" transform="translate(0,0)"></path>
<path d="M 1229.46 1030.97 C 1233.3 1031 1238.51 1030.31 1241.51 1032.4 C 1243.14 1035.95 1242.68 1034.85 1241.92 1039.24 C 1237.81 1040.4 1234.85 1041.06 1231.04 1039.62 C 1228.95 1036.93 1229.43 1034.51 1229.46 1030.97 z" fill="rgb(116,120,246)" transform="translate(0,0)"></path>
<path d="M 1229.19 1020 L 1229.81 1019.99 C 1233.55 1019.97 1237.51 1019.37 1240.48 1021.51 C 1242.39 1025.03 1241.8 1024.17 1241.59 1028.64 C 1238.11 1028.97 1233.89 1029.77 1230.79 1028.43 C 1228.5 1024.98 1229.28 1024.89 1229.19 1020 z" fill="rgb(116,120,246)" transform="translate(0,0)"></path>
<path d="M 1253.67 1023.91 C 1260.74 1023.48 1267.52 1024.08 1267.61 1034.1 C 1267.63 1036.45 1267.27 1039.64 1265.83 1041.54 L 1264.19 1040.47 C 1251.79 1048.51 1245.74 1034.77 1253.67 1023.91 z" fill="rgb(27,26,27)" transform="translate(0,0)"></path>
<path d="M 1255.59 1024.88 C 1267.32 1026.25 1266.39 1033.54 1261.13 1041.4 C 1258.27 1041.28 1257.85 1041.28 1255.28 1040.07 C 1250.73 1035 1251.9 1030.04 1255.59 1024.88 z" fill="rgb(116,120,246)" transform="translate(0,0)"></path>
<path d="M 1296.35 1018.68 C 1297.35 1020.92 1298.02 1021.92 1299.73 1023.67 C 1300.32 1027.72 1292.12 1031.25 1300.88 1041.12 L 1302.4 1042.82 L 1298.12 1042.5 C 1292.31 1037.56 1296.54 1035.55 1294.79 1026.52 L 1291.76 1025.49 C 1292.61 1020.68 1293.22 1026.7 1296.35 1018.68 z" fill="rgb(27,26,27)" transform="translate(0,0)"></path>
<path d="M 1288.66 1022.81 L 1288.86 1024.39 C 1287.94 1027.67 1284.59 1030.25 1282.02 1032.67 C 1285.36 1036.33 1288.45 1038.7 1288.25 1043.21 C 1286.06 1041.03 1281.71 1035.15 1279.62 1032.48 C 1282.38 1030.15 1286.13 1025.67 1288.66 1022.81 z" fill="rgb(27,26,27)" transform="translate(0,0)"></path>
<path d="M 1257.18 36.6724 C 1302.14 32.1042 1342.21 65.029 1346.44 110.016 C 1350.68 155.003 1317.46 194.83 1272.44 198.735 C 1227.89 202.599 1188.57 169.799 1184.38 125.278 C 1180.19 80.7582 1212.69 41.1932 1257.18 36.6724 z" fill="rgb(116,120,246)" transform="translate(0,0)"></path>
<path d="M 1225.03 107.033 C 1229.49 106.81 1234.49 106.242 1238.7 107.5 C 1241.12 110.984 1237.46 117.142 1238.17 118.557 C 1239.65 121.511 1241.69 122.138 1241.94 127.868 C 1237.47 131.441 1231.63 134.542 1226.74 130.422 C 1223.71 123.337 1224.82 114.932 1225.03 107.033 z" fill="rgb(27,26,27)" transform="translate(0,0)"></path>
<path d="M 1227.13 119.885 C 1230.89 119.866 1234.54 119.411 1237.7 121.282 C 1240.03 124.779 1239.38 123.572 1239.51 128.149 C 1235.52 129.635 1232.53 130.572 1228.67 129.23 C 1226.45 125.303 1227.21 125.012 1227.13 119.885 z" fill="rgb(116,120,246)" transform="translate(0,0)"></path>
<path d="M 1227.05 108.719 C 1230.52 108.684 1234.11 108.274 1237.08 109.976 C 1239.24 113.45 1238.65 112.229 1238.59 116.694 C 1235.38 117.479 1231.66 118.64 1228.74 117.469 C 1226.4 113.939 1227.19 113.692 1227.05 108.719 z" fill="rgb(116,120,246)" transform="translate(0,0)"></path>
<path d="M 1250.74 112.239 C 1252.54 112.509 1254.53 112.956 1256.34 113.315 C 1259.2 115.38 1259.39 115.84 1260.87 119.072 C 1259.44 125.87 1251.22 121.357 1247.61 125.195 C 1249.08 129.19 1251.64 129.528 1255.19 129.625 C 1257.06 129.121 1257.62 129.299 1259.5 129.514 L 1258.44 130.782 C 1244.13 135.817 1240.21 118.658 1250.74 112.239 z" fill="rgb(27,26,27)" transform="translate(0,0)"></path>
<path d="M 1250.2 113.65 C 1254.12 114.445 1257.15 114.725 1258.22 118.983 L 1256.84 120.935 C 1252.89 120.856 1250.92 121.414 1248.03 119.478 C 1247.81 116.697 1248.55 116.139 1250.2 113.65 z" fill="rgb(116,120,246)" transform="translate(0,0)"></path>
<path d="M 1264.09 114.061 C 1269.18 113.09 1279.09 113.061 1284.37 113.4 C 1282.84 115.106 1279.45 116.681 1279.26 118.299 C 1278.76 122.525 1278.86 126.947 1277.58 131.021 C 1275.86 129.358 1276.43 129.451 1276.18 126.25 C 1276.24 122.862 1276.97 115.617 1274.37 113.421 C 1266.98 113.666 1265.76 123.503 1264.99 129.633 C 1263.69 125.416 1264.08 118.707 1264.09 114.061 z" fill="rgb(27,26,27)" transform="translate(0,0)"></path>
<path d="M 1290.38 112.724 C 1294.31 112.496 1299.89 111.815 1301.7 116.054 C 1298.01 115.515 1291.93 113.552 1290.17 117.294 C 1293.41 122.638 1299.14 120.177 1302.68 125.369 C 1302.48 128.722 1301.66 129.407 1299.55 131.976 L 1293.02 131.691 C 1290.34 130.248 1289.73 130.19 1288.41 127.625 C 1292.69 128.989 1295.78 130.417 1299.7 128.767 L 1300.52 126.057 C 1297.64 121.251 1293.71 124.677 1288.53 119.557 C 1288.26 115.467 1288.3 116.711 1290.38 112.724 z" fill="rgb(27,26,27)" transform="translate(0,0)"></path>
<path d="M 775.925 35.6005 C 820.573 33.2713 858.666 67.5556 861.035 112.202 C 863.405 156.847 829.155 194.971 784.511 197.381 C 739.81 199.793 701.627 165.49 699.255 120.787 C 696.883 76.0846 731.22 37.9327 775.925 35.6005 z" fill="rgb(254,254,254)" transform="translate(0,0)"></path>
<path d="M 740.108 105.078 C 757.18 104.282 766.514 110.968 756.347 128.297 C 751.214 131.287 745.8 130.883 740.008 130.885 L 740.108 105.078 z" fill="rgb(27,26,27)" transform="translate(0,0)"></path>
<path d="M 743.531 107.145 C 757.744 107.293 760.828 115.49 754.268 126.845 C 738.703 131.247 741.716 118.181 743.531 107.145 z" fill="rgb(254,254,254)" transform="translate(0,0)"></path>
<path d="M 766.107 111.911 C 769.2 111.658 770.517 111.751 773.619 112.02 C 776.229 113.319 777.492 114.631 778.685 117.399 C 779.784 119.939 779.809 122.815 778.754 125.374 C 776.071 131.949 769.396 131.441 764.007 128.961 C 763.202 126.182 763.362 125.677 763.877 122.803 C 766.944 119.38 768.336 120.106 773.713 118.835 C 775.756 116.337 775.394 117.462 775.668 114.48 C 772.917 112.999 767.668 116.273 764.642 114.733 L 766.107 111.911 z" fill="rgb(27,26,27)" transform="translate(0,0)"></path>
<path d="M 768.472 120.843 C 772.384 120.841 773.278 120.472 775.785 122.549 C 775.592 126.289 775.364 125.537 773.045 129.052 C 769.958 128.75 768.862 128.898 766.731 126.745 C 766.407 123.263 766.307 124.611 768.472 120.843 z" fill="rgb(254,254,254)" transform="translate(0,0)"></path>
<path d="M 785.856 116.956 L 784.231 118.258 L 783.515 116.7 C 784.516 114.518 784.885 112.754 787.57 111.848 C 789.909 111.068 792.478 111.436 794.503 112.841 C 799.132 116.084 799.463 123.593 797.641 128.504 C 794.29 131.345 786.893 130.639 783.504 127.887 C 782.276 124.294 782.946 122.817 785.908 120.18 C 789.749 119.755 792.529 120.06 794.431 116.43 C 793.049 113.901 793.874 114.73 790.626 113.586 C 786.901 114.67 788.176 113.784 785.856 116.956 z" fill="rgb(27,26,27)" transform="translate(0,0)"></path>
<path d="M 790.494 120.361 C 793.634 120.904 794.468 121.28 795.04 124.439 C 793.784 127.51 792.63 127.941 789.874 129.63 C 786.378 127.791 786.329 127.762 785.207 124.97 C 786.878 121.705 786.821 122.478 790.494 120.361 z" fill="rgb(254,254,254)" transform="translate(0,0)"></path>
<path d="M 804.484 106.623 C 812.295 113.908 799.778 121.632 809.639 129.583 L 806.947 129.981 C 801.235 127.503 802.446 111.839 804.484 106.623 z" fill="rgb(28,3,17)" transform="translate(0,0)"></path>
<path d="M 816.106 107.457 L 816.532 107.686 C 818.939 112.845 817.334 122.555 817.05 128.92 L 815.465 128.851 C 812.888 123.116 818.207 117.459 812.448 113.852 L 812.461 112.306 C 814.447 110.752 814.497 110.411 815.754 108.113 L 816.106 107.457 z" fill="rgb(28,3,17)" transform="translate(0,0)"></path>
<path d="M 1015.29 953.633 C 1059.82 949.103 1099.58 981.56 1104.06 1026.1 C 1108.54 1070.64 1076.04 1110.37 1031.5 1114.8 C 987.025 1119.22 947.374 1086.78 942.9 1042.31 C 938.426 997.843 970.822 958.156 1015.29 953.633 z" fill="rgb(254,254,254)" transform="translate(0,0)"></path>
<path d="M 1028.97 1026.2 C 1031.05 1026.45 1032.62 1025.48 1033.77 1025.58 C 1041.86 1026.28 1054.38 1023.45 1061.45 1026.99 C 1064.59 1030.68 1065.44 1038.81 1062.83 1042.35 C 1059.97 1039.23 1063.27 1030.54 1058.05 1026.78 C 1050.24 1027.57 1052.2 1036.07 1052.29 1042.49 C 1049.43 1040.34 1050.3 1033.72 1050.24 1030.05 C 1048.98 1027.56 1048.83 1027.13 1046.34 1025.98 L 1044.35 1027.03 C 1042.19 1030.91 1041.64 1037.03 1040.94 1041.56 L 1040.01 1041.19 C 1039.96 1035.51 1041.49 1028.55 1035.93 1026.24 L 1033.87 1027.52 C 1031.36 1031.76 1030.7 1036.84 1029.73 1041.71 C 1028.9 1036.52 1029.01 1031.45 1028.97 1026.2 z" fill="rgb(27,26,27)" transform="translate(0,0)"></path>
<path d="M 1013.27 1024.97 C 1016.49 1024.78 1017.53 1024.57 1020.59 1025.74 C 1029.88 1035.42 1020.88 1049.55 1008.37 1039.92 C 1011.57 1029.77 1013.38 1036.12 1019.76 1031.71 C 1020.8 1029.37 1020.72 1030.44 1019.66 1027.58 C 1016.08 1026.53 1015.43 1027.5 1011.2 1028.85 C 1011.97 1026.08 1011.37 1026.9 1013.27 1024.97 z" fill="rgb(27,26,27)" transform="translate(0,0)"></path>
<path d="M 994.344 1019.8 C 998.667 1024.56 993.491 1035.26 997.243 1039.96 C 999.592 1040.14 1001.94 1040.36 1004.28 1040.62 L 1005.55 1042.59 C 1001.72 1042.75 997.297 1042.68 993.413 1042.72 C 993.299 1036.29 992.789 1025.7 994.344 1019.8 z" fill="rgb(27,26,27)" transform="translate(0,0)"></path>
<path d="M 1440.75 494.157 C 1485.27 489.136 1525.4 521.215 1530.32 565.744 C 1535.23 610.273 1503.05 650.33 1458.51 655.135 C 1414.12 659.923 1374.23 627.881 1369.34 583.504 C 1364.44 539.127 1396.39 499.16 1440.75 494.157 z" fill="rgb(116,120,246)" transform="translate(0,0)"></path>
<path d="M 1483.87 556.444 C 1487.54 559.21 1486.78 579.69 1484.66 583.721 L 1482.46 582.025 C 1478.21 583.33 1477.65 583.337 1473.23 582.754 C 1470.49 577.619 1468.11 572.28 1471.59 567.117 C 1475 565.148 1478.78 565.336 1482.76 565.119 C 1483.98 563.18 1483.73 559.129 1483.87 556.444 z" fill="rgb(27,26,27)" transform="translate(0,0)"></path>
<path d="M 1475.75 565.603 C 1478.36 566.06 1478.88 566.403 1481.31 567.545 C 1485.51 572.911 1483.3 577.632 1479.51 582.337 C 1470.18 578.992 1470.38 572.644 1475.75 565.603 z" fill="rgb(116,120,246)" transform="translate(0,0)"></path>
<path d="M 1443.72 563.589 C 1458.67 565.415 1457.84 588.165 1438.4 582.625 C 1437.89 579.286 1437.67 578.58 1438.59 575.366 C 1443.53 571.506 1443.62 575.245 1449.05 572.425 C 1450.61 569.136 1450.76 570.149 1449.87 567.544 C 1445.83 565.551 1443.13 567.856 1440.23 566.65 L 1443.72 563.589 z" fill="rgb(27,26,27)" transform="translate(0,0)"></path>
<path d="M 1443.14 574.009 C 1446.44 573.99 1448.14 573.663 1450.04 576.356 C 1449.69 579.348 1448.36 580.303 1446.31 582.586 C 1441.98 581.299 1442.19 581.481 1439.84 578.522 C 1440.45 575.383 1439.89 576.565 1443.14 574.009 z" fill="rgb(116,120,246)" transform="translate(0,0)"></path>
<path d="M 1418.06 557.491 L 1419.6 558.844 C 1420.56 564.003 1420.13 575.176 1420.05 580.879 C 1425.06 580.994 1431.08 580.212 1435.17 582.511 C 1430.92 583.197 1422.52 583.036 1417.91 583.081 C 1417.87 574.581 1418 565.997 1418.06 557.491 z" fill="rgb(28,3,17)" transform="translate(0,0)"></path>
<path d="M 1458.53 564.518 C 1462.35 566.225 1461.99 565.48 1466.91 564.594 C 1464.09 569.324 1462.76 565.626 1460.57 571.75 C 1460.71 576.229 1460.73 577.368 1459.87 581.736 L 1459.16 581.823 C 1457.42 575.395 1457.7 571.127 1458.53 564.518 z" fill="rgb(27,26,27)" transform="translate(0,0)"></path>
<path d="M 1012.52 36.2277 C 1056.88 30.2904 1097.6 61.5828 1103.28 105.977 C 1108.97 150.371 1077.44 190.912 1033.02 196.342 C 988.948 201.728 948.803 170.512 943.166 126.476 C 937.528 82.4394 968.513 42.1172 1012.52 36.2277 z" fill="rgb(254,254,254)" transform="translate(0,0)"></path>
<path d="M 1031.54 111.835 C 1034.7 111.789 1035.51 111.663 1038.44 112.759 C 1048.91 122.419 1038.9 137.555 1026.69 127.076 C 1027.37 122.473 1027 122.875 1029.72 120.408 C 1032.5 120.134 1033.9 120.186 1036.7 120.329 C 1039.15 118.057 1038.34 119.108 1039.54 115.511 L 1038.33 114.28 C 1034.5 114.429 1032.39 115.059 1028.7 115.981 C 1029.19 113.736 1029.7 113.831 1031.54 111.835 z" fill="rgb(27,26,27)" transform="translate(0,0)"></path>
<path d="M 1029.21 122.269 C 1032.48 121.876 1034.21 121.467 1037.48 122.067 C 1039.44 124.695 1038.88 123.644 1038.57 127.777 C 1035.45 128.082 1034.83 128.127 1031.76 127.603 C 1029.31 125.246 1030.1 126.308 1029.21 122.269 z" fill="rgb(254,254,254)" transform="translate(0,0)"></path>
<path d="M 1011.04 112.094 C 1012.54 111.997 1014.05 111.95 1015.55 111.956 C 1023.43 112.048 1032.36 132.527 1009.16 129.524 C 1008.25 126.247 1007.89 125.539 1009.05 122.407 C 1012.58 119.679 1013.06 120.421 1018.15 119.728 C 1019.9 117.78 1019.34 118.4 1019.42 115.017 C 1015.47 112.688 1014.57 116.065 1010.32 115.02 L 1011.04 112.094 z" fill="rgb(27,26,27)" transform="translate(0,0)"></path>
<path d="M 1010.75 122.232 C 1013.52 121.956 1015.29 121.872 1018.07 121.888 C 1020.2 124.198 1019.53 123.934 1019.46 127.799 C 1016.64 128.064 1015.48 127.959 1012.64 127.707 C 1010.27 125.35 1010.94 126.579 1010.75 122.232 z" fill="rgb(254,254,254)" transform="translate(0,0)"></path>
<path d="M 1054.22 112.554 C 1056.89 111.845 1057.21 111.884 1059.85 112.719 C 1064.03 116.528 1062.82 123.898 1060.54 128.448 C 1060.21 121.547 1060.9 117.572 1056.88 112.292 C 1048.3 115.953 1049.39 121.284 1049.97 129.393 L 1048.4 129.602 C 1047.84 126.288 1047.25 115.952 1048.88 113.229 C 1051.27 113.529 1051.95 113.344 1054.22 112.554 z" fill="rgb(28,3,17)" transform="translate(0,0)"></path>
<path d="M 991.771 106.478 C 994.095 109.691 993.198 123.181 993.138 127.755 C 994.437 127.755 995.735 127.766 997.033 127.788 C 1001.34 127.876 1002.11 127.5 1004.54 130.022 L 991.21 130.046 C 991.055 123.352 990.519 112.668 991.771 106.478 z" fill="rgb(27,26,27)" transform="translate(0,0)"></path>
<path d="M 885.79 293.525 C 889.853 295.937 909.054 332.138 913.109 339.038 C 900.392 361.36 888.949 383.027 877.883 406.229 C 871.34 419.949 863.812 433.568 858.942 447.99 C 849.737 455.182 840.839 462.759 832.274 470.702 C 825.793 476.81 809.405 493.506 803.014 497.201 C 794.696 502.009 771.876 508.425 761.166 512.282 C 732.393 522.821 703.741 533.688 675.216 544.88 L 670.969 536.229 C 664.29 524.687 660.437 520.003 651.05 510.489 C 681.551 487.15 712.667 464.625 744.365 442.938 C 753.841 436.348 775.111 419.427 785.19 417.931 C 798.658 397.635 835.864 355.305 852.896 334.244 C 853.531 336.409 854.195 338.567 854.886 340.715 C 855.983 344.069 856.501 345.763 859.523 347.292 L 860.534 345.383 C 860.87 340.349 858.401 335.156 856.588 330.343 C 865.427 318.402 876.377 306.062 885.79 293.525 z" fill="rgb(254,254,254)" transform="translate(0,0)"></path>
<path d="M 866.347 369.319 C 867.227 369.489 869.228 369.911 869.649 370.529 C 872.806 375.169 878.505 390.414 878.463 395.325 C 877.063 395.057 875.306 394.943 874.568 393.519 C 871.687 387.96 865.571 375.181 866.347 369.319 z" fill="rgb(28,3,17)" transform="translate(0,0)"></path>
<path d="M 779.557 437.218 C 785.034 439.896 782.98 448.78 782.359 453.791 L 780.224 452.923 C 777.611 449.47 779.051 441.378 779.557 437.218 z" fill="rgb(28,3,17)" transform="translate(0,0)"></path>
<path d="M 779.19 474.316 C 780.526 474.687 780.971 475.214 782.062 476.086 C 783.155 479.687 782.491 485.6 782.272 489.57 C 780.178 489.621 781.19 489.868 779.278 488.403 C 778.071 484.308 778.864 478.705 779.19 474.316 z" fill="rgb(28,3,17)" transform="translate(0,0)"></path>
<path d="M 1013.44 493.542 C 1057.61 487.981 1097.91 519.319 1103.4 563.498 C 1108.89 607.677 1077.49 647.928 1033.3 653.351 C 989.215 658.762 949.072 627.445 943.592 583.364 C 938.112 539.283 969.366 499.091 1013.44 493.542 z" fill="rgb(116,120,246)" transform="translate(0,0)"></path>
<path d="M 1019.07 565.893 C 1036.02 565.545 1034.99 587.217 1015.85 580.951 C 1015.72 577.597 1015.55 576.904 1017.46 574.217 C 1020.2 572.251 1022.47 572.839 1025.97 573.052 C 1027.29 570.495 1027.15 571.544 1027 568.81 C 1024.24 567.514 1020.97 569.916 1017.57 568.708 L 1019.07 565.893 z" fill="rgb(27,26,27)" transform="translate(0,0)"></path>
<path d="M 1019.88 573.624 C 1023.91 573.9 1024.61 573.23 1027.23 575.423 C 1026.81 578.824 1026.57 578.213 1024.26 581.286 C 1021.38 580.726 1020.86 580.694 1018.62 578.86 C 1018.13 575.771 1018.14 576.91 1019.88 573.624 z" fill="rgb(116,120,246)" transform="translate(0,0)"></path>
<path d="M 1037.94 562.943 C 1038.96 564.614 1040.16 565.355 1041.7 566.562 C 1040.7 570.939 1038.16 570.774 1037.97 575.411 C 1039.54 579.567 1038.48 578.153 1041.89 580.844 L 1041.65 581.679 L 1039.12 581.817 C 1035.88 579.323 1035.76 573.778 1035.36 570.087 C 1034.87 565.716 1035.42 566.255 1037.94 562.943 z" fill="rgb(27,26,27)" transform="translate(0,0)"></path>
<path d="M 1010.84 574.251 C 1012.8 576.129 1012.36 575.219 1012.98 577.716 L 1011.06 580.126 C 1004.8 582.972 1003.9 582.814 997.26 581.101 C 996.88 578.964 996.804 579.99 997.537 577.915 C 1000.99 579.064 1003.31 580.095 1006.96 579.874 C 1010.38 577.683 1009.33 578.646 1010.84 574.251 z" fill="rgb(42,41,105)" transform="translate(0,0)"></path>
<path d="M 585.641 495.695 C 629.517 489.809 669.828 520.681 675.583 564.573 C 681.337 608.466 650.345 648.685 606.436 654.308 C 562.711 659.908 522.699 629.075 516.969 585.368 C 511.239 541.66 541.951 501.556 585.641 495.695 z" fill="rgb(254,254,254)" transform="translate(0,0)"></path>
<path d="M 561.925 560.967 C 578.648 560.212 587.247 566.568 578.573 583.298 C 572.847 586.799 568.459 586.192 561.946 586.15 L 561.925 560.967 z" fill="rgb(27,26,27)" transform="translate(0,0)"></path>
<path d="M 564.385 562.929 C 578.901 562.523 582.743 569.519 576.46 582.058 C 571.981 584 570.226 585.324 565.848 582.718 C 563.458 577.987 564.31 568.678 564.385 562.929 z" fill="rgb(254,254,254)" transform="translate(0,0)"></path>
<path d="M 589.651 567.825 C 595.631 567.748 601.056 568.304 601.139 575.794 C 598.75 578.166 592.766 578.501 589.074 579.091 L 588.402 580.487 C 590.006 582.939 591.286 583.479 593.744 585.044 C 595.848 583.898 596.978 583.323 599.198 582.433 L 599.338 583.912 C 589.997 592.511 579.788 579.282 589.651 567.825 z" fill="rgb(27,26,27)" transform="translate(0,0)"></path>
<path d="M 589.738 569.586 C 593.092 569.635 593.6 569.623 596.671 570.927 C 598.622 573.647 598.083 572.387 598.446 576.004 C 595.15 576.125 592.711 576.425 589.511 575.583 C 588.099 572.903 588.71 573.195 589.738 569.586 z" fill="rgb(254,254,254)" transform="translate(0,0)"></path>
<path d="M 613.241 567.595 C 616.252 567.596 615.079 567.286 617.706 569.242 C 619.778 573.072 620.927 582.293 617.878 585.678 C 613.815 581.601 621.917 574.675 611.695 568.45 C 603.895 575.956 609.946 581.003 606.41 585.851 C 604.36 583.769 604.269 570.914 606.35 568.471 C 609.145 568.736 609.727 568.532 612.478 567.803 L 613.241 567.595 z" fill="rgb(27,26,27)" transform="translate(0,0)"></path>
<path d="M 626.039 561.695 C 634.048 567.578 620.496 578.775 632.219 585.948 L 628.5 586.544 C 622.37 583.023 623.162 567.451 626.039 561.695 z" fill="rgb(27,26,27)" transform="translate(0,0)"></path>
<path d="M 1020.71 325.781 C 1031.3 330.83 1053.79 354.363 1064.52 361.966 C 1074.93 369.341 1066.83 387.362 1074.64 393.641 L 1076.55 393.047 C 1078.66 388.368 1074.25 374.562 1072.8 368.831 C 1080.26 374.508 1087.64 380.304 1094.93 386.217 C 1091.49 391.943 1088.6 398.396 1085.09 404.018 C 1082.67 407.897 1082.78 407.571 1079.19 408.258 C 1077.03 410.25 1076.9 412.338 1076.32 415.159 C 1074.46 424.271 1044.8 471.647 1037.88 483.857 L 1036.74 485.832 C 1035.7 486.507 1006.61 488.838 999.821 490.394 C 989.403 469.846 977.8 448.693 966.954 428.268 C 967.977 423.544 969.289 421.886 967.822 418.085 L 966.419 417.699 L 964.005 420.048 L 962.519 420.023 C 956.157 409.322 950.116 397.385 944.265 386.322 C 968.595 366.189 995.738 345.4 1020.71 325.781 z" fill="rgb(254,254,254)" transform="translate(0,0)"></path>
<path d="M 973.89 366.176 L 976.979 367.298 C 979.814 372.8 975.058 388.259 973.282 394.854 L 970.889 394.208 C 968.616 389.501 972.715 372.345 973.89 366.176 z" fill="rgb(28,3,17)" transform="translate(0,0)"></path>
<path d="M 1003.17 657.821 C 1018.16 661.516 1025.31 661.526 1040.26 658.554 C 1056.76 689.629 1079.98 727.237 1094.65 757.575 C 1074.88 772.907 1054.55 790.709 1035.34 806.948 L 1021.96 817.409 C 997.636 797.58 972.377 776.927 949.931 755.102 C 953.811 745.938 964.557 727.297 969.486 718.312 C 980.465 698.011 991.693 677.846 1003.17 657.821 z" fill="rgb(254,254,254)" transform="translate(0,0)"></path>
<path d="M 1074.38 743.346 C 1075.05 743.657 1076.32 744.609 1076.99 745.074 C 1078.52 750.953 1073.35 766.702 1071.6 772.863 L 1068.75 771.64 C 1066.83 766.913 1072.65 749.178 1074.38 743.346 z" fill="rgb(28,3,17)" transform="translate(0,0)"></path>
<path d="M 967.491 747.197 C 973.277 749.867 975.419 769.055 974.496 774.69 C 968.217 771.556 966.077 753.664 967.491 747.197 z" fill="rgb(28,3,17)" transform="translate(0,0)"></path>
<path d="M 1022.02 823.713 C 1025.28 825.318 1045.96 843.555 1049.91 846.985 C 1048.04 853.478 1044.21 864.249 1046.26 870.592 L 1047.64 869.917 C 1050.95 864.779 1052.44 856.757 1053.96 850.647 C 1065.74 860.284 1077.39 870.068 1088.92 879.998 C 1076.58 901.856 1063.39 930.345 1051.77 953.3 C 1047.75 951.925 1034.82 949.637 1033.04 947.802 L 1030.04 944.724 L 1027.98 944.719 L 1024.38 948.765 C 1020.93 948.972 1014.37 949.661 1011.35 948.844 C 1010.44 946.275 1010.44 945.596 1008.44 943.931 L 1006.38 944.319 C 1005.36 946.593 1005.47 946.888 1005.44 949.474 L 1005.43 950.199 C 1001.67 951.948 996.771 953.243 992.717 954.448 C 979.921 932.736 966.83 905.373 954.439 882.621 C 964.454 873.12 976.812 862.633 987.421 853.854 C 988.155 858.58 988.897 869.127 993.114 871.529 C 995.816 866.148 992.461 856.331 990.958 850.404 C 1001.67 841.741 1011.7 832.821 1022.02 823.713 z" fill="rgb(254,254,254)" transform="translate(0,0)"></path>
<path d="M 1039.2 896.477 L 1041.93 897.942 C 1043.94 902.092 1038.87 917.978 1037.39 923.086 L 1034.89 922.206 C 1032.86 917.084 1037.61 902.587 1039.2 896.477 z" fill="rgb(28,3,17)" transform="translate(0,0)"></path>
<path d="M 997.179 895.785 C 1001.88 897.819 1004.94 918.927 1003.03 923.398 C 997.823 921.308 994.97 900.345 997.179 895.785 z" fill="rgb(28,3,17)" transform="translate(0,0)"></path>
<path d="M 1052.16 196.116 L 1052.95 196.31 C 1057.85 200.917 1084 254.989 1088.25 264.124 C 1077.49 272.647 1067.15 281.515 1056.14 290.124 C 1055.49 285.754 1055.19 278.57 1051.3 276.247 L 1050.01 277.999 C 1048.89 283.057 1050.68 288.716 1051.84 293.874 L 1020.92 319.593 L 1010.77 311.103 C 996.188 297.081 975.11 279.711 959.476 266.281 C 972.036 243.606 984.453 220.854 996.728 198.024 C 1010.09 201.012 1017.32 201.3 1031.09 201.418 C 1032.14 205.165 1032.1 207.561 1034.58 209.881 L 1036.29 209.304 C 1038.36 206.048 1037.69 206.849 1036.93 202.04 C 1038.71 198.987 1047.94 197.291 1052.16 196.116 z" fill="rgb(254,254,254)" transform="translate(0,0)"></path>
<path d="M 1003.31 211.309 L 1005.64 212.398 C 1007.89 217.684 1003.62 232.762 1001.51 238.245 L 999.167 237.357 C 996.762 232.963 1001.81 216.742 1003.31 211.309 z" fill="rgb(28,3,17)" transform="translate(0,0)"></path>
<path d="M 993.94 261.174 L 996.875 262.664 C 998.517 268.192 994.369 280.974 992.753 286.848 L 989.78 285.459 C 987.789 279.923 992.262 267.164 993.94 261.174 z" fill="rgb(28,3,17)" transform="translate(0,0)"></path>
<path d="M 1040.67 229.392 L 1042.85 230.627 C 1045.49 234.983 1048.82 247.725 1045.81 252.236 C 1041.13 250.435 1038.8 233.746 1040.67 229.392 z" fill="rgb(28,3,17)" transform="translate(0,0)"></path>
<path d="M 1122.37 910.605 C 1124.6 911.161 1192.51 969.738 1201.72 977.374 C 1189.05 992.69 1182.82 1009.22 1180.4 1028.72 L 1158.9 1028.72 L 1108.41 1028.52 C 1105.17 1002.42 1097.56 987.343 1078.94 968.982 C 1092 953.504 1109.12 927.879 1122.37 910.605 z" fill="rgb(254,254,254)" transform="translate(0,0)"></path>
<path d="M 1122.76 241.675 C 1125.81 243.648 1150.34 281.053 1154.23 286.699 L 1097.65 382.815 C 1084.23 372.29 1071.8 362.429 1058.89 351.244 C 1047.23 341.98 1035.84 332.379 1024.74 322.453 C 1034.16 314.926 1043.86 306.605 1053.17 298.866 C 1054.38 303.213 1054.43 305.747 1057.6 308.384 L 1058.99 307.209 C 1060.25 303.314 1058.73 299.014 1057.75 294.957 C 1068.7 285.869 1079.74 276.884 1090.86 268.002 C 1092.87 272.143 1095.68 279.479 1099.8 280.928 L 1100.68 279.335 C 1100.37 274.043 1097.41 269.478 1094.9 264.758 L 1122.76 241.675 z" fill="rgb(254,254,254)" transform="translate(0,0)"></path>
<path d="M 1061.76 330.35 C 1063.74 330.851 1063.75 331.083 1065.17 332.483 C 1067.16 338.518 1070.24 350.512 1069.63 356.741 C 1062.95 354.545 1060.44 336.242 1061.76 330.35 z" fill="rgb(28,3,17)" transform="translate(0,0)"></path>
<path d="M 1108.37 302.326 C 1114.29 304.914 1122.17 321.536 1120.2 327.379 C 1115.23 324.938 1107.4 307.596 1108.37 302.326 z" fill="rgb(28,3,17)" transform="translate(0,0)"></path>
<path d="M 919.558 912.775 C 923.708 914.672 958.72 967.314 963.484 974.632 C 947.048 992.396 942.069 1006.22 938.114 1029.87 C 923.006 1029.43 907.199 1029.56 892.031 1029.49 L 866.306 1029.22 C 865.41 1009 856.694 993.868 844.734 978.395 C 867.924 960.09 897.021 932.765 919.558 912.775 z" fill="rgb(254,254,254)" transform="translate(0,0)"></path>
<path d="M 865.875 121.165 C 889.627 121.061 913.959 121.576 937.762 121.807 C 940.69 145.819 947.349 157.33 962.207 175.837 C 952.72 187.294 938.939 208.958 930.202 221.98 L 922.181 233.814 C 898.121 213.565 869.231 190.669 846.161 170.2 C 858.705 153.752 863.194 141.442 865.875 121.165 z" fill="rgb(254,254,254)" transform="translate(0,0)"></path>
<path d="M 1108.28 121.277 L 1179.66 122.075 C 1181.04 141.805 1186.53 156.424 1198.87 171.921 C 1183.08 185.022 1167.37 198.22 1151.75 211.514 L 1124.13 234.061 C 1110.67 214.277 1097.48 194.316 1084.55 174.182 C 1099.25 157.129 1105.67 143.692 1108.28 121.277 z" fill="rgb(254,254,254)" transform="translate(0,0)"></path>
<path d="M 946.917 759.594 L 1018.28 820.872 C 1003.38 834.418 987.049 847.726 971.674 861.057 C 965.086 867.066 958.871 872.813 951.855 878.345 C 940.294 856.828 929.958 833.568 918.159 811.401 C 927.833 794.181 937.419 776.912 946.917 759.594 z" fill="rgb(254,254,254)" transform="translate(0,0)"></path>
<path d="M 976.853 794.592 C 982.379 796.79 985.602 818.321 984.736 823.764 C 983.113 823.187 981.501 822.902 980.856 820.962 C 978.849 814.923 974.884 800.157 976.853 794.592 z" fill="rgb(28,3,17)" transform="translate(0,0)"></path>
<path d="M 1096.66 761.882 C 1101.59 767.445 1119.75 804.413 1124.56 813.508 C 1115.23 832.831 1101.74 857.67 1091.2 876.4 C 1083.52 869.608 1075.7 862.973 1067.75 856.5 C 1065.11 854.322 1061.78 851.368 1059.23 849.277 C 1052.97 844.146 1058.96 840.789 1055.52 836.105 C 1052.92 836.643 1053.22 838.289 1050.82 841.573 C 1043.91 836.912 1032.78 826.638 1026.14 820.849 C 1049.39 800.886 1072.9 781.229 1096.66 761.882 z" fill="rgb(254,254,254)" transform="translate(0,0)"></path>
<path d="M 1063.91 792.398 C 1064.76 792.935 1066.1 793.529 1066.25 794.328 C 1067.28 799.679 1062.41 814.967 1060.69 819.464 C 1054.66 815.28 1061.19 798.158 1063.91 792.398 z" fill="rgb(28,3,17)" transform="translate(0,0)"></path>
<path d="M 956.917 270.466 C 963.905 273.769 983.305 294.437 989.309 300.454 C 989.309 300.454 993.526 301.15 993.526 301.15 C 999.999 307.591 1010.79 317.112 1017.21 322.566 C 999.693 336.657 982.092 350.643 964.407 364.522 L 942.25 382.191 C 934.034 367.935 926.115 353.51 918.497 338.925 C 931.058 315.968 943.866 293.147 956.917 270.466 z" fill="rgb(254,254,254)" transform="translate(0,0)"></path>
<path d="M 983.182 319.171 L 985.931 320.135 C 987.88 324.924 984.212 341.518 982.709 346.838 C 981.384 346.57 980.737 346.121 979.517 345.518 C 977.828 339.591 981.72 325.502 983.182 319.171 z" fill="rgb(28,3,17)" transform="translate(0,0)"></path>
<path d="M 842.615 174.079 C 848.545 177.239 859.364 186.742 864.835 191.201 C 883.306 206.252 900.78 222.487 919.479 237.279 L 894.768 272.808 L 886.962 284.272 C 869.551 253.343 846.982 216.926 828.198 186.756 C 833.451 182.581 837.705 178.631 842.615 174.079 z" fill="rgb(254,254,254)" transform="translate(0,0)"></path>
<path d="M 1201.77 175.78 C 1206.84 180.26 1211.94 184.706 1217.07 189.118 C 1196.37 219.622 1177.98 252.219 1156.8 282.689 L 1151.32 275.118 L 1127.14 237.95 C 1149.32 217.99 1178.31 195.181 1201.77 175.78 z" fill="rgb(254,254,254)" transform="translate(0,0)"></path>
<path d="M 887.46 866.703 C 890.55 869.898 913.038 902.768 917.106 908.503 C 896.294 927.955 873.133 947.51 851.66 966.489 L 842.038 975.438 C 837.792 971.144 834.686 968.589 830.059 964.84 C 849.41 932.255 868.544 899.542 887.46 866.703 z" fill="rgb(254,254,254)" transform="translate(0,0)"></path>
<path d="M 1155.02 867.622 C 1157.7 868.892 1207.37 954.426 1214.11 965.68 L 1204.72 974.33 L 1194.53 965.233 C 1172.23 946.774 1147.02 925.647 1125.97 905.947 C 1135.15 894.946 1146.2 879.34 1155.02 867.622 z" fill="rgb(254,254,254)" transform="translate(0,0)"></path>
<path d="M 923.038 240.821 C 931.998 248.691 944.148 260.17 953.646 266.594 C 943.166 286.911 928.423 311.852 916.84 331.919 L 915.873 333.077 C 911.922 331.401 893.06 294.676 889.58 288.009 C 900.887 272.568 911.655 256.434 923.038 240.821 z" fill="rgb(254,254,254)" transform="translate(0,0)"></path>
<path d="M 1155.6 711.763 C 1158.05 713.734 1164.41 733.613 1165.96 737.918 C 1156.13 758.651 1138.79 787.973 1127.45 809 L 1121.31 797.349 C 1114.09 784.612 1107.2 771.69 1100.65 758.595 C 1118.79 742.778 1137.11 727.167 1155.6 711.763 z" fill="rgb(254,254,254)" transform="translate(0,0)"></path>
<path d="M 965.252 178.517 C 975.66 186.628 981.119 190.568 992.97 196.215 C 984.72 210.915 964.218 251.271 955.643 262.85 C 945.411 255.214 935.259 245.546 925.75 236.894 C 938.583 217.211 951.752 197.749 965.252 178.517 z" fill="rgb(254,254,254)" transform="translate(0,0)"></path>
<path d="M 915.315 816.65 C 920.282 821.851 943.653 871.222 948.736 880.992 C 939.88 887.66 929.676 897.269 921.726 904.931 C 917.557 903.717 894.287 868.214 890.008 861.993 C 897.291 847.659 907.262 830.8 915.315 816.65 z" fill="rgb(254,254,254)" transform="translate(0,0)"></path>
<path d="M 1127.5 818.653 C 1129.76 820.552 1149.37 856.609 1152.71 862.357 C 1146.43 872.394 1129.74 893.809 1122.04 902.917 C 1112.77 895.147 1103.69 887.159 1094.8 878.959 C 1106.1 859.444 1116.28 838.448 1127.5 818.653 z" fill="rgb(254,254,254)" transform="translate(0,0)"></path>
<path d="M 949.929 885.723 C 953.454 887.52 983.49 948.108 988.018 956.558 C 981.999 959.678 968.431 970.372 965.981 970.27 C 955.612 952.881 936.012 926.686 923.817 909.355 C 931.866 901.481 941.457 893.281 949.929 885.723 z" fill="rgb(254,254,254)" transform="translate(0,0)"></path>
<path d="M 1080.58 178.075 C 1088.28 185.872 1113.18 225.896 1120.39 237.096 C 1114.42 243.635 1102.85 252.117 1095.54 257.812 C 1094.41 259.214 1094.13 259.15 1092.47 259.78 C 1086.92 253.708 1063.37 204.266 1057.98 193.451 C 1067.75 188.77 1072.61 185.265 1080.58 178.075 z" fill="rgb(254,254,254)" transform="translate(0,0)"></path>
<path d="M 1092.27 883.39 C 1098.1 887.617 1113.29 901.589 1119.39 906.907 C 1105.84 924.529 1092.62 942.396 1079.73 960.502 L 1076.62 964.412 C 1071.65 965.366 1062.98 958.195 1056.35 954.83 C 1066.66 932.723 1080.87 905.376 1092.27 883.39 z" fill="rgb(254,254,254)" transform="translate(0,0)"></path>
<path d="M 915.415 344.497 C 917.938 346.411 935.342 379.013 938.592 384.833 C 926.573 394.869 912.586 404.961 900.072 414.766 L 888.174 424.048 L 882.209 408.536 C 891.324 387.178 903.667 364.472 915.415 344.497 z" fill="rgb(254,254,254)" transform="translate(0,0)"></path>
<path d="M 879.063 414.535 C 881.384 417.591 882.816 422.98 884.063 426.79 L 869.142 439.245 L 867.914 440.195 C 866.891 436.748 876.769 419.039 879.063 414.535 z" fill="rgb(254,254,254)" transform="translate(0,0)"></path>
<metadata><recraft-signature>{"signed_by": "recraft", "signature_b64": "86RtODyJ4J7RECqLfRqRKDf9Enb2FDwUS1A9zUUjT6GQeB+xiGmPt2Fa2VYGCkRRqv6yHm8xh1N/gkmaAQCSAQ==", "signing_algo": "Ed25519", "generation_timestamp": 1777350689, "identifier": "d971c602-78a5-434b-8a0a-f350b13ba0bc"}</recraft-signature></metadata></svg>