<svg xmlns="http://www.w3.org/2000/svg" height="1024" preserveAspectRatio="none" style="display: block;" version="1.1" viewBox="0 0 2048 1152" width="1820">
<path d="M 0 0 L 2048 0 L 2048 1152 L 0 1152 L 0 0 z" fill="rgb(254,254,254)" transform="translate(0,0)"></path>
<path d="M 1031.18 266.216 C 1048.21 264.595 1063.53 271.494 1076.29 282.277 C 1118.96 318.329 1174.19 442.939 1200.57 498.434 C 1206.24 510.359 1212.2 526.968 1219.54 537.672 C 1224.21 544.468 1251.63 564.87 1259.68 570.777 L 1262.07 569.889 L 1263.6 571.067 L 1263.16 574.184 C 1264.88 576.363 1263.83 575.892 1266.11 576.174 L 1266.85 572.493 L 1268.05 572.032 L 1269.19 573.504 C 1268.55 575 1267.92 576.5 1267.3 578.004 C 1271.52 585.307 1338.17 644.01 1344.48 643.493 C 1345.78 641.671 1347.07 639.839 1348.35 637.998 L 1349.58 638.309 L 1350.31 639.997 C 1349.3 642.62 1349.03 643.282 1348.69 646.061 C 1351.19 649.626 1351.51 648.959 1355.98 651.117 C 1389.3 644.161 1414.64 620.698 1439.35 598.746 C 1441.64 596.711 1437.91 595.304 1437.61 591.76 L 1438.96 590.876 C 1440.91 592.139 1441.38 592.742 1443 594.45 C 1447.11 592.094 1470.81 572.027 1472.86 568.133 C 1509.08 499.404 1566.37 331.677 1635.28 296.882 C 1753.37 237.257 1815.93 463.599 1919.74 494.703 L 1919.99 509.08 C 1908.81 504.989 1895.94 500.359 1886.04 493.555 C 1777.42 418.858 1698.53 162.408 1570.52 390.727 C 1540.6 444.105 1517.77 500.845 1491.44 556.24 C 1504.31 546.03 1523.36 537.023 1534.71 526.671 C 1539.73 522.097 1549.99 502.362 1554.51 495.656 C 1576.9 462.461 1603.28 428.534 1640.32 410.992 C 1742.95 369.163 1819.79 526.896 1888.27 576.048 C 1900.82 585.056 1905.79 587.481 1920.01 593.047 L 1919.93 605.876 C 1870.08 593.113 1815.79 518.793 1780.18 479.685 C 1683 372.966 1620.1 410.252 1552.46 520.251 C 1582.27 510.115 1606.74 503.248 1638.19 508.961 C 1640.35 509.354 1644.47 510.009 1646.47 509.476 C 1646.98 507.852 1647.47 506.216 1647.91 504.57 C 1650.14 504.218 1649.07 504.033 1651.13 505.438 L 1651.59 509.79 C 1654.47 513.639 1667.4 514.561 1672.65 516.392 C 1689.92 522.42 1705.7 531.143 1719.92 542.656 C 1722.46 544.708 1724.95 547.029 1728.02 548.232 C 1730.03 546.733 1731.09 545.562 1733.48 545.545 L 1734.17 547.517 L 1731.93 550.773 L 1732.3 552.49 C 1753.19 571.698 1773.1 591.126 1791.42 612.872 C 1797.63 620.242 1795.55 613.669 1801.68 615.272 C 1801.26 617.099 1800.73 618.654 1800.15 620.426 C 1800.26 621.195 1800.58 622.705 1801.12 623.232 C 1826.34 648.092 1848.84 677.602 1874.89 701.458 L 1877.25 700.92 C 1882.88 705.817 1883.83 710.401 1892.11 715.974 C 1899.2 720.75 1914.06 725.626 1919.51 730.289 C 1919.89 732.692 1920.13 733.05 1919.12 735.127 C 1909.81 736.505 1883.59 716.867 1876.53 710.928 C 1872.12 707.223 1873.22 711.557 1868.67 709.615 C 1868.68 707.889 1869.32 706.735 1869.98 705.134 C 1868.97 703.313 1858.57 693.499 1856.83 691.979 C 1848.95 685.09 1798.74 626.545 1792.85 625.201 L 1789.94 627.072 L 1788.53 626.523 L 1787.84 624.567 L 1789.94 622.073 L 1789.6 620.335 C 1782.73 611.669 1735.72 561.002 1727.69 557.403 C 1725.71 557.935 1725 558.293 1722.95 557.911 C 1722.57 556.082 1722.78 555.406 1723.26 553.673 C 1712.19 541.367 1668.11 515.887 1651.41 518.463 L 1649.56 522.663 L 1647.55 522.93 C 1646.61 521.125 1646.67 520.645 1646.48 518.668 L 1646.42 518.04 C 1636.49 512.765 1607.08 519.879 1596.63 524.604 C 1563.42 539.611 1532.39 569.65 1510.58 598.57 C 1503.51 607.94 1492.05 634.377 1486.96 645.143 L 1450.56 724.146 C 1421.17 787.661 1358.48 931.059 1267.99 872.098 C 1225.52 844.424 1179.17 760.074 1154.07 715.425 L 1106.28 630.48 C 1092.11 604.761 1079.48 573.963 1050.56 561.635 C 1048.12 562.725 1047.98 564.714 1046.58 567.794 L 1044.51 566.736 C 1043.3 561.69 1045.95 564.748 1046 559.467 C 1035.95 548.442 1004.74 544.757 990.558 547.296 C 972.277 565.868 943.982 591.002 928.117 610.906 C 923.704 616.443 908 658.018 903.811 667.367 C 876.461 728.401 839.428 827.321 786.581 869.884 C 783.829 871.917 780.973 873.807 778.026 875.547 C 684.574 930.501 605.541 736.36 575.316 675.59 C 561.696 648.29 547.227 621.422 531.93 595.025 C 514.218 585.723 489.463 576.478 468.423 576.317 C 464.612 576.288 465.36 579.648 461.922 580.627 C 461.152 578.741 461.096 578.161 459.41 576.977 C 431.603 578.781 398.655 601.326 378.465 619.214 C 374.956 622.323 369.365 626.759 367.378 630.859 C 368.554 632.645 368.84 632.908 369.292 635.077 L 367.579 636.169 L 364.176 634.582 C 359.93 635.164 298.816 702.957 297.524 708.511 C 298.567 709.964 299.286 710.658 299.495 712.438 L 297.409 713.811 C 295.049 713.171 294.804 712.989 292.459 713.389 C 275.652 730.499 260.205 755.232 243.052 772.897 C 240.985 775.026 240.908 780.977 240.236 783.82 C 239.546 783.481 235.829 781.845 235.184 782.503 C 211.934 806.23 188.173 839.498 153.03 844.771 C 151.228 845.041 127.319 846.524 127.17 846.464 C 125.995 843.385 126.22 838.414 127.829 835.529 C 136.511 841.33 139.13 840.636 149.812 839.148 C 155.493 838.357 166.64 835.565 171.206 832.712 C 190.973 820.361 217.023 796.854 230.592 778.085 L 229.319 775.746 L 229.927 774.167 C 234.412 773.521 237.256 772.471 239.523 768.429 C 246.856 755.359 282.979 720.56 287.016 709.735 C 286.175 708.057 286.046 707.997 285.773 706.066 L 287.582 703.983 C 289.495 704.525 289.902 704.763 291.916 704.434 C 310.263 682.74 328.835 660.804 348.849 640.565 C 352.177 637.199 355.871 634.162 358.114 629.955 L 355.636 625.994 L 356.548 624.339 C 356.984 624.521 360.694 626.072 360.694 626.072 C 363.176 626.57 371.853 617.773 373.981 615.794 C 393.162 597.956 414.599 583.097 439.743 575.08 C 446.571 572.903 453.367 571.771 460.277 569.88 C 460.78 567.466 460.772 566.958 461.993 564.867 L 463.448 564.928 L 464.375 568.52 C 466.957 570.438 481.248 568.834 486.332 568.827 C 499.247 568.808 507.672 570.362 520.284 573.029 C 507.145 547.952 478.257 503.123 459.818 482.138 C 457.49 482.731 455.172 483.365 452.866 484.038 C 441.746 487.282 405.646 504.334 401.328 512.198 C 401.948 514.216 402.311 514.809 401.848 516.896 L 399.992 517.829 C 398.332 516.656 398.02 516.532 396.251 515.714 C 387.65 520.159 332.586 571.673 331.222 577.445 L 333.264 580.381 L 332.689 582.263 C 330.832 582.136 325.865 582.123 324.628 583.419 C 274.39 636.061 229.304 696.7 170.023 739.794 C 166.573 742.302 154.946 747.048 150.557 747.702 C 141.597 749.036 136.526 750.935 128.195 753.892 L 126.695 752.728 C 126.121 748.732 125.883 747.856 126.758 743.852 C 130.767 741.977 148.235 745.751 157.602 739.986 C 210.321 707.542 253.661 650.435 295.873 605.549 C 301.716 599.335 320.854 580.413 322.571 576.012 L 320.837 573.28 C 320.676 569.799 327.96 571.651 331.501 567.768 C 350.289 547.166 370.519 528.374 392.26 511.026 C 393.369 510.141 392.293 506.44 392.022 505.059 L 393.31 504.412 C 398.727 508.822 399.703 506.173 405.312 502.057 C 421.075 490.488 436.894 483.071 455.382 476.989 C 442.904 464.382 426.315 450.14 408.643 445.5 C 354.96 431.405 307.55 487.325 275.281 521.755 C 258.665 539.484 242.712 557.344 225.57 573.81 C 212.766 586.321 198.372 597.096 182.761 605.858 C 170.333 612.739 141.106 623.454 128.072 619.709 C 125.971 617.296 125.506 616.92 125.393 613.775 C 128.476 605.813 149.148 606.684 156.947 603.999 C 217.739 583.069 253.487 522.736 298.817 480.645 C 325.225 456.124 354.824 431.428 393.055 431.924 C 424.934 432.338 447.551 452.667 468.38 474.102 C 495.189 468.618 523.48 473.326 549.205 481.383 C 525.09 428.346 492.204 364.754 451.2 323.921 C 414.865 287.738 376.55 302.786 343.844 332.796 C 315.465 358.835 297.189 385.415 273.736 415.457 C 236.826 462.736 195.566 526.487 131.697 535.969 C 129.418 536.307 128.279 535.982 126.737 534.51 L 127.12 525.893 C 128.699 523.762 146.69 521.526 152.383 518.744 C 243.042 474.92 282.765 349.49 368.427 300.395 C 461.344 247.143 534.651 426.518 565.791 488.253 C 571.666 491.106 597.468 506.926 600.498 506.748 C 602.144 504.872 602.347 504.35 604.618 503.613 L 606.1 504.809 L 604.592 509.362 C 605.391 511.413 624.406 524.585 627.982 527.207 C 637.463 534.057 646.712 541.223 655.713 548.692 C 660.385 552.57 676.438 567.381 681.365 567.903 L 684.878 565.018 L 686.539 565.451 L 687.268 567.096 C 685.641 568.934 685.479 569.094 684.439 571.292 C 686.527 575.57 746.198 623.781 753.813 629.773 C 771.742 619.844 784.448 606.959 800.49 594.871 C 802.585 593.293 802.362 590.815 802.558 588.539 C 804.262 589.318 804.18 589.33 806.033 589.515 C 817.599 580.233 855.202 549.935 864.135 540.969 C 869.474 535.612 887.357 489.723 891.488 480.245 C 904.053 451.464 917.002 422.852 930.333 394.418 C 943.378 366.421 958.022 334.85 975.447 309.283 C 990.353 287.413 1004.25 271.323 1031.18 266.216 z" fill="rgb(0,0,0)" transform="translate(0,0)"></path>
<path d="M 574.986 622.644 C 579.301 623.819 594.172 635.932 597.89 639.073 C 617.82 655.914 637.232 673.408 656.821 690.659 C 683.724 714.35 713.787 744.486 753.182 737.561 C 766.205 735.261 779.429 729.42 790.146 721.716 C 798.369 715.806 805.875 708.323 814.277 702.604 L 816.474 704.073 L 817.409 703.188 C 816.566 701.554 816.597 701.635 816.327 699.814 C 822.014 692.442 836.962 677.56 843.941 670.287 C 869.192 665.779 889.608 645.135 907.191 628.252 C 893.387 660.887 878.921 696.536 864.145 728.594 C 843.834 771.486 812.858 842.905 770.566 866.394 C 757.474 873.665 742.988 876.016 728.508 871.771 C 663.001 852.566 598.664 691.618 565.222 631.411 L 574.986 622.644 z" fill="rgb(254,254,254)" transform="translate(0,0)"></path>
<path d="M 1031.71 278.277 C 1058.89 276.283 1078.36 298.241 1092.86 318.691 C 1113.77 348.177 1130.92 382.321 1146.88 414.693 L 1202.4 529.545 C 1196.83 526.481 1168.58 513.226 1166.07 510.77 C 1131.76 477.192 1110.6 427.345 1056.39 423.097 C 1012.47 426.276 991.688 459.831 970.032 493.479 C 929.03 501.639 918.248 508.526 882.592 530.11 C 900.622 488.689 919.095 447.463 938.008 406.438 C 952.581 375.069 967.328 341.969 986.967 313.393 C 998.543 296.55 1011.22 283.459 1031.71 278.277 z" fill="rgb(254,254,254)" transform="translate(0,0)"></path>
<path d="M 1105.69 604.672 C 1112.36 607.462 1120.25 614.574 1118.77 622.583 L 1119.38 623.185 L 1123.88 620.62 C 1125.36 621.226 1183.05 674.962 1183.55 676.301 C 1181.72 678.464 1181.24 678.741 1180.67 681.407 L 1182.08 682.977 C 1183.55 681.796 1184.62 680.597 1185.91 679.24 L 1188.13 679.198 C 1201.28 688.512 1210.33 697.408 1225.02 705.727 C 1231.45 709.366 1253.89 720.307 1257.01 723.871 L 1255.74 726.481 C 1257.69 728.456 1257.16 728.601 1259.21 728.698 C 1259.94 726.546 1259.97 726.222 1261.34 724.466 C 1306.32 740.206 1334.29 736.264 1378.21 719.167 C 1407.53 707.752 1429.45 686.468 1450.76 664.348 C 1455.31 666.269 1460.04 668.01 1464.66 669.77 C 1460.87 666.468 1456.73 663.143 1452.85 659.915 C 1461.1 652.702 1473.27 638.54 1480.96 630.081 C 1468.99 654.976 1457.34 680.022 1446.01 705.213 C 1423.6 755.319 1393.84 824.04 1351.04 858.455 C 1287.22 909.761 1233.77 824.508 1205.68 779.503 C 1185.17 746.164 1165.49 712.316 1146.67 677.991 C 1133.6 654.604 1117.53 628.352 1105.69 604.672 z" fill="rgb(254,254,254)" transform="translate(0,0)"></path>
<path d="M 1084.4 496.417 C 1107.57 495.645 1127.4 502.543 1148.62 510.532 C 1166.23 532.645 1182.71 556.193 1200.9 578.174 C 1206.6 585.056 1227.98 607.628 1230.49 612.229 L 1229.48 613.784 L 1223.5 614.992 L 1223.45 616.021 L 1230.45 619.565 C 1231.45 617.394 1231.8 616.19 1233.47 614.539 C 1237.66 618.196 1244.41 625.606 1248.6 628.555 C 1262.6 638.406 1265.1 643.814 1274.2 657.295 C 1294.83 687.852 1317.57 711.957 1354.8 719.886 C 1340.01 726.336 1323.69 728.797 1307.66 728.579 C 1297.42 727.882 1271.39 724.716 1263.66 717.968 L 1263.8 714.626 L 1262.55 713.337 C 1261.07 715.178 1260.92 715.426 1259.01 716.77 C 1235.29 706.382 1210.97 690.76 1191.68 673.662 C 1191.44 673.445 1192.58 671.744 1191.09 669.646 L 1188.13 670.76 C 1178.65 664.827 1137.67 625.209 1126.25 614.946 C 1128.73 612.825 1131.54 611.253 1131.8 608.645 C 1128.65 608.647 1127.02 610.517 1124.43 612.569 C 1117.21 605.529 1102.88 595.795 1097.67 588.375 C 1078.13 560.528 1064.49 532.353 1035.81 511.909 C 1053.2 501.812 1064.4 497.935 1084.4 496.417 z" fill="rgb(254,254,254)" transform="translate(0,0)"></path>
<path d="M 569.985 496.856 C 574.049 498.311 593.783 509.598 596.05 512.953 L 594.831 515.878 L 595.783 517.509 L 597.278 517.863 L 599.924 515.122 C 607.569 517.54 669.991 565.505 675.737 573.591 L 673.463 577.001 L 674.974 578.189 L 677.98 576.461 C 681.309 576.363 745.257 629.881 746.502 633.365 L 744.587 635.224 C 708.32 651.813 681.633 653.88 643.646 641.638 C 624.465 614.674 603.955 566.231 588.848 536.193 C 583.927 526.408 573.668 506.488 569.985 496.856 z" fill="rgb(254,254,254)" transform="translate(0,0)"></path>
<path d="M 491.766 477.436 C 511.869 476.183 533.538 481.932 552.16 488.886 C 559.692 501.67 567.478 518.546 574.155 532.178 C 591.081 566.734 606.214 600.522 624.605 634.329 C 617.77 630.955 611.576 626.895 605.123 622.846 C 603.513 621.802 601.908 620.748 600.31 619.684 C 592.523 614.508 595.106 616.241 594.063 611.081 C 589.587 611.795 588.632 612.466 586.78 608.496 C 587.779 606.314 589.18 604.811 590.687 602.941 L 590.063 601.434 C 586.91 601.262 586.725 603.089 583.015 605.737 C 576.697 602.956 567.866 596.325 561.615 592.337 C 552.967 586.819 546.566 583.417 537.329 578.876 C 515.838 543.733 499.22 511.44 472.279 479.312 C 478.712 478.045 485.218 477.835 491.766 477.436 z" fill="rgb(254,254,254)" transform="translate(0,0)"></path>
<path d="M 964.906 501.47 C 965.055 503.861 960.579 510.791 959.203 513.221 C 949.448 530.456 940.174 548.67 933.593 567.376 C 904.346 590.709 865.394 636.739 839.637 664.995 C 832.352 665.22 828.214 665.233 820.924 664.597 L 820.581 663.914 C 820.311 660.977 829.929 645.318 831.906 641.509 C 842.28 621.527 851.703 600.539 860.869 580.131 C 863.348 574.611 875.672 544.737 878.318 542.241 C 898.087 523.601 938.236 504.559 964.906 501.47 z" fill="rgb(254,254,254)" transform="translate(0,0)"></path>
<path d="M 752.232 637.884 C 751.742 637.927 798.792 664.217 803.522 666.348 C 775.78 703.45 743.235 726.623 696.852 700.93 C 695.402 700.011 693.983 699.044 692.596 698.032 C 688.183 694.809 677.018 686.659 676.232 681.561 L 679.679 677.68 L 678.916 677.004 C 676.97 678.939 676.656 679.262 674.195 680.451 C 668.511 679.087 651.459 655.06 647.557 648.953 C 686.747 660.76 716.269 657.043 752.232 637.884 z" fill="rgb(254,254,254)" transform="translate(0,0)"></path>
<path d="M 1051.93 435.314 C 1088.18 430.606 1122.36 476.7 1142.22 501.253 C 1116.84 492.344 1096.05 487.274 1069.5 492.197 C 1053.15 495.512 1043.5 500.56 1028.93 508.555 C 1014.74 498.864 999.884 496.262 983.336 493.772 C 999.131 468.65 1020.76 439.872 1051.93 435.314 z" fill="rgb(254,254,254)" transform="translate(0,0)"></path>
<path d="M 1287.49 654.223 C 1304.13 659.623 1317.92 661.245 1335.37 661.249 C 1345.45 661.251 1344.19 659.608 1353.19 657.824 C 1376.84 669.538 1393.77 672.24 1419.46 666.636 C 1414.32 673.408 1408.37 680.018 1402.76 686.458 C 1370.6 721.221 1336.45 711.085 1307.17 679.992 C 1301.15 673.6 1290.49 662.419 1287.49 654.223 z" fill="rgb(254,254,254)" transform="translate(0,0)"></path>
<path d="M 857.709 554.848 L 858.692 556.107 C 855.456 564.437 848.371 578.219 844.409 586.753 C 832.698 611.971 821.881 637.595 806.509 660.798 C 795.735 655.763 787.424 651.713 777.068 645.857 C 771.064 642.13 765.12 637.884 759.292 633.858 C 780.528 621.346 804.807 598.94 823.452 582.174 C 833.531 573.11 846.882 563.262 857.709 554.848 z" fill="rgb(254,254,254)" transform="translate(0,0)"></path>
<path d="M 1227.75 553.713 C 1232.67 555.946 1255.72 573.965 1256.79 578.356 C 1255.11 580.191 1253.1 579.856 1250.05 580.299 L 1250.36 581.141 C 1252.69 581.595 1253.85 581.556 1255.53 583.084 L 1255.42 586.331 C 1258.33 584.912 1256.58 583.459 1260.41 581.557 C 1265.16 583.172 1306.59 623.003 1314.55 629.942 C 1321.21 635.766 1328.19 641.224 1335.45 646.294 C 1338.58 648.179 1342.71 649.986 1342.35 653.947 C 1338.77 656.082 1333.19 655.418 1329.11 655.459 C 1311.2 655.638 1296.4 651.741 1280.27 644.285 C 1264.32 621.57 1242.62 579.796 1227.75 553.713 z" fill="rgb(254,254,254)" transform="translate(0,0)"></path>
<path d="M 1526.58 539.931 C 1527.5 540.737 1527.09 540.275 1527.29 541.986 C 1509.81 573.507 1499.11 600.21 1473.78 626.092 C 1459.34 640.835 1463.62 643.457 1443.33 656.135 C 1443.38 656.565 1443.43 656.995 1443.49 657.425 L 1443.54 658.082 C 1444.23 665.351 1433.97 672.713 1428.63 677.837 C 1427.62 678.864 1427.69 678.786 1426.28 679.147 C 1435.37 661.655 1450.14 641.363 1459.92 622.27 C 1468.56 605.412 1479.64 581.815 1488.92 566.206 C 1491.48 561.896 1520.99 543.171 1526.58 539.931 z" fill="rgb(254,254,254)" transform="translate(0,0)"></path>
<path d="M 1463.81 584.937 L 1464.49 585.697 C 1463.45 593.276 1429.26 650.989 1423.83 659.023 C 1400.93 666.399 1387.99 664.903 1365.9 657.051 C 1364.81 656.272 1365.23 656.779 1364.9 655.33 C 1399.1 641.617 1417.45 627.701 1444.47 602.119 C 1446.01 600.661 1446.42 603.994 1449.1 605.043 L 1450.18 603.523 C 1449.52 601.72 1448.93 600.274 1448.15 598.521 C 1450.14 595.46 1460.38 587.683 1463.81 584.937 z" fill="rgb(254,254,254)" transform="translate(0,0)"></path>
<path d="M 979.427 500.634 C 994.126 500.94 1008.72 506.356 1021.54 513.162 C 1010.5 521.221 992.398 539.88 982.387 541.67 C 969.84 545.233 963.502 548.535 951.875 554.664 C 961.125 533.888 968.098 520.041 979.427 500.634 z" fill="rgb(254,254,254)" transform="translate(0,0)"></path>
<path d="M 1169.52 519.524 C 1177.05 521.178 1199.9 534.857 1206.79 539.11 C 1215.91 556.105 1231.87 582.988 1240.57 601.053 C 1240.36 602.135 1240.18 603.059 1240.04 603.825 C 1238.35 604.676 1237.26 605.032 1235.51 605.638 C 1226.35 598.419 1178.58 531.963 1169.52 519.524 z" fill="rgb(254,254,254)" transform="translate(0,0)"></path>
<path d="M 798.534 690.703 C 801.789 691.73 806.118 696.511 806.457 700.016 C 796.692 711.775 774.827 726.095 759.782 730.09 C 738.111 735.845 725.084 732.5 706.487 722.268 C 701.978 719.524 697.026 715.854 692.657 712.781 C 737.797 733.721 764.974 723.305 798.534 690.703 z" fill="rgb(254,254,254)" transform="translate(0,0)"></path>
<path d="M 924.868 582.903 L 925.579 583.7 C 925.465 584.322 915.354 609.449 915.059 609.863 C 900.526 630.279 874.792 652.544 852.092 661.845 L 851.454 661.257 C 867.135 641.903 906.415 599.043 924.868 582.903 z" fill="rgb(254,254,254)" transform="translate(0,0)"></path>
<path d="M 1026.82 517.49 C 1039.18 523.223 1063.34 556.353 1070.81 567.942 C 1066.54 565.013 1061.93 562.223 1057.72 559.177 C 1051.15 554.424 1055.57 556.442 1053.64 550.398 C 1050.57 548.708 1051.46 548.625 1048.44 548.753 C 1048.91 550.338 1049.26 550.95 1048.82 552.554 C 1042.02 550.846 1034.99 547.222 1028.33 544.587 C 1017.52 540.313 1009.58 540.233 998.345 540.021 C 1007.36 531.924 1016.87 524.399 1026.82 517.49 z" fill="rgb(254,254,254)" transform="translate(0,0)"></path>
<path d="M 1603.96 513.377 C 1606.21 513.07 1608.01 512.522 1609.96 513.619 C 1607.26 514.257 1600.23 517.342 1597.31 518.379 C 1569.63 528.192 1548.63 547.913 1527.99 568.33 L 1522.9 572.819 C 1530.8 560.241 1539.63 543.228 1547.23 529.902 C 1563.71 521.056 1585.49 515.833 1603.96 513.377 z" fill="rgb(254,254,254)" transform="translate(0,0)"></path>
<path d="M 588.549 618.697 C 591.093 619.809 601.248 626.902 604.041 628.88 C 613.488 635.572 619.574 639.131 630.019 644.004 C 633.451 649.895 650.062 673.679 650.293 676.919 C 637.104 665.379 623.847 653.827 610.599 642.378 C 606.448 638.791 589.982 625.919 587.619 622.572 L 588.549 618.697 z" fill="rgb(254,254,254)" transform="translate(0,0)"></path>
<path d="M 978.492 549.255 L 978.63 550.089 C 976.274 554.465 941.533 586.956 936.188 592.068 C 935.761 589.108 944.176 570.864 946.026 566.58 C 957.18 558.171 965.038 553.291 978.492 549.255 z" fill="rgb(254,254,254)" transform="translate(0,0)"></path>
<path d="M 815.731 669.395 C 822.712 670.414 827.497 670.808 834.548 671.152 C 828.182 678.654 821.547 685.922 814.656 692.944 L 812.758 694.826 C 808.332 696.103 803.783 692.956 802.679 688.31 C 804.133 681.897 811.262 674.781 815.731 669.395 z" fill="rgb(254,254,254)" transform="translate(0,0)"></path>
<path d="M 542.388 588.411 C 548.856 590.531 577.06 607.016 579.124 613.007 C 577.789 613.484 576.021 614.299 574.713 613.366 C 565.14 606.535 547.125 599.289 542.388 588.411 z" fill="rgb(254,254,254)" transform="translate(0,0)"></path>
<path d="M 551.913 606.337 C 556.66 608.113 569.157 615.394 571.124 619.955 L 569.327 622.391 C 567.697 624.288 567.38 624.567 565.375 626.076 L 563.259 625.538 C 559.076 621.328 555.021 612.104 551.913 606.337 z" fill="rgb(254,254,254)" transform="translate(0,0)"></path>
<path d="M 1242.06 603.881 C 1244.96 607.919 1253.58 620.868 1254.78 625.152 L 1253.81 625.225 C 1249.71 621.746 1240.05 614.711 1239.11 609.513 C 1238.72 607.347 1240.55 605.847 1242.06 603.881 z" fill="rgb(254,254,254)" transform="translate(0,0)"></path>
<path d="M 503.536 576.177 C 510.994 577.372 522.783 578.13 526.867 584.95 C 518.963 582.292 511.457 578.683 503.536 576.177 z" fill="rgb(254,254,254)" transform="translate(0,0)"></path>
<metadata><recraft-signature>{"signed_by": "recraft", "signature_b64": "8yl8Yl4PaLzwPcIk6ASKswy/oZ4W3Q+AxtnURqi2SE8/SaC+tlFi8P7yF7lNacAw60PqLP7WYtSqfwaLB+f/Cg==", "signing_algo": "Ed25519", "generation_timestamp": 1777130898, "identifier": "c01d76de-bd82-42f4-8ab5-0883f5517b70"}</recraft-signature></metadata></svg>