<svg xmlns="http://www.w3.org/2000/svg" height="1024" preserveAspectRatio="none" style="display: block;" version="1.1" viewBox="0 0 2048 1152" width="1820">
<path d="M 0 0 L 2048 0 L 2048 1152 L 0 1152 L 0 0 z" fill="rgb(254,254,254)" transform="translate(0,0)"></path>
<path d="M 415.546 92.5671 C 405.104 92.6458 357.491 94.3448 351.312 90.9306 L 352.118 87.1619 C 367.802 82.2416 396.584 87.6114 413.906 85.2774 C 426.109 83.6331 433.861 76.7209 443.612 87.0845 L 1206.9 100.418 C 1215.43 100.514 1224.14 97.3845 1231.88 97.5813 C 1241.66 97.8301 1250.41 101.906 1260.96 102.061 L 1579.38 108.731 L 1700.76 110 C 1718.69 110.095 1736.73 110.222 1754.67 109.858 C 1757.8 109.794 1763.48 110.891 1765.43 113.332 C 1766.8 115.049 1766.39 114.846 1766.89 117.253 C 1765.64 120.708 1766.51 119.689 1763.82 121.507 C 1757.38 122.476 1750.83 122.333 1744.34 122.006 C 1703.2 119.937 1662.01 119.3 1620.85 118.108 L 1245.9 107.646 L 1246.18 121.908 C 1353.35 122.742 1461.81 127.464 1569.2 129.497 L 1717.38 131.818 C 1736.25 132.101 1755.02 132.13 1773.89 132.045 C 1780.15 132.017 1785.76 133.223 1788.17 139.342 C 1787.68 141.94 1787.49 143.258 1785.24 144.982 C 1781.96 147.491 1736.48 145.536 1728.02 145.93 C 1731.51 153.534 1734.86 161.201 1738.06 168.928 C 1745.14 168.902 1797.21 164.062 1784.55 182.328 C 1777.19 186.315 1758.86 181.889 1749.63 182.602 C 1742 183.192 1720.62 189.788 1715.73 187.638 C 1699.87 180.665 1687.93 182.185 1670.36 181.742 L 1596.51 180.558 C 1565.76 179.878 1534.53 177.568 1503.92 178.185 C 1485.45 178.558 1471.98 188.274 1476.19 207.732 C 1480.54 227.813 1485.32 247.68 1489.59 267.701 L 1533.6 466.199 C 1622.07 469.178 1710.56 471.209 1799.08 472.291 C 1810.37 461.469 1828.99 465 1840.92 473.044 C 1852.84 473.744 1905.73 473.242 1911.57 478.51 C 1911.7 479.529 1912.08 480.133 1911.51 480.768 C 1905.64 487.32 1890.74 484.174 1883.5 484.019 C 1870.54 483.743 1858.08 483.133 1845.37 482.933 L 1849.03 495.782 C 1873.48 496.5 1898.16 496.681 1922.51 498.337 C 1925.72 498.555 1934.09 506.2 1934.73 510.274 C 1929.42 525.125 1876.56 514.21 1862.43 517.283 C 1841.58 521.817 1821 534.508 1802.87 515.433 C 1785.9 514.852 1768.93 514.85 1751.95 514.447 C 1681.91 512.784 1611.61 508.393 1541.57 507.705 C 1543.34 516.196 1545.23 524.662 1547.23 533.1 C 1603.11 532.23 1663.8 535.756 1720 536.819 C 1759.53 537.476 1799.05 538.462 1838.57 539.774 C 1864.56 540.457 1896.03 540.675 1921.79 542.982 C 1927.02 546.507 1929.41 547.874 1930.85 554.329 C 1930.26 556.896 1929.19 559.728 1926.66 560.496 C 1916.95 563.441 1893.11 561.582 1883.78 561.332 L 1818.31 559.58 L 1668.5 556.702 C 1630.5 555.733 1587.19 553.387 1549.58 554.092 C 1553.47 571.287 1556.95 588.573 1560.01 605.936 C 1609.04 606.617 1659.45 608.373 1708.53 609.76 C 1746.09 610.547 1783.64 611.675 1821.17 613.143 C 1830.32 606.019 1840.31 605.749 1851.43 606.706 C 1859.64 607.414 1866.27 612.684 1875.15 613.175 C 1904.16 614.778 1933.36 614.123 1962.36 615.867 C 1966.69 616.133 1970.27 621.294 1969.4 625.945 C 1967.58 627.551 1967.08 628.283 1964.45 628.481 C 1933.97 630.766 1902.6 626.904 1872.08 627.27 C 1874.43 637.809 1879.72 652.664 1883.25 663.234 C 1914.99 666.146 1947.25 664.04 1978.83 667.166 C 1987.35 668.009 1990.65 681.588 1985.57 682.999 C 1975.57 685.78 1950.21 683.599 1940.05 683.741 C 1944.73 695.489 1953.55 718.416 1959.01 728.965 C 1968.54 728.944 1976.8 728.638 1986.27 730.002 C 2008.32 732.905 2006.53 757.22 1984.16 755.049 C 1981.96 754.835 1973.03 753.527 1971.24 753.835 C 1949.45 757.582 1933.14 763.655 1912.74 750.084 C 1861.32 749.272 1809.44 744.092 1757.88 743.357 C 1726.01 742.903 1674.39 731.33 1668.15 776.503 C 1667.28 782.771 1675.6 813.36 1677.62 821.622 L 1696.18 897.487 C 1706.48 906.317 1709.52 909.617 1711.87 923.472 C 1709.74 930.012 1709.06 931.661 1705.42 937.473 C 1712.4 961.314 1717.88 985.681 1724 1009.76 C 1727.66 1024.18 1732.98 1039.32 1734.64 1054.09 C 1735 1057.24 1734.69 1060.46 1733.17 1063.29 C 1731.65 1066.11 1728.98 1068.07 1725.9 1068.85 C 1722.27 1069.77 1718.59 1069.12 1715.48 1067.09 C 1711.85 1064.71 1709.44 1060.9 1707.77 1056.98 C 1700.22 1039.27 1683.2 939.05 1674.8 933.837 C 1670.81 931.362 1635.25 931.856 1628.45 931.928 C 1628.84 943.905 1633.25 961.517 1635.92 973.703 C 1639.91 992.128 1644.03 1010.53 1648.28 1028.89 C 1650.45 1038.1 1653.54 1047.73 1654.48 1057.12 C 1654.71 1059.4 1654.65 1062.05 1652.98 1063.82 C 1649.11 1067.92 1639.75 1070.68 1634.19 1070.64 C 1630.67 1070.61 1627.31 1069.36 1624.9 1066.74 C 1616.77 1057.93 1596.64 949.388 1592.48 931.921 C 1583.74 923.264 1574.77 910.425 1585.88 899.452 C 1586.68 898.669 1587.5 897.909 1588.34 897.172 L 1567.27 792.142 C 1559.11 751.745 1542.68 707.495 1575.99 674.528 L 1575.53 673.467 C 1559.15 672.978 1550.14 693.675 1545.61 672.067 L 1414.62 667.52 C 1404.69 667.257 1368.89 665.705 1361.3 666.569 C 1364.8 669.974 1393.25 670.731 1399.73 671.055 C 1405.13 721.67 1412.5 773.006 1418.2 823.643 C 1420.55 844.556 1424.43 866.718 1426.45 887.434 C 1442.79 901.56 1439.01 909.916 1433.17 922.577 C 1432.61 923.784 1436.89 953.077 1437.41 956.719 C 1442.32 988.898 1446.96 1021.12 1451.35 1053.37 C 1445.5 1059.73 1437.61 1060.62 1429.18 1061.79 C 1425.33 1060.69 1421.78 1059.34 1421.03 1054.89 C 1417.69 1035.17 1414.94 1015.03 1412.55 995.156 C 1409.54 970.129 1404.42 944.626 1402.36 919.572 C 1383.41 916.961 1355.11 916.441 1335.66 915.924 C 1337.94 928.248 1339.38 949.334 1340.63 962.418 L 1348.55 1047.56 C 1345.83 1054.56 1343.81 1057.95 1336.22 1060.32 C 1312.24 1067.81 1315.07 1031.96 1313.72 1014.97 L 1309.08 962.379 C 1308.08 950.181 1307.46 935.509 1305.52 923.624 L 1299.27 917.817 C 1298.47 908.629 1297.95 901.332 1297.88 892.13 L 1305.5 886.725 C 1303.5 856.743 1301.09 826.789 1298.29 796.871 C 1297.16 784.26 1296.73 752.993 1288.76 744.458 C 1284.1 739.506 1278.13 735.979 1271.54 734.288 C 1264.17 732.444 1254.16 732.341 1246.51 732.134 C 1215.24 731.288 1183.92 730.311 1152.64 730.209 C 1146.88 730.19 1140.31 734.11 1134.72 734.078 C 1124.2 734.018 1114.33 727.003 1103.69 727.059 C 1055.39 729.668 1057.58 762.534 1056.34 797.404 C 1055.53 817.781 1055.01 838.168 1054.79 858.56 C 1066.52 866.813 1066.45 882.816 1053.45 890.439 C 1053.39 898.022 1053.11 905.611 1052.88 913.18 C 1051.7 952.06 1053.57 993.374 1023.54 1022.89 C 995.622 1050.34 961.479 1046.45 925.671 1044.9 C 905.903 1043.9 886.122 1043.16 866.335 1042.67 C 865.624 1054.65 855.692 1072.64 840.603 1062.94 C 835.784 1059.84 836.724 1048.26 836.736 1042.44 C 828.006 1040.88 814.653 1040.86 805.416 1040.57 L 757.752 1038.92 C 742.946 1048.38 735.4 1046.39 718.276 1044.29 L 711.243 1036.19 C 666.885 1033.27 624.512 1031 580.021 1030.01 C 552.192 1029.4 524.875 1026.97 496.519 1027 C 493.526 1037.23 492.485 1044.76 488.228 1055.15 C 487.565 1055.17 486.901 1055.18 486.237 1055.19 C 479.492 1055.32 473.972 1056.44 469.158 1051.8 C 465.945 1046.03 471.02 1032.27 472.8 1024.78 C 451.242 1022.21 418.321 1021.56 396.639 1023.09 C 388.172 1023.69 390.854 1063.32 366.276 1048.87 C 363.478 1043.79 369.397 1028.24 371.163 1020.79 C 348.976 1017.68 318.353 1019.67 294.686 1017.12 C 265.44 1017.94 232.741 999.345 222.806 971.101 C 213.079 943.45 220.82 921.894 231.103 896.363 C 235.299 885.944 238.813 875.678 243.678 865.419 C 238.104 854.854 239.041 848.565 245.403 838.436 C 248.687 834.384 253.071 832.184 257.55 829.523 C 259.936 823.67 262.215 817.063 264.327 811.073 C 285.433 751.217 310.761 692.285 331.855 632.568 C 301.274 630.53 270.467 630.415 239.879 628.633 C 192.756 625.888 144.194 626.85 97.2731 622.427 L 102.31 612.132 C 166.706 616.48 233.561 616.749 298.178 619.549 C 320.044 620.497 341.595 619.668 363.654 621.032 C 384.239 620.648 407.537 621.952 428.325 622.5 L 544.24 625.386 L 912.9 635.219 C 975.137 637.492 1037.39 639.207 1099.66 640.364 C 1100.28 628.825 1100.14 614.85 1100.3 603.11 C 1070.15 600.581 1031.34 600.473 1000.4 599.655 L 829.233 595.068 L 257.993 577.817 C 244.911 577.311 124.592 573.541 118.363 571.049 C 117.652 568.833 118.556 567.456 119.46 565.138 C 123.973 561.263 153.047 564.226 160.89 564.635 L 222.804 567.872 C 265.12 569.965 307.453 571.728 349.797 573.163 C 356.401 557.678 364.141 537.28 369.338 521.303 C 321.136 518.034 269.561 519.352 221.045 516.355 C 211.8 515.784 179.701 515.551 172.146 513.507 L 171.255 511.647 C 171.664 507.46 175.448 502.563 177.85 498.86 C 240.09 498.175 313.851 502.124 376.674 504.094 L 386.104 477.854 C 368.567 476.173 334.694 475.558 316.666 476.539 C 314.933 476.633 305.895 481.83 302.598 482.92 C 301.49 483.281 300.355 483.549 299.202 483.721 C 282.279 486.223 281.793 475.104 278.556 474.26 C 265.242 470.788 168.333 472.638 160.794 468.99 L 160.411 466.709 C 163.19 458.662 169.22 455.202 177.336 454.903 C 212.709 453.599 249.35 456.111 284.685 455.964 C 287.094 451.254 288.323 448.06 290.173 443.075 C 276.281 441.018 172.44 439.88 169.077 437.861 C 168.933 435.123 168.784 436.164 170.434 433.551 C 177.138 429.783 274.071 437.074 289.063 435.209 C 291.868 434.86 292.577 432.424 294.622 430.22 C 299.128 429.575 318.49 429.18 321.963 431.22 C 322.381 432.081 323.907 435.171 324.387 435.273 C 338.613 438.299 384.395 438.451 396.851 438.717 C 412.758 399.73 428.708 355.317 443.661 315.375 C 446.725 308.028 449.558 300.588 452.156 293.064 C 458.519 277.931 450.645 277.243 456.731 261.264 C 459.351 259.636 463.089 257.759 465.884 256.249 C 469.41 244.546 485.703 209.325 481.005 200.883 C 470.968 193.701 428.454 196.869 414.534 198.136 C 401.8 199.294 394.888 203.072 383.233 194.382 C 359.712 194.421 336.193 193.941 312.693 192.943 L 317.701 181.943 C 339.864 182.959 364.472 182.731 386.82 182.989 C 390.06 175.025 393.488 166.96 396.038 158.762 C 385.038 157.548 320.787 158.051 316.912 155.018 C 317.55 151.974 317.978 151.466 319.696 148.841 C 323.288 147.452 393.304 147.988 403.287 147.959 C 405.77 146.263 408.565 144.086 411.561 143.474 C 418.119 142.132 424.737 147.357 431.336 147.719 C 456.946 149.124 532.647 143.309 550.881 155.146 C 556.19 158.592 560.727 163.688 562.11 169.974 C 566.625 182.63 544.614 242.962 539.406 258.534 C 549.182 264.178 545.163 275.614 537.176 278.018 C 533.427 283.1 527.659 304.661 524.694 312.078 C 521.806 323.333 517.031 334.965 513.694 346.115 C 504.273 377.599 492.271 408.684 483.137 440.169 C 501.971 440.965 520.815 441.541 539.663 441.896 C 553.526 391.485 569.287 341.832 584.057 291.722 C 587.47 280.141 578.719 279.558 581.437 271.001 C 584.195 262.318 591.333 256.687 594.125 246.325 C 599.771 225.365 605.633 204.45 611.484 183.537 C 614.6 172.402 618.323 156.909 623.637 146.94 C 628.758 137.333 644.899 127.733 654.206 121.957 C 583.491 120.642 512.911 121.889 442.171 120.076 C 425.56 119.65 423.611 136.422 405.116 121.885 C 401.507 119.049 351.905 120.015 344.343 120.032 L 348.362 109.388 C 368.54 109.002 388.719 108.729 408.9 108.571 C 411.02 103.672 413.887 97.5243 415.546 92.5671 z" fill="rgb(35,29,29)" transform="translate(0,0)"></path>
<path d="M 245.403 838.436 L 246.058 840.242 C 246.591 841.141 247.577 841.884 247.144 843.543 C 246.074 847.647 241.703 847.877 242.127 852.333 C 242.286 855.759 245.48 864.094 244.55 867.084 C 240.226 880.994 233.441 894.186 228.807 908.004 C 226.817 913.939 229.249 921.846 226.588 928.222 C 225.055 931.895 223.214 933.386 220.419 936.205 C 220.015 939.281 220.1 946.941 220.162 950.197 L 221.047 951.477 L 223.491 951.555 L 224.11 952.564 L 223.554 953.265 C 221.686 955.651 221.088 956.299 220.874 959.429 C 220.715 959.129 224.607 966.413 224.321 965.185 C 227.971 980.844 233.242 991.247 248.845 997.711 C 252.321 999.151 265.006 1005.07 265.785 1006.4 C 261.804 1005.66 257.837 1004.85 253.885 1003.96 C 259.793 1006.99 265.403 1010.15 271.772 1012.05 C 278.726 1014.13 288.348 1014.51 294.686 1017.12 C 265.44 1017.94 232.741 999.345 222.806 971.101 C 213.079 943.45 220.82 921.894 231.103 896.363 C 235.299 885.944 238.813 875.678 243.678 865.419 C 238.104 854.854 239.041 848.565 245.403 838.436 z" fill="rgb(75,71,71)" transform="translate(0,0)"></path>
<path d="M 1429.18 1061.79 C 1429.5 1061.16 1429.84 1060.54 1430.19 1059.93 C 1433.24 1054.68 1445.34 1053.81 1451.35 1053.37 C 1445.5 1059.73 1437.61 1060.62 1429.18 1061.79 z" fill="rgb(75,71,71)" transform="translate(0,0)"></path>
<path d="M 360.155 632.691 C 398.263 636.841 447.688 634.143 487.444 636.956 C 481.551 657.164 473.04 683.16 468.447 702.99 C 462.805 717.426 455.65 744.919 451.174 760.336 L 423.25 855.517 C 418.628 871.546 404.146 914.606 402.009 928.215 C 409.014 929.702 422.475 933.789 425.68 925.072 C 424.962 917.248 428.475 912.885 425.966 904.947 C 429.071 898.084 440.317 857.349 445.457 855.046 C 447.024 850.627 448.447 845.385 449.731 840.815 C 468.857 772.792 488.987 705.124 509.501 637.506 C 529.435 637.867 549.365 638.388 569.29 639.069 L 505.908 886.575 C 503.987 894.386 494.64 925.065 495.523 930.849 C 496.894 931.871 496.317 931.68 497.896 932.05 C 503.434 931.633 507.823 931.227 513.368 930.383 C 516.393 924.402 518.619 915.566 519.506 908.907 C 519.568 908.44 513.863 904.329 513.559 902.12 C 512.366 893.47 517.665 895.265 522.612 891.459 C 523.601 890.657 526.629 883.764 527.657 882.073 C 531.4 875.915 529.029 866.766 530.968 859.86 C 534.064 847.43 538.551 835.265 541.653 822.831 C 541.517 823.378 538.712 813.561 538.676 811.574 C 540.676 811.944 542.554 812.777 544.454 813.522 C 547.177 808.738 546.513 807.588 547.106 802.377 C 548.173 788.801 553.339 776.93 557.253 764.461 C 560.383 754.492 553.714 747.765 561.514 735.833 C 561.232 738.813 560.326 744.929 561.17 747.435 C 565.141 738.89 563.082 723.757 571.044 718.715 L 591.001 639.901 L 882.25 650.026 C 875.105 718.441 867.537 786.812 859.55 855.134 C 856.191 884.615 853.511 913.403 849.777 942.966 C 857.64 943.199 873.425 944.954 879.361 941.039 C 881.685 936.237 884.61 893.43 885.471 884.511 C 890.109 838.882 894.392 793.218 898.319 747.523 C 901.123 715.923 903.48 682.212 907.406 650.899 C 924.47 651.662 946.94 651.285 962.83 652.639 C 958.892 718.143 951.506 786.904 948.451 851.704 C 937.337 862.749 934.271 876.746 945.253 889.12 C 943.828 919.844 944.012 942.606 906.704 950.219 C 900.077 951.571 891.283 951.262 884.532 950.923 C 845.628 948.967 805.735 949.603 766.938 947.304 C 765.789 947.233 764.641 947.15 763.494 947.056 C 754.087 934.278 732.3 935.734 721.615 946.621 L 485.554 939.634 C 455.397 938.922 425.254 937.742 395.134 936.095 C 384.381 935.565 364.209 935.22 354.054 933.577 C 349.365 932.845 345.04 930.613 341.727 927.215 C 328.261 913.163 344.472 884.976 348.271 868.96 C 358.965 858.758 369.099 846.742 356.616 833.367 C 370.574 798.323 382.867 754.945 395.37 718.684 C 401.079 702.127 418.09 656.819 421.073 641.715 C 418.878 637.29 406.919 638.39 402.405 638.447 C 395.119 656.803 388.416 678.905 381.891 697.806 L 353.169 779.153 C 347.729 795.024 340.673 818.725 334.285 833.563 C 316.498 833.04 298.171 831.45 280.926 831.061 C 280.76 829.552 281.385 826.52 282.134 824.593 C 306.637 761.571 328.646 697.216 353.874 634.61 C 354.449 633.182 358.34 632.971 360.155 632.691 z" fill="rgb(254,254,254)" transform="translate(0,0)"></path>
<path d="M 497.896 932.05 C 503.434 931.633 507.823 931.227 513.368 930.383 C 516.393 924.402 518.619 915.566 519.506 908.907 C 519.568 908.44 513.863 904.329 513.559 902.12 C 512.366 893.47 517.665 895.265 522.612 891.459 C 523.601 890.657 526.629 883.764 527.657 882.073 C 531.4 875.915 529.029 866.766 530.968 859.86 C 534.064 847.43 538.551 835.265 541.653 822.831 C 541.517 823.378 538.712 813.561 538.676 811.574 C 540.676 811.944 542.554 812.777 544.454 813.522 C 547.177 808.738 546.513 807.588 547.106 802.377 C 548.173 788.801 553.339 776.93 557.253 764.461 C 560.383 754.492 553.714 747.765 561.514 735.833 C 561.232 738.813 560.326 744.929 561.17 747.435 C 565.141 738.89 563.082 723.757 571.044 718.715 C 557.273 770.407 545.669 822.939 532.446 874.775 C 527.738 893.229 523.016 915.179 517.731 933.135 C 511.648 932.996 503.747 933.075 497.896 932.05 z" fill="rgb(75,71,71)" transform="translate(0,0)"></path>
<path d="M 425.68 925.072 C 424.962 917.248 428.475 912.885 425.966 904.947 C 429.071 898.084 440.317 857.349 445.457 855.046 C 441.373 870.615 437.11 886.136 432.667 901.605 C 431.154 906.975 427.709 920.399 425.68 925.072 z" fill="rgb(75,71,71)" transform="translate(0,0)"></path>
<path d="M 694.457 186.327 C 722.715 156.782 767.053 170.051 803.693 168.611 C 816.659 168.101 827.119 176.869 839.442 168.054 C 854.802 168.998 869.999 168.607 885.239 169.233 C 908.002 170.168 934.079 167.751 930.942 198.128 C 924.476 260.728 918.498 323.059 911.198 385.546 C 908.995 405.148 904.794 431.806 903.67 450.623 L 634.185 443.969 C 644.602 403.713 660.506 329.524 672.65 287.054 C 674.294 281.307 688.888 273.929 680.207 261.503 C 679.287 261.091 679.07 260.729 678.278 260.015 L 678.57 256.041 C 684.437 233.411 688.56 208.188 694.457 186.327 z" fill="rgb(254,254,254)" transform="translate(0,0)"></path>
<path d="M 1087.85 211.297 L 1089.14 211.355 C 1093.37 214.891 1098.12 217.046 1103.75 217.272 C 1109.38 217.532 1114.88 215.585 1119.09 211.845 C 1141.02 212.106 1162.95 212.517 1184.88 213.077 C 1199.57 213.349 1215.04 213.177 1229.59 214.971 C 1237.84 215.989 1258.12 222.059 1259.35 232.337 C 1261.19 247.921 1263.91 264.242 1263.69 279.928 C 1263.68 280.214 1255.84 288.947 1258.69 295.544 C 1261 300.885 1260.83 299.673 1265.86 302.74 C 1267.88 310.036 1271.49 355.131 1272.42 365.778 C 1275.01 395.42 1280.58 430.989 1281.11 460.15 L 1258.35 459.97 C 1242.53 460.495 1217.6 458.711 1200.66 458.357 L 1062.93 454.991 C 1062.93 439.865 1067.35 298.112 1068.71 296.009 C 1075.66 292.709 1079.17 287.031 1074.34 279.904 C 1073.26 279.249 1068.85 276.746 1068.79 275.373 C 1068.12 260.029 1067.9 232.327 1072.08 218.281 C 1073.33 214.107 1084.36 211.848 1087.85 211.297 z" fill="rgb(254,254,254)" transform="translate(0,0)"></path>
<path d="M 843.219 125.188 C 897.511 128.347 962.051 128.364 1016.8 129.152 L 1216.01 133.248 C 1222.15 137.777 1237.72 136.417 1246.03 136.553 C 1247.36 135.522 1249.54 133.998 1251.29 134.01 C 1292.11 134.286 1332.93 135.497 1373.74 136.665 C 1385.48 137.001 1397.15 137.446 1408.88 138.17 C 1375.86 160.091 1384 171.074 1390.05 206.353 L 1400.79 267.675 L 1433.41 463.153 C 1413.13 463.135 1392.85 462.817 1372.58 462.199 C 1366.37 410.531 1356.86 358.934 1350.44 307.283 C 1349.7 301.35 1365.67 293.021 1347.69 282.402 C 1345.57 276.357 1344.01 260.247 1343.08 253.23 C 1341 235.732 1337.95 218.247 1335.87 200.74 C 1335.13 193.468 1332.7 183.833 1327.72 178.244 C 1310.25 158.619 1276.07 162.537 1251.64 162.095 L 1173.55 160.48 C 1148.04 159.705 1122.53 159.074 1097.02 158.587 C 1068.08 158.038 1028.49 155.327 1004.46 175.231 C 988.133 188.757 994.624 243.936 990.785 264.806 C 989.186 273.502 984.147 275.109 983.107 283.548 C 982.078 291.906 988.856 293.401 988.017 301.182 C 984.341 351.579 980.467 402.03 976.834 452.423 C 960.589 452.908 942.459 452.062 926.056 451.598 C 927.495 440.989 928.017 429.708 929.15 418.951 C 937.127 343.215 943.194 266.96 949.436 191.089 C 952.352 155.643 908.688 156.043 884.31 156.06 C 869.6 156.071 853.745 155.475 838.623 155.186 L 843.219 125.188 z" fill="rgb(254,254,254)" transform="translate(0,0)"></path>
<path d="M 268.03 863.077 C 284.598 862.611 311.187 865.158 327.858 866.382 C 326.229 870.765 325.32 873.344 324.273 877.879 C 325.355 885.928 319.444 890.054 319.864 896.664 L 325.613 895.902 L 326.242 897.035 C 324.202 898.442 323.829 898.368 321.308 898.781 C 320.319 906.099 328.747 907.912 315.859 911.041 C 313.944 914.626 315.035 918.729 316.199 922.504 C 318.561 930.158 324.38 938.427 331.659 942.098 C 346.536 949.602 435.927 950.176 458.965 951.192 C 466.93 951.543 479.342 950.366 486.485 953.841 C 541.888 955.335 597.28 957.222 652.657 959.501 C 672.305 960.473 703.089 961.275 721.828 963.652 C 721.021 979.226 717.13 995.058 715.547 1010.99 C 689.84 1011.07 664.42 1009.73 638.747 1008.97 L 494.524 1004.24 C 456.258 1003 417.999 1001.55 379.749 999.878 C 346.542 998.389 305.949 998.766 274.549 988.429 C 262.528 984.472 251.701 975.111 246.409 963.322 C 242.874 955.439 241.475 946.765 242.352 938.17 C 243.699 924.856 262.282 878.053 268.03 863.077 z" fill="rgb(254,254,254)" transform="translate(0,0)"></path>
<path d="M 486.485 953.841 C 461.021 953.229 349.879 951.712 332.031 943.959 C 324.525 940.698 318.355 934.793 315.376 927.108 C 309.428 911.766 317.952 892.015 324.273 877.879 C 325.355 885.928 319.444 890.054 319.864 896.664 L 325.613 895.902 L 326.242 897.035 C 324.202 898.442 323.829 898.368 321.308 898.781 C 320.319 906.099 328.747 907.912 315.859 911.041 C 313.944 914.626 315.035 918.729 316.199 922.504 C 318.561 930.158 324.38 938.427 331.659 942.098 C 346.536 949.602 435.927 950.176 458.965 951.192 C 466.93 951.543 479.342 950.366 486.485 953.841 z" fill="rgb(75,71,71)" transform="translate(0,0)"></path>
<path d="M 1619.98 674.378 L 1742.74 678.017 C 1780.23 678.957 1818.11 679.128 1855.36 682.999 C 1859.04 683.381 1863.93 683.906 1867.36 683.851 C 1872.87 683.763 1892.75 679.769 1896.6 682.576 C 1903.24 687.417 1911.81 717.368 1914.13 725.214 L 1773.86 720.65 C 1750.27 719.928 1698.92 716.309 1679.76 721.612 C 1629.32 743.554 1641.47 774.407 1651.14 816.403 L 1670.36 899.047 C 1661.09 899.11 1623.87 900.281 1622.04 896.591 C 1614.24 880.869 1602.74 814.265 1598.34 796.248 C 1593.27 772.657 1587.4 749.343 1582.62 725.684 C 1577.04 698.075 1592.18 678.421 1619.98 674.378 z" fill="rgb(254,254,254)" transform="translate(0,0)"></path>
<path d="M 317.886 443.187 C 348.832 446.02 398.481 445.56 430.386 446.157 L 636.83 450.459 L 1387 469.503 L 1654.72 477.188 C 1703.53 478.478 1766.45 477.944 1814.16 482.192 C 1815.39 486.629 1816.48 491.939 1817.53 496.487 C 1811.57 496.925 1800.59 496.292 1794.25 496.09 C 1745.69 495.493 1696.47 492.413 1647.93 491.361 L 901.878 472.04 L 526.828 462.464 C 475.211 461.596 423.603 460.279 372.009 458.513 C 350.208 457.862 314.776 457.766 294.025 455.732 L 293.109 454.461 C 293.45 451.443 293.51 451.058 295.506 448.793 C 303.941 444.051 308.976 452.971 317.886 443.187 z" fill="rgb(254,254,254)" transform="translate(0,0)"></path>
<path d="M 1148.81 659.86 L 1254.96 662.758 C 1268.68 663.09 1311.54 663.147 1321.76 665.991 C 1329.58 668.166 1364.12 682.82 1374.52 686.823 C 1383.25 743.671 1387.04 802.653 1395.28 859.711 C 1396.52 868.276 1397.69 878.252 1398.02 886.875 C 1380.76 884.852 1351.99 884.737 1333.96 884.162 C 1328.98 853.675 1328.4 820.219 1323.95 789.481 C 1322.15 777.075 1322.21 764.158 1319.06 751.907 C 1315.35 734.392 1295.95 718.121 1278.03 715.336 C 1236.81 708.927 1189.9 711.439 1148.12 708.92 C 1148.04 692.563 1148.26 676.207 1148.81 659.86 z" fill="rgb(254,254,254)" transform="translate(0,0)"></path>
<path d="M 1436.89 139.077 C 1452.98 138.425 1473.5 139.636 1489.99 140.088 L 1585.81 142.665 C 1604.88 143.245 1623.96 143.583 1643.04 143.679 C 1659.61 143.727 1679.32 143.175 1695.52 145.083 C 1697.93 152.74 1700.4 160.374 1702.95 167.985 C 1656.96 167.835 1610.98 167.08 1565.01 165.72 C 1541.48 165.162 1452.37 154.776 1455.05 195.789 C 1456.6 219.362 1466.49 257.923 1471.69 282.182 C 1482.7 343.219 1496.37 403.981 1508.01 465.086 C 1491.6 465.048 1475.01 465.262 1458.64 464.297 C 1446.57 396.219 1434.08 328.218 1421.15 260.299 L 1409.99 201.652 C 1407.75 189.904 1404.23 174.354 1403.67 162.802 C 1412.3 147.784 1421.14 144.911 1436.89 139.077 z" fill="rgb(254,254,254)" transform="translate(0,0)"></path>
<path d="M 971.687 886.959 C 990.886 887.157 1011.87 888.261 1031.14 889.105 C 1031.11 896.332 1030.96 903.559 1030.71 910.782 C 1029.75 939.095 1029.3 973.397 1007.05 993.657 C 972.725 1024.92 926.728 1018.61 883.839 1016.91 L 810.524 1014.17 C 791.784 1013.99 770.576 1013.62 751.948 1012.26 C 752.501 1005.2 755.305 973.941 760.474 968.871 C 766.025 964.565 774.475 966.211 780.475 966.378 C 813.262 967.288 845.96 968.408 878.724 969.654 C 892.502 970.178 907.345 971.593 920.91 969.482 C 931.572 967.823 942.796 962.364 950.772 955.208 C 971.919 936.804 970.091 912.444 971.687 886.959 z" fill="rgb(254,254,254)" transform="translate(0,0)"></path>
<path d="M 1142.97 604.397 C 1163.23 603.702 1185.55 605.399 1206 605.736 C 1311.13 607.467 1416.21 611.743 1521.33 613.742 C 1527.6 613.861 1531.23 613.194 1532.78 619.406 L 1535.41 636.472 L 1537.92 654 C 1475.42 654.237 1409.9 649.99 1347.08 648.462 C 1279.09 646.808 1210.45 645.861 1142.54 643.542 L 1142.97 604.397 z" fill="rgb(254,254,254)" transform="translate(0,0)"></path>
<path d="M 984.57 653.207 L 1061.26 656.199 C 1071.08 656.573 1105.45 656.353 1111 661.714 C 1113.76 669.17 1111.89 697.257 1111.55 707.085 C 1089.32 706.368 1071.66 706.062 1053.76 722.506 C 1046.66 728.993 1041.42 737.259 1038.58 746.449 C 1033.74 761.665 1032.85 815.036 1031.97 834.5 L 1030.94 857.719 C 1013.9 858.002 990.524 856.38 973.052 855.623 C 974.742 808.677 979.574 760.504 981.896 713.454 C 983.015 690.771 1005.7 677.482 1019.92 662.918 L 1019.73 661.163 C 1014.78 656.828 1002.36 657.826 995.676 657.806 C 992.286 660.251 986.532 665.533 983.175 668.427 L 984.57 653.207 z" fill="rgb(254,254,254)" transform="translate(0,0)"></path>
<path d="M 614.05 528.335 C 651.813 527.672 694.448 529.898 732.557 531.116 C 786.35 532.532 840.136 534.237 893.911 536.231 C 893.044 546.898 891.227 575.42 887.925 586.542 C 887.643 587.491 885.661 587.287 884.25 587.38 C 850.241 586.868 816.345 585.173 782.356 584.218 L 602.027 579.8 L 614.05 528.335 z" fill="rgb(254,254,254)" transform="translate(0,0)"></path>
<path d="M 1060.17 540.44 C 1094 542.186 1130.43 541.98 1164.54 543.058 C 1205.37 544.349 1247.78 546.808 1288.43 547.032 C 1289.13 555.224 1293.82 592.564 1291.61 597.467 L 1288.25 598.037 L 1140.92 595.143 C 1136.31 591.085 1134.28 590.758 1128.32 590.057 C 1121.9 589.303 1115.6 588.75 1109.26 590.325 C 1106.99 590.888 1105.28 594.049 1102.87 593.983 C 1087.59 593.568 1072.3 593.105 1057.02 592.697 C 1056.98 578.313 1059.19 555.404 1060.17 540.44 z" fill="rgb(254,254,254)" transform="translate(0,0)"></path>
<path d="M 445.319 93.9914 C 702.826 96.0815 960.309 100.478 1217.74 107.182 C 1218.27 111.016 1219.85 118.192 1217.99 121.357 L 1215.25 121.839 C 1164.1 118.759 1105.76 119.677 1053.98 118.284 L 632.805 109.606 L 493.408 108.621 C 476.385 108.333 455.148 108.57 438.506 107.275 C 440.959 102.801 443.08 98.5554 445.319 93.9914 z" fill="rgb(254,254,254)" transform="translate(0,0)"></path>
<path d="M 680.745 124.158 C 689.603 122.922 712.093 124.042 721.777 124.022 C 753.484 123.954 786.147 125.751 817.831 125.118 C 816.495 135.093 815.016 145.049 813.393 154.982 C 776.263 156.377 687.442 140.948 674.914 191.221 C 673.228 200.559 662.795 251.4 657.749 258.398 C 653.918 263.712 615.664 260.931 606.645 258.451 C 614.801 235.401 620.766 207.175 627.676 183.461 C 630.255 174.614 633.131 162.226 635.878 153.929 C 640.3 140.57 667.725 129.944 680.745 124.158 z" fill="rgb(254,254,254)" transform="translate(0,0)"></path>
<path d="M 1572.05 617.395 C 1583.46 616.996 1600.84 617.97 1612.66 618.284 L 1690.36 620.414 L 1765.42 622.242 C 1786.38 622.737 1821.11 621.95 1839.71 627.841 C 1842.94 639.093 1844.32 652.413 1848.39 663 C 1804.3 663.331 1755.1 660.84 1710.99 659.075 L 1579.65 654.818 C 1576.8 642.017 1574.27 630.338 1572.05 617.395 z" fill="rgb(254,254,254)" transform="translate(0,0)"></path>
<path d="M 624.255 483.523 L 842.026 489.226 C 901.849 490.341 961.662 491.981 1021.46 494.144 C 1025.4 494.735 1036.59 494.934 1038.52 496.089 L 1038.44 496.916 C 1037.85 505.03 1037.33 513.149 1036.88 521.272 C 1022.58 521.173 1008.27 520.772 993.98 520.07 L 995.094 496.184 L 972.89 495.4 C 971.809 503.199 971.341 511.33 970.762 519.207 C 954.75 519.376 936.611 518.475 920.451 518 C 921.022 510.022 921.67 502.051 922.397 494.087 L 899.435 493.275 L 897.143 517.069 C 864.665 517.148 831.527 515.525 799.001 514.577 L 617.711 509.832 L 624.255 483.523 z" fill="rgb(254,254,254)" transform="translate(0,0)"></path>
<path d="M 1117.38 168.289 C 1153.75 168.707 1190.56 170.585 1227.18 170.97 C 1248.27 171.192 1274.99 171.197 1295.89 173.963 C 1304.6 175.116 1311.1 181.816 1315.72 189.081 C 1317.37 216.167 1323.21 253.636 1326.83 281.258 C 1319.27 281.395 1313.94 279.844 1309.48 286.215 C 1310.31 287.182 1311.15 287.351 1312.41 287.911 C 1313.66 290.649 1313.59 289.425 1312.53 292.52 C 1309.22 294.538 1310.74 294.054 1306.54 294.031 C 1303.65 292.383 1304.18 293.257 1303.21 290.708 C 1305.74 286.667 1306.88 286.133 1303.68 282.429 C 1299.15 281.039 1290.22 281.375 1285.16 281.342 C 1283.17 265.869 1282.32 249.875 1279.84 234.483 C 1273.7 196.224 1224.99 199.716 1194.97 199.043 L 1116.83 197.595 C 1116.88 187.856 1116.82 178.003 1117.38 168.289 z" fill="rgb(254,254,254)" transform="translate(0,0)"></path>
<path d="M 604.268 281.386 C 614.634 278.835 643.273 282.019 653.915 284.373 C 641.752 337.488 627.351 391.029 615.27 443.895 C 596.793 442.897 576.362 443.63 558.701 442.194 C 561.417 431.755 564.364 421.378 567.537 411.07 C 575.752 374.755 591.672 331.766 600.55 294.055 C 601.869 289.808 603.16 285.703 604.268 281.386 z" fill="rgb(254,254,254)" transform="translate(0,0)"></path>
<path d="M 487.97 276.052 C 493.694 283.317 509.998 275.003 516.573 281.684 C 507.349 317.696 492.015 354.832 480.837 390.482 C 475.761 406.67 469.616 424.971 463.397 440.627 C 457.811 440.257 451.738 440.177 446.105 439.992 C 436.438 439.486 426.763 439.133 417.085 438.932 C 420.211 425.842 472.994 282.644 474.987 280.279 C 477.543 277.247 484.025 279.139 487.554 276.409 C 487.699 276.297 487.832 276.171 487.97 276.052 z" fill="rgb(254,254,254)" transform="translate(0,0)"></path>
<path d="M 997.823 453.515 L 1004.71 347.505 C 1005.42 336.814 1007.02 303.901 1009.62 295.908 C 1014.6 293.168 1041.99 294.994 1049.88 294.979 C 1049.06 333.755 1045.66 377.134 1043.59 416.24 C 1043.28 421.347 1042.8 427.036 1042.8 432.106 L 1041.4 454.166 C 1026.87 454.189 1012.34 453.972 997.823 453.515 z" fill="rgb(254,254,254)" transform="translate(0,0)"></path>
<path d="M 1290.19 301.354 C 1298.19 301.164 1320.55 300.711 1326.85 303.854 C 1333.59 313.242 1341.35 414.936 1345.91 435.723 C 1346.76 439.601 1348.78 455.525 1348.9 460.039 L 1347.12 461.408 C 1333.76 461.64 1318.76 461.093 1305.28 460.87 C 1303.06 447.302 1301.62 430.224 1300.09 416.308 L 1290.78 332.201 C 1289.83 324.025 1288.05 312.84 1287.01 304.488 C 1286.82 302.969 1288.87 302.151 1290.19 301.354 z" fill="rgb(254,254,254)" transform="translate(0,0)"></path>
<path d="M 427.143 158.998 L 486.967 158.676 C 504.348 158.5 553.649 152.633 549.235 180.948 C 546.097 189.237 543.235 197.628 540.655 206.107 C 535.494 223.854 530.017 241.507 524.228 259.059 L 509.513 259.003 C 504.034 258.453 500.546 258.818 495.129 259.232 C 493.81 262.143 492.775 265.244 490.463 267.303 L 489.304 268.212 L 489.002 266.555 C 490.653 263.472 491.868 261.812 491.808 258.256 C 489.608 256.062 485.716 256.194 482.332 255.82 C 485.242 250.45 494.991 223.314 496.459 217.062 C 514.236 175.663 440.089 183.083 418.533 183.04 L 427.143 158.998 z" fill="rgb(254,254,254)" transform="translate(0,0)"></path>
<path d="M 1080.52 495.853 C 1096.78 495.767 1113.76 496.22 1130.04 496.926 C 1181.6 499.161 1233.42 499.027 1284.94 500.747 C 1285.65 509.509 1286.22 518.283 1286.65 527.063 C 1210.79 526.192 1134.99 522.876 1059.43 521.591 C 1059.72 515.755 1059.89 507.371 1060.49 501.755 C 1061.51 499.94 1060.99 499.489 1060.73 496.893 C 1061.72 496.241 1077.92 496.011 1080.52 495.853 z" fill="rgb(254,254,254)" transform="translate(0,0)"></path>
<path d="M 1056.22 168.373 C 1067.83 167.649 1079.5 167.968 1091.14 168.122 L 1090.79 197.144 C 1030.62 200.516 1062.15 238.401 1048.96 276.218 C 1048.42 277.745 1043.85 277.631 1042.29 277.753 C 1034.54 276.878 1012.37 278.683 1007.82 272.557 C 1007.21 264.493 1008.58 252.179 1009.3 243.672 C 1012.99 199.704 999.681 174.785 1056.22 168.373 z" fill="rgb(254,254,254)" transform="translate(0,0)"></path>
<path d="M 1383.61 549.699 L 1447.58 551.573 L 1455.9 601.663 L 1390.35 599.948 C 1388.78 583.32 1385.66 566.412 1383.61 549.699 z" fill="rgb(254,254,254)" transform="translate(0,0)"></path>
<path d="M 457.506 523.834 L 516.58 525.169 C 512.534 540.082 506.533 564.161 501.445 577.956 C 481.308 577.575 461.18 576.838 441.07 575.746 C 444.468 561.393 452.663 538.509 457.506 523.834 z" fill="rgb(254,254,254)" transform="translate(0,0)"></path>
<path d="M 536.688 525.945 C 555.634 526.221 574.577 526.717 593.512 527.433 C 591.705 535.487 583.237 576.742 579.94 580.087 C 560.343 579.685 540.751 579.103 521.164 578.342 C 526.121 560.812 531.296 543.345 536.688 525.945 z" fill="rgb(254,254,254)" transform="translate(0,0)"></path>
<path d="M 919.214 536.064 C 934.186 537.493 953.596 537.221 969.34 537.999 C 968.799 549.827 966.79 579.405 964.504 590.034 L 913.746 588.104 C 916.031 572.453 917.49 552.163 919.214 536.064 z" fill="rgb(254,254,254)" transform="translate(0,0)"></path>
<path d="M 390.672 521.225 C 406.218 521.826 421.309 522.213 436.888 523.09 C 433.974 531.985 422.733 567.985 418.784 575.261 C 403.049 575.16 386.857 574.456 371.09 573.937 C 376.58 556.891 384.338 538.32 390.672 521.225 z" fill="rgb(254,254,254)" transform="translate(0,0)"></path>
<path d="M 1474.28 552.053 C 1489.81 551.843 1507.22 552.613 1522.84 553.05 C 1525.96 569.975 1528.84 586.942 1531.49 603.948 C 1516.07 603.937 1499.56 603.211 1484 602.946 C 1480.3 587.486 1477 567.888 1474.28 552.053 z" fill="rgb(254,254,254)" transform="translate(0,0)"></path>
<path d="M 1312.78 548.847 L 1358.49 549.416 C 1359.85 566.104 1363.2 582.089 1364.31 599.82 C 1348.82 599.081 1332.77 598.957 1317.22 598.664 C 1316.6 583.964 1314.07 564.13 1312.78 548.847 z" fill="rgb(254,254,254)" transform="translate(0,0)"></path>
<path d="M 993.114 538.87 C 1003.74 538.251 1026.18 539.132 1037 539.816 C 1037.11 554.025 1034.8 576.694 1033.91 591.838 C 1020.58 590.707 1003.71 590.823 989.76 590.105 C 989.98 575.14 992.061 554.239 993.114 538.87 z" fill="rgb(254,254,254)" transform="translate(0,0)"></path>
<path d="M 1378.69 503.79 C 1399.27 503.99 1419.85 504.399 1440.42 505.016 C 1441.17 512.595 1443.15 522.796 1444.42 530.499 C 1425.43 530.905 1400.72 529.912 1381.78 529.126 C 1380.51 520.462 1379.31 512.52 1378.69 503.79 z" fill="rgb(254,254,254)" transform="translate(0,0)"></path>
<path d="M 472.043 479.944 C 490.867 479.668 509.961 480.503 528.813 481.012 C 527.444 488.897 524.357 499.398 521.716 507.031 C 502.064 507.082 482.412 506.723 462.775 505.955 L 472.043 479.944 z" fill="rgb(254,254,254)" transform="translate(0,0)"></path>
<path d="M 548.511 481.826 C 566.925 481.755 585.338 482.054 603.74 482.724 C 602.162 490.765 599.375 500.695 597.334 508.784 C 580.312 509.018 559.015 507.995 541.487 507.736 C 544.033 499.156 546.375 490.517 548.511 481.826 z" fill="rgb(254,254,254)" transform="translate(0,0)"></path>
<path d="M 1466.82 505.111 C 1482.66 505.54 1498.87 505.779 1514.63 506.963 C 1516.35 515.322 1517.95 523.704 1519.44 532.106 L 1470.77 531.386 C 1469.58 522.693 1468.04 513.889 1466.82 505.111 z" fill="rgb(254,254,254)" transform="translate(0,0)"></path>
<path d="M 405.386 478.232 C 419.895 478.058 436.4 478.883 451.058 479.326 C 447.87 487.65 444.825 496.823 441.833 505.283 L 396.116 504.764 C 398.443 495.339 402.681 487.884 405.386 478.232 z" fill="rgb(254,254,254)" transform="translate(0,0)"></path>
<path d="M 1308.72 501.9 C 1322.69 501.478 1338.65 502.165 1352.6 502.783 C 1354.09 510.032 1355.19 520.811 1356.18 528.386 C 1341.47 528.445 1325.9 527.955 1311.12 527.739 C 1310.46 519.113 1309.66 510.499 1308.72 501.9 z" fill="rgb(254,254,254)" transform="translate(0,0)"></path>
<path d="M 729.709 985.013 C 744.593 984.253 752.403 992.629 739.311 1003.46 C 726.56 1005.57 717.844 995.292 729.709 985.013 z" fill="rgb(254,254,254)" transform="translate(0,0)"></path>
<path d="M 286.544 837.831 C 301.216 836.183 303.436 849.543 290.387 856.275 C 284.579 855.53 281.323 855.67 277.82 850.454 C 276.539 842.94 280.426 840.892 286.544 837.831 z" fill="rgb(254,254,254)" transform="translate(0,0)"></path>
<path d="M 311.17 840.096 C 327.561 838.655 327.37 850.985 315.054 858.214 C 300.354 856.306 296.437 847.216 311.17 840.096 z" fill="rgb(254,254,254)" transform="translate(0,0)"></path>
<path d="M 1115.43 617.077 C 1122.03 616.619 1130.48 616.395 1132.05 624.403 C 1131.41 627.812 1130 628.662 1127.46 630.93 C 1121.14 631.321 1110.96 631.532 1110.61 623.11 C 1111.89 619.748 1112.73 619.264 1115.43 617.077 z" fill="rgb(254,254,254)" transform="translate(0,0)"></path>
<path d="M 1017.54 864.544 C 1021.72 862.741 1026.57 864.625 1028.43 868.774 C 1030.3 872.923 1028.49 877.802 1024.37 879.729 C 1021.65 881.003 1018.45 880.711 1016 878.966 C 1013.56 877.221 1012.24 874.294 1012.56 871.306 C 1012.88 868.318 1014.78 865.734 1017.54 864.544 z" fill="rgb(254,254,254)" transform="translate(0,0)"></path>
<path d="M 1126.66 684.056 C 1132.66 683.624 1141.1 683.641 1141.42 691.358 C 1139.76 694.559 1138.69 694.924 1135.64 696.631 C 1129.98 696.938 1121.14 696.426 1120.73 689.21 C 1122.04 686.232 1123.85 685.605 1126.66 684.056 z" fill="rgb(254,254,254)" transform="translate(0,0)"></path>
<path d="M 1647.68 906.854 C 1653.78 907.076 1660.43 909.56 1661.07 916.482 C 1659.66 920.572 1660.22 919.299 1656.76 922.352 C 1649.74 922.159 1645.35 921.012 1643.53 913.497 C 1643.96 909.965 1645.15 909.239 1647.68 906.854 z" fill="rgb(254,254,254)" transform="translate(0,0)"></path>
<path d="M 1550.6 627.841 C 1557.14 628.1 1563.12 629.405 1563.83 636.879 C 1562.7 640.171 1561.51 640.748 1558.78 642.762 C 1552.18 642.581 1548.32 641.419 1546.52 634.551 C 1547 631.004 1548.11 630.285 1550.6 627.841 z" fill="rgb(254,254,254)" transform="translate(0,0)"></path>
<path d="M 1369.79 894.925 C 1376.05 895.212 1381.26 895.638 1382.37 902.891 C 1381.36 906.341 1380.22 906.859 1377.38 908.908 C 1371.62 908.339 1363.96 907.563 1363.99 900.156 C 1365.27 897.185 1367.03 896.528 1369.79 894.925 z" fill="rgb(254,254,254)" transform="translate(0,0)"></path>
<path d="M 988.092 864.354 C 990.476 862.892 993.466 862.842 995.898 864.224 C 998.329 865.607 999.815 868.202 999.778 870.999 C 999.74 873.795 998.184 876.35 995.716 877.666 C 992.056 879.618 987.507 878.309 985.446 874.709 C 983.384 871.11 984.556 866.523 988.092 864.354 z" fill="rgb(254,254,254)" transform="translate(0,0)"></path>
<path d="M 1921.78 701.047 C 1927.45 700.36 1933.92 700.553 1936.48 706.775 C 1936.35 711.138 1936.61 709.654 1933.98 713.531 C 1928.4 714.205 1922.37 713.055 1919.65 707.576 C 1919.54 703.369 1919.16 705.062 1921.78 701.047 z" fill="rgb(254,254,254)" transform="translate(0,0)"></path>
<path d="M 1856.71 639.662 C 1861.62 640.422 1866.14 642.185 1868.24 647.004 C 1868.28 651.19 1868.5 649.74 1865.98 653.53 C 1859.47 653.414 1854.9 653.081 1852.88 646.063 C 1853.22 642.713 1854.36 641.971 1856.71 639.662 z" fill="rgb(254,254,254)" transform="translate(0,0)"></path>
<path d="M 402.179 163.636 C 407.325 163.062 412.076 161.999 414.788 167.402 C 413.302 171.33 413.963 170.073 410.468 172.852 C 405.512 173.04 401.683 173.08 398.363 169.041 C 399.147 165.517 399.045 166.468 402.179 163.636 z" fill="rgb(254,254,254)" transform="translate(0,0)"></path>
<path d="M 498.837 269.003 C 501.257 262.253 503.228 262.903 509.973 261.749 C 513.423 264.72 513.164 263.671 514.487 267.561 C 511.747 274.047 503.59 272.39 498.837 269.003 z" fill="rgb(254,254,254)" transform="translate(0,0)"></path>
<path d="M 629.9 264.92 C 634.817 265.049 637.911 265.03 640.71 269.568 C 639.927 273.021 640.541 271.733 637.095 274.547 C 632.204 274.719 629.404 275.202 626.245 271.04 C 626.803 267.12 626.678 268.245 629.9 264.92 z" fill="rgb(254,254,254)" transform="translate(0,0)"></path>
<path d="M 1097.08 179.859 C 1101.67 179.93 1105.14 179.748 1108.6 182.664 C 1108.75 186.387 1108.71 185.292 1106.24 188.904 C 1101.46 189.251 1099.56 189.496 1095.95 186.521 C 1095.3 182.563 1095.38 183.882 1097.08 179.859 z" fill="rgb(254,254,254)" transform="translate(0,0)"></path>
<path d="M 1021.46 494.144 C 1030.12 493.921 1072.64 494.494 1080.52 495.853 C 1077.92 496.011 1061.72 496.241 1060.73 496.893 C 1060.99 499.489 1061.51 499.94 1060.49 501.755 L 1060.03 498.961 C 1056.04 495.382 1044.32 496.758 1038.44 496.916 L 1038.52 496.089 C 1036.59 494.934 1025.4 494.735 1021.46 494.144 z" fill="rgb(217,217,217)" transform="translate(0,0)"></path>
<path d="M 823.275 138.127 C 827.85 137.582 830.834 136.759 834.107 140.396 C 834.447 143.295 833.481 144.215 831.911 146.743 C 828.523 146.606 824.33 146.404 821.801 144.155 C 821.051 140.686 820.968 142.151 823.275 138.127 z" fill="rgb(254,254,254)" transform="translate(0,0)"></path>
<path d="M 1032.87 278.704 C 1038.67 278.613 1038.41 278.363 1042.29 281.598 C 1043.5 285.716 1043.98 284.953 1042.69 288.252 C 1038.45 288.554 1035.72 289.278 1032.6 286.729 C 1032.05 283.325 1032.38 282.016 1032.87 278.704 z" fill="rgb(254,254,254)" transform="translate(0,0)"></path>
<path d="M 747.733 952.777 L 749.964 953.887 C 752.047 956.871 751.625 955.512 751.711 959.003 C 749.362 962.57 750.654 961.388 746.6 963.329 C 744.951 962.778 743.214 962.11 741.571 961.508 C 739.663 958.886 739.872 959.996 740.272 957.313 C 742.243 954.534 744.585 953.996 747.733 952.777 z" fill="rgb(254,254,254)" transform="translate(0,0)"></path>
<path d="M 419.936 100.333 C 421.411 100.105 422.891 99.9077 424.374 99.7423 C 428.208 99.3471 429.674 99.6018 432.385 101.775 C 432.358 104.876 432.508 103.766 430.728 106.68 C 425.939 106.664 422.006 107.635 419.233 103.543 L 419.936 100.333 z" fill="rgb(254,254,254)" transform="translate(0,0)"></path>
<path d="M 1710.04 154.338 C 1716.26 153.537 1718.9 152.15 1722.7 157.399 C 1716.61 158.918 1713.04 160.381 1710.04 154.338 z" fill="rgb(254,254,254)" transform="translate(0,0)"></path>
<path d="M 1462.6 672.537 C 1472.76 672.764 1482.91 673.242 1493.04 673.97 C 1501.63 732.159 1513.94 792.579 1524.46 850.593 C 1528.99 875.574 1532.72 901.176 1537.48 925.918 L 1552.96 1008.92 C 1555.46 1022.15 1558.43 1035.98 1560.67 1049.3 C 1561.14 1052.08 1558.83 1058.15 1557.29 1060.76 C 1546.56 1067.98 1530.53 1069.69 1527.24 1054.06 C 1518.08 1010.59 1511.26 966.414 1503.86 922.578 C 1489.38 839.351 1475.63 756.001 1462.6 672.537 z" fill="rgb(35,29,29)" transform="translate(0,0)"></path>
<metadata><recraft-signature>{"signed_by": "recraft", "signature_b64": "zpTCRXnjw2xPqIqm1FE9Jl5E3KVSusKcNSzCDrwK6Lub2xZrIrdQJsqWUy+IZSOlGwOwN9RpfM4tTMMzz0z8BA==", "signing_algo": "Ed25519", "generation_timestamp": 1777130390, "identifier": "5a6d6542-a976-475c-bf9f-63854a6bc6f1"}</recraft-signature></metadata></svg>