<svg width="707" height="248" viewBox="0 0 707 248" fill="none" xmlns="http://www.w3.org/2000/svg">
<path opacity="0.05" d="M125.876 224.445C182.606 224.445 228.596 179.292 228.596 123.593C228.596 67.8942 182.606 22.7412 125.876 22.7412C69.1454 22.7412 23.1562 67.8942 23.1562 123.593C23.1562 179.292 69.1454 224.445 125.876 224.445Z" stroke="white" stroke-width="0.659164"/>
<path opacity="0.05" d="M125.875 246.857C195.213 246.857 251.422 191.67 251.422 123.593C251.422 55.5166 195.213 0.32959 125.875 0.32959C56.5381 0.32959 0.329102 55.5166 0.329102 123.593C0.329102 191.67 56.5381 246.857 125.875 246.857Z" stroke="white" stroke-width="0.659164"/>
<path d="M125.875 196.101C166.662 196.101 199.726 163.638 199.726 123.593C199.726 83.5482 166.662 51.0852 125.875 51.0852C85.0885 51.0852 52.0244 83.5482 52.0244 123.593C52.0244 163.638 85.0885 196.101 125.875 196.101Z" stroke="white" stroke-width="23.7299"/>
<path d="M199.726 123.593C199.724 136.32 196.309 148.821 189.826 159.842C183.344 170.863 174.021 180.014 162.794 186.376C151.568 192.738 138.834 196.087 125.872 196.086C112.91 196.086 100.176 192.735 88.9502 186.372" stroke="#1F4ED8" stroke-width="19.7749" stroke-linecap="round"/>
<path d="M325.652 193.593H303.853V110.253H325.652V193.593ZM305.026 153.516L305.194 159.218C304.971 160.783 304.412 163.074 303.517 166.093C302.623 168.999 301.226 172.129 299.325 175.483C297.536 178.837 295.189 182.079 292.282 185.209C289.376 188.227 285.798 190.743 281.55 192.755C277.302 194.655 272.272 195.606 266.459 195.606C261.875 195.606 257.348 195.047 252.876 193.929C248.516 192.811 244.547 190.966 240.97 188.395C237.393 185.712 234.542 182.135 232.418 177.663C230.294 173.191 229.232 167.546 229.232 160.727V110.253H251.031V157.038C251.031 162.404 251.87 166.652 253.547 169.782C255.335 172.8 257.906 174.924 261.26 176.154C264.614 177.384 268.583 177.998 273.166 177.998C279.203 177.998 284.401 176.713 288.761 174.142C293.121 171.459 296.642 168.217 299.325 164.416C302.12 160.615 304.02 156.982 305.026 153.516ZM370.484 73.6974V92.8136H345.164V73.6974H370.484ZM346.841 110.253H368.64V193.593H346.841V110.253ZM392.045 76.7157H413.845V193.593H392.045V76.7157ZM437.57 76.7157H459.369V193.593H437.57V76.7157ZM530.549 195.606C520.041 195.606 510.762 193.929 502.713 190.575C494.776 187.221 488.572 182.358 484.1 175.986C479.628 169.502 477.392 161.565 477.392 152.175C477.392 142.784 479.628 134.847 484.1 128.363C488.572 121.768 494.776 116.793 502.713 113.439C510.762 110.085 520.041 108.408 530.549 108.408C541.057 108.408 550.224 110.085 558.05 113.439C565.987 116.793 572.191 121.768 576.663 128.363C581.135 134.847 583.37 142.784 583.37 152.175C583.37 161.565 581.135 169.502 576.663 175.986C572.191 182.358 565.987 187.221 558.05 190.575C550.224 193.929 541.057 195.606 530.549 195.606ZM530.549 178.837C536.362 178.837 541.561 177.831 546.144 175.818C550.839 173.694 554.528 170.676 557.211 166.763C559.894 162.739 561.236 157.876 561.236 152.175C561.236 146.473 559.894 141.61 557.211 137.586C554.528 133.45 550.895 130.32 546.312 128.195C541.728 126.071 536.474 125.009 530.549 125.009C524.736 125.009 519.482 126.071 514.787 128.195C510.091 130.32 506.346 133.394 503.552 137.418C500.869 141.443 499.527 146.362 499.527 152.175C499.527 157.876 500.869 162.739 503.552 166.763C506.235 170.676 509.924 173.694 514.619 175.818C519.314 177.831 524.624 178.837 530.549 178.837ZM599.485 110.253H621.285V193.593H599.485V110.253ZM660.02 108.408C665.163 108.408 669.914 109.079 674.274 110.421C678.633 111.762 682.434 113.83 685.676 116.625C688.918 119.42 691.433 122.997 693.222 127.357C695.011 131.605 695.905 136.692 695.905 142.617V193.593H674.106V146.473C674.106 139.43 672.373 134.288 668.908 131.046C665.554 127.692 660.02 126.016 652.307 126.016C646.493 126.016 641.239 127.133 636.544 129.369C631.849 131.605 628.048 134.456 625.141 137.921C622.235 141.275 620.558 144.796 620.111 148.486L619.943 139.934C620.502 136.021 621.788 132.22 623.8 128.531C625.812 124.842 628.495 121.488 631.849 118.47C635.314 115.34 639.395 112.88 644.09 111.091C648.785 109.303 654.095 108.408 660.02 108.408Z" fill="#F0F4FF"/>
</svg>
